G04 PROTEUS RS274X GERBER FILE*
%FSLAX45Y45*%
%MOMM*%
G01*
%ADD32R,0.609600X2.006600*%
%AMPPAD027*
4,1,4,
-1.181670,-0.197860,
-0.695660,0.975470,
1.181670,0.197860,
0.695660,-0.975470,
-1.181670,-0.197860,
0*%
%ADD33PPAD027*%
%AMPPAD008*
4,1,4,
-0.975470,0.695660,
0.197860,1.181670,
0.975470,-0.695660,
-0.197860,-1.181670,
-0.975470,0.695660,
0*%
%ADD18PPAD008*%
%AMPPAD007*
4,1,4,
-0.197860,1.181670,
0.975470,0.695660,
0.197860,-1.181670,
-0.975470,-0.695660,
-0.197860,1.181670,
0*%
%ADD17PPAD007*%
%AMPPAD028*
4,1,4,
0.695660,0.975470,
1.181670,-0.197860,
-0.695660,-0.975470,
-1.181670,0.197860,
0.695660,0.975470,
0*%
%ADD34PPAD028*%
%AMPPAD003*
4,1,4,
0.639430,0.216260,
0.299230,-0.605070,
-0.639430,-0.216260,
-0.299230,0.605070,
0.639430,0.216260,
0*%
%ADD13PPAD003*%
%AMPPAD023*
4,1,4,
1.088630,0.305120,
0.554020,-0.985540,
-1.088630,-0.305120,
-0.554020,0.985540,
1.088630,0.305120,
0*%
%ADD73PPAD023*%
%AMPPAD004*
4,1,4,
0.605070,-0.299230,
-0.216260,-0.639430,
-0.605070,0.299230,
0.216260,0.639430,
0.605070,-0.299230,
0*%
%ADD14PPAD004*%
%AMPPAD005*
4,1,4,
0.216260,-0.639430,
-0.605070,-0.299230,
-0.216260,0.639430,
0.605070,0.299230,
0.216260,-0.639430,
0*%
%ADD15PPAD005*%
%AMPPAD006*
4,1,4,
-0.299230,-0.605070,
-0.639430,0.216260,
0.299230,0.605070,
0.639430,-0.216260,
-0.299230,-0.605070,
0*%
%ADD16PPAD006*%
%AMPPAD020*
4,1,4,
0.985540,-0.554020,
-0.305120,-1.088630,
-0.985540,0.554020,
0.305120,1.088630,
0.985540,-0.554020,
0*%
%ADD28PPAD020*%
%AMPPAD021*
4,1,4,
0.305120,-1.088630,
-0.985540,-0.554020,
-0.305120,1.088630,
0.985540,0.554020,
0.305120,-1.088630,
0*%
%ADD29PPAD021*%
%AMPPAD022*
4,1,4,
-0.554020,-0.985540,
-1.088630,0.305120,
0.554020,0.985540,
1.088630,-0.305120,
-0.554020,-0.985540,
0*%
%ADD72PPAD022*%
%ADD35R,1.270000X2.032000*%
%AMPPAD030*
4,1,4,
0.898030,-0.179610,
0.179610,-0.898030,
-0.898030,0.179610,
-0.179610,0.898030,
0.898030,-0.179610,
0*%
%ADD36PPAD030*%
%AMPPAD031*
4,1,4,
0.179610,0.898030,
0.898030,0.179610,
-0.179610,-0.898030,
-0.898030,-0.179610,
0.179610,0.898030,
0*%
%ADD37PPAD031*%
%ADD38R,1.524000X1.016000*%
%ADD23R,2.032000X1.270000*%
%ADD39R,1.397000X1.778000*%
%ADD31C,0.203200*%
D32*
X+932000Y-2560000D03*
X+805000Y-2560000D03*
X+678000Y-2560000D03*
X+551000Y-2560000D03*
X+424000Y-2560000D03*
X+297000Y-2560000D03*
X+170000Y-2560000D03*
X+43000Y-2560000D03*
X-84000Y-2560000D03*
X-211000Y-2560000D03*
X-338000Y-2560000D03*
X-465000Y-2560000D03*
X-592000Y-2560000D03*
X-719000Y-2560000D03*
X-719000Y-1620000D03*
X-592000Y-1620000D03*
X-465000Y-1620000D03*
X-338000Y-1620000D03*
X-211000Y-1620000D03*
X-84000Y-1620000D03*
X+43000Y-1620000D03*
X+170000Y-1620000D03*
X+297000Y-1620000D03*
X+424000Y-1620000D03*
X+551000Y-1620000D03*
X+678000Y-1620000D03*
X+805000Y-1620000D03*
X+932000Y-1620000D03*
D33*
X-1510000Y+730000D03*
X-1620978Y+462075D03*
X-890000Y+220000D03*
X-1000978Y-47925D03*
D18*
X-740000Y+1440000D03*
X-1007925Y+1329022D03*
X-460000Y+780000D03*
X-727925Y+669022D03*
D17*
X+630000Y+1540000D03*
X+362075Y+1650978D03*
X+240000Y+850000D03*
X-27925Y+960978D03*
D34*
X+1490000Y+750000D03*
X+1379022Y+1017925D03*
X+770000Y+450000D03*
X+659022Y+717925D03*
D33*
X+1550000Y-730000D03*
X+1660978Y-462075D03*
X+870000Y-220000D03*
X+980978Y+47925D03*
D18*
X+450000Y-740000D03*
X+717925Y-629022D03*
D17*
X-187925Y-849022D03*
X+80000Y-960000D03*
D34*
X-1500000Y-750000D03*
X-1389022Y-1017925D03*
X-770000Y-470000D03*
X-659022Y-737925D03*
D33*
X-2760000Y+1500000D03*
X-2870978Y+1232075D03*
X-3010000Y+950000D03*
X-3120978Y+682075D03*
D13*
X-2810000Y+750000D03*
X-2598036Y+763925D03*
X-2669966Y+590273D03*
D73*
X-2610000Y+1100000D03*
X-2479888Y+1414119D03*
D18*
X-940000Y+3030000D03*
X-1207925Y+2919022D03*
X-1440000Y+2830000D03*
X-1707925Y+2719022D03*
D17*
X+1480000Y+2790000D03*
X+1212075Y+2900978D03*
X+950000Y+3020000D03*
X+682075Y+3130978D03*
D34*
X+2990000Y+1000000D03*
X+2879022Y+1267925D03*
X+2780000Y+1510000D03*
X+2669022Y+1777925D03*
D33*
X+2780000Y-1410000D03*
X+2890978Y-1142075D03*
X+2990000Y-910000D03*
X+3100978Y-642075D03*
D34*
X-2950000Y-990000D03*
X-2839022Y-1257925D03*
X-2750000Y-1490000D03*
X-2639022Y-1757925D03*
D14*
X-1470000Y+2580000D03*
X-1310273Y+2439966D03*
X-1483925Y+2368036D03*
D15*
X+730000Y+2900000D03*
X+743925Y+2688036D03*
X+570273Y+2759966D03*
D16*
X+2500000Y+1610000D03*
X+2359966Y+1450273D03*
X+2288036Y+1623925D03*
D13*
X+2860000Y-670000D03*
X+2648036Y-683925D03*
X+2719966Y-510273D03*
D16*
X-2470000Y-1550000D03*
X-2329966Y-1390273D03*
X-2258036Y-1563925D03*
D28*
X-1080000Y+2600000D03*
X-765881Y+2730112D03*
D29*
X+1090000Y+2620000D03*
X+1404119Y+2489888D03*
D72*
X+2580000Y+1160000D03*
X+2710112Y+845881D03*
D73*
X+2570000Y-1040000D03*
X+2439888Y-1354119D03*
D72*
X-2540000Y-1180000D03*
X-2670112Y-865881D03*
D35*
X+160000Y+2660000D03*
X-130000Y+2660000D03*
D36*
X-1690000Y+1410000D03*
X-1467290Y+1632710D03*
D37*
X-1086124Y+1688645D03*
X-1308835Y+1911356D03*
X-1077290Y-1572710D03*
X-1300000Y-1350000D03*
X-1477290Y-1922710D03*
X-1700000Y-1700000D03*
D29*
X-2680000Y+1820000D03*
X-2365881Y+1689888D03*
D72*
X-680000Y+3140000D03*
X-549888Y+2825881D03*
D73*
X+1770000Y+2690000D03*
X+1639888Y+2375881D03*
D28*
X+3100000Y+700000D03*
X+2785881Y+569888D03*
D29*
X+2670000Y-1730000D03*
X+2355881Y-1599888D03*
D28*
X-3050000Y-730000D03*
X-2735881Y-599888D03*
D38*
X+1050000Y+1750000D03*
X+1050000Y+1435040D03*
D23*
X+1700000Y+1300000D03*
X+1700000Y+1590000D03*
D39*
X+200000Y-550000D03*
X-140000Y-550000D03*
D38*
X+1710000Y+840000D03*
X+1710000Y+1154960D03*
D31*
X+3730000Y+5000D02*
X+3724161Y+213494D01*
X+3677111Y+630483D01*
X+3581154Y+1047472D01*
X+3432185Y+1464461D01*
X+3222850Y+1881450D01*
X+2940262Y+2298439D01*
X+2562518Y+2713270D01*
X+2145529Y+3053567D01*
X+1728540Y+3307277D01*
X+1311551Y+3493345D01*
X+894562Y+3622223D01*
X+477573Y+3699902D01*
X+60584Y+3729585D01*
X+5000Y+3730000D01*
X-3720000Y+5000D02*
X-3714161Y+213494D01*
X-3667111Y+630483D01*
X-3571154Y+1047472D01*
X-3422185Y+1464461D01*
X-3212850Y+1881450D01*
X-2930262Y+2298439D01*
X-2552518Y+2713270D01*
X-2135529Y+3053567D01*
X-1718540Y+3307277D01*
X-1301551Y+3493345D01*
X-884562Y+3622223D01*
X-467573Y+3699902D01*
X-50584Y+3729585D01*
X+5000Y+3730000D01*
X-3720000Y+5000D02*
X-3714161Y-203494D01*
X-3667111Y-620483D01*
X-3571154Y-1037472D01*
X-3422185Y-1454461D01*
X-3212850Y-1871450D01*
X-2930262Y-2288439D01*
X-2552518Y-2703270D01*
X-2135529Y-3043567D01*
X-1718540Y-3297277D01*
X-1301551Y-3483345D01*
X-884562Y-3612223D01*
X-467573Y-3689902D01*
X-50584Y-3719585D01*
X+5000Y-3720000D01*
X+3730000Y+5000D02*
X+3724161Y-203494D01*
X+3677111Y-620483D01*
X+3581154Y-1037472D01*
X+3432185Y-1454461D01*
X+3222850Y-1871450D01*
X+2940262Y-2288439D01*
X+2562518Y-2703270D01*
X+2145529Y-3043567D01*
X+1728540Y-3297277D01*
X+1311551Y-3483345D01*
X+894562Y-3612223D01*
X+477573Y-3689902D01*
X+60584Y-3719585D01*
X+5000Y-3720000D01*
M02*
