G04 PROTEUS RS274X GERBER FILE*
%FSLAX45Y45*%
%MOMM*%
G01*
%ADD44C,1.016000*%
%ADD20C,2.032000*%
%AMPPAD039*
4,1,36,
0.756770,0.167660,
0.416560,-0.653670,
0.404290,-0.676690,
0.388380,-0.696090,
0.369440,-0.711630,
0.348090,-0.723040,
0.324920,-0.730060,
0.300550,-0.732470,
0.275590,-0.730000,
0.250630,-0.722400,
-0.688030,-0.333590,
-0.711060,-0.321320,
-0.730460,-0.305410,
-0.745990,-0.286480,
-0.757400,-0.265130,
-0.764430,-0.241960,
-0.766840,-0.217590,
-0.764370,-0.192620,
-0.756770,-0.167660,
-0.416560,0.653670,
-0.404290,0.676690,
-0.388380,0.696090,
-0.369440,0.711630,
-0.348090,0.723040,
-0.324920,0.730060,
-0.300550,0.732470,
-0.275590,0.730000,
-0.250630,0.722400,
0.688030,0.333590,
0.711060,0.321320,
0.730460,0.305410,
0.745990,0.286480,
0.757400,0.265130,
0.764430,0.241960,
0.766840,0.217590,
0.764370,0.192620,
0.756770,0.167660,
0*%
%ADD45PPAD039*%
%AMPPAD040*
4,1,36,
0.653670,-0.416560,
-0.167660,-0.756770,
-0.192620,-0.764370,
-0.217590,-0.766840,
-0.241960,-0.764430,
-0.265130,-0.757400,
-0.286480,-0.745990,
-0.305410,-0.730460,
-0.321320,-0.711060,
-0.333590,-0.688030,
-0.722400,0.250630,
-0.730000,0.275590,
-0.732470,0.300550,
-0.730060,0.324920,
-0.723040,0.348090,
-0.711630,0.369440,
-0.696090,0.388380,
-0.676690,0.404290,
-0.653670,0.416560,
0.167660,0.756770,
0.192620,0.764370,
0.217590,0.766840,
0.241960,0.764430,
0.265130,0.757400,
0.286480,0.745990,
0.305410,0.730460,
0.321320,0.711060,
0.333590,0.688030,
0.722400,-0.250630,
0.730000,-0.275590,
0.732470,-0.300550,
0.730060,-0.324920,
0.723040,-0.348090,
0.711630,-0.369440,
0.696090,-0.388380,
0.676690,-0.404290,
0.653670,-0.416560,
0*%
%ADD46PPAD040*%
%AMPPAD041*
4,1,36,
0.167660,-0.756770,
-0.653670,-0.416560,
-0.676690,-0.404290,
-0.696090,-0.388380,
-0.711630,-0.369440,
-0.723040,-0.348090,
-0.730060,-0.324920,
-0.732470,-0.300550,
-0.730000,-0.275590,
-0.722400,-0.250630,
-0.333590,0.688030,
-0.321320,0.711060,
-0.305410,0.730460,
-0.286480,0.745990,
-0.265130,0.757400,
-0.241960,0.764430,
-0.217590,0.766840,
-0.192620,0.764370,
-0.167660,0.756770,
0.653670,0.416560,
0.676690,0.404290,
0.696090,0.388380,
0.711630,0.369440,
0.723040,0.348090,
0.730060,0.324920,
0.732470,0.300550,
0.730000,0.275590,
0.722400,0.250630,
0.333590,-0.688030,
0.321320,-0.711060,
0.305410,-0.730460,
0.286480,-0.745990,
0.265130,-0.757400,
0.241960,-0.764430,
0.217590,-0.766840,
0.192620,-0.764370,
0.167660,-0.756770,
0*%
%ADD47PPAD041*%
%AMPPAD042*
4,1,36,
-0.416560,-0.653670,
-0.756770,0.167660,
-0.764370,0.192620,
-0.766840,0.217590,
-0.764430,0.241960,
-0.757400,0.265130,
-0.745990,0.286480,
-0.730460,0.305410,
-0.711060,0.321320,
-0.688030,0.333590,
0.250630,0.722400,
0.275590,0.730000,
0.300550,0.732470,
0.324920,0.730060,
0.348090,0.723040,
0.369440,0.711630,
0.388380,0.696090,
0.404290,0.676690,
0.416560,0.653670,
0.756770,-0.167660,
0.764370,-0.192620,
0.766840,-0.217590,
0.764430,-0.241960,
0.757400,-0.265130,
0.745990,-0.286480,
0.730460,-0.305410,
0.711060,-0.321320,
0.688030,-0.333590,
-0.250630,-0.722400,
-0.275590,-0.730000,
-0.300550,-0.732470,
-0.324920,-0.730060,
-0.348090,-0.723040,
-0.369440,-0.711630,
-0.388380,-0.696090,
-0.404290,-0.676690,
-0.416560,-0.653670,
0*%
%ADD48PPAD042*%
%AMPPAD007*
4,1,4,
-0.197860,1.181670,
0.975470,0.695660,
0.197860,-1.181670,
-0.975470,-0.695660,
-0.197860,1.181670,
0*%
%ADD17PPAD007*%
%AMPPAD008*
4,1,4,
-0.975470,0.695660,
0.197860,1.181670,
0.975470,-0.695660,
-0.197860,-1.181670,
-0.975470,0.695660,
0*%
%ADD18PPAD008*%
%ADD12C,1.778000*%
%AMPPAD043*
4,1,36,
-1.016000,1.143000,
1.016000,1.143000,
1.041970,1.140470,
1.065980,1.133200,
1.087580,1.121650,
1.106290,1.106290,
1.121650,1.087570,
1.133200,1.065980,
1.140470,1.041970,
1.143000,1.016000,
1.143000,-1.016000,
1.140470,-1.041970,
1.133200,-1.065980,
1.121650,-1.087570,
1.106290,-1.106290,
1.087580,-1.121650,
1.065980,-1.133200,
1.041970,-1.140470,
1.016000,-1.143000,
-1.016000,-1.143000,
-1.041970,-1.140470,
-1.065980,-1.133200,
-1.087580,-1.121650,
-1.106290,-1.106290,
-1.121650,-1.087570,
-1.133200,-1.065980,
-1.140470,-1.041970,
-1.143000,-1.016000,
-1.143000,1.016000,
-1.140470,1.041970,
-1.133200,1.065980,
-1.121650,1.087570,
-1.106290,1.106290,
-1.087580,1.121650,
-1.065980,1.133200,
-1.041970,1.140470,
-1.016000,1.143000,
0*%
%ADD49PPAD043*%
%AMPPAD044*
4,1,36,
0.089800,1.526640,
1.526640,0.089800,
1.543220,0.069650,
1.555060,0.047530,
1.562160,0.024090,
1.564530,0.000000,
1.562150,-0.024100,
1.555060,-0.047530,
1.543220,-0.069650,
1.526640,-0.089800,
0.089800,-1.526640,
0.069650,-1.543220,
0.047530,-1.555060,
0.024100,-1.562150,
0.000000,-1.564530,
-0.024090,-1.562160,
-0.047530,-1.555060,
-0.069650,-1.543220,
-0.089800,-1.526640,
-1.526640,-0.089800,
-1.543220,-0.069650,
-1.555060,-0.047530,
-1.562160,-0.024090,
-1.564530,0.000000,
-1.562150,0.024100,
-1.555060,0.047530,
-1.543220,0.069650,
-1.526640,0.089800,
-0.089800,1.526640,
-0.069650,1.543220,
-0.047530,1.555060,
-0.024100,1.562150,
0.000000,1.564530,
0.024090,1.562160,
0.047530,1.555060,
0.069650,1.543220,
0.089800,1.526640,
0*%
%ADD50PPAD044*%
%ADD51C,2.286000*%
%AMPPAD046*
4,1,36,
-0.763320,0.134700,
-0.134700,0.763320,
-0.114550,0.779900,
-0.092430,0.791730,
-0.068990,0.798840,
-0.044900,0.801210,
-0.020800,0.798830,
0.002630,0.791730,
0.024750,0.779900,
0.044900,0.763320,
0.763320,0.044900,
0.779900,0.024750,
0.791730,0.002630,
0.798830,-0.020800,
0.801210,-0.044900,
0.798840,-0.068990,
0.791730,-0.092430,
0.779900,-0.114550,
0.763320,-0.134700,
0.134700,-0.763320,
0.114550,-0.779900,
0.092430,-0.791730,
0.068990,-0.798840,
0.044900,-0.801210,
0.020800,-0.798830,
-0.002630,-0.791730,
-0.024750,-0.779900,
-0.044900,-0.763320,
-0.763320,-0.044900,
-0.779900,-0.024750,
-0.791730,-0.002630,
-0.798830,0.020800,
-0.801210,0.044900,
-0.798840,0.068990,
-0.791730,0.092430,
-0.779900,0.114550,
-0.763320,0.134700,
0*%
%ADD52PPAD046*%
%AMPPAD047*
4,1,36,
-1.143000,-0.317500,
-1.143000,0.317500,
-1.140470,0.343470,
-1.133200,0.367480,
-1.121650,0.389080,
-1.106290,0.407790,
-1.087570,0.423150,
-1.065980,0.434700,
-1.041970,0.441970,
-1.016000,0.444500,
1.016000,0.444500,
1.041970,0.441970,
1.065980,0.434700,
1.087570,0.423150,
1.106290,0.407790,
1.121650,0.389080,
1.133200,0.367480,
1.140470,0.343470,
1.143000,0.317500,
1.143000,-0.317500,
1.140470,-0.343470,
1.133200,-0.367480,
1.121650,-0.389080,
1.106290,-0.407790,
1.087570,-0.423150,
1.065980,-0.434700,
1.041970,-0.441970,
1.016000,-0.444500,
-1.016000,-0.444500,
-1.041970,-0.441970,
-1.065980,-0.434700,
-1.087570,-0.423150,
-1.106290,-0.407790,
-1.121650,-0.389080,
-1.133200,-0.367480,
-1.140470,-0.343470,
-1.143000,-0.317500,
0*%
%ADD53PPAD047*%
%AMPPAD048*
4,1,4,
-1.016000,-0.635000,
-1.016000,0.635000,
1.016000,0.635000,
1.016000,-0.635000,
-1.016000,-0.635000,
0*%
%ADD54PPAD048*%
%AMPPAD049*
4,1,36,
-0.444500,0.635000,
0.444500,0.635000,
0.470470,0.632470,
0.494480,0.625200,
0.516080,0.613650,
0.534790,0.598290,
0.550150,0.579570,
0.561700,0.557980,
0.568970,0.533970,
0.571500,0.508000,
0.571500,-0.508000,
0.568970,-0.533970,
0.561700,-0.557980,
0.550150,-0.579570,
0.534790,-0.598290,
0.516080,-0.613650,
0.494480,-0.625200,
0.470470,-0.632470,
0.444500,-0.635000,
-0.444500,-0.635000,
-0.470470,-0.632470,
-0.494480,-0.625200,
-0.516080,-0.613650,
-0.534790,-0.598290,
-0.550150,-0.579570,
-0.561700,-0.557980,
-0.568970,-0.533970,
-0.571500,-0.508000,
-0.571500,0.508000,
-0.568970,0.533970,
-0.561700,0.557980,
-0.550150,0.579570,
-0.534790,0.598290,
-0.516080,0.613650,
-0.494480,0.625200,
-0.470470,0.632470,
-0.444500,0.635000,
0*%
%ADD55PPAD049*%
%AMPPAD050*
4,1,48,
-1.092800,-0.647060,
0.315190,-1.230270,
0.340070,-1.239190,
0.365100,-1.245470,
0.390140,-1.249190,
0.439640,-1.249200,
0.487330,-1.239700,
0.532010,-1.221190,
0.572440,-1.194190,
0.607440,-1.159180,
0.622520,-1.138850,
0.635770,-1.116700,
0.647060,-1.092800,
1.230270,0.315190,
1.239190,0.340070,
1.245470,0.365100,
1.249190,0.390140,
1.249190,0.439640,
1.239700,0.487320,
1.221200,0.532000,
1.194190,0.572450,
1.159180,0.607440,
1.138850,0.622520,
1.116700,0.635770,
1.092800,0.647060,
-0.315190,1.230270,
-0.340070,1.239190,
-0.365100,1.245470,
-0.390140,1.249190,
-0.439640,1.249200,
-0.487330,1.239700,
-0.532010,1.221190,
-0.572440,1.194190,
-0.607440,1.159180,
-0.622520,1.138850,
-0.635770,1.116700,
-0.647060,1.092800,
-1.230270,-0.315190,
-1.239190,-0.340070,
-1.245470,-0.365100,
-1.249190,-0.390140,
-1.249190,-0.439640,
-1.239700,-0.487320,
-1.221200,-0.532000,
-1.194190,-0.572450,
-1.159180,-0.607440,
-1.138850,-0.622520,
-1.116700,-0.635770,
-1.092800,-0.647060,
0*%
%ADD56PPAD050*%
%AMPPAD051*
4,1,48,
0.315190,1.230270,
-1.092800,0.647060,
-1.116700,0.635770,
-1.138850,0.622520,
-1.159180,0.607440,
-1.194190,0.572450,
-1.221200,0.532000,
-1.239700,0.487320,
-1.249190,0.439640,
-1.249190,0.390140,
-1.245470,0.365100,
-1.239190,0.340070,
-1.230270,0.315190,
-0.647060,-1.092800,
-0.635770,-1.116700,
-0.622520,-1.138850,
-0.607440,-1.159180,
-0.572440,-1.194190,
-0.532010,-1.221190,
-0.487330,-1.239700,
-0.439640,-1.249200,
-0.390140,-1.249190,
-0.365100,-1.245470,
-0.340070,-1.239190,
-0.315190,-1.230270,
1.092800,-0.647060,
1.116700,-0.635770,
1.138850,-0.622520,
1.159180,-0.607440,
1.194190,-0.572450,
1.221200,-0.532000,
1.239700,-0.487320,
1.249190,-0.439640,
1.249190,-0.390140,
1.245470,-0.365100,
1.239190,-0.340070,
1.230270,-0.315190,
0.647060,1.092800,
0.635770,1.116700,
0.622520,1.138850,
0.607440,1.159180,
0.572440,1.194190,
0.532010,1.221190,
0.487330,1.239700,
0.439640,1.249200,
0.390140,1.249190,
0.365100,1.245470,
0.340070,1.239190,
0.315190,1.230270,
0*%
%ADD57PPAD051*%
%AMPPAD052*
4,1,36,
-0.508000,0.889000,
0.508000,0.889000,
0.533970,0.886470,
0.557980,0.879200,
0.579580,0.867650,
0.598290,0.852290,
0.613650,0.833570,
0.625200,0.811980,
0.632470,0.787970,
0.635000,0.762000,
0.635000,-0.762000,
0.632470,-0.787970,
0.625200,-0.811980,
0.613650,-0.833570,
0.598290,-0.852290,
0.579580,-0.867650,
0.557980,-0.879200,
0.533970,-0.886470,
0.508000,-0.889000,
-0.508000,-0.889000,
-0.533970,-0.886470,
-0.557980,-0.879200,
-0.579580,-0.867650,
-0.598290,-0.852290,
-0.613650,-0.833570,
-0.625200,-0.811980,
-0.632470,-0.787970,
-0.635000,-0.762000,
-0.635000,0.762000,
-0.632470,0.787970,
-0.625200,0.811980,
-0.613650,0.833570,
-0.598290,0.852290,
-0.579580,0.867650,
-0.557980,0.879200,
-0.533970,0.886470,
-0.508000,0.889000,
0*%
%ADD58PPAD052*%
%AMPPAD053*
4,1,36,
1.034140,-0.671360,
-0.256520,-1.205970,
-0.281480,-1.213570,
-0.306450,-1.216040,
-0.330830,-1.213630,
-0.353990,-1.206600,
-0.375340,-1.195190,
-0.394280,-1.179660,
-0.410180,-1.160260,
-0.422460,-1.137230,
-1.102870,0.505420,
-1.110470,0.530390,
-1.112940,0.555350,
-1.110530,0.579720,
-1.103500,0.602890,
-1.092100,0.624240,
-1.076560,0.643180,
-1.057160,0.659080,
-1.034140,0.671360,
0.256520,1.205970,
0.281480,1.213570,
0.306450,1.216040,
0.330830,1.213630,
0.353990,1.206600,
0.375340,1.195190,
0.394280,1.179660,
0.410180,1.160260,
0.422460,1.137230,
1.102870,-0.505420,
1.110470,-0.530390,
1.112940,-0.555350,
1.110530,-0.579720,
1.103500,-0.602890,
1.092100,-0.624240,
1.076560,-0.643180,
1.057160,-0.659080,
1.034140,-0.671360,
0*%
%ADD59PPAD053*%
%AMPPAD054*
4,1,36,
0.256520,-1.205970,
-1.034140,-0.671360,
-1.057160,-0.659080,
-1.076560,-0.643180,
-1.092100,-0.624240,
-1.103500,-0.602890,
-1.110530,-0.579720,
-1.112940,-0.555350,
-1.110470,-0.530390,
-1.102870,-0.505420,
-0.422460,1.137230,
-0.410180,1.160260,
-0.394280,1.179660,
-0.375340,1.195190,
-0.353990,1.206600,
-0.330830,1.213630,
-0.306450,1.216040,
-0.281480,1.213570,
-0.256520,1.205970,
1.034140,0.671360,
1.057160,0.659080,
1.076560,0.643180,
1.092100,0.624240,
1.103500,0.602890,
1.110530,0.579720,
1.112940,0.555350,
1.110470,0.530390,
1.102870,0.505420,
0.422460,-1.137230,
0.410180,-1.160260,
0.394280,-1.179660,
0.375340,-1.195190,
0.353990,-1.206600,
0.330830,-1.213630,
0.306450,-1.216040,
0.281480,-1.213570,
0.256520,-1.205970,
0*%
%ADD60PPAD054*%
%AMPPAD055*
4,1,36,
-0.671360,-1.034140,
-1.205970,0.256520,
-1.213570,0.281480,
-1.216040,0.306450,
-1.213630,0.330830,
-1.206600,0.353990,
-1.195190,0.375340,
-1.179660,0.394280,
-1.160260,0.410180,
-1.137230,0.422460,
0.505420,1.102870,
0.530390,1.110470,
0.555350,1.112940,
0.579720,1.110530,
0.602890,1.103500,
0.624240,1.092100,
0.643180,1.076560,
0.659080,1.057160,
0.671360,1.034140,
1.205970,-0.256520,
1.213570,-0.281480,
1.216040,-0.306450,
1.213630,-0.330830,
1.206600,-0.353990,
1.195190,-0.375340,
1.179660,-0.394280,
1.160260,-0.410180,
1.137230,-0.422460,
-0.505420,-1.102870,
-0.530390,-1.110470,
-0.555350,-1.112940,
-0.579720,-1.110530,
-0.602890,-1.103500,
-0.624240,-1.092100,
-0.643180,-1.076560,
-0.659080,-1.057160,
-0.671360,-1.034140,
0*%
%ADD61PPAD055*%
%AMPPAD056*
4,1,36,
-1.205970,-0.256520,
-0.671360,1.034140,
-0.659080,1.057160,
-0.643180,1.076560,
-0.624240,1.092100,
-0.602890,1.103500,
-0.579720,1.110530,
-0.555350,1.112940,
-0.530390,1.110470,
-0.505420,1.102870,
1.137230,0.422460,
1.160260,0.410180,
1.179660,0.394280,
1.195190,0.375340,
1.206600,0.353990,
1.213630,0.330830,
1.216040,0.306450,
1.213570,0.281480,
1.205970,0.256520,
0.671360,-1.034140,
0.659080,-1.057160,
0.643180,-1.076560,
0.624240,-1.092100,
0.602890,-1.103500,
0.579720,-1.110530,
0.555350,-1.112940,
0.530390,-1.110470,
0.505420,-1.102870,
-1.137230,-0.422460,
-1.160260,-0.410180,
-1.179660,-0.394280,
-1.195190,-0.375340,
-1.206600,-0.353990,
-1.213630,-0.330830,
-1.216040,-0.306450,
-1.213570,-0.281480,
-1.205970,-0.256520,
0*%
%ADD62PPAD056*%
%ADD63C,6.508000*%
%ADD31C,0.203200*%
D44*
X+533400Y-1463040D03*
X+3078480Y+441960D03*
X-3032760Y-426720D03*
X+853440Y+2529840D03*
X+1249680Y+2712720D03*
X+1158240Y+1859280D03*
X+1402080Y+1859280D03*
X+1478280Y-2926080D03*
X+2377440Y+868680D03*
X-838200Y-2499360D03*
X-1341120Y+2575560D03*
X-899160Y-2682240D03*
X+502920Y+3169920D03*
X+1310640Y-2148840D03*
X+289560Y+655320D03*
X+792480Y-822960D03*
X-350520Y+2011680D03*
X-1112520Y+1935480D03*
X+1737360Y-1188720D03*
X+2270760Y-1432560D03*
X-2316480Y+1524000D03*
X-1386840Y-2362200D03*
X-213360Y-2392680D03*
X-2407920Y-1798320D03*
X-243840Y-1981200D03*
X+1402080Y-121920D03*
X-1600200Y-2438400D03*
X-1234440Y+944880D03*
X-1905000Y+457200D03*
X-640080Y+3291840D03*
X+198120Y-777240D03*
X-1569720Y-1310640D03*
X-1569720Y-1051560D03*
X+243840Y-1981200D03*
X+167640Y-2727960D03*
X-594360Y-1828800D03*
X+1036320Y+767080D03*
X+2849880Y-548640D03*
X+259080Y-1783080D03*
X+1828800Y-2423160D03*
X-335280Y-2316480D03*
X-1752600Y-1920240D03*
X-1691640Y+1584960D03*
X-1112520Y-1356360D03*
X-518160Y-1905000D03*
X-2834640Y+868680D03*
X-487680Y+2346960D03*
X+411480Y-1981200D03*
X+1066800Y-807720D03*
X+365760Y+121920D03*
X+3322320Y-320040D03*
X-762000Y-3017520D03*
X-2316480Y-2499360D03*
X-3276600Y-1432560D03*
X-2499360Y-1021080D03*
X-1783080Y+990600D03*
X+701040Y-891540D03*
X+365760Y-563880D03*
X-1021080Y-716280D03*
X-1356360Y-259080D03*
X+1005840Y-1051560D03*
X+1752600Y-1981200D03*
X+1935480Y-381000D03*
X+1752600Y-1844040D03*
X-731520Y-929640D03*
X-624840Y-152400D03*
X+1828800Y-899160D03*
X+1844040Y-472440D03*
X+1676400Y+1950720D03*
X-518160Y-45720D03*
X-2316480Y-1920240D03*
X-2164080Y-1920240D03*
X+1615440Y+2209800D03*
X+2529840Y-746760D03*
X-1920240Y-1432560D03*
X+2377440Y+472440D03*
X+2103120Y+1615440D03*
X-1341120Y+2301240D03*
X-396240Y+2514600D03*
X-1935480Y+1524000D03*
X-1661160Y-1127760D03*
X-1158240Y+807720D03*
X-1112520Y+1844040D03*
X+1737360Y-929640D03*
X+1051560Y+1539240D03*
X+2530000Y+1430000D03*
D20*
X-1330000Y+420000D03*
X-1232798Y+654665D03*
X-1100000Y+320000D03*
X-1002798Y+554665D03*
D45*
X-1080000Y+950000D03*
X-939966Y+790273D03*
X-868036Y+963925D03*
D20*
X-650000Y+1240000D03*
X-415335Y+1337202D03*
X-550000Y+1010000D03*
X-315335Y+1107202D03*
X+420000Y+1340000D03*
X+654665Y+1242798D03*
X+320000Y+1100000D03*
X+554665Y+1002798D03*
X+1240000Y+650000D03*
X+1337202Y+415335D03*
X+1000000Y+550000D03*
X+1097202Y+315335D03*
X+1340000Y-420000D03*
X+1242798Y-654665D03*
X+1100000Y-320000D03*
X+1002798Y-554665D03*
X+650000Y-1240000D03*
X+415335Y-1337202D03*
X+560000Y-1010000D03*
X+325335Y-1107202D03*
X-410000Y-1330000D03*
X-644665Y-1232798D03*
X-320000Y-1110000D03*
X-554665Y-1012798D03*
X-1240000Y-650000D03*
X-1337202Y-415335D03*
X-1000000Y-560000D03*
X-1097202Y-325335D03*
D46*
X-100000Y+1430000D03*
X-113925Y+1218036D03*
X+59727Y+1289966D03*
D47*
X+820000Y+910000D03*
X+660273Y+769966D03*
X+833925Y+698036D03*
D48*
X+1420000Y+100000D03*
X+1208036Y+113925D03*
X+1279966Y-59727D03*
D45*
X+1060000Y-930000D03*
X+919966Y-770273D03*
X+848036Y-943925D03*
D46*
X+100000Y-1390000D03*
X+113925Y-1178036D03*
X-59727Y-1249966D03*
D47*
X-879727Y-940034D03*
X-720000Y-800000D03*
X-893652Y-728070D03*
D48*
X-1440000Y-130000D03*
X-1228036Y-143925D03*
X-1299966Y+29727D03*
D17*
X-633525Y-1626222D03*
X-365600Y-1737200D03*
D18*
X+542075Y-1670978D03*
X+810000Y-1560000D03*
D12*
X+203200Y+2300000D03*
X+0Y+2300000D03*
X-203200Y+2300000D03*
D20*
X-3501235Y+435864D03*
X-2774137Y+2191235D03*
X-2190000Y+2810001D03*
X-434628Y+3537099D03*
X+440000Y+3530000D03*
X+2195371Y+2802902D03*
X+2800001Y+2200000D03*
X+3527099Y+444628D03*
X+3529999Y-430001D03*
X+2802901Y-2185372D03*
X+2200000Y-2790000D03*
X+444628Y-3517098D03*
X-430000Y-3520000D03*
X-2185371Y-2792902D03*
X-2800001Y-2180000D03*
X-3527099Y-424628D03*
D49*
X-124000Y+1880000D03*
X+130000Y+1880000D03*
D50*
X+1300000Y-1080000D03*
X+1479605Y-1259605D03*
X+1659210Y-1439210D03*
D20*
X-1184666Y-2032798D03*
X-950000Y-2130000D03*
D51*
X+1040790Y+1240000D03*
X+1400000Y+1599210D03*
X+1400000Y+1240000D03*
D52*
X-1370000Y+1390000D03*
X-1438250Y+1591158D03*
X-1571158Y+1458250D03*
D51*
X-1130000Y-1170000D03*
X-1489210Y-1529210D03*
D53*
X-513750Y+3028199D03*
X-513749Y+2901200D03*
X-513750Y+2774200D03*
X-513750Y+2647200D03*
X+6950Y+2647200D03*
X+6950Y+2774200D03*
X+6951Y+2901200D03*
X+6951Y+3028200D03*
D54*
X+372000Y+2615300D03*
X+372000Y+2905300D03*
D50*
X+1080000Y-1290000D03*
X+1259605Y-1469605D03*
X+1439210Y-1649210D03*
D49*
X-104700Y-193100D03*
X+149300Y-193100D03*
D55*
X+43600Y-2164200D03*
X+137580Y-1973700D03*
X-50380Y-1973700D03*
D56*
X+849030Y+2295670D03*
D12*
X+1080000Y+2200000D03*
D57*
X-704515Y+2317835D03*
D20*
X-935485Y+2222165D03*
D58*
X-400000Y+3200000D03*
X-85040Y+3200000D03*
X+300000Y+3100000D03*
X+614960Y+3100000D03*
X+300000Y+3300000D03*
X+614960Y+3300000D03*
D18*
X+850000Y-3350000D03*
X+1117925Y-3239022D03*
X+1400000Y-3100000D03*
X+1667925Y-2989022D03*
D17*
X-1850000Y-2950000D03*
X-1582075Y-3060978D03*
X-1250000Y-3200000D03*
X-982075Y-3310978D03*
D59*
X+960000Y-2910000D03*
X+645881Y-3040112D03*
D60*
X-1450000Y-2700000D03*
X-1764119Y-2569888D03*
D61*
X+500000Y-3250000D03*
X+369888Y-2935881D03*
D62*
X-2050000Y-2600000D03*
X-1919888Y-2285881D03*
D46*
X+1320000Y-2590000D03*
X+1306075Y-2801964D03*
X+1479727Y-2730034D03*
D47*
X-900000Y-2800000D03*
X-1059727Y-2940034D03*
X-886075Y-3011964D03*
D63*
X-1990000Y+0D03*
X+2000000Y+0D03*
D31*
X+3730000Y+5000D02*
X+3724161Y+213494D01*
X+3677111Y+630483D01*
X+3581154Y+1047472D01*
X+3432185Y+1464461D01*
X+3222850Y+1881450D01*
X+2940262Y+2298439D01*
X+2562518Y+2713270D01*
X+2145529Y+3053567D01*
X+1728540Y+3307277D01*
X+1311551Y+3493345D01*
X+894562Y+3622223D01*
X+477573Y+3699902D01*
X+60584Y+3729585D01*
X+5000Y+3730000D01*
X-3720000Y+5000D02*
X-3714161Y+213494D01*
X-3667111Y+630483D01*
X-3571154Y+1047472D01*
X-3422185Y+1464461D01*
X-3212850Y+1881450D01*
X-2930262Y+2298439D01*
X-2552518Y+2713270D01*
X-2135529Y+3053567D01*
X-1718540Y+3307277D01*
X-1301551Y+3493345D01*
X-884562Y+3622223D01*
X-467573Y+3699902D01*
X-50584Y+3729585D01*
X+5000Y+3730000D01*
X-3720000Y+5000D02*
X-3714161Y-203494D01*
X-3667111Y-620483D01*
X-3571154Y-1037472D01*
X-3422185Y-1454461D01*
X-3212850Y-1871450D01*
X-2930262Y-2288439D01*
X-2552518Y-2703270D01*
X-2135529Y-3043567D01*
X-1718540Y-3297277D01*
X-1301551Y-3483345D01*
X-884562Y-3612223D01*
X-467573Y-3689902D01*
X-50584Y-3719585D01*
X+5000Y-3720000D01*
X+3730000Y+5000D02*
X+3724161Y-203494D01*
X+3677111Y-620483D01*
X+3581154Y-1037472D01*
X+3432185Y-1454461D01*
X+3222850Y-1871450D01*
X+2940262Y-2288439D01*
X+2562518Y-2703270D01*
X+2145529Y-3043567D01*
X+1728540Y-3297277D01*
X+1311551Y-3483345D01*
X+894562Y-3612223D01*
X+477573Y-3689902D01*
X+60584Y-3719585D01*
X+5000Y-3720000D01*
M02*
