G04 PROTEUS RS274X GERBER FILE*
%FSLAX45Y45*%
%MOMM*%
G01*
%ADD10C,0.254000*%
%ADD11C,0.762000*%
%ADD12C,1.778000*%
%AMPPAD003*
4,1,4,
0.639430,0.216260,
0.299230,-0.605070,
-0.639430,-0.216260,
-0.299230,0.605070,
0.639430,0.216260,
0*%
%ADD13PPAD003*%
%AMPPAD004*
4,1,4,
0.605070,-0.299230,
-0.216260,-0.639430,
-0.605070,0.299230,
0.216260,0.639430,
0.605070,-0.299230,
0*%
%ADD14PPAD004*%
%AMPPAD005*
4,1,4,
0.216260,-0.639430,
-0.605070,-0.299230,
-0.216260,0.639430,
0.605070,0.299230,
0.216260,-0.639430,
0*%
%ADD15PPAD005*%
%AMPPAD006*
4,1,4,
-0.299230,-0.605070,
-0.639430,0.216260,
0.299230,0.605070,
0.639430,-0.216260,
-0.299230,-0.605070,
0*%
%ADD16PPAD006*%
%AMPPAD007*
4,1,4,
-0.197860,1.181670,
0.975470,0.695660,
0.197860,-1.181670,
-0.975470,-0.695660,
-0.197860,1.181670,
0*%
%ADD17PPAD007*%
%AMPPAD008*
4,1,4,
-0.975470,0.695660,
0.197860,1.181670,
0.975470,-0.695660,
-0.197860,-1.181670,
-0.975470,0.695660,
0*%
%ADD18PPAD008*%
%ADD19C,1.524000*%
%ADD70R,2.032000X2.032000*%
%AMPPAD011*
4,1,4,
0.000000,1.436840,
1.436840,0.000000,
0.000000,-1.436840,
-1.436840,0.000000,
0.000000,1.436840,
0*%
%ADD71PPAD011*%
%ADD20C,2.032000*%
%AMPPAD013*
4,1,4,
-0.673520,0.044900,
-0.044900,0.673520,
0.673520,-0.044900,
0.044900,-0.673520,
-0.673520,0.044900,
0*%
%ADD21PPAD013*%
%ADD22R,2.032000X0.635000*%
%ADD23R,2.032000X1.270000*%
%ADD24R,0.889000X1.016000*%
%AMPPAD017*
4,1,4,
0.412390,-0.995600,
-0.995600,-0.412390,
-0.412390,0.995600,
0.995600,0.412390,
0.412390,-0.995600,
0*%
%ADD25PPAD017*%
%AMPPAD018*
4,1,4,
-0.995600,0.412390,
0.412390,0.995600,
0.995600,-0.412390,
-0.412390,-0.995600,
-0.995600,0.412390,
0*%
%ADD26PPAD018*%
%ADD27R,1.016000X1.524000*%
%AMPPAD020*
4,1,4,
0.985540,-0.554020,
-0.305120,-1.088630,
-0.985540,0.554020,
0.305120,1.088630,
0.985540,-0.554020,
0*%
%ADD28PPAD020*%
%AMPPAD021*
4,1,4,
0.305120,-1.088630,
-0.985540,-0.554020,
-0.305120,1.088630,
0.985540,0.554020,
0.305120,-1.088630,
0*%
%ADD29PPAD021*%
%AMPPAD022*
4,1,4,
-0.554020,-0.985540,
-1.088630,0.305120,
0.554020,0.985540,
1.088630,-0.305120,
-0.554020,-0.985540,
0*%
%ADD72PPAD022*%
%AMPPAD023*
4,1,4,
-1.088630,-0.305120,
-0.554020,0.985540,
1.088630,0.305120,
0.554020,-0.985540,
-1.088630,-0.305120,
0*%
%ADD73PPAD023*%
%ADD30C,6.000000*%
%ADD31C,0.203200*%
G36*
X+196363Y+3664019D02*
X+387448Y+3649005D01*
X+393513Y+3648207D01*
X+342799Y+3627201D01*
X+302537Y+3530000D01*
X+342799Y+3432799D01*
X+382923Y+3416179D01*
X+382923Y+3414299D01*
X+211101Y+3414299D01*
X+211101Y+3350799D01*
X+197539Y+3350799D01*
X+86361Y+3239621D01*
X+86361Y+3098049D01*
X+3859Y+3098049D01*
X+3859Y+3314299D01*
X-173939Y+3314299D01*
X-173939Y+3250799D01*
X-186141Y+3250799D01*
X-215899Y+3221041D01*
X-215899Y+3047799D01*
X-145501Y+2977401D01*
X-132748Y+2977401D01*
X-132748Y+2844049D01*
X-132749Y+2844049D01*
X-132749Y+2824999D01*
X-156759Y+2824999D01*
X-324400Y+2992640D01*
X-269241Y+3047798D01*
X-269241Y+3221041D01*
X-298999Y+3250799D01*
X-311101Y+3250799D01*
X-311101Y+3314299D01*
X-488899Y+3314299D01*
X-488899Y+3098048D01*
X-653449Y+3098048D01*
X-653449Y+3012439D01*
X-666201Y+3012439D01*
X-782319Y+2896321D01*
X-782319Y+2817579D01*
X-840887Y+2876147D01*
X-2079936Y+2876147D01*
X-2092799Y+2907202D01*
X-2181829Y+2944080D01*
X-2160052Y+2960940D01*
X-1999879Y+3071838D01*
X-1834382Y+3173866D01*
X-1664052Y+3266795D01*
X-1489316Y+3350453D01*
X-1310733Y+3424632D01*
X-1128761Y+3489196D01*
X-943934Y+3544006D01*
X-756757Y+3588960D01*
X-567765Y+3623975D01*
X-534282Y+3628379D01*
X-551049Y+3587898D01*
X-577445Y+3587898D01*
X-690879Y+3474464D01*
X-690879Y+3348803D01*
X-716279Y+3323403D01*
X-716279Y+3260277D01*
X-671643Y+3215641D01*
X-608517Y+3215641D01*
X-563881Y+3260277D01*
X-563881Y+3323403D01*
X-589281Y+3348803D01*
X-589281Y+3432382D01*
X-546455Y+3475208D01*
X-531829Y+3439898D01*
X-434628Y+3399636D01*
X-337427Y+3439898D01*
X-297165Y+3537099D01*
X-337427Y+3634300D01*
X-373649Y+3649304D01*
X-186363Y+3664019D01*
X+5000Y+3669019D01*
X+196363Y+3664019D01*
G37*
G36*
X+577765Y+3623975D02*
X+766757Y+3588960D01*
X+953934Y+3544006D01*
X+1138761Y+3489196D01*
X+1320733Y+3424632D01*
X+1499316Y+3350453D01*
X+1674052Y+3266795D01*
X+1844382Y+3173866D01*
X+2009879Y+3071838D01*
X+2170052Y+2960940D01*
X+2198073Y+2939246D01*
X+2195371Y+2940365D01*
X+2098170Y+2900103D01*
X+2057908Y+2802902D01*
X+2098170Y+2705701D01*
X+2195371Y+2665439D01*
X+2292572Y+2705701D01*
X+2332834Y+2802902D01*
X+2313315Y+2850024D01*
X+2324434Y+2841416D01*
X+2472564Y+2713535D01*
X+2614009Y+2577568D01*
X+2748372Y+2433774D01*
X+2844606Y+2318987D01*
X+2800001Y+2337463D01*
X+2702800Y+2297201D01*
X+2662538Y+2200000D01*
X+2679159Y+2159875D01*
X+2649522Y+2130238D01*
X+2649520Y+2130238D01*
X+2619763Y+2100480D01*
X+2520801Y+2001518D01*
X+1733363Y+2001519D01*
X+1707963Y+2026919D01*
X+1672041Y+2026919D01*
X+1631401Y+2067559D01*
X-8281Y+2067559D01*
X-56141Y+2019699D01*
X-263699Y+2019699D01*
X-263699Y+1740301D01*
X+269699Y+1740301D01*
X+269699Y+1742441D01*
X+1904279Y+1742441D01*
X+2026921Y+1619799D01*
X+2026921Y+1583877D01*
X+2071557Y+1539241D01*
X+2134683Y+1539241D01*
X+2179319Y+1583877D01*
X+2179319Y+1647003D01*
X+2134683Y+1691639D01*
X+2098761Y+1691639D01*
X+1946361Y+1844039D01*
X+1478279Y+1844039D01*
X+1478279Y+1890843D01*
X+1433643Y+1935479D01*
X+1370517Y+1935479D01*
X+1345117Y+1910079D01*
X+1215203Y+1910079D01*
X+1189803Y+1935479D01*
X+1126677Y+1935479D01*
X+1082041Y+1890843D01*
X+1082041Y+1844039D01*
X+269699Y+1844039D01*
X+269699Y+1965961D01*
X+1589319Y+1965961D01*
X+1600201Y+1955079D01*
X+1600201Y+1919157D01*
X+1644837Y+1874521D01*
X+1707963Y+1874521D01*
X+1733363Y+1899921D01*
X+2562885Y+1899922D01*
X+2691602Y+2028639D01*
X+2691604Y+2028639D01*
X+2747322Y+2084358D01*
X+2800001Y+2062537D01*
X+2897202Y+2102799D01*
X+2937334Y+2199686D01*
X+2994154Y+2123958D01*
X+3104823Y+1958490D01*
X+3206841Y+1786358D01*
X+3299866Y+1607773D01*
X+3383578Y+1422824D01*
X+3457621Y+1231549D01*
X+3521678Y+1033584D01*
X+3575393Y+827981D01*
X+3618363Y+612113D01*
X+3629555Y+529143D01*
X+3624300Y+541829D01*
X+3527099Y+582091D01*
X+3429898Y+541829D01*
X+3410678Y+495427D01*
X+3132775Y+495427D01*
X+3110043Y+518159D01*
X+3046917Y+518159D01*
X+3002281Y+473523D01*
X+3002281Y+410397D01*
X+3046917Y+365761D01*
X+3110043Y+365761D01*
X+3138111Y+393829D01*
X+3410678Y+393829D01*
X+3429898Y+347427D01*
X+3527099Y+307165D01*
X+3624300Y+347427D01*
X+3646754Y+401635D01*
X+3650000Y+377570D01*
X+3668961Y+5000D01*
X+3650000Y-367570D01*
X+3647937Y-382864D01*
X+3627200Y-332800D01*
X+3529999Y-292538D01*
X+3432798Y-332800D01*
X+3392536Y-430001D01*
X+3432798Y-527202D01*
X+3529999Y-567464D01*
X+3627200Y-527202D01*
X+3629080Y-522664D01*
X+3618363Y-602113D01*
X+3575393Y-817981D01*
X+3521678Y-1023584D01*
X+3457621Y-1221549D01*
X+3383578Y-1412824D01*
X+3299866Y-1597773D01*
X+3206841Y-1776358D01*
X+3104823Y-1948490D01*
X+2994154Y-2113958D01*
X+2940109Y-2185987D01*
X+2940364Y-2185372D01*
X+2900102Y-2088171D01*
X+2802901Y-2047909D01*
X+2705700Y-2088171D01*
X+2665438Y-2185372D01*
X+2705700Y-2282573D01*
X+2802901Y-2322835D01*
X+2849007Y-2303737D01*
X+2748372Y-2423774D01*
X+2614009Y-2567568D01*
X+2472564Y-2703535D01*
X+2324434Y-2831416D01*
X+2318360Y-2836118D01*
X+2337463Y-2790000D01*
X+2297201Y-2692799D01*
X+2200000Y-2652537D01*
X+2124926Y-2683633D01*
X+2081958Y-2640665D01*
X+2244387Y-2478236D01*
X+2244387Y-1966681D01*
X+3007359Y-1203709D01*
X+3007359Y-539029D01*
X+2889971Y-421641D01*
X+2802339Y-421641D01*
X+2853141Y-370839D01*
X+3265357Y-370839D01*
X+3290757Y-396239D01*
X+3353883Y-396239D01*
X+3398519Y-351603D01*
X+3398519Y-288477D01*
X+3353883Y-243841D01*
X+3290757Y-243841D01*
X+3265357Y-269241D01*
X+2811059Y-269241D01*
X+2658659Y-421641D01*
X+2002601Y-421641D01*
X+2011679Y-412563D01*
X+2011679Y-349437D01*
X+2000341Y-338099D01*
X+2140045Y-338099D01*
X+2338099Y-140045D01*
X+2338099Y+140045D01*
X+2140045Y+338099D01*
X+1859955Y+338099D01*
X+1694179Y+172323D01*
X+1694179Y+600161D01*
X+1410421Y+883919D01*
X+908261Y+883919D01*
X+891679Y+867337D01*
X+930286Y+960542D01*
X+777755Y+1023722D01*
X+751691Y+960799D01*
X+681664Y+960799D01*
X+681664Y+1055403D01*
X+621268Y+1115799D01*
X+707270Y+1115799D01*
X+781664Y+1190193D01*
X+781664Y+1295403D01*
X+707270Y+1369797D01*
X+602060Y+1369797D01*
X+546999Y+1314736D01*
X+546999Y+1392605D01*
X+472605Y+1466999D01*
X+367395Y+1466999D01*
X+293001Y+1392605D01*
X+293001Y+1287395D01*
X+353397Y+1226999D01*
X+267395Y+1226999D01*
X+193001Y+1152605D01*
X+193001Y+1047395D01*
X+267395Y+973001D01*
X+372605Y+973001D01*
X+427666Y+1028062D01*
X+427666Y+950193D01*
X+502060Y+875799D01*
X+607270Y+875799D01*
X+608547Y+877076D01*
X+613314Y+872309D01*
X+549987Y+719424D01*
X+702518Y+656244D01*
X+747517Y+764879D01*
X+772262Y+764879D01*
X+723639Y+647494D01*
X+873001Y+585627D01*
X+873001Y+497395D01*
X+947395Y+423001D01*
X+1025264Y+423001D01*
X+970203Y+367940D01*
X+970203Y+262730D01*
X+1044597Y+188336D01*
X+1149807Y+188336D01*
X+1224201Y+262730D01*
X+1224201Y+265394D01*
X+1237701Y+265394D01*
X+1267459Y+295152D01*
X+1267459Y+305474D01*
X+1284597Y+288336D01*
X+1389807Y+288336D01*
X+1392535Y+291064D01*
X+1415962Y+267637D01*
X+1415962Y+187678D01*
X+1306278Y+142245D01*
X+1369458Y-10286D01*
X+1533722Y+57755D01*
X+1517560Y+96774D01*
X+1517560Y+309719D01*
X+1464201Y+363078D01*
X+1464201Y+467940D01*
X+1389807Y+542334D01*
X+1311938Y+542334D01*
X+1366999Y+597395D01*
X+1366999Y+702605D01*
X+1292605Y+776999D01*
X+1187395Y+776999D01*
X+1113001Y+702605D01*
X+1113001Y+616603D01*
X+1052605Y+676999D01*
X+947395Y+676999D01*
X+891345Y+620949D01*
X+944211Y+748578D01*
X+904857Y+764879D01*
X+932901Y+764879D01*
X+950343Y+782321D01*
X+1006660Y+782321D01*
X+1004570Y+780231D01*
X+1004570Y+753929D01*
X+1023169Y+735330D01*
X+1049471Y+735330D01*
X+1068070Y+753929D01*
X+1068070Y+780231D01*
X+1065980Y+782321D01*
X+1368339Y+782321D01*
X+1592581Y+558079D01*
X+1592581Y-255991D01*
X+1768389Y-431799D01*
X+1776919Y-431799D01*
X+1767841Y-440877D01*
X+1767841Y-504003D01*
X+1812477Y-548639D01*
X+1875603Y-548639D01*
X+1901003Y-523239D01*
X+2830380Y-523239D01*
X+2818130Y-535489D01*
X+2818130Y-561791D01*
X+2836729Y-580390D01*
X+2863031Y-580390D01*
X+2881630Y-561791D01*
X+2881630Y-556980D01*
X+2905761Y-581111D01*
X+2905761Y-1161627D01*
X+2142789Y-1924599D01*
X+2142789Y-2436154D01*
X+1989077Y-2589866D01*
X+1744726Y-2589866D01*
X+1617979Y-2463119D01*
X+1617979Y-2235677D01*
X+1373663Y-1991361D01*
X+855979Y-1991361D01*
X+855979Y-1692164D01*
X+957326Y-1650185D01*
X+850405Y-1392055D01*
X+843030Y-1395110D01*
X+915288Y-1322852D01*
X+1439210Y-1846774D01*
X+1636774Y-1649210D01*
X+1080000Y-1092436D01*
X+961175Y-1211261D01*
X+883199Y-1211261D01*
X+748259Y-1346201D01*
X+723403Y-1346201D01*
X+776999Y-1292605D01*
X+776999Y-1187395D01*
X+702605Y-1113001D01*
X+636603Y-1113001D01*
X+686999Y-1062605D01*
X+686999Y-957395D01*
X+612605Y-883001D01*
X+507395Y-883001D01*
X+433001Y-957395D01*
X+433001Y-976695D01*
X+375507Y-919201D01*
X+205294Y-919201D01*
X+61275Y-1063220D01*
X+61275Y-1103621D01*
X+3639Y-1127494D01*
X+71680Y-1291758D01*
X+224211Y-1228578D01*
X+170138Y-1098037D01*
X+198336Y-1069839D01*
X+198336Y-1159807D01*
X+272730Y-1234201D01*
X+338732Y-1234201D01*
X+288336Y-1284597D01*
X+288336Y-1339201D01*
X+168309Y-1339201D01*
X+142245Y-1276278D01*
X-10286Y-1339458D01*
X+57755Y-1503722D01*
X+209666Y-1440799D01*
X+339328Y-1440799D01*
X+362730Y-1464201D01*
X+457201Y-1464201D01*
X+457201Y-1494603D01*
X+482601Y-1520003D01*
X+482601Y-1544404D01*
X+394749Y-1580793D01*
X+501670Y-1838923D01*
X+689401Y-1761163D01*
X+587954Y-1516248D01*
X+609599Y-1494603D01*
X+609599Y-1447799D01*
X+715826Y-1447799D01*
X+662674Y-1469815D01*
X+754381Y-1691215D01*
X+754381Y-2021119D01*
X+743498Y-2032002D01*
X+534122Y-2032002D01*
X+487679Y-1985559D01*
X+487679Y-1949637D01*
X+443043Y-1905001D01*
X+379917Y-1905001D01*
X+375919Y-1908999D01*
X+375919Y-1681324D01*
X+204067Y-1509472D01*
X+3115Y-1509472D01*
X-109221Y-1397136D01*
X-109221Y-1346188D01*
X-101972Y-1363688D01*
X+50559Y-1300508D01*
X-17482Y-1136244D01*
X-109221Y-1174243D01*
X-109221Y-977351D01*
X+40091Y-828039D01*
X+141157Y-828039D01*
X+166557Y-853439D01*
X+229683Y-853439D01*
X+274319Y-808803D01*
X+274319Y-761999D01*
X+337448Y-761999D01*
X+482599Y-616848D01*
X+482599Y-269931D01*
X+700347Y-487679D01*
X+890180Y-487679D01*
X+875799Y-502060D01*
X+875799Y-607270D01*
X+950193Y-681664D01*
X+1055403Y-681664D01*
X+1115799Y-621268D01*
X+1115799Y-707270D01*
X+1190193Y-781664D01*
X+1295403Y-781664D01*
X+1313181Y-763886D01*
X+1313181Y-819949D01*
X+1450811Y-957579D01*
X+1661161Y-957579D01*
X+1661161Y-961203D01*
X+1701219Y-1001261D01*
X+1418825Y-1001261D01*
X+1300000Y-882436D01*
X+1102436Y-1080000D01*
X+1659210Y-1636774D01*
X+1780541Y-1515443D01*
X+1780541Y-1767841D01*
X+1721037Y-1767841D01*
X+1676401Y-1812477D01*
X+1676401Y-1875603D01*
X+1701801Y-1901003D01*
X+1701801Y-1924237D01*
X+1676401Y-1949637D01*
X+1676401Y-2012763D01*
X+1721037Y-2057399D01*
X+1780541Y-2057399D01*
X+1780541Y-2363657D01*
X+1752601Y-2391597D01*
X+1752601Y-2454723D01*
X+1797237Y-2499359D01*
X+1860363Y-2499359D01*
X+1904999Y-2454723D01*
X+1904999Y-2391597D01*
X+1882139Y-2368737D01*
X+1882139Y-1167594D01*
X+1720384Y-1005839D01*
X+1768923Y-1005839D01*
X+1799403Y-975359D01*
X+1860363Y-975359D01*
X+1904999Y-930723D01*
X+1904999Y-867597D01*
X+1860363Y-822961D01*
X+1824441Y-822961D01*
X+1508759Y-507279D01*
X+1508759Y-260743D01*
X+1401686Y-153670D01*
X+1415231Y-153670D01*
X+1433830Y-135071D01*
X+1433830Y-108769D01*
X+1415231Y-90170D01*
X+1388929Y-90170D01*
X+1388837Y-90262D01*
X+1330508Y+50559D01*
X+1231781Y+9665D01*
X+1231781Y+34410D01*
X+1321758Y+71680D01*
X+1258578Y+224211D01*
X+1094314Y+156170D01*
X+1130183Y+69574D01*
X+1130183Y-140577D01*
X+1241065Y-251459D01*
X+1355795Y-251459D01*
X+1407161Y-302825D01*
X+1407161Y-307557D01*
X+1392605Y-293001D01*
X+1287395Y-293001D01*
X+1226999Y-353397D01*
X+1226999Y-267395D01*
X+1152605Y-193001D01*
X+1047395Y-193001D01*
X+973001Y-267395D01*
X+973001Y-372605D01*
X+986477Y-386081D01*
X+742429Y-386081D01*
X+523239Y-166891D01*
X+523239Y+197876D01*
X+257233Y+463882D01*
X-499659Y+463882D01*
X-723902Y+688125D01*
X-723902Y+1134298D01*
X-702605Y+1113001D01*
X-626603Y+1113001D01*
X-676999Y+1062605D01*
X-676999Y+957395D01*
X-602605Y+883001D01*
X-497395Y+883001D01*
X-423001Y+957395D01*
X-423001Y+1035264D01*
X-367940Y+980203D01*
X-262730Y+980203D01*
X-188336Y+1054597D01*
X-188336Y+1159807D01*
X-262730Y+1234201D01*
X-338732Y+1234201D01*
X-288336Y+1284597D01*
X-288336Y+1379201D01*
X-168309Y+1379201D01*
X-142245Y+1316278D01*
X+10286Y+1379458D01*
X-57755Y+1543722D01*
X-209666Y+1480799D01*
X-343578Y+1480799D01*
X-361453Y+1462924D01*
X-362730Y+1464201D01*
X-467940Y+1464201D01*
X-542334Y+1389807D01*
X-542334Y+1311938D01*
X-597395Y+1366999D01*
X-702605Y+1366999D01*
X-723902Y+1345702D01*
X-723902Y+1527262D01*
X-1036321Y+1839681D01*
X-1036321Y+1875603D01*
X-1045399Y+1884681D01*
X-405679Y+1884681D01*
X-354879Y+1935481D01*
X-318957Y+1935481D01*
X-274321Y+1980117D01*
X-274321Y+2043243D01*
X-318957Y+2087879D01*
X-382083Y+2087879D01*
X-426719Y+2043243D01*
X-426719Y+2007321D01*
X-447761Y+1986279D01*
X-605071Y+1986279D01*
X-436881Y+2154469D01*
X-436881Y+2289997D01*
X-411481Y+2315397D01*
X-411481Y+2378523D01*
X-420559Y+2387601D01*
X-277242Y+2387601D01*
X-317499Y+2347344D01*
X-317499Y+2252656D01*
X-250544Y+2185701D01*
X-155856Y+2185701D01*
X-101600Y+2239957D01*
X-47344Y+2185701D01*
X+47344Y+2185701D01*
X+101600Y+2239957D01*
X+155856Y+2185701D01*
X+250544Y+2185701D01*
X+317499Y+2252656D01*
X+317499Y+2347344D01*
X+277242Y+2387601D01*
X+763393Y+2387601D01*
X+699691Y+2233812D01*
X+910888Y+2146331D01*
X+998369Y+2357528D01*
X+925767Y+2387601D01*
X+1365799Y+2387601D01*
X+1539241Y+2214159D01*
X+1539241Y+2178237D01*
X+1583877Y+2133601D01*
X+1647003Y+2133601D01*
X+1691639Y+2178237D01*
X+1691639Y+2241363D01*
X+1647003Y+2285999D01*
X+1611081Y+2285999D01*
X+1407881Y+2489199D01*
X+920561Y+2489199D01*
X+929639Y+2498277D01*
X+929639Y+2561403D01*
X+885003Y+2606039D01*
X+849081Y+2606039D01*
X+793199Y+2661921D01*
X+1192717Y+2661921D01*
X+1218117Y+2636521D01*
X+1281243Y+2636521D01*
X+1325879Y+2681157D01*
X+1325879Y+2744283D01*
X+1281243Y+2788919D01*
X+1218117Y+2788919D01*
X+1192717Y+2763519D01*
X+509729Y+2763519D01*
X+553719Y+2807509D01*
X+553719Y+2985701D01*
X+703859Y+2985701D01*
X+703859Y+3414299D01*
X+526061Y+3414299D01*
X+526061Y+3191680D01*
X+516071Y+3201670D01*
X+489769Y+3201670D01*
X+484521Y+3196422D01*
X+484521Y+3410978D01*
X+537201Y+3432799D01*
X+577463Y+3530000D01*
X+537201Y+3627201D01*
X+529741Y+3630291D01*
X+577765Y+3623975D01*
G37*
%LPC*%
G36*
X-3639Y+1167494D02*
X-64975Y+1142088D01*
X-64975Y+1081695D01*
X+285201Y+731519D01*
X+321123Y+731519D01*
X+365759Y+686883D01*
X+365759Y+623757D01*
X+321123Y+579121D01*
X+257997Y+579121D01*
X+213361Y+623757D01*
X+213361Y+659679D01*
X-166573Y+1039613D01*
X-166573Y+1129429D01*
X-224211Y+1268578D01*
X-71680Y+1331758D01*
X-3639Y+1167494D01*
G37*
G36*
X+170013Y+1239424D02*
X+17482Y+1176244D01*
X-50559Y+1340508D01*
X+101972Y+1403688D01*
X+170013Y+1239424D01*
G37*
G36*
X+1033688Y-728028D02*
X+1030123Y-736635D01*
X+1035237Y-731521D01*
X+1098363Y-731521D01*
X+1142999Y-776157D01*
X+1142999Y-839283D01*
X+1117723Y-864559D01*
X+1173722Y-887755D01*
X+1110542Y-1040286D01*
X+946278Y-972245D01*
X+998203Y-846885D01*
X+990601Y-839283D01*
X+990601Y-832050D01*
X+970508Y-880559D01*
X+929358Y-863514D01*
X+869618Y-863514D01*
X+961758Y-901680D01*
X+898578Y-1054211D01*
X+734314Y-986170D01*
X+770355Y-899159D01*
X+760917Y-899159D01*
X+716281Y-854523D01*
X+716281Y-791397D01*
X+760917Y-746761D01*
X+824043Y-746761D01*
X+830717Y-753435D01*
X+869424Y-659987D01*
X+1033688Y-728028D01*
G37*
G36*
X+982925Y+1100301D02*
X+901091Y+1182135D01*
X+901091Y+1297865D01*
X+982925Y+1379699D01*
X+1098655Y+1379699D01*
X+1180489Y+1297865D01*
X+1180489Y+1182135D01*
X+1098655Y+1100301D01*
X+982925Y+1100301D01*
G37*
G36*
X+1342135Y+1459511D02*
X+1260301Y+1541345D01*
X+1260301Y+1657075D01*
X+1342135Y+1738909D01*
X+1457865Y+1738909D01*
X+1539699Y+1657075D01*
X+1539699Y+1541345D01*
X+1457865Y+1459511D01*
X+1342135Y+1459511D01*
G37*
G36*
X+1342135Y+1100301D02*
X+1260301Y+1182135D01*
X+1260301Y+1297865D01*
X+1342135Y+1379699D01*
X+1457865Y+1379699D01*
X+1539699Y+1297865D01*
X+1539699Y+1182135D01*
X+1457865Y+1100301D01*
X+1342135Y+1100301D01*
G37*
G36*
X+1194299Y+2247344D02*
X+1194299Y+2152656D01*
X+1127344Y+2085701D01*
X+1032656Y+2085701D01*
X+965701Y+2152656D01*
X+965701Y+2247344D01*
X+1032656Y+2314299D01*
X+1127344Y+2314299D01*
X+1194299Y+2247344D01*
G37*
G36*
X+2453639Y+900243D02*
X+2453639Y+837117D01*
X+2428239Y+811717D01*
X+2428239Y+529403D01*
X+2453639Y+504003D01*
X+2453639Y+440877D01*
X+2409003Y+396241D01*
X+2345877Y+396241D01*
X+2301241Y+440877D01*
X+2301241Y+504003D01*
X+2326641Y+529403D01*
X+2326641Y+811717D01*
X+2301241Y+837117D01*
X+2301241Y+900243D01*
X+2345877Y+944879D01*
X+2409003Y+944879D01*
X+2453639Y+900243D01*
G37*
G36*
X+2606039Y-715197D02*
X+2606039Y-778323D01*
X+2561403Y-822959D01*
X+2525481Y-822959D01*
X+2321559Y-1026881D01*
X+2321559Y-1375597D01*
X+2346959Y-1400997D01*
X+2346959Y-1464123D01*
X+2302323Y-1508759D01*
X+2239197Y-1508759D01*
X+2194561Y-1464123D01*
X+2194561Y-1400997D01*
X+2219961Y-1375597D01*
X+2219961Y-984799D01*
X+2453641Y-751119D01*
X+2453641Y-715197D01*
X+2498277Y-670561D01*
X+2561403Y-670561D01*
X+2606039Y-715197D01*
G37*
G36*
X+669290Y-904691D02*
X+669290Y-878389D01*
X+687889Y-859790D01*
X+714191Y-859790D01*
X+732790Y-878389D01*
X+732790Y-904691D01*
X+714191Y-923290D01*
X+687889Y-923290D01*
X+669290Y-904691D01*
G37*
G36*
X+974090Y-1064711D02*
X+974090Y-1038409D01*
X+992689Y-1019810D01*
X+1018991Y-1019810D01*
X+1037590Y-1038409D01*
X+1037590Y-1064711D01*
X+1018991Y-1083310D01*
X+992689Y-1083310D01*
X+974090Y-1064711D01*
G37*
G36*
X+1019810Y+1526089D02*
X+1019810Y+1552391D01*
X+1038409Y+1570990D01*
X+1064711Y+1570990D01*
X+1083310Y+1552391D01*
X+1083310Y+1526089D01*
X+1064711Y+1507490D01*
X+1038409Y+1507490D01*
X+1019810Y+1526089D01*
G37*
G36*
X+2498250Y+1416849D02*
X+2498250Y+1443151D01*
X+2516849Y+1461750D01*
X+2543151Y+1461750D01*
X+2561750Y+1443151D01*
X+2561750Y+1416849D01*
X+2543151Y+1398250D01*
X+2516849Y+1398250D01*
X+2498250Y+1416849D01*
G37*
%LPD*%
G36*
X-2327463Y+2810001D02*
X-2287201Y+2712800D01*
X-2190000Y+2672538D01*
X-2092799Y+2712800D01*
X-2067222Y+2774549D01*
X-882969Y+2774549D01*
X-754902Y+2646482D01*
X-754902Y+2420680D01*
X-853854Y+2379693D01*
X-766373Y+2168496D01*
X-555176Y+2255977D01*
X-642657Y+2467174D01*
X-653304Y+2462764D01*
X-653304Y+2577351D01*
X-374051Y+2577351D01*
X-374051Y+2717751D01*
X-318221Y+2661921D01*
X-132749Y+2661921D01*
X-132749Y+2577351D01*
X+135169Y+2577351D01*
X+148019Y+2564501D01*
X+232301Y+2564501D01*
X+232301Y+2513701D01*
X+511699Y+2513701D01*
X+511699Y+2564501D01*
X+746939Y+2564501D01*
X+777241Y+2534199D01*
X+777241Y+2498277D01*
X+786319Y+2489199D01*
X-376740Y+2489199D01*
X-364490Y+2501449D01*
X-364490Y+2527751D01*
X-383089Y+2546350D01*
X-409391Y+2546350D01*
X-427990Y+2527751D01*
X-427990Y+2501449D01*
X-415740Y+2489199D01*
X-488401Y+2489199D01*
X-538479Y+2439121D01*
X-538479Y+2403923D01*
X-563879Y+2378523D01*
X-563879Y+2315397D01*
X-538479Y+2289997D01*
X-538479Y+2196551D01*
X-667471Y+2067559D01*
X-1496781Y+2067559D01*
X-1742439Y+1821901D01*
X-1742439Y+1641923D01*
X-1767839Y+1616523D01*
X-1767839Y+1580601D01*
X-1773641Y+1574799D01*
X-1878517Y+1574799D01*
X-1903917Y+1600199D01*
X-1967043Y+1600199D01*
X-1992443Y+1574799D01*
X-2259517Y+1574799D01*
X-2284917Y+1600199D01*
X-2348043Y+1600199D01*
X-2392679Y+1555563D01*
X-2392679Y+1492437D01*
X-2348043Y+1447801D01*
X-2284917Y+1447801D01*
X-2259517Y+1473201D01*
X-1992443Y+1473201D01*
X-1967043Y+1447801D01*
X-1903917Y+1447801D01*
X-1878517Y+1473201D01*
X-1731559Y+1473201D01*
X-1695999Y+1508761D01*
X-1660077Y+1508761D01*
X-1634677Y+1534161D01*
X-1621955Y+1534161D01*
X-1621955Y+1533175D01*
X-1692390Y+1462740D01*
X-1566668Y+1337018D01*
X-1449926Y+1453760D01*
X-1520359Y+1524193D01*
X-1520359Y+1556525D01*
X-1433760Y+1469926D01*
X-1363327Y+1540359D01*
X-1217919Y+1540359D01*
X-1061721Y+1696557D01*
X-1061721Y+1721401D01*
X-825498Y+1485178D01*
X-825498Y+1035656D01*
X-918578Y+1074211D01*
X-981758Y+921680D01*
X-825498Y+856954D01*
X-825498Y+838035D01*
X-827319Y+839856D01*
X-843959Y+839856D01*
X-990508Y+900559D01*
X-1053688Y+748028D01*
X-899159Y+684019D01*
X-899159Y+630630D01*
X-950193Y+681664D01*
X-1055403Y+681664D01*
X-1105799Y+631268D01*
X-1105799Y+707270D01*
X-1130050Y+731521D01*
X-1126677Y+731521D01*
X-1082041Y+776157D01*
X-1082041Y+839283D01*
X-1119959Y+877201D01*
X-1029458Y+839714D01*
X-966278Y+992245D01*
X-1130542Y+1060286D01*
X-1157303Y+995679D01*
X-1177477Y+995679D01*
X-1202877Y+1021079D01*
X-1266003Y+1021079D01*
X-1310639Y+976443D01*
X-1310639Y+913317D01*
X-1266003Y+868681D01*
X-1205041Y+868681D01*
X-1215203Y+858519D01*
X-1430742Y+858518D01*
X-1680799Y+608461D01*
X-1680799Y+168943D01*
X-1849955Y+338099D01*
X-2130045Y+338099D01*
X-2328099Y+140045D01*
X-2328099Y-140045D01*
X-2130045Y-338099D01*
X-1849955Y-338099D01*
X-1680799Y-168943D01*
X-1680799Y-658959D01*
X-1752756Y-730916D01*
X-1752756Y-1108004D01*
X-1737359Y-1123401D01*
X-1737359Y-1143001D01*
X-2305599Y-1143001D01*
X-2423161Y-1025439D01*
X-2423161Y-989517D01*
X-2467797Y-944881D01*
X-2530923Y-944881D01*
X-2575559Y-989517D01*
X-2575559Y-1052643D01*
X-2530923Y-1097279D01*
X-2495001Y-1097279D01*
X-2347681Y-1244599D01*
X-1611441Y-1244599D01*
X-1645919Y-1279077D01*
X-1645919Y-1342203D01*
X-1601283Y-1386839D01*
X-1538157Y-1386839D01*
X-1512757Y-1361439D01*
X-1398234Y-1361439D01*
X-1235465Y-1524208D01*
X-1235465Y-1905799D01*
X-1237271Y-1905799D01*
X-1311665Y-1980193D01*
X-1311665Y-2085403D01*
X-1237271Y-2159797D01*
X-1132061Y-2159797D01*
X-1076999Y-2104735D01*
X-1076999Y-2182605D01*
X-1002605Y-2256999D01*
X-897395Y-2256999D01*
X-823001Y-2182605D01*
X-823001Y-2077395D01*
X-897395Y-2003001D01*
X-1002605Y-2003001D01*
X-1057667Y-2058063D01*
X-1057667Y-1980193D01*
X-1132061Y-1905799D01*
X-1133867Y-1905799D01*
X-1133867Y-1701493D01*
X-879561Y-1955799D01*
X-575123Y-1955799D01*
X-549723Y-1981199D01*
X-486597Y-1981199D01*
X-441961Y-1936563D01*
X-441961Y-1873437D01*
X-470397Y-1845001D01*
X-415441Y-1867764D01*
X-415441Y-1899390D01*
X-369192Y-1945639D01*
X-132929Y-1945639D01*
X-132929Y-2042289D01*
X-330921Y-2240281D01*
X-366843Y-2240281D01*
X-411479Y-2284917D01*
X-411479Y-2336801D01*
X-1310641Y-2336801D01*
X-1310641Y-2330637D01*
X-1355277Y-2286001D01*
X-1418403Y-2286001D01*
X-1463039Y-2330637D01*
X-1463039Y-2377441D01*
X-1553397Y-2377441D01*
X-1568637Y-2362201D01*
X-1631763Y-2362201D01*
X-1676399Y-2406837D01*
X-1676399Y-2460543D01*
X-1696238Y-2460543D01*
X-1815250Y-2411246D01*
X-1912451Y-2645909D01*
X-1712988Y-2728530D01*
X-1644067Y-2562141D01*
X-1509740Y-2562141D01*
X-1598332Y-2776021D01*
X-1398869Y-2858642D01*
X-1354199Y-2750799D01*
X-1150249Y-2750799D01*
X-1109297Y-2791751D01*
X-1109297Y-2843996D01*
X-1128611Y-2890623D01*
X-1227963Y-2890623D01*
X-1300799Y-2963459D01*
X-1300799Y-3057148D01*
X-1338928Y-3149201D01*
X-1391199Y-3149201D01*
X-1402081Y-3138319D01*
X-1402081Y-3066298D01*
X-1453154Y-3015225D01*
X-1434749Y-2970793D01*
X-1622480Y-2893033D01*
X-1729401Y-3151163D01*
X-1541670Y-3228923D01*
X-1503679Y-3137205D01*
X-1503679Y-3180401D01*
X-1433281Y-3250799D01*
X-1381012Y-3250799D01*
X-1397326Y-3290185D01*
X-1209595Y-3367945D01*
X-1102674Y-3109815D01*
X-1199201Y-3069833D01*
X-1199201Y-3005541D01*
X-1185881Y-2992221D01*
X-1166042Y-2992221D01*
X-1017482Y-3053756D01*
X-949441Y-2889492D01*
X-1007699Y-2865361D01*
X-1007699Y-2851614D01*
X-857755Y-2913722D01*
X-789714Y-2749458D01*
X-882885Y-2710866D01*
X-867410Y-2695391D01*
X-867410Y-2669089D01*
X-886009Y-2650490D01*
X-912311Y-2650490D01*
X-930910Y-2669089D01*
X-930910Y-2690973D01*
X-942245Y-2686278D01*
X-1007699Y-2844296D01*
X-1007699Y-2749669D01*
X-1108167Y-2649201D01*
X-1312115Y-2649201D01*
X-1301668Y-2623979D01*
X-1450957Y-2562141D01*
X-883181Y-2562141D01*
X-869763Y-2575559D01*
X-806637Y-2575559D01*
X-762001Y-2530923D01*
X-762001Y-2507699D01*
X-284143Y-2985557D01*
X+253002Y-2985557D01*
X+288336Y-3070861D01*
X-43822Y-3070861D01*
X-377319Y-3404358D01*
X-430000Y-3382537D01*
X-527201Y-3422799D01*
X-567463Y-3520000D01*
X-527201Y-3617201D01*
X-519741Y-3620291D01*
X-567765Y-3613975D01*
X-756757Y-3578960D01*
X-943934Y-3534006D01*
X-1128761Y-3479196D01*
X-1310733Y-3414632D01*
X-1489316Y-3340453D01*
X-1664052Y-3256795D01*
X-1834382Y-3163866D01*
X-1999879Y-3061838D01*
X-2160052Y-2950940D01*
X-2188073Y-2929246D01*
X-2185371Y-2930365D01*
X-2088170Y-2890103D01*
X-2068950Y-2843701D01*
X-1915940Y-2843701D01*
X-1997326Y-3040185D01*
X-1809595Y-3117945D01*
X-1702674Y-2859815D01*
X-1799201Y-2819833D01*
X-1799201Y-2786910D01*
X-1844008Y-2742103D01*
X-1971399Y-2742103D01*
X-1891358Y-2548869D01*
X-2126021Y-2451668D01*
X-2166421Y-2549201D01*
X-2208106Y-2549201D01*
X-2237864Y-2578959D01*
X-2237864Y-2677182D01*
X-2282572Y-2695701D01*
X-2322834Y-2792902D01*
X-2303315Y-2840024D01*
X-2314434Y-2831416D01*
X-2462564Y-2703535D01*
X-2604009Y-2567568D01*
X-2738372Y-2423774D01*
X-2842130Y-2300013D01*
X-2800001Y-2317463D01*
X-2702800Y-2277201D01*
X-2662538Y-2180000D01*
X-2702800Y-2082799D01*
X-2800001Y-2042537D01*
X-2897202Y-2082799D01*
X-2936446Y-2177542D01*
X-2984154Y-2113958D01*
X-3094823Y-1948490D01*
X-3196841Y-1776358D01*
X-3289866Y-1597773D01*
X-3348341Y-1468581D01*
X-3308163Y-1508759D01*
X-3245037Y-1508759D01*
X-3219637Y-1483359D01*
X-1977203Y-1483359D01*
X-1951803Y-1508759D01*
X-1888677Y-1508759D01*
X-1844041Y-1464123D01*
X-1844041Y-1400997D01*
X-1888677Y-1356361D01*
X-1951803Y-1356361D01*
X-1977203Y-1381761D01*
X-3219637Y-1381761D01*
X-3245037Y-1356361D01*
X-3308163Y-1356361D01*
X-3352799Y-1400997D01*
X-3352799Y-1458732D01*
X-3373578Y-1412824D01*
X-3447621Y-1221549D01*
X-3511678Y-1023584D01*
X-3565393Y-817981D01*
X-3608363Y-602113D01*
X-3618890Y-524070D01*
X-3527099Y-562091D01*
X-3429898Y-521829D01*
X-3410678Y-475427D01*
X-3091815Y-475427D01*
X-3064323Y-502919D01*
X-3001197Y-502919D01*
X-2956561Y-458283D01*
X-2956561Y-395157D01*
X-3001197Y-350521D01*
X-3064323Y-350521D01*
X-3087631Y-373829D01*
X-3410678Y-373829D01*
X-3429898Y-327427D01*
X-3527099Y-287165D01*
X-3624300Y-327427D01*
X-3640102Y-365575D01*
X-3658961Y+5000D01*
X-3640000Y+377570D01*
X-3633749Y+423915D01*
X-3598436Y+338663D01*
X-3501235Y+298401D01*
X-3404034Y+338663D01*
X-3382158Y+391477D01*
X-1947039Y+391477D01*
X-1936563Y+381001D01*
X-1873437Y+381001D01*
X-1828801Y+425637D01*
X-1828801Y+488763D01*
X-1873437Y+533399D01*
X-1936563Y+533399D01*
X-1976887Y+493075D01*
X-3387470Y+493075D01*
X-3404034Y+533065D01*
X-3501235Y+573327D01*
X-3598436Y+533065D01*
X-3628968Y+459353D01*
X-3608363Y+612113D01*
X-3565393Y+827981D01*
X-3511678Y+1033584D01*
X-3447621Y+1231549D01*
X-3373578Y+1422824D01*
X-3289866Y+1607773D01*
X-3196841Y+1786358D01*
X-3094823Y+1958490D01*
X-2984154Y+2123958D01*
X-2884395Y+2256913D01*
X-2911600Y+2191235D01*
X-2871338Y+2094034D01*
X-2774137Y+2053772D01*
X-2676936Y+2094034D01*
X-2636674Y+2191235D01*
X-2676936Y+2288436D01*
X-2774137Y+2328698D01*
X-2854303Y+2295492D01*
X-2738372Y+2433774D01*
X-2604009Y+2577568D01*
X-2462564Y+2713535D01*
X-2314460Y+2841394D01*
X-2327463Y+2810001D01*
G37*
%LPC*%
G36*
X-1491232Y+1394490D02*
X-1374490Y+1511232D01*
X-1248768Y+1385510D01*
X-1365510Y+1268768D01*
X-1491232Y+1394490D01*
G37*
G36*
X-1431345Y-1389511D02*
X-1349511Y-1471345D01*
X-1349511Y-1587075D01*
X-1431345Y-1668909D01*
X-1547075Y-1668909D01*
X-1628909Y-1587075D01*
X-1628909Y-1471345D01*
X-1547075Y-1389511D01*
X-1431345Y-1389511D01*
G37*
G36*
X-1032686Y+2124964D02*
X-1072948Y+2222165D01*
X-1032686Y+2319366D01*
X-935485Y+2359628D01*
X-838284Y+2319366D01*
X-798022Y+2222165D01*
X-838284Y+2124964D01*
X-935485Y+2084702D01*
X-1032686Y+2124964D01*
G37*
G36*
X-802571Y-2950329D02*
X-793563Y-2941321D01*
X-730437Y-2941321D01*
X-685801Y-2985957D01*
X-685801Y-3049083D01*
X-730437Y-3093719D01*
X-793563Y-3093719D01*
X-818963Y-3068319D01*
X-820068Y-3068319D01*
X-833427Y-3100571D01*
X-833427Y-3140161D01*
X-890830Y-3197564D01*
X-834749Y-3220793D01*
X-941670Y-3478923D01*
X-1129401Y-3401163D01*
X-1031916Y-3165814D01*
X-1031916Y-3138719D01*
X-1002158Y-3108961D01*
X-945907Y-3108961D01*
X-935025Y-3098079D01*
X-935025Y-3087912D01*
X-996361Y-3062506D01*
X-928320Y-2898242D01*
X-802571Y-2950329D01*
G37*
G36*
X-1676401Y-1888677D02*
X-1676401Y-1951803D01*
X-1701801Y-1977203D01*
X-1701801Y-2270244D01*
X-1769385Y-2337828D01*
X-1803943Y-2337828D01*
X-1843867Y-2434213D01*
X-2078530Y-2337012D01*
X-1995909Y-2137549D01*
X-1803399Y-2217290D01*
X-1803399Y-1977203D01*
X-1814643Y-1965959D01*
X-2102037Y-1965959D01*
X-2132517Y-1996439D01*
X-2195643Y-1996439D01*
X-2240279Y-1951803D01*
X-2240279Y-1888677D01*
X-2195643Y-1844041D01*
X-2132517Y-1844041D01*
X-2112197Y-1864361D01*
X-1804483Y-1864361D01*
X-1784163Y-1844041D01*
X-1721037Y-1844041D01*
X-1676401Y-1888677D01*
G37*
G36*
X-1372870Y+2562409D02*
X-1372870Y+2588711D01*
X-1354271Y+2607310D01*
X-1327969Y+2607310D01*
X-1309370Y+2588711D01*
X-1309370Y+2562409D01*
X-1327969Y+2543810D01*
X-1354271Y+2543810D01*
X-1372870Y+2562409D01*
G37*
G36*
X-2439670Y-1811471D02*
X-2439670Y-1785169D01*
X-2421071Y-1766570D01*
X-2394769Y-1766570D01*
X-2376170Y-1785169D01*
X-2376170Y-1811471D01*
X-2394769Y-1830070D01*
X-2421071Y-1830070D01*
X-2439670Y-1811471D01*
G37*
G36*
X-275590Y-1994351D02*
X-275590Y-1968049D01*
X-256991Y-1949450D01*
X-230689Y-1949450D01*
X-212090Y-1968049D01*
X-212090Y-1994351D01*
X-230689Y-2012950D01*
X-256991Y-2012950D01*
X-275590Y-1994351D01*
G37*
G36*
X-2866390Y+855529D02*
X-2866390Y+881831D01*
X-2847791Y+900430D01*
X-2821489Y+900430D01*
X-2802890Y+881831D01*
X-2802890Y+855529D01*
X-2821489Y+836930D01*
X-2847791Y+836930D01*
X-2866390Y+855529D01*
G37*
G36*
X-2240281Y-1888677D02*
X-2240281Y-1951803D01*
X-2265681Y-1977203D01*
X-2265681Y-2442397D01*
X-2240281Y-2467797D01*
X-2240281Y-2530923D01*
X-2284917Y-2575559D01*
X-2348043Y-2575559D01*
X-2392679Y-2530923D01*
X-2392679Y-2467797D01*
X-2367279Y-2442397D01*
X-2367279Y-1977203D01*
X-2392679Y-1951803D01*
X-2392679Y-1888677D01*
X-2348043Y-1844041D01*
X-2284917Y-1844041D01*
X-2240281Y-1888677D01*
G37*
G36*
X-1814830Y+977449D02*
X-1814830Y+1003751D01*
X-1796231Y+1022350D01*
X-1769929Y+1022350D01*
X-1751330Y+1003751D01*
X-1751330Y+977449D01*
X-1769929Y+958850D01*
X-1796231Y+958850D01*
X-1814830Y+977449D01*
G37*
G36*
X-1372870Y+2288089D02*
X-1372870Y+2314391D01*
X-1354271Y+2332990D01*
X-1327969Y+2332990D01*
X-1309370Y+2314391D01*
X-1309370Y+2288089D01*
X-1327969Y+2269490D01*
X-1354271Y+2269490D01*
X-1372870Y+2288089D01*
G37*
%LPD*%
G36*
X+1516381Y-2277759D02*
X+1516381Y-2505201D01*
X+1702644Y-2691464D01*
X+1989077Y-2691464D01*
X+2069882Y-2772269D01*
X+2062537Y-2790000D01*
X+2102799Y-2887201D01*
X+2200000Y-2927463D01*
X+2200808Y-2927128D01*
X+2170052Y-2950940D01*
X+2009879Y-3061838D01*
X+1844382Y-3163866D01*
X+1674052Y-3256795D01*
X+1499316Y-3340453D01*
X+1320733Y-3414632D01*
X+1138761Y-3479196D01*
X+953934Y-3534006D01*
X+854700Y-3557839D01*
X+900799Y-3511740D01*
X+900799Y-3480167D01*
X+997326Y-3440185D01*
X+890405Y-3182055D01*
X+702674Y-3259815D01*
X+788203Y-3466299D01*
X+561049Y-3466299D01*
X+541829Y-3419897D01*
X+495427Y-3400677D01*
X+495427Y-3377479D01*
X+489246Y-3371298D01*
X+658642Y-3301131D01*
X+613089Y-3191158D01*
X+794213Y-3116133D01*
X+697012Y-2881470D01*
X+695557Y-2882073D01*
X+695557Y-2861622D01*
X+511096Y-2677161D01*
X+224603Y-2677161D01*
X+199203Y-2651761D01*
X+136077Y-2651761D01*
X+133031Y-2654807D01*
X+133031Y-2636289D01*
X+462279Y-2307041D01*
X+462279Y-2103839D01*
X+492038Y-2133598D01*
X+785582Y-2133598D01*
X+826221Y-2092959D01*
X+1331581Y-2092959D01*
X+1516381Y-2277759D01*
G37*
%LPC*%
G36*
X+1590013Y-2780576D02*
X+1529079Y-2805816D01*
X+1529079Y-2869117D01*
X+1530678Y-2870716D01*
X+1588490Y-2870716D01*
X+1708330Y-2821077D01*
X+1815251Y-3079207D01*
X+1627520Y-3156967D01*
X+1551034Y-2972314D01*
X+1539808Y-2972314D01*
X+1509843Y-3002279D01*
X+1469493Y-3002279D01*
X+1547326Y-3190185D01*
X+1359595Y-3267945D01*
X+1295845Y-3114039D01*
X+1193079Y-3114039D01*
X+1173480Y-3094440D01*
X+1169682Y-3098238D01*
X+1169682Y-3098483D01*
X+1265251Y-3329207D01*
X+1077520Y-3406967D01*
X+970599Y-3148837D01*
X+1068084Y-3108458D01*
X+1068084Y-3056156D01*
X+1122681Y-3001559D01*
X+1122682Y-2952750D01*
X+1122681Y-2934633D01*
X+1087046Y-2934633D01*
X+1108332Y-2986021D01*
X+908869Y-3068642D01*
X+811668Y-2833979D01*
X+1011131Y-2751358D01*
X+1044963Y-2833035D01*
X+1122681Y-2833035D01*
X+1122681Y-2814976D01*
X+1186622Y-2751035D01*
X+1196723Y-2751035D01*
X+1348320Y-2688242D01*
X+1416361Y-2852506D01*
X+1263830Y-2915686D01*
X+1237712Y-2852633D01*
X+1228704Y-2852633D01*
X+1224279Y-2857058D01*
X+1224279Y-2903942D01*
X+1224278Y-2952750D01*
X+1224279Y-3001559D01*
X+1235161Y-3012441D01*
X+1253762Y-3012441D01*
X+1252674Y-3009815D01*
X+1402081Y-2947929D01*
X+1402081Y-2894517D01*
X+1427481Y-2869117D01*
X+1427481Y-2819612D01*
X+1369441Y-2679492D01*
X+1521972Y-2616312D01*
X+1590013Y-2780576D01*
G37*
G36*
X+1430286Y-2640542D02*
X+1277755Y-2703722D01*
X+1209714Y-2539458D01*
X+1362245Y-2476278D01*
X+1430286Y-2640542D01*
G37*
G36*
X+1278890Y-2161991D02*
X+1278890Y-2135689D01*
X+1297489Y-2117090D01*
X+1323791Y-2117090D01*
X+1342390Y-2135689D01*
X+1342390Y-2161991D01*
X+1323791Y-2180590D01*
X+1297489Y-2180590D01*
X+1278890Y-2161991D01*
G37*
%LPD*%
G36*
X+766757Y-3578960D02*
X+577765Y-3613975D01*
X+526257Y-3620749D01*
X+541829Y-3614299D01*
X+561049Y-3567897D01*
X+812821Y-3567897D01*
X+766757Y-3578960D01*
G37*
G36*
X+341358Y-3198869D02*
X+366775Y-3260231D01*
X+366775Y-3411883D01*
X+347427Y-3419897D01*
X+307165Y-3517098D01*
X+347427Y-3614299D01*
X+402343Y-3637046D01*
X+387448Y-3639005D01*
X+196363Y-3654019D01*
X+5000Y-3659019D01*
X-186363Y-3654019D01*
X-377448Y-3639005D01*
X-383513Y-3638207D01*
X-332799Y-3617201D01*
X-292537Y-3520000D01*
X-309157Y-3479876D01*
X-1740Y-3172459D01*
X+405117Y-3172459D01*
X+341358Y-3198869D01*
G37*
G36*
X+526061Y+3045899D02*
X+484521Y+3087439D01*
X+484521Y+3143418D01*
X+489769Y+3138170D01*
X+516071Y+3138170D01*
X+526061Y+3148160D01*
X+526061Y+3045899D01*
G37*
G36*
X+421381Y+3006899D02*
X+388899Y+3006899D01*
X+388899Y+3039381D01*
X+421381Y+3006899D01*
G37*
G36*
X+211101Y+3185701D02*
X+211101Y+2985701D01*
X+232301Y+2985701D01*
X+232301Y+2824999D01*
X+146649Y+2824999D01*
X+146649Y+2831351D01*
X+146650Y+2831351D01*
X+146650Y+2850401D01*
X+158201Y+2850401D01*
X+187959Y+2880159D01*
X+187959Y+3197539D01*
X+211101Y+3220681D01*
X+211101Y+3185701D01*
G37*
G36*
X-238959Y+2763519D02*
X-276139Y+2763519D01*
X-337619Y+2824999D01*
X-374051Y+2824999D01*
X-374051Y+2831351D01*
X-374050Y+2831351D01*
X-374050Y+2898610D01*
X-238959Y+2763519D01*
G37*
G36*
X-653448Y+2844049D02*
X-653449Y+2844049D01*
X-653449Y+2688709D01*
X-700320Y+2735580D01*
X-680721Y+2755179D01*
X-680721Y+2854239D01*
X-653448Y+2881512D01*
X-653448Y+2844049D01*
G37*
G36*
X+101600Y+2360043D02*
X+74042Y+2387601D01*
X+129158Y+2387601D01*
X+101600Y+2360043D01*
G37*
G36*
X-101600Y+2360043D02*
X-129158Y+2387601D01*
X-74042Y+2387601D01*
X-101600Y+2360043D01*
G37*
G36*
X-1188719Y+1903917D02*
X-1174562Y+1889760D01*
X-1188719Y+1875603D01*
X-1188719Y+1812477D01*
X-1163319Y+1787077D01*
X-1163319Y+1738639D01*
X-1260003Y+1641955D01*
X-1372306Y+1641956D01*
X-1442740Y+1712390D01*
X-1548989Y+1606141D01*
X-1578607Y+1635759D01*
X-1634677Y+1635759D01*
X-1640841Y+1641923D01*
X-1640841Y+1779819D01*
X-1454699Y+1965961D01*
X-1188719Y+1965961D01*
X-1188719Y+1903917D01*
G37*
G36*
X-467940Y+1210203D02*
X-391938Y+1210203D01*
X-442334Y+1159807D01*
X-442334Y+1081938D01*
X-497395Y+1136999D01*
X-573397Y+1136999D01*
X-523001Y+1187395D01*
X-523001Y+1265264D01*
X-467940Y+1210203D01*
G37*
G36*
X+527666Y+1190193D02*
X+588062Y+1129797D01*
X+502060Y+1129797D01*
X+446999Y+1074736D01*
X+446999Y+1152605D01*
X+386603Y+1213001D01*
X+472605Y+1213001D01*
X+527666Y+1268062D01*
X+527666Y+1190193D01*
G37*
G36*
X-1136177Y+883919D02*
X-1187639Y+883919D01*
X-1177477Y+894081D01*
X-1160710Y+894081D01*
X-1136177Y+883919D01*
G37*
G36*
X+1187395Y+523001D02*
X+1265264Y+523001D01*
X+1210203Y+467940D01*
X+1210203Y+466992D01*
X+1195619Y+466992D01*
X+1165861Y+437234D01*
X+1165861Y+426280D01*
X+1149807Y+442334D01*
X+1071938Y+442334D01*
X+1126999Y+497395D01*
X+1126999Y+583397D01*
X+1187395Y+523001D01*
G37*
G36*
X-1129797Y+502060D02*
X-1074736Y+446999D01*
X-1152605Y+446999D01*
X-1203001Y+396603D01*
X-1203001Y+472605D01*
X-1258062Y+527666D01*
X-1180193Y+527666D01*
X-1129797Y+578062D01*
X-1129797Y+502060D01*
G37*
G36*
X-556620Y+377163D02*
X-541741Y+362284D01*
X+215151Y+362284D01*
X+283446Y+293989D01*
X-667438Y+293989D01*
X-797561Y+424112D01*
X-797561Y+618104D01*
X-556620Y+377163D01*
G37*
G36*
X-1310145Y+756922D02*
X-1359797Y+707270D01*
X-1359797Y+602060D01*
X-1304736Y+546999D01*
X-1382605Y+546999D01*
X-1456999Y+472605D01*
X-1456999Y+367395D01*
X-1382605Y+293001D01*
X-1277395Y+293001D01*
X-1226999Y+343397D01*
X-1226999Y+267395D01*
X-1152605Y+193001D01*
X-1047395Y+193001D01*
X-973001Y+267395D01*
X-973001Y+372605D01*
X-1028062Y+427666D01*
X-950193Y+427666D01*
X-899159Y+478700D01*
X-899159Y+382030D01*
X-709520Y+192391D01*
X+321859Y+192391D01*
X+325164Y+189086D01*
X+308797Y+172719D01*
X-1355811Y+172719D01*
X-1579201Y-50671D01*
X-1579201Y+566379D01*
X-1388658Y+756922D01*
X-1310145Y+756922D01*
G37*
G36*
X+1370330Y-135071D02*
X+1385120Y-149861D01*
X+1283147Y-149861D01*
X+1281661Y-148375D01*
X+1370330Y-111647D01*
X+1370330Y-135071D01*
G37*
G36*
X+1852057Y-330201D02*
X+1810471Y-330201D01*
X+1694179Y-213909D01*
X+1694179Y-172323D01*
X+1852057Y-330201D01*
G37*
G36*
X+334197Y+45721D02*
X+381001Y+45721D01*
X+381001Y-534220D01*
X+378911Y-532130D01*
X+352609Y-532130D01*
X+334010Y-550729D01*
X+334010Y-577031D01*
X+352609Y-595630D01*
X+360137Y-595630D01*
X+295366Y-660401D01*
X-36458Y-660401D01*
X-251459Y-875402D01*
X-251459Y-998937D01*
X-267395Y-983001D01*
X-372605Y-983001D01*
X-427666Y-1038062D01*
X-427666Y-960193D01*
X-502060Y-885799D01*
X-607270Y-885799D01*
X-655321Y-933850D01*
X-655321Y-898077D01*
X-666602Y-886796D01*
X-609714Y-749458D01*
X-762245Y-686278D01*
X-830286Y-850542D01*
X-782319Y-870410D01*
X-782319Y-872677D01*
X-790437Y-880795D01*
X-921972Y-826312D01*
X-990013Y-990576D01*
X-930526Y-1015216D01*
X-930526Y-1054821D01*
X-900768Y-1084579D01*
X-768899Y-1084579D01*
X-745873Y-1061553D01*
X-681664Y-1061553D01*
X-681664Y-1065403D01*
X-641268Y-1105799D01*
X-697270Y-1105799D01*
X-771664Y-1180193D01*
X-771664Y-1285403D01*
X-697270Y-1359797D01*
X-592060Y-1359797D01*
X-536999Y-1304736D01*
X-536999Y-1382605D01*
X-462605Y-1456999D01*
X-460799Y-1456999D01*
X-460799Y-1469939D01*
X-472081Y-1481221D01*
X-618538Y-1481221D01*
X-673930Y-1458277D01*
X-780851Y-1716407D01*
X-645707Y-1772385D01*
X-651323Y-1778001D01*
X-775249Y-1778001D01*
X-947421Y-1605829D01*
X-947421Y-1092749D01*
X-1052109Y-988061D01*
X-1245321Y-988061D01*
X-1400261Y-1143001D01*
X-1584961Y-1143001D01*
X-1584961Y-1127759D01*
X-1538157Y-1127759D01*
X-1493521Y-1083123D01*
X-1493521Y-1019997D01*
X-1518921Y-994597D01*
X-1518921Y-171773D01*
X-1518618Y-172504D01*
X-1518618Y-302869D01*
X-1461479Y-360008D01*
X-1464201Y-362730D01*
X-1464201Y-467940D01*
X-1389807Y-542334D01*
X-1311938Y-542334D01*
X-1366999Y-597395D01*
X-1366999Y-702605D01*
X-1292605Y-776999D01*
X-1187395Y-776999D01*
X-1113001Y-702605D01*
X-1113001Y-626603D01*
X-1052605Y-686999D01*
X-1036700Y-686999D01*
X-1052830Y-703129D01*
X-1052830Y-729431D01*
X-1034231Y-748030D01*
X-1007929Y-748030D01*
X-989330Y-729431D01*
X-989330Y-703129D01*
X-1005460Y-686999D01*
X-965990Y-686999D01*
X-1003938Y-778612D01*
X-851407Y-841792D01*
X-783366Y-677528D01*
X-892655Y-632259D01*
X-873001Y-612605D01*
X-873001Y-507395D01*
X-947395Y-433001D01*
X-1025264Y-433001D01*
X-970203Y-377940D01*
X-970203Y-272730D01*
X-1039734Y-203199D01*
X-681803Y-203199D01*
X-656403Y-228599D01*
X-593277Y-228599D01*
X-548641Y-183963D01*
X-548641Y-121919D01*
X-513801Y-121919D01*
X-391822Y-243898D01*
X-244399Y-243898D01*
X-244399Y-332799D01*
X+288999Y-332799D01*
X+288999Y-53401D01*
X-244399Y-53401D01*
X-244399Y-142302D01*
X-349738Y-142302D01*
X-441961Y-50079D01*
X-441961Y-14157D01*
X-486597Y+30479D01*
X-549723Y+30479D01*
X-594359Y-14157D01*
X-594359Y-76201D01*
X-656403Y-76201D01*
X-681803Y-101601D01*
X-1149343Y-101601D01*
X-1177494Y-33639D01*
X-1341758Y-101680D01*
X-1278578Y-254211D01*
X-1155425Y-203199D01*
X-1154670Y-203199D01*
X-1224201Y-272730D01*
X-1224201Y-273697D01*
X-1237701Y-273697D01*
X-1267459Y-303455D01*
X-1267459Y-305474D01*
X-1284597Y-288336D01*
X-1340715Y-288336D01*
X-1324610Y-272231D01*
X-1324610Y-245929D01*
X-1343209Y-227330D01*
X-1369511Y-227330D01*
X-1388110Y-245929D01*
X-1388110Y-272231D01*
X-1372005Y-288336D01*
X-1389471Y-288336D01*
X-1417020Y-260787D01*
X-1417020Y-209832D01*
X-1326278Y-172245D01*
X-1389458Y-19714D01*
X-1415246Y-30396D01*
X-1384162Y+688D01*
X-1350508Y-80559D01*
X-1186244Y-12518D01*
X-1220888Y+71121D01*
X+308797Y+71121D01*
X+334197Y+45721D01*
G37*
G36*
X+1213001Y-472605D02*
X+1219597Y-479201D01*
X+1186041Y-479201D01*
X+1153222Y-446382D01*
X+1213001Y-386603D01*
X+1213001Y-472605D01*
G37*
G36*
X-1149807Y-452334D02*
X-1071938Y-452334D01*
X-1126999Y-507395D01*
X-1126999Y-583397D01*
X-1187395Y-523001D01*
X-1265264Y-523001D01*
X-1210203Y-467940D01*
X-1210203Y-465295D01*
X-1195619Y-465295D01*
X-1166232Y-435908D01*
X-1149807Y-452334D01*
G37*
G36*
X+1140510Y-577350D02*
X+1129797Y-588062D01*
X+1129797Y-566637D01*
X+1140510Y-577350D01*
G37*
G36*
X+1407161Y-549361D02*
X+1711241Y-853441D01*
X+1705797Y-853441D01*
X+1703257Y-855981D01*
X+1492893Y-855981D01*
X+1414779Y-777867D01*
X+1414779Y-587289D01*
X+1374489Y-546999D01*
X+1392605Y-546999D01*
X+1407161Y-532443D01*
X+1407161Y-549361D01*
G37*
G36*
X-798461Y-970461D02*
X-806175Y-978175D01*
X-801656Y-967266D01*
X-798461Y-970461D01*
G37*
G36*
X-1620519Y-994597D02*
X-1645919Y-1019997D01*
X-1645919Y-1051561D01*
X-1651158Y-1051561D01*
X-1651158Y-772998D01*
X-1620519Y-742359D01*
X-1620519Y-994597D01*
G37*
G36*
X+1694592Y-1123726D02*
X+1680397Y-1137921D01*
X+1555485Y-1137921D01*
X+1520423Y-1102859D01*
X+1673724Y-1102859D01*
X+1694592Y-1123726D01*
G37*
G36*
X+507395Y-1136999D02*
X+573397Y-1136999D01*
X+523936Y-1186460D01*
X+493895Y-1156419D01*
X+493895Y-1123499D01*
X+507395Y-1136999D01*
G37*
G36*
X+403999Y-1210203D02*
X+401938Y-1210203D01*
X+402968Y-1209172D01*
X+403999Y-1210203D01*
G37*
G36*
X-446999Y-1162605D02*
X-406603Y-1203001D01*
X-462605Y-1203001D01*
X-517666Y-1258062D01*
X-517666Y-1180193D01*
X-558062Y-1139797D01*
X-502060Y-1139797D01*
X-446999Y-1084736D01*
X-446999Y-1162605D01*
G37*
G36*
X-1049019Y-1312099D02*
X-1061777Y-1299341D01*
X-1049019Y-1286583D01*
X-1049019Y-1312099D01*
G37*
G36*
X+1705797Y-1264919D02*
X+1768923Y-1264919D01*
X+1780541Y-1253301D01*
X+1780541Y-1362977D01*
X+1657083Y-1239519D01*
X+1680397Y-1239519D01*
X+1705797Y-1264919D01*
G37*
G36*
X-1269699Y-1227865D02*
X-1187865Y-1309699D01*
X-1173621Y-1309699D01*
X-1188719Y-1324797D01*
X-1188719Y-1387923D01*
X-1163319Y-1413323D01*
X-1163319Y-1452674D01*
X-1356152Y-1259841D01*
X-1512757Y-1259841D01*
X-1527999Y-1244599D01*
X-1358179Y-1244599D01*
X-1269699Y-1156119D01*
X-1269699Y-1227865D01*
G37*
G36*
X-1049019Y-1642661D02*
X-1061721Y-1629959D01*
X-1061721Y-1413323D01*
X-1049019Y-1400621D01*
X-1049019Y-1642661D01*
G37*
G36*
X-53846Y-1596191D02*
X-38967Y-1611070D01*
X+161985Y-1611070D01*
X+257796Y-1706881D01*
X+227517Y-1706881D01*
X+202117Y-1732281D01*
X+50251Y-1732281D01*
X-149861Y-1532169D01*
X-149861Y-1500176D01*
X-53846Y-1596191D01*
G37*
G36*
X-251459Y-1553210D02*
X-251459Y-1574251D01*
X+8169Y-1833879D01*
X+202117Y-1833879D01*
X+212279Y-1844041D01*
X-299885Y-1844041D01*
X-218274Y-1647015D01*
X-406005Y-1569255D01*
X-512926Y-1827385D01*
X-509507Y-1828801D01*
X-518161Y-1828801D01*
X-518161Y-1797237D01*
X-562797Y-1752601D01*
X-575903Y-1752601D01*
X-505577Y-1582819D01*
X-429999Y-1582819D01*
X-359201Y-1512021D01*
X-359201Y-1456999D01*
X-357395Y-1456999D01*
X-283001Y-1382605D01*
X-283001Y-1277395D01*
X-323397Y-1236999D01*
X-267395Y-1236999D01*
X-251459Y-1221063D01*
X-251459Y-1553210D01*
G37*
G36*
X+274321Y-1871261D02*
X+262339Y-1859279D01*
X+274321Y-1859279D01*
X+274321Y-1871261D01*
G37*
G36*
X+55031Y-2034542D02*
X+32169Y-2034542D01*
X+32169Y-1945639D01*
X+55031Y-1945639D01*
X+55031Y-2034542D01*
G37*
G36*
X+163319Y-2113401D02*
X+150939Y-2113401D01*
X+188379Y-2075961D01*
X+188379Y-2062599D01*
X+214121Y-2062599D01*
X+163319Y-2113401D01*
G37*
G36*
X+360681Y-2264959D02*
X+31433Y-2594207D01*
X+31433Y-2757415D01*
X+131517Y-2857499D01*
X+277035Y-2857499D01*
X+213156Y-2883959D01*
X-242061Y-2883959D01*
X-687621Y-2438399D01*
X-275403Y-2438399D01*
X-244923Y-2468879D01*
X-181797Y-2468879D01*
X-137161Y-2424243D01*
X-137161Y-2361117D01*
X-181797Y-2316481D01*
X-244923Y-2316481D01*
X-259081Y-2330639D01*
X-259081Y-2312121D01*
X-83098Y-2136138D01*
X-38949Y-2136138D01*
X-38949Y-2253099D01*
X+126149Y-2253099D01*
X+126149Y-2214999D01*
X+205401Y-2214999D01*
X+360681Y-2059719D01*
X+360681Y-2264959D01*
G37*
G36*
X+593959Y-2903704D02*
X+593959Y-2924156D01*
X+561339Y-2937668D01*
X+561339Y-2871084D01*
X+593959Y-2903704D01*
G37*
G36*
X+397250Y-3070861D02*
X+326101Y-3070861D01*
X+447560Y-3020551D01*
X+397250Y-3070861D01*
G37*
G36*
X+557682Y-3109264D02*
X+463526Y-3148265D01*
X+541527Y-3070264D01*
X+557682Y-3109264D01*
G37*
G36*
X-1989017Y-2742103D02*
X-2068950Y-2742103D01*
X-2085504Y-2702137D01*
X-1989017Y-2742103D01*
G37*
D10*
X-1234440Y+944880D02*
X-1080000Y+944880D01*
X-1080000Y+950000D01*
X+1066800Y-807720D02*
X+1066800Y-930000D01*
X+1060000Y-930000D01*
X+533400Y-1463040D02*
X+533400Y-1670978D01*
X+542075Y-1670978D01*
X-410000Y-1330000D02*
X-410000Y-1490980D01*
X-451040Y-1532020D01*
X-633525Y-1532020D01*
X-633525Y-1626222D01*
X+3078480Y+441960D02*
X+3081148Y+444628D01*
X+3527099Y+444628D01*
X+444628Y-3517098D02*
X+444628Y-3398520D01*
X+417574Y-3398520D01*
X+417574Y-3250000D01*
X+500000Y-3250000D01*
X+1173480Y-3022600D02*
X+1173480Y-2882900D01*
X+1172546Y-2883834D01*
X+960000Y-2883834D01*
X+960000Y-2910000D01*
X+1173480Y-3022600D02*
X+1214120Y-3063240D01*
X+1400000Y-3063240D01*
X+1400000Y-3100000D01*
X-2185371Y-2792902D02*
X-2187065Y-2791208D01*
X-2187065Y-2600000D01*
X-2050000Y-2600000D01*
X-3032760Y-426720D02*
X-3034852Y-424628D01*
X-3527099Y-424628D01*
X+372000Y+2615300D02*
X+169060Y+2615300D01*
X+137160Y+2647200D01*
X+6950Y+2647200D01*
X+372000Y+2615300D02*
X+767980Y+2615300D01*
X+853440Y+2529840D01*
X+1249680Y+2712720D02*
X-297180Y+2712720D01*
X-358660Y+2774200D01*
X-513750Y+2774200D01*
X-513750Y+3028199D02*
X-360680Y+3028199D01*
X-320040Y+3068839D01*
X-320040Y+3200000D01*
X-400000Y+3200000D01*
X+6951Y+3028200D02*
X-124460Y+3028200D01*
X-165100Y+3068840D01*
X-165100Y+3200000D01*
X-85040Y+3200000D01*
X+372000Y+2905300D02*
X+300000Y+2905300D01*
X+300000Y+3100000D01*
X+1402080Y+1859280D02*
X+1158240Y+1859280D01*
X+1844040Y-472440D02*
X+2679700Y-472440D01*
X+411480Y-1981200D02*
X+513080Y-2082800D01*
X+764540Y-2082800D01*
X+805180Y-2042160D01*
X-124000Y+1880000D02*
X+12760Y+2016760D01*
X+1610360Y+2016760D01*
X+1676400Y+1950720D01*
X-104700Y-193100D02*
X-370780Y-193100D01*
X-518160Y-45720D01*
X+3322320Y-320040D02*
X+2832100Y-320040D01*
X+2679700Y-472440D01*
X-762000Y-3017520D02*
X-884226Y-3017520D01*
X-2316480Y-2499360D02*
X-2316480Y-1920240D01*
X-884226Y-3017520D02*
X-884226Y-3011834D01*
X+130000Y+1880000D02*
X+216760Y+1793240D01*
X+1925320Y+1793240D01*
X+2103120Y+1615440D01*
X-3276600Y-1432560D02*
X-1920240Y-1432560D01*
X+2377440Y+472440D02*
X+2377440Y+868680D01*
X-513750Y+2647200D02*
X-384210Y+2647200D01*
X-384210Y+2526630D01*
X-396240Y+2514600D01*
X+1036320Y+767080D02*
X+967406Y+698166D01*
X+835774Y+698166D01*
X-1341120Y+2301240D02*
X-1341120Y+2575560D01*
X-513750Y+2647200D02*
X-645160Y+2647200D01*
X-645160Y+2901200D01*
X-513749Y+2901200D01*
X-243840Y-1981200D02*
X-236340Y-1973700D01*
X-50380Y-1973700D01*
X-899160Y-2682240D02*
X-899160Y-2800000D01*
X-900000Y-2800000D01*
X+614960Y+3100000D02*
X+614960Y+3300000D01*
X+614960Y+3100000D02*
X+541020Y+3100000D01*
X+502920Y+3138100D01*
X+502920Y+3169920D01*
X+1310640Y-2148840D02*
X+1310640Y-2590000D01*
X+1320000Y-2590000D01*
X+1752600Y-1844040D02*
X+1752600Y-1981200D01*
X-1112520Y+1935480D02*
X-426720Y+1935480D01*
X-350520Y+2011680D01*
X-1438250Y+1591158D02*
X-1438249Y+1591157D01*
X+1737360Y-1188720D02*
X+1479605Y-1188720D01*
X+1479605Y-1259605D01*
X-1752600Y-1920240D02*
X-1757680Y-1915160D01*
X-2159000Y-1915160D01*
X-2164080Y-1920240D01*
X-1571158Y+1458250D02*
X-1571157Y+1458249D01*
X-1691640Y+1584960D02*
X-1752600Y+1524000D01*
X-1935480Y+1524000D01*
X+2270760Y-1432560D02*
X+2270760Y-1005840D01*
X+2529840Y-746760D01*
X-1935480Y+1524000D02*
X-2316480Y+1524000D01*
X-213360Y-2392680D02*
X-218440Y-2387600D01*
X-1392038Y-2387600D01*
X-1392038Y-2362200D01*
X-1386840Y-2362200D01*
X-1021080Y-716280D02*
X-891801Y-716280D01*
X-891801Y-727957D01*
X-871952Y-727957D01*
X-871952Y-604520D01*
X-831312Y-563880D01*
X+365760Y-563880D01*
X-2407920Y-1798320D02*
X-1673860Y-1798320D01*
X-1320800Y-2151380D01*
X-1090232Y-2151380D01*
X-1066800Y-2127948D01*
X-949161Y-2127948D01*
X-802413Y-1981200D01*
X-243840Y-1981200D01*
X+1577340Y-68580D02*
X+1569702Y-60942D01*
X+1281366Y-60942D01*
X+1281366Y-101858D01*
X+1382018Y-101858D01*
X+1402080Y-121920D01*
X-640080Y+3291840D02*
X-640080Y+3453423D01*
X-556404Y+3537099D01*
X-434628Y+3537099D01*
X+444628Y-3517098D02*
X+823601Y-3517098D01*
X+850000Y-3490699D01*
X+850000Y-3350000D01*
X+1173480Y-2882900D02*
X+1173480Y-2836017D01*
X+1207663Y-2801834D01*
X+1304226Y-2801834D01*
X-2185371Y-2792902D02*
X-1865049Y-2792902D01*
X-1850000Y-2807951D01*
X-1850000Y-2950000D01*
X+198120Y-777240D02*
X+19050Y-777240D01*
X-160020Y-956310D01*
X-160020Y-1418177D01*
X-17926Y-1560271D01*
X+183026Y-1560271D01*
X+325120Y-1702365D01*
X+325120Y-2023440D01*
X+184360Y-2164200D01*
X+43600Y-2164200D01*
X+6951Y+2901200D02*
X+137160Y+2901200D01*
X+137160Y+3218580D01*
X+218580Y+3300000D01*
X+300000Y+3300000D01*
X-1569720Y-1310640D02*
X-1377193Y-1310640D01*
X-1184666Y-1503167D01*
X-1184666Y-2032798D01*
X+365760Y+121920D02*
X-1334770Y+121920D01*
X-1569720Y-113030D01*
X-1569720Y-1051560D01*
X+6950Y+2774200D02*
X-177800Y+2774200D01*
X-365240Y+2961640D01*
X-645160Y+2961640D01*
X-731520Y+2875280D01*
X-731520Y+2776220D01*
X-772160Y+2735580D01*
X-2499360Y-1021080D02*
X-2326640Y-1193800D01*
X-1379220Y-1193800D01*
X-1224280Y-1038860D01*
X-1073150Y-1038860D01*
X-998220Y-1113790D01*
X-998220Y-1626870D01*
X-796290Y-1828800D01*
X-594360Y-1828800D01*
X+1577340Y-68580D02*
X+1577340Y+513080D01*
X+1323340Y+767080D01*
X+1036320Y+767080D01*
X+701040Y-891540D02*
X+118971Y-891540D01*
X-60942Y-1071453D01*
X-60942Y-1251366D01*
X-1370000Y+1390000D02*
X-1081886Y+1390000D01*
X-867923Y+1176037D01*
X-867923Y+962074D01*
X-1370000Y+1390000D02*
X-1370000Y+1358569D01*
X-1662092Y+1358569D01*
X-1783080Y+1237581D01*
X-1783080Y+990600D01*
X+1577340Y-68580D02*
X+1577340Y-334010D01*
X+1791970Y-548640D01*
X+2849880Y-548640D01*
X+1828800Y-2423160D02*
X+1831340Y-2420620D01*
X+1831340Y-1188635D01*
X+1694765Y-1052060D01*
X+1300000Y-1052060D01*
X+1300000Y-1080000D01*
X-335280Y-2316480D02*
X-104140Y-2085340D01*
X+107160Y-2085340D01*
X+137580Y-2054920D01*
X+137580Y-1973700D01*
X-1112520Y+1844040D02*
X-1112520Y+1717598D01*
X-1238961Y+1591157D01*
X-1438250Y+1591158D01*
X-1691640Y+1584960D02*
X-1691640Y+1800860D01*
X-1475740Y+2016760D01*
X-646430Y+2016760D01*
X-487680Y+2175510D01*
X-487680Y+2346960D01*
X-1691640Y+1584960D02*
X-1599648Y+1584960D01*
X-1571157Y+1556469D01*
X-1571158Y+1458250D01*
X-1112520Y-1356360D02*
X-1112520Y-1651000D01*
X-858520Y-1905000D01*
X-518160Y-1905000D01*
X-2834640Y+868680D02*
X-1837690Y+868680D01*
X-1783080Y+923290D01*
X-1783080Y+990600D01*
X+1040790Y+1240000D02*
X+822830Y+1457960D01*
X+121028Y+1457960D01*
X+80388Y+1417320D01*
X+80388Y+1288578D01*
X+58498Y+1288578D01*
X+58498Y+1542126D01*
X-33030Y+1633654D01*
X-162472Y+1633654D01*
X-254000Y+1725182D01*
X-254000Y+2046000D01*
X+0Y+2300000D01*
X+1005840Y-1051560D02*
X+894269Y-1051560D01*
X+875985Y-1033276D01*
X+875985Y-945774D01*
X+848166Y-945774D01*
X+848166Y-966687D01*
X+739140Y-966687D01*
X+701040Y-928587D01*
X+701040Y-891540D01*
X-487680Y+2346960D02*
X-487680Y+2418080D01*
X-467360Y+2438400D01*
X+1386840Y+2438400D01*
X+1615440Y+2209800D01*
X+1118883Y-3230000D02*
X+1118883Y-3241365D01*
X+1118883Y-3256173D01*
X+1113390Y-3261666D01*
X+1117925Y-3239022D01*
X+1173480Y-3022600D02*
X+1118883Y-3077197D01*
X+1118883Y-3230000D01*
X+1304226Y-2801834D02*
X+1304226Y-2799540D01*
X+1313783Y-2789983D01*
X+1306075Y-2801964D01*
X+1479727Y-2730034D02*
X+1478339Y-2731422D01*
X+1478280Y-2731481D01*
X+1478280Y-2747300D01*
X+1478280Y-2926080D02*
X+1478280Y-2747300D01*
X+1478280Y-2731481D02*
X+1478280Y-2731422D01*
X+1478339Y-2731422D01*
X+1478498Y-2731422D01*
X+1668883Y-2980000D02*
X+1668883Y-2991365D01*
X+1668883Y-2998883D01*
X+1670000Y-3000000D01*
X+1667925Y-2989022D01*
X+1478280Y-2926080D02*
X+1482845Y-2921515D01*
X+1668883Y-2921515D01*
X+1668883Y-2980000D01*
X+2010118Y-2640665D02*
X+2159453Y-2790000D01*
X+2200000Y-2790000D01*
X+805180Y-2042160D02*
X+1352622Y-2042160D01*
X+1567180Y-2256718D01*
X+1567180Y-2484160D01*
X+1723685Y-2640665D01*
X+2010118Y-2640665D01*
X+2193588Y-2457195D01*
X+2193588Y-1945640D01*
X+2956560Y-1182668D01*
X+2956560Y-560070D01*
X+2868930Y-472440D01*
X+2679700Y-472440D01*
X-1059727Y-2940034D02*
X-1059727Y-2937554D01*
X-1058498Y-2936325D01*
X-1250000Y-3200000D02*
X-1250000Y-2984500D01*
X-1206922Y-2941422D01*
X-1058498Y-2941422D01*
X-1058498Y-2936325D01*
X-1058498Y-2770710D01*
X-1129208Y-2700000D01*
X-1450000Y-2700000D01*
X-981117Y-3300000D02*
X-981117Y-3308635D01*
X-981117Y-3328883D01*
X-980000Y-3330000D01*
X-982075Y-3310978D01*
X-884226Y-3017520D02*
X-884226Y-3030000D01*
X-884226Y-3119120D01*
X-924866Y-3159760D01*
X-981117Y-3159760D01*
X-981117Y-3300000D01*
X-1762971Y-2560000D02*
X-1762971Y-2562855D01*
X-1772343Y-2572227D01*
X-1764119Y-2569888D01*
X-838200Y-2499360D02*
X-850182Y-2511342D01*
X-1762971Y-2511342D01*
X-1762971Y-2560000D01*
X-1762971Y-2562855D02*
X-1762971Y-2567152D01*
X-1910000Y-2287029D02*
X-1917152Y-2287029D01*
X-1918422Y-2287029D01*
X-1937545Y-2267906D01*
X-1919888Y-2285881D01*
X-1752600Y-1920240D02*
X-1752600Y-2249203D01*
X-1790426Y-2287029D01*
X-1910000Y-2287029D01*
X-884226Y-3017520D02*
X-892751Y-3017520D01*
X-893072Y-3017841D01*
X-886075Y-3011964D01*
X-2190000Y+2825348D02*
X-2190000Y+2810001D01*
X-772160Y+2735580D02*
X-861928Y+2825348D01*
X-2190000Y+2825348D01*
X-2196278Y+2825348D01*
X+433722Y+3500000D02*
X+433722Y+3514654D01*
X+433722Y+3523722D01*
X+440000Y+3530000D01*
X+6950Y+2774200D02*
X+448570Y+2774200D01*
X+502920Y+2828550D01*
X+502920Y+2997200D01*
X+433722Y+3066398D01*
X+433722Y+3500000D01*
X-704103Y+2330000D02*
X-704103Y+2323862D01*
X-696399Y+2316158D01*
X-704103Y+2317750D01*
X-704515Y+2317835D01*
X-704103Y+2316825D02*
X-704103Y+2317750D01*
X-704103Y+2323862D01*
X-704103Y+2330000D02*
X-704103Y+2667523D01*
X-772160Y+2735580D01*
X-1341120Y+2301240D02*
X-1263055Y+2223175D01*
X-935897Y+2223175D01*
X-935897Y+2194560D01*
X-846997Y+2105660D01*
X-681821Y+2105660D01*
X-560000Y+2227481D01*
X-560000Y+2441010D01*
X-486410Y+2514600D01*
X-396240Y+2514600D01*
X-100000Y+1430000D02*
X-100000Y+1423916D01*
X-415335Y+1337202D02*
X-412713Y+1339824D01*
X-322537Y+1430000D01*
X-160507Y+1430000D01*
X-100000Y+1430000D01*
X-409824Y+1339824D02*
X-412713Y+1339824D01*
X-419822Y+1339824D01*
X-424127Y+1335519D01*
X-415335Y+1337202D01*
X-3490000Y+442276D02*
X-3490000Y+438234D01*
X-3493605Y+434629D01*
X-3501235Y+435864D01*
X-1905000Y+457200D02*
X-1919924Y+442276D01*
X-3490000Y+442276D01*
X-3516526Y+442276D01*
X-1310000Y+28498D02*
X-1298578Y+28498D01*
X-1299966Y+29727D01*
X-1356360Y-259080D02*
X-1326397Y-229117D01*
X-1326397Y+28498D01*
X-1310000Y+28498D01*
X-1344824Y-404824D02*
X-1336023Y-413625D01*
X-1336023Y-423447D01*
X-1337202Y-415335D01*
X-1120000Y-324496D02*
X-1105866Y-324496D01*
X-1097202Y-325335D01*
X-1095151Y-324496D02*
X-1105866Y-324496D01*
X-1630000Y-680000D02*
X-1701957Y-751957D01*
X-1701957Y-946871D01*
X-1701957Y-1086963D01*
X-1661160Y-1127760D01*
X-1630000Y-680000D02*
X-1630000Y+587420D01*
X-1409700Y+807720D01*
X-1158240Y+807720D01*
X-115774Y+1210000D02*
X-115774Y+1218166D01*
X-113925Y+1218036D01*
X+289560Y+655320D02*
X-115774Y+1060654D01*
X-115774Y+1210000D01*
X+820000Y+910000D02*
X+820000Y+920196D01*
X+817688Y+922508D01*
X+560176Y+1000176D02*
X+551837Y+1008515D01*
X+547828Y+1008515D01*
X+570176Y+990176D02*
X+560176Y+1000176D01*
X+554665Y+1002798D01*
X+647463Y+910000D01*
X+820000Y+910000D01*
X+1330000Y+416193D02*
X+1339246Y+416193D01*
X+1337202Y+415335D01*
X+1339246Y+416193D02*
X+1466761Y+288678D01*
X+1466761Y+100000D01*
X+1420000Y+100000D01*
X+1120000Y+316193D02*
X+1105220Y+316193D01*
X+1093071Y+328342D01*
X+1097202Y+315335D01*
X+1099246Y+316193D02*
X+1105220Y+316193D01*
X+1120000Y+316193D02*
X+1216660Y+316193D01*
X+1216660Y+416193D01*
X+1330000Y+416193D01*
X+2770562Y+2179438D02*
X+2784022Y+2192898D01*
X+2792715Y+2192898D01*
X+2800001Y+2200000D01*
X+2784022Y+2192898D02*
X+2791124Y+2200000D01*
X+2800001Y+2200000D01*
X+2670562Y+2079438D02*
X+2670562Y+2079439D01*
X+2768240Y+2177117D02*
X+2768241Y+2177117D01*
X+2784826Y+2177117D01*
X+2804553Y+2196844D01*
X+2800001Y+2200000D01*
X+1676400Y+1950720D02*
X+2541843Y+1950720D01*
X+2670562Y+2079439D01*
X+2670562Y+2079438D02*
X+2768241Y+2177117D01*
X+2768240Y+2177117D02*
X+2784711Y+2193588D01*
X+2720562Y+2129438D02*
X+2768241Y+2177117D01*
X+2768240Y+2177117D02*
X+2770562Y+2179438D01*
X-1112520Y+1844040D02*
X-774700Y+1506220D01*
X-774700Y+667083D01*
X-520700Y+413083D01*
X+236192Y+413083D01*
X+472440Y+176835D01*
X+472440Y-187932D01*
X+721388Y-436880D01*
X+1071880Y-436880D01*
X+1165000Y-530000D01*
X+1285650Y-530000D01*
X+1363980Y-608330D01*
X+1363980Y-798908D01*
X+1471852Y-906780D01*
X+1714500Y-906780D01*
X+1737360Y-929640D01*
X+1200000Y+112074D02*
X+1207923Y+112074D01*
X+1216107Y+112074D01*
X+1216171Y+112138D01*
X+1208036Y+113925D01*
X+1828800Y-899160D02*
X+1457960Y-528320D01*
X+1457960Y-281784D01*
X+1376836Y-200660D01*
X+1262106Y-200660D01*
X+1180982Y-119536D01*
X+1180982Y+112074D01*
X+1200000Y+112074D01*
X+918578Y-790000D02*
X+918578Y-780000D01*
X+919966Y-770273D01*
X+792480Y-822960D02*
X+802725Y-812715D01*
X+918578Y-812715D01*
X+918578Y-790000D01*
X+918578Y-780000D02*
X+918578Y-771502D01*
X-910000Y+789058D02*
X-930000Y+789058D01*
X-939966Y+790273D01*
X+259080Y-1783080D02*
X+29210Y-1783080D01*
X-200660Y-1553210D01*
X-200660Y-896443D01*
X-15417Y-711200D01*
X+316407Y-711200D01*
X+431800Y-595807D01*
X+431800Y+154290D01*
X+342900Y+243190D01*
X-688479Y+243190D01*
X-848360Y+403071D01*
X-848360Y+789058D01*
X-910000Y+789058D01*
X-930000Y+789058D02*
X-941366Y+789058D01*
X-1310000Y-414496D02*
X-1311525Y-414496D01*
X-1339603Y-442574D01*
X-1337202Y-415335D01*
X-1120000Y-324496D02*
X-1216660Y-324496D01*
X-1216660Y-414496D01*
X-1310000Y-414496D01*
X-1311525Y-414496D02*
X-1335151Y-414496D01*
X-1467819Y-281828D01*
X-1467819Y-130000D01*
X-1440000Y-130000D01*
X-1220000Y-152400D02*
X-1228036Y-144364D01*
X-1228036Y-143925D01*
X-624840Y-152400D02*
X-1220000Y-152400D01*
X-1228166Y-152400D01*
X-1228166Y-145774D01*
X-580000Y-1010754D02*
X-568632Y-1010754D01*
X-556851Y-1022535D01*
X-554665Y-1012798D01*
X-553807Y-1010754D02*
X-568632Y-1010754D01*
X-580000Y-1010754D02*
X-766914Y-1010754D01*
X-789940Y-1033780D01*
X-879727Y-1033780D01*
X-879727Y-940034D01*
X-731520Y-830000D02*
X-731520Y-821520D01*
X-710000Y-800000D01*
X-720000Y-800000D01*
X-731520Y-929640D02*
X-731520Y-830000D01*
X-731520Y-821520D02*
X-731520Y-801400D01*
X-718785Y-801400D01*
X+1080000Y-1290000D02*
X+1080000Y-1262060D01*
X+904240Y-1262060D01*
X+769300Y-1397000D01*
X+574040Y-1397000D01*
X+533096Y-1356056D01*
X+533096Y-1267460D01*
X+443096Y-1177460D01*
X+443096Y-1058630D01*
X+354466Y-970000D01*
X+226335Y-970000D01*
X+112074Y-1084261D01*
X+112074Y-1178572D01*
X+118586Y-1185084D01*
X+113925Y-1178036D01*
X+100000Y-1390000D02*
X+362537Y-1390000D01*
X+415335Y-1337202D01*
X-364642Y-1820000D02*
X-364642Y-1734857D01*
X-364642Y-1730006D01*
X-365110Y-1729538D01*
X-365600Y-1737200D01*
X+243840Y-1981200D02*
X+243840Y-1912620D01*
X+226060Y-1894840D01*
X-348151Y-1894840D01*
X-364642Y-1878349D01*
X-364642Y-1820000D01*
X+644758Y-2980000D02*
X+644758Y-3022946D01*
X+635423Y-3032281D01*
X+645881Y-3040112D01*
X+167640Y-2727960D02*
X+490055Y-2727960D01*
X+644758Y-2882663D01*
X+644758Y-2980000D01*
X+644758Y-3022946D02*
X+644758Y-3037366D01*
X+340000Y-2934758D02*
X+355242Y-2934758D01*
X+370000Y-2920000D01*
X+369896Y-2934758D01*
X+369888Y-2935881D01*
X+372634Y-2934758D02*
X+369896Y-2934758D01*
X+355242Y-2934758D01*
X+340000Y-2934758D02*
X-263102Y-2934758D01*
X-769620Y-2428240D01*
X-1600200Y-2428240D01*
X-1600200Y-2438400D01*
X-420560Y-3519440D02*
X-430000Y-3510000D01*
X-430000Y-3520000D01*
X+411480Y-1981200D02*
X+411480Y-2286000D01*
X+82232Y-2615248D01*
X+82232Y-2736374D01*
X+152558Y-2806700D01*
X+437341Y-2806700D01*
X+510540Y-2879899D01*
X+510540Y-3029411D01*
X+418291Y-3121660D01*
X-22781Y-3121660D01*
X-420560Y-3519440D01*
X-436412Y-3535291D01*
X+661502Y+780000D02*
X+661502Y+768578D01*
X+660273Y+769966D01*
X+1935480Y-381000D02*
X+1789430Y-381000D01*
X+1643380Y-234950D01*
X+1643380Y+579120D01*
X+1389380Y+833120D01*
X+929302Y+833120D01*
X+911860Y+815678D01*
X+661502Y+815678D01*
X+661502Y+780000D01*
X+805000Y-1630000D02*
X+805000Y-1568301D01*
X+805180Y-1568121D01*
X+810958Y-1562343D01*
X+810000Y-1560000D01*
X+805180Y-2042160D02*
X+805180Y-1568121D01*
X+805180Y-1562343D01*
X+810958Y-1562343D01*
X-1540000Y-3058635D02*
X-1563562Y-3058635D01*
X-1575789Y-3046408D01*
X-1581064Y-3058635D01*
X-1582075Y-3060978D01*
X-1250000Y-3200000D02*
X-1412240Y-3200000D01*
X-1452880Y-3159360D01*
X-1452880Y-3087339D01*
X-1481584Y-3058635D01*
X-1540000Y-3058635D01*
X-1563562Y-3058635D02*
X-1581064Y-3058635D01*
X-1581117Y-3058635D01*
X+1051560Y+1539240D02*
X+1158240Y+1432560D01*
X+2530000Y+1430000D01*
D11*
X+533400Y-1463040D03*
X+3078480Y+441960D03*
X-3032760Y-426720D03*
X+853440Y+2529840D03*
X+1249680Y+2712720D03*
X+1158240Y+1859280D03*
X+1402080Y+1859280D03*
X+1478280Y-2926080D03*
X+2377440Y+868680D03*
X-838200Y-2499360D03*
X-1341120Y+2575560D03*
X-899160Y-2682240D03*
X+502920Y+3169920D03*
X+1310640Y-2148840D03*
X+289560Y+655320D03*
X+792480Y-822960D03*
X-350520Y+2011680D03*
X-1112520Y+1935480D03*
X+1737360Y-1188720D03*
X+2270760Y-1432560D03*
X-2316480Y+1524000D03*
X-1386840Y-2362200D03*
X-213360Y-2392680D03*
X-2407920Y-1798320D03*
X-243840Y-1981200D03*
X+1402080Y-121920D03*
X-1600200Y-2438400D03*
X-1234440Y+944880D03*
X-1905000Y+457200D03*
X-640080Y+3291840D03*
X+198120Y-777240D03*
X-1569720Y-1310640D03*
X-1569720Y-1051560D03*
X+243840Y-1981200D03*
X+167640Y-2727960D03*
X-594360Y-1828800D03*
X+1036320Y+767080D03*
X+2849880Y-548640D03*
X+259080Y-1783080D03*
X+1828800Y-2423160D03*
X-335280Y-2316480D03*
X-1752600Y-1920240D03*
X-1691640Y+1584960D03*
X-1112520Y-1356360D03*
X-518160Y-1905000D03*
X-2834640Y+868680D03*
X-487680Y+2346960D03*
X+411480Y-1981200D03*
X+1066800Y-807720D03*
X+365760Y+121920D03*
X+3322320Y-320040D03*
X-762000Y-3017520D03*
X-2316480Y-2499360D03*
X-3276600Y-1432560D03*
X-2499360Y-1021080D03*
X-1783080Y+990600D03*
X+701040Y-891540D03*
X+365760Y-563880D03*
X-1021080Y-716280D03*
X-1356360Y-259080D03*
X+1005840Y-1051560D03*
X+1752600Y-1981200D03*
X+1935480Y-381000D03*
X+1752600Y-1844040D03*
X-731520Y-929640D03*
X-624840Y-152400D03*
X+1828800Y-899160D03*
X+1844040Y-472440D03*
X+1676400Y+1950720D03*
X-518160Y-45720D03*
X-2316480Y-1920240D03*
X-2164080Y-1920240D03*
X+1615440Y+2209800D03*
X+2529840Y-746760D03*
X-1920240Y-1432560D03*
X+2377440Y+472440D03*
X+2103120Y+1615440D03*
X-1341120Y+2301240D03*
X-396240Y+2514600D03*
X-1935480Y+1524000D03*
X-1661160Y-1127760D03*
X-1158240Y+807720D03*
X-1112520Y+1844040D03*
X+1737360Y-929640D03*
X+1051560Y+1539240D03*
X+2530000Y+1430000D03*
D10*
X+196363Y+3664019D02*
X+387448Y+3649005D01*
X+393513Y+3648207D01*
X+342799Y+3627201D01*
X+302537Y+3530000D01*
X+342799Y+3432799D01*
X+382923Y+3416179D01*
X+382923Y+3414299D01*
X+211101Y+3414299D01*
X+211101Y+3350799D01*
X+197539Y+3350799D01*
X+86361Y+3239621D01*
X+86361Y+3098049D01*
X+3859Y+3098049D01*
X+3859Y+3314299D01*
X-173939Y+3314299D01*
X-173939Y+3250799D01*
X-186141Y+3250799D01*
X-215899Y+3221041D01*
X-215899Y+3047799D01*
X-145501Y+2977401D01*
X-132748Y+2977401D01*
X-132748Y+2844049D01*
X-132749Y+2844049D01*
X-132749Y+2824999D01*
X-156759Y+2824999D01*
X-324400Y+2992640D01*
X-269241Y+3047798D01*
X-269241Y+3221041D01*
X-298999Y+3250799D01*
X-311101Y+3250799D01*
X-311101Y+3314299D01*
X-488899Y+3314299D01*
X-488899Y+3098048D01*
X-653449Y+3098048D01*
X-653449Y+3012439D01*
X-666201Y+3012439D01*
X-782319Y+2896321D01*
X-782319Y+2817579D01*
X-840887Y+2876147D01*
X-2079936Y+2876147D01*
X-2092799Y+2907202D01*
X-2181829Y+2944080D01*
X-2160052Y+2960940D01*
X-1999879Y+3071838D01*
X-1834382Y+3173866D01*
X-1664052Y+3266795D01*
X-1489316Y+3350453D01*
X-1310733Y+3424632D01*
X-1128761Y+3489196D01*
X-943934Y+3544006D01*
X-756757Y+3588960D01*
X-567765Y+3623975D01*
X-534282Y+3628379D01*
X-551049Y+3587898D01*
X-577445Y+3587898D01*
X-690879Y+3474464D01*
X-690879Y+3348803D01*
X-716279Y+3323403D01*
X-716279Y+3260277D01*
X-671643Y+3215641D01*
X-608517Y+3215641D01*
X-563881Y+3260277D01*
X-563881Y+3323403D01*
X-589281Y+3348803D01*
X-589281Y+3432382D01*
X-546455Y+3475208D01*
X-531829Y+3439898D01*
X-434628Y+3399636D01*
X-337427Y+3439898D01*
X-297165Y+3537099D01*
X-337427Y+3634300D01*
X-373649Y+3649304D01*
X-186363Y+3664019D01*
X+5000Y+3669019D01*
X+196363Y+3664019D01*
X+577765Y+3623975D02*
X+766757Y+3588960D01*
X+953934Y+3544006D01*
X+1138761Y+3489196D01*
X+1320733Y+3424632D01*
X+1499316Y+3350453D01*
X+1674052Y+3266795D01*
X+1844382Y+3173866D01*
X+2009879Y+3071838D01*
X+2170052Y+2960940D01*
X+2198073Y+2939246D01*
X+2195371Y+2940365D01*
X+2098170Y+2900103D01*
X+2057908Y+2802902D01*
X+2098170Y+2705701D01*
X+2195371Y+2665439D01*
X+2292572Y+2705701D01*
X+2332834Y+2802902D01*
X+2313315Y+2850024D01*
X+2324434Y+2841416D01*
X+2472564Y+2713535D01*
X+2614009Y+2577568D01*
X+2748372Y+2433774D01*
X+2844606Y+2318987D01*
X+2800001Y+2337463D01*
X+2702800Y+2297201D01*
X+2662538Y+2200000D01*
X+2679159Y+2159875D01*
X+2649522Y+2130238D01*
X+2649520Y+2130238D01*
X+2619763Y+2100480D01*
X+2520801Y+2001518D01*
X+1733363Y+2001519D01*
X+1707963Y+2026919D01*
X+1672041Y+2026919D01*
X+1631401Y+2067559D01*
X-8281Y+2067559D01*
X-56141Y+2019699D01*
X-263699Y+2019699D01*
X-263699Y+1740301D01*
X+269699Y+1740301D01*
X+269699Y+1742441D01*
X+1904279Y+1742441D01*
X+2026921Y+1619799D01*
X+2026921Y+1583877D01*
X+2071557Y+1539241D01*
X+2134683Y+1539241D01*
X+2179319Y+1583877D01*
X+2179319Y+1647003D01*
X+2134683Y+1691639D01*
X+2098761Y+1691639D01*
X+1946361Y+1844039D01*
X+1478279Y+1844039D01*
X+1478279Y+1890843D01*
X+1433643Y+1935479D01*
X+1370517Y+1935479D01*
X+1345117Y+1910079D01*
X+1215203Y+1910079D01*
X+1189803Y+1935479D01*
X+1126677Y+1935479D01*
X+1082041Y+1890843D01*
X+1082041Y+1844039D01*
X+269699Y+1844039D01*
X+269699Y+1965961D01*
X+1589319Y+1965961D01*
X+1600201Y+1955079D01*
X+1600201Y+1919157D01*
X+1644837Y+1874521D01*
X+1707963Y+1874521D01*
X+1733363Y+1899921D01*
X+2562885Y+1899922D01*
X+2691602Y+2028639D01*
X+2691604Y+2028639D01*
X+2747322Y+2084358D01*
X+2800001Y+2062537D01*
X+2897202Y+2102799D01*
X+2937334Y+2199686D01*
X+2994154Y+2123958D01*
X+3104823Y+1958490D01*
X+3206841Y+1786358D01*
X+3299866Y+1607773D01*
X+3383578Y+1422824D01*
X+3457621Y+1231549D01*
X+3521678Y+1033584D01*
X+3575393Y+827981D01*
X+3618363Y+612113D01*
X+3629555Y+529143D01*
X+3624300Y+541829D01*
X+3527099Y+582091D01*
X+3429898Y+541829D01*
X+3410678Y+495427D01*
X+3132775Y+495427D01*
X+3110043Y+518159D01*
X+3046917Y+518159D01*
X+3002281Y+473523D01*
X+3002281Y+410397D01*
X+3046917Y+365761D01*
X+3110043Y+365761D01*
X+3138111Y+393829D01*
X+3410678Y+393829D01*
X+3429898Y+347427D01*
X+3527099Y+307165D01*
X+3624300Y+347427D01*
X+3646754Y+401635D01*
X+3650000Y+377570D01*
X+3668961Y+5000D01*
X+3650000Y-367570D01*
X+3647937Y-382864D01*
X+3627200Y-332800D01*
X+3529999Y-292538D01*
X+3432798Y-332800D01*
X+3392536Y-430001D01*
X+3432798Y-527202D01*
X+3529999Y-567464D01*
X+3627200Y-527202D01*
X+3629080Y-522664D01*
X+3618363Y-602113D01*
X+3575393Y-817981D01*
X+3521678Y-1023584D01*
X+3457621Y-1221549D01*
X+3383578Y-1412824D01*
X+3299866Y-1597773D01*
X+3206841Y-1776358D01*
X+3104823Y-1948490D01*
X+2994154Y-2113958D01*
X+2940109Y-2185987D01*
X+2940364Y-2185372D01*
X+2900102Y-2088171D01*
X+2802901Y-2047909D01*
X+2705700Y-2088171D01*
X+2665438Y-2185372D01*
X+2705700Y-2282573D01*
X+2802901Y-2322835D01*
X+2849007Y-2303737D01*
X+2748372Y-2423774D01*
X+2614009Y-2567568D01*
X+2472564Y-2703535D01*
X+2324434Y-2831416D01*
X+2318360Y-2836118D01*
X+2337463Y-2790000D01*
X+2297201Y-2692799D01*
X+2200000Y-2652537D01*
X+2124926Y-2683633D01*
X+2081958Y-2640665D01*
X+2244387Y-2478236D01*
X+2244387Y-1966681D01*
X+3007359Y-1203709D01*
X+3007359Y-539029D01*
X+2889971Y-421641D01*
X+2802339Y-421641D01*
X+2853141Y-370839D01*
X+3265357Y-370839D01*
X+3290757Y-396239D01*
X+3353883Y-396239D01*
X+3398519Y-351603D01*
X+3398519Y-288477D01*
X+3353883Y-243841D01*
X+3290757Y-243841D01*
X+3265357Y-269241D01*
X+2811059Y-269241D01*
X+2658659Y-421641D01*
X+2002601Y-421641D01*
X+2011679Y-412563D01*
X+2011679Y-349437D01*
X+2000341Y-338099D01*
X+2140045Y-338099D01*
X+2338099Y-140045D01*
X+2338099Y+140045D01*
X+2140045Y+338099D01*
X+1859955Y+338099D01*
X+1694179Y+172323D01*
X+1694179Y+600161D01*
X+1410421Y+883919D01*
X+908261Y+883919D01*
X+891679Y+867337D01*
X+930286Y+960542D01*
X+777755Y+1023722D01*
X+751691Y+960799D01*
X+681664Y+960799D01*
X+681664Y+1055403D01*
X+621268Y+1115799D01*
X+707270Y+1115799D01*
X+781664Y+1190193D01*
X+781664Y+1295403D01*
X+707270Y+1369797D01*
X+602060Y+1369797D01*
X+546999Y+1314736D01*
X+546999Y+1392605D01*
X+472605Y+1466999D01*
X+367395Y+1466999D01*
X+293001Y+1392605D01*
X+293001Y+1287395D01*
X+353397Y+1226999D01*
X+267395Y+1226999D01*
X+193001Y+1152605D01*
X+193001Y+1047395D01*
X+267395Y+973001D01*
X+372605Y+973001D01*
X+427666Y+1028062D01*
X+427666Y+950193D01*
X+502060Y+875799D01*
X+607270Y+875799D01*
X+608547Y+877076D01*
X+613314Y+872309D01*
X+549987Y+719424D01*
X+702518Y+656244D01*
X+747517Y+764879D01*
X+772262Y+764879D01*
X+723639Y+647494D01*
X+873001Y+585627D01*
X+873001Y+497395D01*
X+947395Y+423001D01*
X+1025264Y+423001D01*
X+970203Y+367940D01*
X+970203Y+262730D01*
X+1044597Y+188336D01*
X+1149807Y+188336D01*
X+1224201Y+262730D01*
X+1224201Y+265394D01*
X+1237701Y+265394D01*
X+1267459Y+295152D01*
X+1267459Y+305474D01*
X+1284597Y+288336D01*
X+1389807Y+288336D01*
X+1392535Y+291064D01*
X+1415962Y+267637D01*
X+1415962Y+187678D01*
X+1306278Y+142245D01*
X+1369458Y-10286D01*
X+1533722Y+57755D01*
X+1517560Y+96774D01*
X+1517560Y+309719D01*
X+1464201Y+363078D01*
X+1464201Y+467940D01*
X+1389807Y+542334D01*
X+1311938Y+542334D01*
X+1366999Y+597395D01*
X+1366999Y+702605D01*
X+1292605Y+776999D01*
X+1187395Y+776999D01*
X+1113001Y+702605D01*
X+1113001Y+616603D01*
X+1052605Y+676999D01*
X+947395Y+676999D01*
X+891345Y+620949D01*
X+944211Y+748578D01*
X+904857Y+764879D01*
X+932901Y+764879D01*
X+950343Y+782321D01*
X+1006660Y+782321D01*
X+1004570Y+780231D01*
X+1004570Y+753929D01*
X+1023169Y+735330D01*
X+1049471Y+735330D01*
X+1068070Y+753929D01*
X+1068070Y+780231D01*
X+1065980Y+782321D01*
X+1368339Y+782321D01*
X+1592581Y+558079D01*
X+1592581Y-255991D01*
X+1768389Y-431799D01*
X+1776919Y-431799D01*
X+1767841Y-440877D01*
X+1767841Y-504003D01*
X+1812477Y-548639D01*
X+1875603Y-548639D01*
X+1901003Y-523239D01*
X+2830380Y-523239D01*
X+2818130Y-535489D01*
X+2818130Y-561791D01*
X+2836729Y-580390D01*
X+2863031Y-580390D01*
X+2881630Y-561791D01*
X+2881630Y-556980D01*
X+2905761Y-581111D01*
X+2905761Y-1161627D01*
X+2142789Y-1924599D01*
X+2142789Y-2436154D01*
X+1989077Y-2589866D01*
X+1744726Y-2589866D01*
X+1617979Y-2463119D01*
X+1617979Y-2235677D01*
X+1373663Y-1991361D01*
X+855979Y-1991361D01*
X+855979Y-1692164D01*
X+957326Y-1650185D01*
X+850405Y-1392055D01*
X+843030Y-1395110D01*
X+915288Y-1322852D01*
X+1439210Y-1846774D01*
X+1636774Y-1649210D01*
X+1080000Y-1092436D01*
X+961175Y-1211261D01*
X+883199Y-1211261D01*
X+748259Y-1346201D01*
X+723403Y-1346201D01*
X+776999Y-1292605D01*
X+776999Y-1187395D01*
X+702605Y-1113001D01*
X+636603Y-1113001D01*
X+686999Y-1062605D01*
X+686999Y-957395D01*
X+612605Y-883001D01*
X+507395Y-883001D01*
X+433001Y-957395D01*
X+433001Y-976695D01*
X+375507Y-919201D01*
X+205294Y-919201D01*
X+61275Y-1063220D01*
X+61275Y-1103621D01*
X+3639Y-1127494D01*
X+71680Y-1291758D01*
X+224211Y-1228578D01*
X+170138Y-1098037D01*
X+198336Y-1069839D01*
X+198336Y-1159807D01*
X+272730Y-1234201D01*
X+338732Y-1234201D01*
X+288336Y-1284597D01*
X+288336Y-1339201D01*
X+168309Y-1339201D01*
X+142245Y-1276278D01*
X-10286Y-1339458D01*
X+57755Y-1503722D01*
X+209666Y-1440799D01*
X+339328Y-1440799D01*
X+362730Y-1464201D01*
X+457201Y-1464201D01*
X+457201Y-1494603D01*
X+482601Y-1520003D01*
X+482601Y-1544404D01*
X+394749Y-1580793D01*
X+501670Y-1838923D01*
X+689401Y-1761163D01*
X+587954Y-1516248D01*
X+609599Y-1494603D01*
X+609599Y-1447799D01*
X+715826Y-1447799D01*
X+662674Y-1469815D01*
X+754381Y-1691215D01*
X+754381Y-2021119D01*
X+743498Y-2032002D01*
X+534122Y-2032002D01*
X+487679Y-1985559D01*
X+487679Y-1949637D01*
X+443043Y-1905001D01*
X+379917Y-1905001D01*
X+375919Y-1908999D01*
X+375919Y-1681324D01*
X+204067Y-1509472D01*
X+3115Y-1509472D01*
X-109221Y-1397136D01*
X-109221Y-1346188D01*
X-101972Y-1363688D01*
X+50559Y-1300508D01*
X-17482Y-1136244D01*
X-109221Y-1174243D01*
X-109221Y-977351D01*
X+40091Y-828039D01*
X+141157Y-828039D01*
X+166557Y-853439D01*
X+229683Y-853439D01*
X+274319Y-808803D01*
X+274319Y-761999D01*
X+337448Y-761999D01*
X+482599Y-616848D01*
X+482599Y-269931D01*
X+700347Y-487679D01*
X+890180Y-487679D01*
X+875799Y-502060D01*
X+875799Y-607270D01*
X+950193Y-681664D01*
X+1055403Y-681664D01*
X+1115799Y-621268D01*
X+1115799Y-707270D01*
X+1190193Y-781664D01*
X+1295403Y-781664D01*
X+1313181Y-763886D01*
X+1313181Y-819949D01*
X+1450811Y-957579D01*
X+1661161Y-957579D01*
X+1661161Y-961203D01*
X+1701219Y-1001261D01*
X+1418825Y-1001261D01*
X+1300000Y-882436D01*
X+1102436Y-1080000D01*
X+1659210Y-1636774D01*
X+1780541Y-1515443D01*
X+1780541Y-1767841D01*
X+1721037Y-1767841D01*
X+1676401Y-1812477D01*
X+1676401Y-1875603D01*
X+1701801Y-1901003D01*
X+1701801Y-1924237D01*
X+1676401Y-1949637D01*
X+1676401Y-2012763D01*
X+1721037Y-2057399D01*
X+1780541Y-2057399D01*
X+1780541Y-2363657D01*
X+1752601Y-2391597D01*
X+1752601Y-2454723D01*
X+1797237Y-2499359D01*
X+1860363Y-2499359D01*
X+1904999Y-2454723D01*
X+1904999Y-2391597D01*
X+1882139Y-2368737D01*
X+1882139Y-1167594D01*
X+1720384Y-1005839D01*
X+1768923Y-1005839D01*
X+1799403Y-975359D01*
X+1860363Y-975359D01*
X+1904999Y-930723D01*
X+1904999Y-867597D01*
X+1860363Y-822961D01*
X+1824441Y-822961D01*
X+1508759Y-507279D01*
X+1508759Y-260743D01*
X+1401686Y-153670D01*
X+1415231Y-153670D01*
X+1433830Y-135071D01*
X+1433830Y-108769D01*
X+1415231Y-90170D01*
X+1388929Y-90170D01*
X+1388837Y-90262D01*
X+1330508Y+50559D01*
X+1231781Y+9665D01*
X+1231781Y+34410D01*
X+1321758Y+71680D01*
X+1258578Y+224211D01*
X+1094314Y+156170D01*
X+1130183Y+69574D01*
X+1130183Y-140577D01*
X+1241065Y-251459D01*
X+1355795Y-251459D01*
X+1407161Y-302825D01*
X+1407161Y-307557D01*
X+1392605Y-293001D01*
X+1287395Y-293001D01*
X+1226999Y-353397D01*
X+1226999Y-267395D01*
X+1152605Y-193001D01*
X+1047395Y-193001D01*
X+973001Y-267395D01*
X+973001Y-372605D01*
X+986477Y-386081D01*
X+742429Y-386081D01*
X+523239Y-166891D01*
X+523239Y+197876D01*
X+257233Y+463882D01*
X-499659Y+463882D01*
X-723902Y+688125D01*
X-723902Y+1134298D01*
X-702605Y+1113001D01*
X-626603Y+1113001D01*
X-676999Y+1062605D01*
X-676999Y+957395D01*
X-602605Y+883001D01*
X-497395Y+883001D01*
X-423001Y+957395D01*
X-423001Y+1035264D01*
X-367940Y+980203D01*
X-262730Y+980203D01*
X-188336Y+1054597D01*
X-188336Y+1159807D01*
X-262730Y+1234201D01*
X-338732Y+1234201D01*
X-288336Y+1284597D01*
X-288336Y+1379201D01*
X-168309Y+1379201D01*
X-142245Y+1316278D01*
X+10286Y+1379458D01*
X-57755Y+1543722D01*
X-209666Y+1480799D01*
X-343578Y+1480799D01*
X-361453Y+1462924D01*
X-362730Y+1464201D01*
X-467940Y+1464201D01*
X-542334Y+1389807D01*
X-542334Y+1311938D01*
X-597395Y+1366999D01*
X-702605Y+1366999D01*
X-723902Y+1345702D01*
X-723902Y+1527262D01*
X-1036321Y+1839681D01*
X-1036321Y+1875603D01*
X-1045399Y+1884681D01*
X-405679Y+1884681D01*
X-354879Y+1935481D01*
X-318957Y+1935481D01*
X-274321Y+1980117D01*
X-274321Y+2043243D01*
X-318957Y+2087879D01*
X-382083Y+2087879D01*
X-426719Y+2043243D01*
X-426719Y+2007321D01*
X-447761Y+1986279D01*
X-605071Y+1986279D01*
X-436881Y+2154469D01*
X-436881Y+2289997D01*
X-411481Y+2315397D01*
X-411481Y+2378523D01*
X-420559Y+2387601D01*
X-277242Y+2387601D01*
X-317499Y+2347344D01*
X-317499Y+2252656D01*
X-250544Y+2185701D01*
X-155856Y+2185701D01*
X-101600Y+2239957D01*
X-47344Y+2185701D01*
X+47344Y+2185701D01*
X+101600Y+2239957D01*
X+155856Y+2185701D01*
X+250544Y+2185701D01*
X+317499Y+2252656D01*
X+317499Y+2347344D01*
X+277242Y+2387601D01*
X+763393Y+2387601D01*
X+699691Y+2233812D01*
X+910888Y+2146331D01*
X+998369Y+2357528D01*
X+925767Y+2387601D01*
X+1365799Y+2387601D01*
X+1539241Y+2214159D01*
X+1539241Y+2178237D01*
X+1583877Y+2133601D01*
X+1647003Y+2133601D01*
X+1691639Y+2178237D01*
X+1691639Y+2241363D01*
X+1647003Y+2285999D01*
X+1611081Y+2285999D01*
X+1407881Y+2489199D01*
X+920561Y+2489199D01*
X+929639Y+2498277D01*
X+929639Y+2561403D01*
X+885003Y+2606039D01*
X+849081Y+2606039D01*
X+793199Y+2661921D01*
X+1192717Y+2661921D01*
X+1218117Y+2636521D01*
X+1281243Y+2636521D01*
X+1325879Y+2681157D01*
X+1325879Y+2744283D01*
X+1281243Y+2788919D01*
X+1218117Y+2788919D01*
X+1192717Y+2763519D01*
X+509729Y+2763519D01*
X+553719Y+2807509D01*
X+553719Y+2985701D01*
X+703859Y+2985701D01*
X+703859Y+3414299D01*
X+526061Y+3414299D01*
X+526061Y+3191680D01*
X+516071Y+3201670D01*
X+489769Y+3201670D01*
X+484521Y+3196422D01*
X+484521Y+3410978D01*
X+537201Y+3432799D01*
X+577463Y+3530000D01*
X+537201Y+3627201D01*
X+529741Y+3630291D01*
X+577765Y+3623975D01*
X-3639Y+1167494D02*
X-64975Y+1142088D01*
X-64975Y+1081695D01*
X+285201Y+731519D01*
X+321123Y+731519D01*
X+365759Y+686883D01*
X+365759Y+623757D01*
X+321123Y+579121D01*
X+257997Y+579121D01*
X+213361Y+623757D01*
X+213361Y+659679D01*
X-166573Y+1039613D01*
X-166573Y+1129429D01*
X-224211Y+1268578D01*
X-71680Y+1331758D01*
X-3639Y+1167494D01*
X+170013Y+1239424D02*
X+17482Y+1176244D01*
X-50559Y+1340508D01*
X+101972Y+1403688D01*
X+170013Y+1239424D01*
X+1033688Y-728028D02*
X+1030123Y-736635D01*
X+1035237Y-731521D01*
X+1098363Y-731521D01*
X+1142999Y-776157D01*
X+1142999Y-839283D01*
X+1117723Y-864559D01*
X+1173722Y-887755D01*
X+1110542Y-1040286D01*
X+946278Y-972245D01*
X+998203Y-846885D01*
X+990601Y-839283D01*
X+990601Y-832050D01*
X+970508Y-880559D01*
X+929358Y-863514D01*
X+869618Y-863514D01*
X+961758Y-901680D01*
X+898578Y-1054211D01*
X+734314Y-986170D01*
X+770355Y-899159D01*
X+760917Y-899159D01*
X+716281Y-854523D01*
X+716281Y-791397D01*
X+760917Y-746761D01*
X+824043Y-746761D01*
X+830717Y-753435D01*
X+869424Y-659987D01*
X+1033688Y-728028D01*
X+982925Y+1100301D02*
X+901091Y+1182135D01*
X+901091Y+1297865D01*
X+982925Y+1379699D01*
X+1098655Y+1379699D01*
X+1180489Y+1297865D01*
X+1180489Y+1182135D01*
X+1098655Y+1100301D01*
X+982925Y+1100301D01*
X+1342135Y+1459511D02*
X+1260301Y+1541345D01*
X+1260301Y+1657075D01*
X+1342135Y+1738909D01*
X+1457865Y+1738909D01*
X+1539699Y+1657075D01*
X+1539699Y+1541345D01*
X+1457865Y+1459511D01*
X+1342135Y+1459511D01*
X+1342135Y+1100301D02*
X+1260301Y+1182135D01*
X+1260301Y+1297865D01*
X+1342135Y+1379699D01*
X+1457865Y+1379699D01*
X+1539699Y+1297865D01*
X+1539699Y+1182135D01*
X+1457865Y+1100301D01*
X+1342135Y+1100301D01*
X+1194299Y+2247344D02*
X+1194299Y+2152656D01*
X+1127344Y+2085701D01*
X+1032656Y+2085701D01*
X+965701Y+2152656D01*
X+965701Y+2247344D01*
X+1032656Y+2314299D01*
X+1127344Y+2314299D01*
X+1194299Y+2247344D01*
X+2453639Y+900243D02*
X+2453639Y+837117D01*
X+2428239Y+811717D01*
X+2428239Y+529403D01*
X+2453639Y+504003D01*
X+2453639Y+440877D01*
X+2409003Y+396241D01*
X+2345877Y+396241D01*
X+2301241Y+440877D01*
X+2301241Y+504003D01*
X+2326641Y+529403D01*
X+2326641Y+811717D01*
X+2301241Y+837117D01*
X+2301241Y+900243D01*
X+2345877Y+944879D01*
X+2409003Y+944879D01*
X+2453639Y+900243D01*
X+2606039Y-715197D02*
X+2606039Y-778323D01*
X+2561403Y-822959D01*
X+2525481Y-822959D01*
X+2321559Y-1026881D01*
X+2321559Y-1375597D01*
X+2346959Y-1400997D01*
X+2346959Y-1464123D01*
X+2302323Y-1508759D01*
X+2239197Y-1508759D01*
X+2194561Y-1464123D01*
X+2194561Y-1400997D01*
X+2219961Y-1375597D01*
X+2219961Y-984799D01*
X+2453641Y-751119D01*
X+2453641Y-715197D01*
X+2498277Y-670561D01*
X+2561403Y-670561D01*
X+2606039Y-715197D01*
X+669290Y-904691D02*
X+669290Y-878389D01*
X+687889Y-859790D01*
X+714191Y-859790D01*
X+732790Y-878389D01*
X+732790Y-904691D01*
X+714191Y-923290D01*
X+687889Y-923290D01*
X+669290Y-904691D01*
X+974090Y-1064711D02*
X+974090Y-1038409D01*
X+992689Y-1019810D01*
X+1018991Y-1019810D01*
X+1037590Y-1038409D01*
X+1037590Y-1064711D01*
X+1018991Y-1083310D01*
X+992689Y-1083310D01*
X+974090Y-1064711D01*
X+1019810Y+1526089D02*
X+1019810Y+1552391D01*
X+1038409Y+1570990D01*
X+1064711Y+1570990D01*
X+1083310Y+1552391D01*
X+1083310Y+1526089D01*
X+1064711Y+1507490D01*
X+1038409Y+1507490D01*
X+1019810Y+1526089D01*
X+2498250Y+1416849D02*
X+2498250Y+1443151D01*
X+2516849Y+1461750D01*
X+2543151Y+1461750D01*
X+2561750Y+1443151D01*
X+2561750Y+1416849D01*
X+2543151Y+1398250D01*
X+2516849Y+1398250D01*
X+2498250Y+1416849D01*
X-2327463Y+2810001D02*
X-2287201Y+2712800D01*
X-2190000Y+2672538D01*
X-2092799Y+2712800D01*
X-2067222Y+2774549D01*
X-882969Y+2774549D01*
X-754902Y+2646482D01*
X-754902Y+2420680D01*
X-853854Y+2379693D01*
X-766373Y+2168496D01*
X-555176Y+2255977D01*
X-642657Y+2467174D01*
X-653304Y+2462764D01*
X-653304Y+2577351D01*
X-374051Y+2577351D01*
X-374051Y+2717751D01*
X-318221Y+2661921D01*
X-132749Y+2661921D01*
X-132749Y+2577351D01*
X+135169Y+2577351D01*
X+148019Y+2564501D01*
X+232301Y+2564501D01*
X+232301Y+2513701D01*
X+511699Y+2513701D01*
X+511699Y+2564501D01*
X+746939Y+2564501D01*
X+777241Y+2534199D01*
X+777241Y+2498277D01*
X+786319Y+2489199D01*
X-376740Y+2489199D01*
X-364490Y+2501449D01*
X-364490Y+2527751D01*
X-383089Y+2546350D01*
X-409391Y+2546350D01*
X-427990Y+2527751D01*
X-427990Y+2501449D01*
X-415740Y+2489199D01*
X-488401Y+2489199D01*
X-538479Y+2439121D01*
X-538479Y+2403923D01*
X-563879Y+2378523D01*
X-563879Y+2315397D01*
X-538479Y+2289997D01*
X-538479Y+2196551D01*
X-667471Y+2067559D01*
X-1496781Y+2067559D01*
X-1742439Y+1821901D01*
X-1742439Y+1641923D01*
X-1767839Y+1616523D01*
X-1767839Y+1580601D01*
X-1773641Y+1574799D01*
X-1878517Y+1574799D01*
X-1903917Y+1600199D01*
X-1967043Y+1600199D01*
X-1992443Y+1574799D01*
X-2259517Y+1574799D01*
X-2284917Y+1600199D01*
X-2348043Y+1600199D01*
X-2392679Y+1555563D01*
X-2392679Y+1492437D01*
X-2348043Y+1447801D01*
X-2284917Y+1447801D01*
X-2259517Y+1473201D01*
X-1992443Y+1473201D01*
X-1967043Y+1447801D01*
X-1903917Y+1447801D01*
X-1878517Y+1473201D01*
X-1731559Y+1473201D01*
X-1695999Y+1508761D01*
X-1660077Y+1508761D01*
X-1634677Y+1534161D01*
X-1621955Y+1534161D01*
X-1621955Y+1533175D01*
X-1692390Y+1462740D01*
X-1566668Y+1337018D01*
X-1449926Y+1453760D01*
X-1520359Y+1524193D01*
X-1520359Y+1556525D01*
X-1433760Y+1469926D01*
X-1363327Y+1540359D01*
X-1217919Y+1540359D01*
X-1061721Y+1696557D01*
X-1061721Y+1721401D01*
X-825498Y+1485178D01*
X-825498Y+1035656D01*
X-918578Y+1074211D01*
X-981758Y+921680D01*
X-825498Y+856954D01*
X-825498Y+838035D01*
X-827319Y+839856D01*
X-843959Y+839856D01*
X-990508Y+900559D01*
X-1053688Y+748028D01*
X-899159Y+684019D01*
X-899159Y+630630D01*
X-950193Y+681664D01*
X-1055403Y+681664D01*
X-1105799Y+631268D01*
X-1105799Y+707270D01*
X-1130050Y+731521D01*
X-1126677Y+731521D01*
X-1082041Y+776157D01*
X-1082041Y+839283D01*
X-1119959Y+877201D01*
X-1029458Y+839714D01*
X-966278Y+992245D01*
X-1130542Y+1060286D01*
X-1157303Y+995679D01*
X-1177477Y+995679D01*
X-1202877Y+1021079D01*
X-1266003Y+1021079D01*
X-1310639Y+976443D01*
X-1310639Y+913317D01*
X-1266003Y+868681D01*
X-1205041Y+868681D01*
X-1215203Y+858519D01*
X-1430742Y+858518D01*
X-1680799Y+608461D01*
X-1680799Y+168943D01*
X-1849955Y+338099D01*
X-2130045Y+338099D01*
X-2328099Y+140045D01*
X-2328099Y-140045D01*
X-2130045Y-338099D01*
X-1849955Y-338099D01*
X-1680799Y-168943D01*
X-1680799Y-658959D01*
X-1752756Y-730916D01*
X-1752756Y-1108004D01*
X-1737359Y-1123401D01*
X-1737359Y-1143001D01*
X-2305599Y-1143001D01*
X-2423161Y-1025439D01*
X-2423161Y-989517D01*
X-2467797Y-944881D01*
X-2530923Y-944881D01*
X-2575559Y-989517D01*
X-2575559Y-1052643D01*
X-2530923Y-1097279D01*
X-2495001Y-1097279D01*
X-2347681Y-1244599D01*
X-1611441Y-1244599D01*
X-1645919Y-1279077D01*
X-1645919Y-1342203D01*
X-1601283Y-1386839D01*
X-1538157Y-1386839D01*
X-1512757Y-1361439D01*
X-1398234Y-1361439D01*
X-1235465Y-1524208D01*
X-1235465Y-1905799D01*
X-1237271Y-1905799D01*
X-1311665Y-1980193D01*
X-1311665Y-2085403D01*
X-1237271Y-2159797D01*
X-1132061Y-2159797D01*
X-1076999Y-2104735D01*
X-1076999Y-2182605D01*
X-1002605Y-2256999D01*
X-897395Y-2256999D01*
X-823001Y-2182605D01*
X-823001Y-2077395D01*
X-897395Y-2003001D01*
X-1002605Y-2003001D01*
X-1057667Y-2058063D01*
X-1057667Y-1980193D01*
X-1132061Y-1905799D01*
X-1133867Y-1905799D01*
X-1133867Y-1701493D01*
X-879561Y-1955799D01*
X-575123Y-1955799D01*
X-549723Y-1981199D01*
X-486597Y-1981199D01*
X-441961Y-1936563D01*
X-441961Y-1873437D01*
X-470397Y-1845001D01*
X-415441Y-1867764D01*
X-415441Y-1899390D01*
X-369192Y-1945639D01*
X-132929Y-1945639D01*
X-132929Y-2042289D01*
X-330921Y-2240281D01*
X-366843Y-2240281D01*
X-411479Y-2284917D01*
X-411479Y-2336801D01*
X-1310641Y-2336801D01*
X-1310641Y-2330637D01*
X-1355277Y-2286001D01*
X-1418403Y-2286001D01*
X-1463039Y-2330637D01*
X-1463039Y-2377441D01*
X-1553397Y-2377441D01*
X-1568637Y-2362201D01*
X-1631763Y-2362201D01*
X-1676399Y-2406837D01*
X-1676399Y-2460543D01*
X-1696238Y-2460543D01*
X-1815250Y-2411246D01*
X-1912451Y-2645909D01*
X-1712988Y-2728530D01*
X-1644067Y-2562141D01*
X-1509740Y-2562141D01*
X-1598332Y-2776021D01*
X-1398869Y-2858642D01*
X-1354199Y-2750799D01*
X-1150249Y-2750799D01*
X-1109297Y-2791751D01*
X-1109297Y-2843996D01*
X-1128611Y-2890623D01*
X-1227963Y-2890623D01*
X-1300799Y-2963459D01*
X-1300799Y-3057148D01*
X-1338928Y-3149201D01*
X-1391199Y-3149201D01*
X-1402081Y-3138319D01*
X-1402081Y-3066298D01*
X-1453154Y-3015225D01*
X-1434749Y-2970793D01*
X-1622480Y-2893033D01*
X-1729401Y-3151163D01*
X-1541670Y-3228923D01*
X-1503679Y-3137205D01*
X-1503679Y-3180401D01*
X-1433281Y-3250799D01*
X-1381012Y-3250799D01*
X-1397326Y-3290185D01*
X-1209595Y-3367945D01*
X-1102674Y-3109815D01*
X-1199201Y-3069833D01*
X-1199201Y-3005541D01*
X-1185881Y-2992221D01*
X-1166042Y-2992221D01*
X-1017482Y-3053756D01*
X-949441Y-2889492D01*
X-1007699Y-2865361D01*
X-1007699Y-2851614D01*
X-857755Y-2913722D01*
X-789714Y-2749458D01*
X-882885Y-2710866D01*
X-867410Y-2695391D01*
X-867410Y-2669089D01*
X-886009Y-2650490D01*
X-912311Y-2650490D01*
X-930910Y-2669089D01*
X-930910Y-2690973D01*
X-942245Y-2686278D01*
X-1007699Y-2844296D01*
X-1007699Y-2749669D01*
X-1108167Y-2649201D01*
X-1312115Y-2649201D01*
X-1301668Y-2623979D01*
X-1450957Y-2562141D01*
X-883181Y-2562141D01*
X-869763Y-2575559D01*
X-806637Y-2575559D01*
X-762001Y-2530923D01*
X-762001Y-2507699D01*
X-284143Y-2985557D01*
X+253002Y-2985557D01*
X+288336Y-3070861D01*
X-43822Y-3070861D01*
X-377319Y-3404358D01*
X-430000Y-3382537D01*
X-527201Y-3422799D01*
X-567463Y-3520000D01*
X-527201Y-3617201D01*
X-519741Y-3620291D01*
X-567765Y-3613975D01*
X-756757Y-3578960D01*
X-943934Y-3534006D01*
X-1128761Y-3479196D01*
X-1310733Y-3414632D01*
X-1489316Y-3340453D01*
X-1664052Y-3256795D01*
X-1834382Y-3163866D01*
X-1999879Y-3061838D01*
X-2160052Y-2950940D01*
X-2188073Y-2929246D01*
X-2185371Y-2930365D01*
X-2088170Y-2890103D01*
X-2068950Y-2843701D01*
X-1915940Y-2843701D01*
X-1997326Y-3040185D01*
X-1809595Y-3117945D01*
X-1702674Y-2859815D01*
X-1799201Y-2819833D01*
X-1799201Y-2786910D01*
X-1844008Y-2742103D01*
X-1971399Y-2742103D01*
X-1891358Y-2548869D01*
X-2126021Y-2451668D01*
X-2166421Y-2549201D01*
X-2208106Y-2549201D01*
X-2237864Y-2578959D01*
X-2237864Y-2677182D01*
X-2282572Y-2695701D01*
X-2322834Y-2792902D01*
X-2303315Y-2840024D01*
X-2314434Y-2831416D01*
X-2462564Y-2703535D01*
X-2604009Y-2567568D01*
X-2738372Y-2423774D01*
X-2842130Y-2300013D01*
X-2800001Y-2317463D01*
X-2702800Y-2277201D01*
X-2662538Y-2180000D01*
X-2702800Y-2082799D01*
X-2800001Y-2042537D01*
X-2897202Y-2082799D01*
X-2936446Y-2177542D01*
X-2984154Y-2113958D01*
X-3094823Y-1948490D01*
X-3196841Y-1776358D01*
X-3289866Y-1597773D01*
X-3348341Y-1468581D01*
X-3308163Y-1508759D01*
X-3245037Y-1508759D01*
X-3219637Y-1483359D01*
X-1977203Y-1483359D01*
X-1951803Y-1508759D01*
X-1888677Y-1508759D01*
X-1844041Y-1464123D01*
X-1844041Y-1400997D01*
X-1888677Y-1356361D01*
X-1951803Y-1356361D01*
X-1977203Y-1381761D01*
X-3219637Y-1381761D01*
X-3245037Y-1356361D01*
X-3308163Y-1356361D01*
X-3352799Y-1400997D01*
X-3352799Y-1458732D01*
X-3373578Y-1412824D01*
X-3447621Y-1221549D01*
X-3511678Y-1023584D01*
X-3565393Y-817981D01*
X-3608363Y-602113D01*
X-3618890Y-524070D01*
X-3527099Y-562091D01*
X-3429898Y-521829D01*
X-3410678Y-475427D01*
X-3091815Y-475427D01*
X-3064323Y-502919D01*
X-3001197Y-502919D01*
X-2956561Y-458283D01*
X-2956561Y-395157D01*
X-3001197Y-350521D01*
X-3064323Y-350521D01*
X-3087631Y-373829D01*
X-3410678Y-373829D01*
X-3429898Y-327427D01*
X-3527099Y-287165D01*
X-3624300Y-327427D01*
X-3640102Y-365575D01*
X-3658961Y+5000D01*
X-3640000Y+377570D01*
X-3633749Y+423915D01*
X-3598436Y+338663D01*
X-3501235Y+298401D01*
X-3404034Y+338663D01*
X-3382158Y+391477D01*
X-1947039Y+391477D01*
X-1936563Y+381001D01*
X-1873437Y+381001D01*
X-1828801Y+425637D01*
X-1828801Y+488763D01*
X-1873437Y+533399D01*
X-1936563Y+533399D01*
X-1976887Y+493075D01*
X-3387470Y+493075D01*
X-3404034Y+533065D01*
X-3501235Y+573327D01*
X-3598436Y+533065D01*
X-3628968Y+459353D01*
X-3608363Y+612113D01*
X-3565393Y+827981D01*
X-3511678Y+1033584D01*
X-3447621Y+1231549D01*
X-3373578Y+1422824D01*
X-3289866Y+1607773D01*
X-3196841Y+1786358D01*
X-3094823Y+1958490D01*
X-2984154Y+2123958D01*
X-2884395Y+2256913D01*
X-2911600Y+2191235D01*
X-2871338Y+2094034D01*
X-2774137Y+2053772D01*
X-2676936Y+2094034D01*
X-2636674Y+2191235D01*
X-2676936Y+2288436D01*
X-2774137Y+2328698D01*
X-2854303Y+2295492D01*
X-2738372Y+2433774D01*
X-2604009Y+2577568D01*
X-2462564Y+2713535D01*
X-2314460Y+2841394D01*
X-2327463Y+2810001D01*
X-1491232Y+1394490D02*
X-1374490Y+1511232D01*
X-1248768Y+1385510D01*
X-1365510Y+1268768D01*
X-1491232Y+1394490D01*
X-1431345Y-1389511D02*
X-1349511Y-1471345D01*
X-1349511Y-1587075D01*
X-1431345Y-1668909D01*
X-1547075Y-1668909D01*
X-1628909Y-1587075D01*
X-1628909Y-1471345D01*
X-1547075Y-1389511D01*
X-1431345Y-1389511D01*
X-1032686Y+2124964D02*
X-1072948Y+2222165D01*
X-1032686Y+2319366D01*
X-935485Y+2359628D01*
X-838284Y+2319366D01*
X-798022Y+2222165D01*
X-838284Y+2124964D01*
X-935485Y+2084702D01*
X-1032686Y+2124964D01*
X-802571Y-2950329D02*
X-793563Y-2941321D01*
X-730437Y-2941321D01*
X-685801Y-2985957D01*
X-685801Y-3049083D01*
X-730437Y-3093719D01*
X-793563Y-3093719D01*
X-818963Y-3068319D01*
X-820068Y-3068319D01*
X-833427Y-3100571D01*
X-833427Y-3140161D01*
X-890830Y-3197564D01*
X-834749Y-3220793D01*
X-941670Y-3478923D01*
X-1129401Y-3401163D01*
X-1031916Y-3165814D01*
X-1031916Y-3138719D01*
X-1002158Y-3108961D01*
X-945907Y-3108961D01*
X-935025Y-3098079D01*
X-935025Y-3087912D01*
X-996361Y-3062506D01*
X-928320Y-2898242D01*
X-802571Y-2950329D01*
X-1676401Y-1888677D02*
X-1676401Y-1951803D01*
X-1701801Y-1977203D01*
X-1701801Y-2270244D01*
X-1769385Y-2337828D01*
X-1803943Y-2337828D01*
X-1843867Y-2434213D01*
X-2078530Y-2337012D01*
X-1995909Y-2137549D01*
X-1803399Y-2217290D01*
X-1803399Y-1977203D01*
X-1814643Y-1965959D01*
X-2102037Y-1965959D01*
X-2132517Y-1996439D01*
X-2195643Y-1996439D01*
X-2240279Y-1951803D01*
X-2240279Y-1888677D01*
X-2195643Y-1844041D01*
X-2132517Y-1844041D01*
X-2112197Y-1864361D01*
X-1804483Y-1864361D01*
X-1784163Y-1844041D01*
X-1721037Y-1844041D01*
X-1676401Y-1888677D01*
X-1372870Y+2562409D02*
X-1372870Y+2588711D01*
X-1354271Y+2607310D01*
X-1327969Y+2607310D01*
X-1309370Y+2588711D01*
X-1309370Y+2562409D01*
X-1327969Y+2543810D01*
X-1354271Y+2543810D01*
X-1372870Y+2562409D01*
X-2439670Y-1811471D02*
X-2439670Y-1785169D01*
X-2421071Y-1766570D01*
X-2394769Y-1766570D01*
X-2376170Y-1785169D01*
X-2376170Y-1811471D01*
X-2394769Y-1830070D01*
X-2421071Y-1830070D01*
X-2439670Y-1811471D01*
X-275590Y-1994351D02*
X-275590Y-1968049D01*
X-256991Y-1949450D01*
X-230689Y-1949450D01*
X-212090Y-1968049D01*
X-212090Y-1994351D01*
X-230689Y-2012950D01*
X-256991Y-2012950D01*
X-275590Y-1994351D01*
X-2866390Y+855529D02*
X-2866390Y+881831D01*
X-2847791Y+900430D01*
X-2821489Y+900430D01*
X-2802890Y+881831D01*
X-2802890Y+855529D01*
X-2821489Y+836930D01*
X-2847791Y+836930D01*
X-2866390Y+855529D01*
X-2240281Y-1888677D02*
X-2240281Y-1951803D01*
X-2265681Y-1977203D01*
X-2265681Y-2442397D01*
X-2240281Y-2467797D01*
X-2240281Y-2530923D01*
X-2284917Y-2575559D01*
X-2348043Y-2575559D01*
X-2392679Y-2530923D01*
X-2392679Y-2467797D01*
X-2367279Y-2442397D01*
X-2367279Y-1977203D01*
X-2392679Y-1951803D01*
X-2392679Y-1888677D01*
X-2348043Y-1844041D01*
X-2284917Y-1844041D01*
X-2240281Y-1888677D01*
X-1814830Y+977449D02*
X-1814830Y+1003751D01*
X-1796231Y+1022350D01*
X-1769929Y+1022350D01*
X-1751330Y+1003751D01*
X-1751330Y+977449D01*
X-1769929Y+958850D01*
X-1796231Y+958850D01*
X-1814830Y+977449D01*
X-1372870Y+2288089D02*
X-1372870Y+2314391D01*
X-1354271Y+2332990D01*
X-1327969Y+2332990D01*
X-1309370Y+2314391D01*
X-1309370Y+2288089D01*
X-1327969Y+2269490D01*
X-1354271Y+2269490D01*
X-1372870Y+2288089D01*
X+1516381Y-2277759D02*
X+1516381Y-2505201D01*
X+1702644Y-2691464D01*
X+1989077Y-2691464D01*
X+2069882Y-2772269D01*
X+2062537Y-2790000D01*
X+2102799Y-2887201D01*
X+2200000Y-2927463D01*
X+2200808Y-2927128D01*
X+2170052Y-2950940D01*
X+2009879Y-3061838D01*
X+1844382Y-3163866D01*
X+1674052Y-3256795D01*
X+1499316Y-3340453D01*
X+1320733Y-3414632D01*
X+1138761Y-3479196D01*
X+953934Y-3534006D01*
X+854700Y-3557839D01*
X+900799Y-3511740D01*
X+900799Y-3480167D01*
X+997326Y-3440185D01*
X+890405Y-3182055D01*
X+702674Y-3259815D01*
X+788203Y-3466299D01*
X+561049Y-3466299D01*
X+541829Y-3419897D01*
X+495427Y-3400677D01*
X+495427Y-3377479D01*
X+489246Y-3371298D01*
X+658642Y-3301131D01*
X+613089Y-3191158D01*
X+794213Y-3116133D01*
X+697012Y-2881470D01*
X+695557Y-2882073D01*
X+695557Y-2861622D01*
X+511096Y-2677161D01*
X+224603Y-2677161D01*
X+199203Y-2651761D01*
X+136077Y-2651761D01*
X+133031Y-2654807D01*
X+133031Y-2636289D01*
X+462279Y-2307041D01*
X+462279Y-2103839D01*
X+492038Y-2133598D01*
X+785582Y-2133598D01*
X+826221Y-2092959D01*
X+1331581Y-2092959D01*
X+1516381Y-2277759D01*
X+1590013Y-2780576D02*
X+1529079Y-2805816D01*
X+1529079Y-2869117D01*
X+1530678Y-2870716D01*
X+1588490Y-2870716D01*
X+1708330Y-2821077D01*
X+1815251Y-3079207D01*
X+1627520Y-3156967D01*
X+1551034Y-2972314D01*
X+1539808Y-2972314D01*
X+1509843Y-3002279D01*
X+1469493Y-3002279D01*
X+1547326Y-3190185D01*
X+1359595Y-3267945D01*
X+1295845Y-3114039D01*
X+1193079Y-3114039D01*
X+1173480Y-3094440D01*
X+1169682Y-3098238D01*
X+1169682Y-3098483D01*
X+1265251Y-3329207D01*
X+1077520Y-3406967D01*
X+970599Y-3148837D01*
X+1068084Y-3108458D01*
X+1068084Y-3056156D01*
X+1122681Y-3001559D01*
X+1122682Y-2952750D01*
X+1122681Y-2934633D01*
X+1087046Y-2934633D01*
X+1108332Y-2986021D01*
X+908869Y-3068642D01*
X+811668Y-2833979D01*
X+1011131Y-2751358D01*
X+1044963Y-2833035D01*
X+1122681Y-2833035D01*
X+1122681Y-2814976D01*
X+1186622Y-2751035D01*
X+1196723Y-2751035D01*
X+1348320Y-2688242D01*
X+1416361Y-2852506D01*
X+1263830Y-2915686D01*
X+1237712Y-2852633D01*
X+1228704Y-2852633D01*
X+1224279Y-2857058D01*
X+1224279Y-2903942D01*
X+1224278Y-2952750D01*
X+1224279Y-3001559D01*
X+1235161Y-3012441D01*
X+1253762Y-3012441D01*
X+1252674Y-3009815D01*
X+1402081Y-2947929D01*
X+1402081Y-2894517D01*
X+1427481Y-2869117D01*
X+1427481Y-2819612D01*
X+1369441Y-2679492D01*
X+1521972Y-2616312D01*
X+1590013Y-2780576D01*
X+1430286Y-2640542D02*
X+1277755Y-2703722D01*
X+1209714Y-2539458D01*
X+1362245Y-2476278D01*
X+1430286Y-2640542D01*
X+1278890Y-2161991D02*
X+1278890Y-2135689D01*
X+1297489Y-2117090D01*
X+1323791Y-2117090D01*
X+1342390Y-2135689D01*
X+1342390Y-2161991D01*
X+1323791Y-2180590D01*
X+1297489Y-2180590D01*
X+1278890Y-2161991D01*
X+766757Y-3578960D02*
X+577765Y-3613975D01*
X+526257Y-3620749D01*
X+541829Y-3614299D01*
X+561049Y-3567897D01*
X+812821Y-3567897D01*
X+766757Y-3578960D01*
X+341358Y-3198869D02*
X+366775Y-3260231D01*
X+366775Y-3411883D01*
X+347427Y-3419897D01*
X+307165Y-3517098D01*
X+347427Y-3614299D01*
X+402343Y-3637046D01*
X+387448Y-3639005D01*
X+196363Y-3654019D01*
X+5000Y-3659019D01*
X-186363Y-3654019D01*
X-377448Y-3639005D01*
X-383513Y-3638207D01*
X-332799Y-3617201D01*
X-292537Y-3520000D01*
X-309157Y-3479876D01*
X-1740Y-3172459D01*
X+405117Y-3172459D01*
X+341358Y-3198869D01*
X+526061Y+3045899D02*
X+484521Y+3087439D01*
X+484521Y+3143418D01*
X+489769Y+3138170D01*
X+516071Y+3138170D01*
X+526061Y+3148160D01*
X+526061Y+3045899D01*
X+421381Y+3006899D02*
X+388899Y+3006899D01*
X+388899Y+3039381D01*
X+421381Y+3006899D01*
X+211101Y+3185701D02*
X+211101Y+2985701D01*
X+232301Y+2985701D01*
X+232301Y+2824999D01*
X+146649Y+2824999D01*
X+146649Y+2831351D01*
X+146650Y+2831351D01*
X+146650Y+2850401D01*
X+158201Y+2850401D01*
X+187959Y+2880159D01*
X+187959Y+3197539D01*
X+211101Y+3220681D01*
X+211101Y+3185701D01*
X-238959Y+2763519D02*
X-276139Y+2763519D01*
X-337619Y+2824999D01*
X-374051Y+2824999D01*
X-374051Y+2831351D01*
X-374050Y+2831351D01*
X-374050Y+2898610D01*
X-238959Y+2763519D01*
X-653448Y+2844049D02*
X-653449Y+2844049D01*
X-653449Y+2688709D01*
X-700320Y+2735580D01*
X-680721Y+2755179D01*
X-680721Y+2854239D01*
X-653448Y+2881512D01*
X-653448Y+2844049D01*
X+101600Y+2360043D02*
X+74042Y+2387601D01*
X+129158Y+2387601D01*
X+101600Y+2360043D01*
X-101600Y+2360043D02*
X-129158Y+2387601D01*
X-74042Y+2387601D01*
X-101600Y+2360043D01*
X-1188719Y+1903917D02*
X-1174562Y+1889760D01*
X-1188719Y+1875603D01*
X-1188719Y+1812477D01*
X-1163319Y+1787077D01*
X-1163319Y+1738639D01*
X-1260003Y+1641955D01*
X-1372306Y+1641956D01*
X-1442740Y+1712390D01*
X-1548989Y+1606141D01*
X-1578607Y+1635759D01*
X-1634677Y+1635759D01*
X-1640841Y+1641923D01*
X-1640841Y+1779819D01*
X-1454699Y+1965961D01*
X-1188719Y+1965961D01*
X-1188719Y+1903917D01*
X-467940Y+1210203D02*
X-391938Y+1210203D01*
X-442334Y+1159807D01*
X-442334Y+1081938D01*
X-497395Y+1136999D01*
X-573397Y+1136999D01*
X-523001Y+1187395D01*
X-523001Y+1265264D01*
X-467940Y+1210203D01*
X+527666Y+1190193D02*
X+588062Y+1129797D01*
X+502060Y+1129797D01*
X+446999Y+1074736D01*
X+446999Y+1152605D01*
X+386603Y+1213001D01*
X+472605Y+1213001D01*
X+527666Y+1268062D01*
X+527666Y+1190193D01*
X-1136177Y+883919D02*
X-1187639Y+883919D01*
X-1177477Y+894081D01*
X-1160710Y+894081D01*
X-1136177Y+883919D01*
X+1187395Y+523001D02*
X+1265264Y+523001D01*
X+1210203Y+467940D01*
X+1210203Y+466992D01*
X+1195619Y+466992D01*
X+1165861Y+437234D01*
X+1165861Y+426280D01*
X+1149807Y+442334D01*
X+1071938Y+442334D01*
X+1126999Y+497395D01*
X+1126999Y+583397D01*
X+1187395Y+523001D01*
X-1129797Y+502060D02*
X-1074736Y+446999D01*
X-1152605Y+446999D01*
X-1203001Y+396603D01*
X-1203001Y+472605D01*
X-1258062Y+527666D01*
X-1180193Y+527666D01*
X-1129797Y+578062D01*
X-1129797Y+502060D01*
X-556620Y+377163D02*
X-541741Y+362284D01*
X+215151Y+362284D01*
X+283446Y+293989D01*
X-667438Y+293989D01*
X-797561Y+424112D01*
X-797561Y+618104D01*
X-556620Y+377163D01*
X-1310145Y+756922D02*
X-1359797Y+707270D01*
X-1359797Y+602060D01*
X-1304736Y+546999D01*
X-1382605Y+546999D01*
X-1456999Y+472605D01*
X-1456999Y+367395D01*
X-1382605Y+293001D01*
X-1277395Y+293001D01*
X-1226999Y+343397D01*
X-1226999Y+267395D01*
X-1152605Y+193001D01*
X-1047395Y+193001D01*
X-973001Y+267395D01*
X-973001Y+372605D01*
X-1028062Y+427666D01*
X-950193Y+427666D01*
X-899159Y+478700D01*
X-899159Y+382030D01*
X-709520Y+192391D01*
X+321859Y+192391D01*
X+325164Y+189086D01*
X+308797Y+172719D01*
X-1355811Y+172719D01*
X-1579201Y-50671D01*
X-1579201Y+566379D01*
X-1388658Y+756922D01*
X-1310145Y+756922D01*
X+1370330Y-135071D02*
X+1385120Y-149861D01*
X+1283147Y-149861D01*
X+1281661Y-148375D01*
X+1370330Y-111647D01*
X+1370330Y-135071D01*
X+1852057Y-330201D02*
X+1810471Y-330201D01*
X+1694179Y-213909D01*
X+1694179Y-172323D01*
X+1852057Y-330201D01*
X+334197Y+45721D02*
X+381001Y+45721D01*
X+381001Y-534220D01*
X+378911Y-532130D01*
X+352609Y-532130D01*
X+334010Y-550729D01*
X+334010Y-577031D01*
X+352609Y-595630D01*
X+360137Y-595630D01*
X+295366Y-660401D01*
X-36458Y-660401D01*
X-251459Y-875402D01*
X-251459Y-998937D01*
X-267395Y-983001D01*
X-372605Y-983001D01*
X-427666Y-1038062D01*
X-427666Y-960193D01*
X-502060Y-885799D01*
X-607270Y-885799D01*
X-655321Y-933850D01*
X-655321Y-898077D01*
X-666602Y-886796D01*
X-609714Y-749458D01*
X-762245Y-686278D01*
X-830286Y-850542D01*
X-782319Y-870410D01*
X-782319Y-872677D01*
X-790437Y-880795D01*
X-921972Y-826312D01*
X-990013Y-990576D01*
X-930526Y-1015216D01*
X-930526Y-1054821D01*
X-900768Y-1084579D01*
X-768899Y-1084579D01*
X-745873Y-1061553D01*
X-681664Y-1061553D01*
X-681664Y-1065403D01*
X-641268Y-1105799D01*
X-697270Y-1105799D01*
X-771664Y-1180193D01*
X-771664Y-1285403D01*
X-697270Y-1359797D01*
X-592060Y-1359797D01*
X-536999Y-1304736D01*
X-536999Y-1382605D01*
X-462605Y-1456999D01*
X-460799Y-1456999D01*
X-460799Y-1469939D01*
X-472081Y-1481221D01*
X-618538Y-1481221D01*
X-673930Y-1458277D01*
X-780851Y-1716407D01*
X-645707Y-1772385D01*
X-651323Y-1778001D01*
X-775249Y-1778001D01*
X-947421Y-1605829D01*
X-947421Y-1092749D01*
X-1052109Y-988061D01*
X-1245321Y-988061D01*
X-1400261Y-1143001D01*
X-1584961Y-1143001D01*
X-1584961Y-1127759D01*
X-1538157Y-1127759D01*
X-1493521Y-1083123D01*
X-1493521Y-1019997D01*
X-1518921Y-994597D01*
X-1518921Y-171773D01*
X-1518618Y-172504D01*
X-1518618Y-302869D01*
X-1461479Y-360008D01*
X-1464201Y-362730D01*
X-1464201Y-467940D01*
X-1389807Y-542334D01*
X-1311938Y-542334D01*
X-1366999Y-597395D01*
X-1366999Y-702605D01*
X-1292605Y-776999D01*
X-1187395Y-776999D01*
X-1113001Y-702605D01*
X-1113001Y-626603D01*
X-1052605Y-686999D01*
X-1036700Y-686999D01*
X-1052830Y-703129D01*
X-1052830Y-729431D01*
X-1034231Y-748030D01*
X-1007929Y-748030D01*
X-989330Y-729431D01*
X-989330Y-703129D01*
X-1005460Y-686999D01*
X-965990Y-686999D01*
X-1003938Y-778612D01*
X-851407Y-841792D01*
X-783366Y-677528D01*
X-892655Y-632259D01*
X-873001Y-612605D01*
X-873001Y-507395D01*
X-947395Y-433001D01*
X-1025264Y-433001D01*
X-970203Y-377940D01*
X-970203Y-272730D01*
X-1039734Y-203199D01*
X-681803Y-203199D01*
X-656403Y-228599D01*
X-593277Y-228599D01*
X-548641Y-183963D01*
X-548641Y-121919D01*
X-513801Y-121919D01*
X-391822Y-243898D01*
X-244399Y-243898D01*
X-244399Y-332799D01*
X+288999Y-332799D01*
X+288999Y-53401D01*
X-244399Y-53401D01*
X-244399Y-142302D01*
X-349738Y-142302D01*
X-441961Y-50079D01*
X-441961Y-14157D01*
X-486597Y+30479D01*
X-549723Y+30479D01*
X-594359Y-14157D01*
X-594359Y-76201D01*
X-656403Y-76201D01*
X-681803Y-101601D01*
X-1149343Y-101601D01*
X-1177494Y-33639D01*
X-1341758Y-101680D01*
X-1278578Y-254211D01*
X-1155425Y-203199D01*
X-1154670Y-203199D01*
X-1224201Y-272730D01*
X-1224201Y-273697D01*
X-1237701Y-273697D01*
X-1267459Y-303455D01*
X-1267459Y-305474D01*
X-1284597Y-288336D01*
X-1340715Y-288336D01*
X-1324610Y-272231D01*
X-1324610Y-245929D01*
X-1343209Y-227330D01*
X-1369511Y-227330D01*
X-1388110Y-245929D01*
X-1388110Y-272231D01*
X-1372005Y-288336D01*
X-1389471Y-288336D01*
X-1417020Y-260787D01*
X-1417020Y-209832D01*
X-1326278Y-172245D01*
X-1389458Y-19714D01*
X-1415246Y-30396D01*
X-1384162Y+688D01*
X-1350508Y-80559D01*
X-1186244Y-12518D01*
X-1220888Y+71121D01*
X+308797Y+71121D01*
X+334197Y+45721D01*
X+1213001Y-472605D02*
X+1219597Y-479201D01*
X+1186041Y-479201D01*
X+1153222Y-446382D01*
X+1213001Y-386603D01*
X+1213001Y-472605D01*
X-1149807Y-452334D02*
X-1071938Y-452334D01*
X-1126999Y-507395D01*
X-1126999Y-583397D01*
X-1187395Y-523001D01*
X-1265264Y-523001D01*
X-1210203Y-467940D01*
X-1210203Y-465295D01*
X-1195619Y-465295D01*
X-1166232Y-435908D01*
X-1149807Y-452334D01*
X+1140510Y-577350D02*
X+1129797Y-588062D01*
X+1129797Y-566637D01*
X+1140510Y-577350D01*
X+1407161Y-549361D02*
X+1711241Y-853441D01*
X+1705797Y-853441D01*
X+1703257Y-855981D01*
X+1492893Y-855981D01*
X+1414779Y-777867D01*
X+1414779Y-587289D01*
X+1374489Y-546999D01*
X+1392605Y-546999D01*
X+1407161Y-532443D01*
X+1407161Y-549361D01*
X-798461Y-970461D02*
X-806175Y-978175D01*
X-801656Y-967266D01*
X-798461Y-970461D01*
X-1620519Y-994597D02*
X-1645919Y-1019997D01*
X-1645919Y-1051561D01*
X-1651158Y-1051561D01*
X-1651158Y-772998D01*
X-1620519Y-742359D01*
X-1620519Y-994597D01*
X+1694592Y-1123726D02*
X+1680397Y-1137921D01*
X+1555485Y-1137921D01*
X+1520423Y-1102859D01*
X+1673724Y-1102859D01*
X+1694592Y-1123726D01*
X+507395Y-1136999D02*
X+573397Y-1136999D01*
X+523936Y-1186460D01*
X+493895Y-1156419D01*
X+493895Y-1123499D01*
X+507395Y-1136999D01*
X+403999Y-1210203D02*
X+401938Y-1210203D01*
X+402968Y-1209172D01*
X+403999Y-1210203D01*
X-446999Y-1162605D02*
X-406603Y-1203001D01*
X-462605Y-1203001D01*
X-517666Y-1258062D01*
X-517666Y-1180193D01*
X-558062Y-1139797D01*
X-502060Y-1139797D01*
X-446999Y-1084736D01*
X-446999Y-1162605D01*
X-1049019Y-1312099D02*
X-1061777Y-1299341D01*
X-1049019Y-1286583D01*
X-1049019Y-1312099D01*
X+1705797Y-1264919D02*
X+1768923Y-1264919D01*
X+1780541Y-1253301D01*
X+1780541Y-1362977D01*
X+1657083Y-1239519D01*
X+1680397Y-1239519D01*
X+1705797Y-1264919D01*
X-1269699Y-1227865D02*
X-1187865Y-1309699D01*
X-1173621Y-1309699D01*
X-1188719Y-1324797D01*
X-1188719Y-1387923D01*
X-1163319Y-1413323D01*
X-1163319Y-1452674D01*
X-1356152Y-1259841D01*
X-1512757Y-1259841D01*
X-1527999Y-1244599D01*
X-1358179Y-1244599D01*
X-1269699Y-1156119D01*
X-1269699Y-1227865D01*
X-1049019Y-1642661D02*
X-1061721Y-1629959D01*
X-1061721Y-1413323D01*
X-1049019Y-1400621D01*
X-1049019Y-1642661D01*
X-53846Y-1596191D02*
X-38967Y-1611070D01*
X+161985Y-1611070D01*
X+257796Y-1706881D01*
X+227517Y-1706881D01*
X+202117Y-1732281D01*
X+50251Y-1732281D01*
X-149861Y-1532169D01*
X-149861Y-1500176D01*
X-53846Y-1596191D01*
X-251459Y-1553210D02*
X-251459Y-1574251D01*
X+8169Y-1833879D01*
X+202117Y-1833879D01*
X+212279Y-1844041D01*
X-299885Y-1844041D01*
X-218274Y-1647015D01*
X-406005Y-1569255D01*
X-512926Y-1827385D01*
X-509507Y-1828801D01*
X-518161Y-1828801D01*
X-518161Y-1797237D01*
X-562797Y-1752601D01*
X-575903Y-1752601D01*
X-505577Y-1582819D01*
X-429999Y-1582819D01*
X-359201Y-1512021D01*
X-359201Y-1456999D01*
X-357395Y-1456999D01*
X-283001Y-1382605D01*
X-283001Y-1277395D01*
X-323397Y-1236999D01*
X-267395Y-1236999D01*
X-251459Y-1221063D01*
X-251459Y-1553210D01*
X+274321Y-1871261D02*
X+262339Y-1859279D01*
X+274321Y-1859279D01*
X+274321Y-1871261D01*
X+55031Y-2034542D02*
X+32169Y-2034542D01*
X+32169Y-1945639D01*
X+55031Y-1945639D01*
X+55031Y-2034542D01*
X+163319Y-2113401D02*
X+150939Y-2113401D01*
X+188379Y-2075961D01*
X+188379Y-2062599D01*
X+214121Y-2062599D01*
X+163319Y-2113401D01*
X+360681Y-2264959D02*
X+31433Y-2594207D01*
X+31433Y-2757415D01*
X+131517Y-2857499D01*
X+277035Y-2857499D01*
X+213156Y-2883959D01*
X-242061Y-2883959D01*
X-687621Y-2438399D01*
X-275403Y-2438399D01*
X-244923Y-2468879D01*
X-181797Y-2468879D01*
X-137161Y-2424243D01*
X-137161Y-2361117D01*
X-181797Y-2316481D01*
X-244923Y-2316481D01*
X-259081Y-2330639D01*
X-259081Y-2312121D01*
X-83098Y-2136138D01*
X-38949Y-2136138D01*
X-38949Y-2253099D01*
X+126149Y-2253099D01*
X+126149Y-2214999D01*
X+205401Y-2214999D01*
X+360681Y-2059719D01*
X+360681Y-2264959D01*
X+593959Y-2903704D02*
X+593959Y-2924156D01*
X+561339Y-2937668D01*
X+561339Y-2871084D01*
X+593959Y-2903704D01*
X+397250Y-3070861D02*
X+326101Y-3070861D01*
X+447560Y-3020551D01*
X+397250Y-3070861D01*
X+557682Y-3109264D02*
X+463526Y-3148265D01*
X+541527Y-3070264D01*
X+557682Y-3109264D01*
X-1989017Y-2742103D02*
X-2068950Y-2742103D01*
X-2085504Y-2702137D01*
X-1989017Y-2742103D01*
X-836446Y+1040190D02*
X-868036Y+963925D01*
X-899626Y+887659D02*
X-868036Y+963925D01*
X-950168Y+997945D02*
X-868036Y+963925D01*
X+135992Y+1321556D02*
X+59727Y+1289966D01*
X-16538Y+1258376D02*
X+59727Y+1289966D01*
X+25706Y+1372098D02*
X+59727Y+1289966D01*
X+93747Y+1207834D02*
X+59727Y+1289966D01*
X+910190Y+666446D02*
X+833925Y+698036D01*
X+757659Y+729626D02*
X+833925Y+698036D01*
X+799904Y+615904D02*
X+833925Y+698036D01*
X+1311556Y-135992D02*
X+1279966Y-59727D01*
X+1248376Y+16538D02*
X+1279966Y-59727D01*
X+1362098Y-25706D02*
X+1279966Y-59727D01*
X+816446Y-1020190D02*
X+848036Y-943925D01*
X+879626Y-867659D02*
X+848036Y-943925D01*
X+930168Y-977945D02*
X+848036Y-943925D01*
X+765904Y-909904D02*
X+848036Y-943925D01*
X+16538Y-1218376D02*
X-59727Y-1249966D01*
X-25706Y-1332098D02*
X-59727Y-1249966D01*
X-93747Y-1167834D02*
X-59727Y-1249966D01*
X-969917Y-696480D02*
X-893652Y-728070D01*
X-817386Y-759660D02*
X-893652Y-728070D01*
X-927672Y-810202D02*
X-893652Y-728070D01*
X-859631Y-645938D02*
X-893652Y-728070D01*
X-1268376Y-46538D02*
X-1299966Y+29727D01*
X-1382098Y-4293D02*
X-1299966Y+29727D01*
X-1217834Y+63747D02*
X-1299966Y+29727D01*
X+0Y+2185701D02*
X+0Y+2300000D01*
X+1757992Y-1537992D02*
X+1659210Y-1439210D01*
X+1560428Y-1537992D02*
X+1659210Y-1439210D01*
X+1757992Y-1340428D02*
X+1659210Y-1439210D01*
X-1076999Y-2130000D02*
X-950000Y-2130000D01*
X-823001Y-2130000D02*
X-950000Y-2130000D01*
X-950000Y-2256999D02*
X-950000Y-2130000D01*
X-950000Y-2003001D02*
X-950000Y-2130000D01*
X+942008Y+1141218D02*
X+1040790Y+1240000D01*
X+1139572Y+1338782D02*
X+1040790Y+1240000D01*
X+1139572Y+1141218D02*
X+1040790Y+1240000D01*
X+942008Y+1338782D02*
X+1040790Y+1240000D01*
X-1428371Y+1331629D02*
X-1370000Y+1390000D01*
X-1311629Y+1448371D02*
X-1370000Y+1390000D01*
X-1307139Y+1327139D02*
X-1370000Y+1390000D01*
X-1432861Y+1452861D02*
X-1370000Y+1390000D01*
X-513750Y+2577351D02*
X-513750Y+2647200D01*
X-374051Y+2647200D02*
X-513750Y+2647200D01*
X-132929Y-1973700D02*
X-50380Y-1973700D01*
X+32169Y-1973700D02*
X-50380Y-1973700D01*
X-1052817Y+2173565D02*
X-935485Y+2222165D01*
X-818153Y+2270765D02*
X-935485Y+2222165D01*
X-886885Y+2104833D02*
X-935485Y+2222165D01*
X-984085Y+2339497D02*
X-935485Y+2222165D01*
X+526061Y+3100000D02*
X+614960Y+3100000D01*
X+703859Y+3100000D02*
X+614960Y+3100000D01*
X+614960Y+2985701D02*
X+614960Y+3100000D01*
X+526061Y+3300000D02*
X+614960Y+3300000D01*
X+703859Y+3300000D02*
X+614960Y+3300000D01*
X+614960Y+3414299D02*
X+614960Y+3300000D01*
X+1396265Y-2558410D02*
X+1320000Y-2590000D01*
X+1243734Y-2621590D02*
X+1320000Y-2590000D01*
X+1285979Y-2507868D02*
X+1320000Y-2590000D01*
X+1354020Y-2672132D02*
X+1320000Y-2590000D01*
X-823734Y-2831590D02*
X-900000Y-2800000D01*
X-976265Y-2768410D02*
X-900000Y-2800000D01*
X-865979Y-2717868D02*
X-900000Y-2800000D01*
X-934020Y-2882132D02*
X-900000Y-2800000D01*
D12*
X-1330000Y+420000D03*
X-1232798Y+654665D03*
X-1100000Y+320000D03*
X-1002798Y+554665D03*
D13*
X-1080000Y+950000D03*
X-939966Y+790273D03*
X-868036Y+963925D03*
D12*
X-650000Y+1240000D03*
X-415335Y+1337202D03*
X-550000Y+1010000D03*
X-315335Y+1107202D03*
X+420000Y+1340000D03*
X+654665Y+1242798D03*
X+320000Y+1100000D03*
X+554665Y+1002798D03*
X+1240000Y+650000D03*
X+1337202Y+415335D03*
X+1000000Y+550000D03*
X+1097202Y+315335D03*
X+1340000Y-420000D03*
X+1242798Y-654665D03*
X+1100000Y-320000D03*
X+1002798Y-554665D03*
X+650000Y-1240000D03*
X+415335Y-1337202D03*
X+560000Y-1010000D03*
X+325335Y-1107202D03*
X-410000Y-1330000D03*
X-644665Y-1232798D03*
X-320000Y-1110000D03*
X-554665Y-1012798D03*
X-1240000Y-650000D03*
X-1337202Y-415335D03*
X-1000000Y-560000D03*
X-1097202Y-325335D03*
D14*
X-100000Y+1430000D03*
X-113925Y+1218036D03*
X+59727Y+1289966D03*
D15*
X+820000Y+910000D03*
X+660273Y+769966D03*
X+833925Y+698036D03*
D16*
X+1420000Y+100000D03*
X+1208036Y+113925D03*
X+1279966Y-59727D03*
D13*
X+1060000Y-930000D03*
X+919966Y-770273D03*
X+848036Y-943925D03*
D14*
X+100000Y-1390000D03*
X+113925Y-1178036D03*
X-59727Y-1249966D03*
D15*
X-879727Y-940034D03*
X-720000Y-800000D03*
X-893652Y-728070D03*
D16*
X-1440000Y-130000D03*
X-1228036Y-143925D03*
X-1299966Y+29727D03*
D17*
X-633525Y-1626222D03*
X-365600Y-1737200D03*
D18*
X+542075Y-1670978D03*
X+810000Y-1560000D03*
D19*
X+203200Y+2300000D03*
X+0Y+2300000D03*
X-203200Y+2300000D03*
D12*
X-3501235Y+435864D03*
X-2774137Y+2191235D03*
X-2190000Y+2810001D03*
X-434628Y+3537099D03*
X+440000Y+3530000D03*
X+2195371Y+2802902D03*
X+2800001Y+2200000D03*
X+3527099Y+444628D03*
X+3529999Y-430001D03*
X+2802901Y-2185372D03*
X+2200000Y-2790000D03*
X+444628Y-3517098D03*
X-430000Y-3520000D03*
X-2185371Y-2792902D03*
X-2800001Y-2180000D03*
X-3527099Y-424628D03*
D70*
X-124000Y+1880000D03*
X+130000Y+1880000D03*
D71*
X+1300000Y-1080000D03*
X+1479605Y-1259605D03*
X+1659210Y-1439210D03*
D12*
X-1184666Y-2032798D03*
X-950000Y-2130000D03*
D20*
X+1040790Y+1240000D03*
X+1400000Y+1599210D03*
X+1400000Y+1240000D03*
D21*
X-1370000Y+1390000D03*
X-1438250Y+1591158D03*
X-1571158Y+1458250D03*
D20*
X-1130000Y-1170000D03*
X-1489210Y-1529210D03*
D22*
X-513750Y+3028199D03*
X-513749Y+2901200D03*
X-513750Y+2774200D03*
X-513750Y+2647200D03*
X+6950Y+2647200D03*
X+6950Y+2774200D03*
X+6951Y+2901200D03*
X+6951Y+3028200D03*
D23*
X+372000Y+2615300D03*
X+372000Y+2905300D03*
D71*
X+1080000Y-1290000D03*
X+1259605Y-1469605D03*
X+1439210Y-1649210D03*
D70*
X-104700Y-193100D03*
X+149300Y-193100D03*
D24*
X+43600Y-2164200D03*
X+137580Y-1973700D03*
X-50380Y-1973700D03*
D25*
X+849030Y+2295670D03*
D19*
X+1080000Y+2200000D03*
D26*
X-704515Y+2317835D03*
D12*
X-935485Y+2222165D03*
D27*
X-400000Y+3200000D03*
X-85040Y+3200000D03*
X+300000Y+3100000D03*
X+614960Y+3100000D03*
X+300000Y+3300000D03*
X+614960Y+3300000D03*
D18*
X+850000Y-3350000D03*
X+1117925Y-3239022D03*
X+1400000Y-3100000D03*
X+1667925Y-2989022D03*
D17*
X-1850000Y-2950000D03*
X-1582075Y-3060978D03*
X-1250000Y-3200000D03*
X-982075Y-3310978D03*
D28*
X+960000Y-2910000D03*
X+645881Y-3040112D03*
D29*
X-1450000Y-2700000D03*
X-1764119Y-2569888D03*
D72*
X+500000Y-3250000D03*
X+369888Y-2935881D03*
D73*
X-2050000Y-2600000D03*
X-1919888Y-2285881D03*
D14*
X+1320000Y-2590000D03*
X+1306075Y-2801964D03*
X+1479727Y-2730034D03*
D15*
X-900000Y-2800000D03*
X-1059727Y-2940034D03*
X-886075Y-3011964D03*
D30*
X-1990000Y+0D03*
X+2000000Y+0D03*
D31*
X+3730000Y+5000D02*
X+3724161Y+213494D01*
X+3677111Y+630483D01*
X+3581154Y+1047472D01*
X+3432185Y+1464461D01*
X+3222850Y+1881450D01*
X+2940262Y+2298439D01*
X+2562518Y+2713270D01*
X+2145529Y+3053567D01*
X+1728540Y+3307277D01*
X+1311551Y+3493345D01*
X+894562Y+3622223D01*
X+477573Y+3699902D01*
X+60584Y+3729585D01*
X+5000Y+3730000D01*
X-3720000Y+5000D02*
X-3714161Y+213494D01*
X-3667111Y+630483D01*
X-3571154Y+1047472D01*
X-3422185Y+1464461D01*
X-3212850Y+1881450D01*
X-2930262Y+2298439D01*
X-2552518Y+2713270D01*
X-2135529Y+3053567D01*
X-1718540Y+3307277D01*
X-1301551Y+3493345D01*
X-884562Y+3622223D01*
X-467573Y+3699902D01*
X-50584Y+3729585D01*
X+5000Y+3730000D01*
X-3720000Y+5000D02*
X-3714161Y-203494D01*
X-3667111Y-620483D01*
X-3571154Y-1037472D01*
X-3422185Y-1454461D01*
X-3212850Y-1871450D01*
X-2930262Y-2288439D01*
X-2552518Y-2703270D01*
X-2135529Y-3043567D01*
X-1718540Y-3297277D01*
X-1301551Y-3483345D01*
X-884562Y-3612223D01*
X-467573Y-3689902D01*
X-50584Y-3719585D01*
X+5000Y-3720000D01*
X+3730000Y+5000D02*
X+3724161Y-203494D01*
X+3677111Y-620483D01*
X+3581154Y-1037472D01*
X+3432185Y-1454461D01*
X+3222850Y-1871450D01*
X+2940262Y-2288439D01*
X+2562518Y-2703270D01*
X+2145529Y-3043567D01*
X+1728540Y-3297277D01*
X+1311551Y-3483345D01*
X+894562Y-3612223D01*
X+477573Y-3689902D01*
X+60584Y-3719585D01*
X+5000Y-3720000D01*
M02*
