G04 PROTEUS RS274X GERBER FILE*
%FSLAX45Y45*%
%MOMM*%
G01*
%AMPPAD003*
4,1,4,
0.639430,0.216260,
0.299230,-0.605070,
-0.639430,-0.216260,
-0.299230,0.605070,
0.639430,0.216260,
0*%
%ADD13PPAD003*%
%AMPPAD004*
4,1,4,
0.605070,-0.299230,
-0.216260,-0.639430,
-0.605070,0.299230,
0.216260,0.639430,
0.605070,-0.299230,
0*%
%ADD14PPAD004*%
%AMPPAD005*
4,1,4,
0.216260,-0.639430,
-0.605070,-0.299230,
-0.216260,0.639430,
0.605070,0.299230,
0.216260,-0.639430,
0*%
%ADD15PPAD005*%
%AMPPAD006*
4,1,4,
-0.299230,-0.605070,
-0.639430,0.216260,
0.299230,0.605070,
0.639430,-0.216260,
-0.299230,-0.605070,
0*%
%ADD16PPAD006*%
%AMPPAD007*
4,1,4,
-0.197860,1.181670,
0.975470,0.695660,
0.197860,-1.181670,
-0.975470,-0.695660,
-0.197860,1.181670,
0*%
%ADD17PPAD007*%
%AMPPAD008*
4,1,4,
-0.975470,0.695660,
0.197860,1.181670,
0.975470,-0.695660,
-0.197860,-1.181670,
-0.975470,0.695660,
0*%
%ADD18PPAD008*%
%AMPPAD013*
4,1,4,
-0.673520,0.044900,
-0.044900,0.673520,
0.673520,-0.044900,
0.044900,-0.673520,
-0.673520,0.044900,
0*%
%ADD21PPAD013*%
%ADD22R,2.032000X0.635000*%
%ADD23R,2.032000X1.270000*%
%ADD24R,0.889000X1.016000*%
%ADD27R,1.016000X1.524000*%
%AMPPAD020*
4,1,4,
0.985540,-0.554020,
-0.305120,-1.088630,
-0.985540,0.554020,
0.305120,1.088630,
0.985540,-0.554020,
0*%
%ADD28PPAD020*%
%AMPPAD021*
4,1,4,
0.305120,-1.088630,
-0.985540,-0.554020,
-0.305120,1.088630,
0.985540,0.554020,
0.305120,-1.088630,
0*%
%ADD29PPAD021*%
%AMPPAD022*
4,1,4,
-0.554020,-0.985540,
-1.088630,0.305120,
0.554020,0.985540,
1.088630,-0.305120,
-0.554020,-0.985540,
0*%
%ADD72PPAD022*%
%AMPPAD023*
4,1,4,
-1.088630,-0.305120,
-0.554020,0.985540,
1.088630,0.305120,
0.554020,-0.985540,
-1.088630,-0.305120,
0*%
%ADD73PPAD023*%
%ADD31C,0.203200*%
D13*
X-1080000Y+950000D03*
X-939966Y+790273D03*
X-868036Y+963925D03*
D14*
X-100000Y+1430000D03*
X-113925Y+1218036D03*
X+59727Y+1289966D03*
D15*
X+820000Y+910000D03*
X+660273Y+769966D03*
X+833925Y+698036D03*
D16*
X+1420000Y+100000D03*
X+1208036Y+113925D03*
X+1279966Y-59727D03*
D13*
X+1060000Y-930000D03*
X+919966Y-770273D03*
X+848036Y-943925D03*
D14*
X+100000Y-1390000D03*
X+113925Y-1178036D03*
X-59727Y-1249966D03*
D15*
X-879727Y-940034D03*
X-720000Y-800000D03*
X-893652Y-728070D03*
D16*
X-1440000Y-130000D03*
X-1228036Y-143925D03*
X-1299966Y+29727D03*
D17*
X-633525Y-1626222D03*
X-365600Y-1737200D03*
D18*
X+542075Y-1670978D03*
X+810000Y-1560000D03*
D21*
X-1370000Y+1390000D03*
X-1438250Y+1591158D03*
X-1571158Y+1458250D03*
D22*
X-513750Y+3028199D03*
X-513749Y+2901200D03*
X-513750Y+2774200D03*
X-513750Y+2647200D03*
X+6950Y+2647200D03*
X+6950Y+2774200D03*
X+6951Y+2901200D03*
X+6951Y+3028200D03*
D23*
X+372000Y+2615300D03*
X+372000Y+2905300D03*
D24*
X+43600Y-2164200D03*
X+137580Y-1973700D03*
X-50380Y-1973700D03*
D27*
X-400000Y+3200000D03*
X-85040Y+3200000D03*
X+300000Y+3100000D03*
X+614960Y+3100000D03*
X+300000Y+3300000D03*
X+614960Y+3300000D03*
D18*
X+850000Y-3350000D03*
X+1117925Y-3239022D03*
X+1400000Y-3100000D03*
X+1667925Y-2989022D03*
D17*
X-1850000Y-2950000D03*
X-1582075Y-3060978D03*
X-1250000Y-3200000D03*
X-982075Y-3310978D03*
D28*
X+960000Y-2910000D03*
X+645881Y-3040112D03*
D29*
X-1450000Y-2700000D03*
X-1764119Y-2569888D03*
D72*
X+500000Y-3250000D03*
X+369888Y-2935881D03*
D73*
X-2050000Y-2600000D03*
X-1919888Y-2285881D03*
D14*
X+1320000Y-2590000D03*
X+1306075Y-2801964D03*
X+1479727Y-2730034D03*
D15*
X-900000Y-2800000D03*
X-1059727Y-2940034D03*
X-886075Y-3011964D03*
D31*
X+3730000Y+5000D02*
X+3724161Y+213494D01*
X+3677111Y+630483D01*
X+3581154Y+1047472D01*
X+3432185Y+1464461D01*
X+3222850Y+1881450D01*
X+2940262Y+2298439D01*
X+2562518Y+2713270D01*
X+2145529Y+3053567D01*
X+1728540Y+3307277D01*
X+1311551Y+3493345D01*
X+894562Y+3622223D01*
X+477573Y+3699902D01*
X+60584Y+3729585D01*
X+5000Y+3730000D01*
X-3720000Y+5000D02*
X-3714161Y+213494D01*
X-3667111Y+630483D01*
X-3571154Y+1047472D01*
X-3422185Y+1464461D01*
X-3212850Y+1881450D01*
X-2930262Y+2298439D01*
X-2552518Y+2713270D01*
X-2135529Y+3053567D01*
X-1718540Y+3307277D01*
X-1301551Y+3493345D01*
X-884562Y+3622223D01*
X-467573Y+3699902D01*
X-50584Y+3729585D01*
X+5000Y+3730000D01*
X-3720000Y+5000D02*
X-3714161Y-203494D01*
X-3667111Y-620483D01*
X-3571154Y-1037472D01*
X-3422185Y-1454461D01*
X-3212850Y-1871450D01*
X-2930262Y-2288439D01*
X-2552518Y-2703270D01*
X-2135529Y-3043567D01*
X-1718540Y-3297277D01*
X-1301551Y-3483345D01*
X-884562Y-3612223D01*
X-467573Y-3689902D01*
X-50584Y-3719585D01*
X+5000Y-3720000D01*
X+3730000Y+5000D02*
X+3724161Y-203494D01*
X+3677111Y-620483D01*
X+3581154Y-1037472D01*
X+3432185Y-1454461D01*
X+3222850Y-1871450D01*
X+2940262Y-2288439D01*
X+2562518Y-2703270D01*
X+2145529Y-3043567D01*
X+1728540Y-3297277D01*
X+1311551Y-3483345D01*
X+894562Y-3612223D01*
X+477573Y-3689902D01*
X+60584Y-3719585D01*
X+5000Y-3720000D01*
M02*
