G04 PROTEUS RS274X GERBER FILE*
%FSLAX45Y45*%
%MOMM*%
G01*
%ADD31C,0.203200*%
%ADD40C,0.200000*%
D31*
X-1261268Y+254067D02*
X-1066865Y+723398D01*
X-1301530Y+820599D01*
X-1495933Y+351269D01*
X-1261268Y+254067D01*
X-1603659Y+460479D02*
X-1519180Y+425486D01*
X-1482729Y+513486D01*
X-1514748Y+595481D02*
X-1530758Y+636478D01*
X-1446278Y+601486D01*
X-1421978Y+660151D02*
X-1478298Y+683480D01*
X-1494307Y+724477D01*
X-1482157Y+753810D01*
X-1441847Y+771479D01*
X-1385527Y+748151D01*
X-1450138Y+671815D02*
X-1413687Y+759815D01*
X-1031268Y+154067D02*
X-836865Y+623398D01*
X-1071530Y+720599D01*
X-1265933Y+251269D01*
X-1031268Y+154067D01*
X-923659Y+180479D02*
X-839180Y+145486D01*
X-802729Y+233486D01*
X-834748Y+315481D02*
X-850758Y+356478D01*
X-766278Y+321486D01*
X-741978Y+380151D02*
X-826457Y+415144D01*
X-796082Y+488477D01*
X-775927Y+497311D01*
X-761847Y+491479D01*
X-753842Y+470980D01*
X-733687Y+479815D01*
X-719607Y+473983D01*
X-711602Y+453484D01*
X-741978Y+380151D01*
X-784218Y+397647D02*
X-753842Y+470980D01*
X-991742Y+1070151D02*
X-1025762Y+988018D01*
X-929314Y+928823D02*
X-956530Y+863117D01*
X-991742Y+1070151D02*
X-907262Y+1035158D01*
X-1015726Y+766668D02*
X-1102552Y+802632D01*
X-1069503Y+882419D01*
X-833135Y+728504D02*
X-849144Y+769501D01*
X-836994Y+798834D01*
X-796684Y+816503D01*
X-768524Y+804839D01*
X-752514Y+763842D01*
X-764665Y+734508D01*
X-804975Y+716839D01*
X-833135Y+728504D01*
X-780674Y+775506D02*
X-740364Y+793175D01*
X-772383Y+875170D02*
X-788393Y+916167D01*
X-703913Y+881175D01*
X-718732Y+1074067D02*
X-249401Y+1268470D01*
X-346603Y+1503136D01*
X-815934Y+1308732D01*
X-718732Y+1074067D01*
X-807813Y+1455058D02*
X-772820Y+1370579D01*
X-684821Y+1407029D01*
X-669981Y+1495655D02*
X-661147Y+1515810D01*
X-617147Y+1534035D01*
X-596648Y+1526030D01*
X-590816Y+1511950D01*
X-599651Y+1491795D01*
X-643650Y+1473570D01*
X-652485Y+1453415D01*
X-640821Y+1425255D01*
X-567488Y+1455630D01*
X-538155Y+1467781D02*
X-561484Y+1524101D01*
X-543815Y+1564411D01*
X-514481Y+1576561D01*
X-473484Y+1560551D01*
X-450156Y+1504231D01*
X-549819Y+1495941D02*
X-461820Y+1532391D01*
X-618732Y+844067D02*
X-149401Y+1038470D01*
X-246603Y+1273136D01*
X-715934Y+1078732D01*
X-618732Y+844067D01*
X-527813Y+795058D02*
X-492820Y+710579D01*
X-404821Y+747029D01*
X-389981Y+835655D02*
X-381147Y+855810D01*
X-337147Y+874035D01*
X-316648Y+866030D01*
X-310816Y+851950D01*
X-319651Y+831795D01*
X-363650Y+813570D01*
X-372485Y+793415D01*
X-360821Y+765255D01*
X-287488Y+795630D01*
X-258155Y+807781D02*
X-293148Y+892260D01*
X-219815Y+922636D01*
X-199316Y+914631D01*
X-193484Y+900551D01*
X-202319Y+880396D01*
X-181820Y+872391D01*
X-175988Y+858311D01*
X-184822Y+838156D01*
X-258155Y+807781D01*
X-275651Y+850021D02*
X-202319Y+880396D01*
X+254067Y+1271268D02*
X+723398Y+1076865D01*
X+820599Y+1311530D01*
X+351269Y+1505933D01*
X+254067Y+1271268D01*
X+460479Y+1603659D02*
X+425486Y+1519180D01*
X+513486Y+1482729D01*
X+586646Y+1534903D02*
X+607145Y+1542908D01*
X+651145Y+1524683D01*
X+659979Y+1504528D01*
X+654147Y+1490448D01*
X+633648Y+1482443D01*
X+642483Y+1462288D01*
X+636651Y+1448208D01*
X+616152Y+1440203D01*
X+572152Y+1458429D01*
X+563318Y+1478584D01*
X+604315Y+1494593D02*
X+633648Y+1482443D01*
X+660151Y+1421978D02*
X+683480Y+1478298D01*
X+724477Y+1494307D01*
X+753810Y+1482157D01*
X+771479Y+1441847D01*
X+748151Y+1385527D01*
X+671815Y+1450138D02*
X+759815Y+1413687D01*
X+154067Y+1031268D02*
X+623398Y+836865D01*
X+720599Y+1071530D01*
X+251269Y+1265933D01*
X+154067Y+1031268D01*
X+210479Y+923659D02*
X+175486Y+839180D01*
X+263486Y+802729D01*
X+336646Y+854903D02*
X+357145Y+862908D01*
X+401145Y+844683D01*
X+409979Y+824528D01*
X+404147Y+810448D01*
X+383648Y+802443D01*
X+392483Y+782288D01*
X+386651Y+768208D01*
X+366152Y+760203D01*
X+322152Y+778429D01*
X+313318Y+798584D01*
X+354315Y+814593D02*
X+383648Y+802443D01*
X+410151Y+741978D02*
X+445144Y+826457D01*
X+518477Y+796082D01*
X+527311Y+775927D01*
X+521479Y+761847D01*
X+500980Y+753842D01*
X+509815Y+733687D01*
X+503983Y+719607D01*
X+483484Y+711602D01*
X+410151Y+741978D01*
X+427647Y+784218D02*
X+500980Y+753842D01*
X+1074067Y+718732D02*
X+1268470Y+249401D01*
X+1503136Y+346603D01*
X+1308732Y+815934D01*
X+1074067Y+718732D01*
X+1455058Y+807813D02*
X+1370579Y+772820D01*
X+1407029Y+684821D01*
X+1483790Y+579152D02*
X+1447340Y+667151D01*
X+1527960Y+631813D01*
X+1443480Y+596821D01*
X+1467781Y+538155D02*
X+1524101Y+561484D01*
X+1564411Y+543815D01*
X+1576561Y+514481D01*
X+1560551Y+473484D01*
X+1504231Y+450156D01*
X+1495941Y+549819D02*
X+1532391Y+461820D01*
X+834067Y+618732D02*
X+1028470Y+149401D01*
X+1263136Y+246603D01*
X+1068732Y+715934D01*
X+834067Y+618732D01*
X+815058Y+527813D02*
X+730579Y+492820D01*
X+767029Y+404821D01*
X+843790Y+299152D02*
X+807340Y+387151D01*
X+887960Y+351813D01*
X+803480Y+316821D01*
X+827781Y+258155D02*
X+912260Y+293148D01*
X+942636Y+219815D01*
X+934631Y+199316D01*
X+920551Y+193484D01*
X+900396Y+202319D01*
X+892391Y+181820D01*
X+878311Y+175988D01*
X+858156Y+184822D01*
X+827781Y+258155D01*
X+870021Y+275651D02*
X+900396Y+202319D01*
X+1271268Y-254067D02*
X+1076865Y-723398D01*
X+1311530Y-820599D01*
X+1505933Y-351269D01*
X+1271268Y-254067D01*
X+1603659Y-460479D02*
X+1519180Y-425486D01*
X+1482729Y-513486D01*
X+1518608Y-665811D02*
X+1548983Y-592478D01*
X+1520823Y-580814D01*
X+1496523Y-639481D01*
X+1476368Y-648315D01*
X+1448208Y-636651D01*
X+1440203Y-616152D01*
X+1458429Y-572152D01*
X+1478584Y-563318D01*
X+1421978Y-660151D02*
X+1478298Y-683480D01*
X+1494307Y-724477D01*
X+1482157Y-753810D01*
X+1441847Y-771479D01*
X+1385527Y-748151D01*
X+1450138Y-671815D02*
X+1413687Y-759815D01*
X+1031268Y-154067D02*
X+836865Y-623398D01*
X+1071530Y-720599D01*
X+1265933Y-251269D01*
X+1031268Y-154067D01*
X+933659Y-180479D02*
X+849180Y-145486D01*
X+812729Y-233486D01*
X+848608Y-385811D02*
X+878983Y-312478D01*
X+850823Y-300814D01*
X+826523Y-359481D01*
X+806368Y-368315D01*
X+778208Y-356651D01*
X+770203Y-336152D01*
X+788429Y-292152D01*
X+808584Y-283318D01*
X+751978Y-380151D02*
X+836457Y-415144D01*
X+806082Y-488477D01*
X+785927Y-497311D01*
X+771847Y-491479D01*
X+763842Y-470980D01*
X+743687Y-479815D01*
X+729607Y-473983D01*
X+721602Y-453484D01*
X+751978Y-380151D01*
X+794218Y-397647D02*
X+763842Y-470980D01*
X+718732Y-1074067D02*
X+249401Y-1268470D01*
X+346603Y-1503136D01*
X+815934Y-1308732D01*
X+718732Y-1074067D01*
X+797813Y-1425058D02*
X+762820Y-1340579D01*
X+674821Y-1377029D01*
X+586648Y-1496030D02*
X+607147Y-1504035D01*
X+651147Y-1485810D01*
X+659981Y-1465655D01*
X+636653Y-1409335D01*
X+616154Y-1401330D01*
X+572154Y-1419555D01*
X+563320Y-1439710D01*
X+569152Y-1453790D01*
X+589651Y-1461795D01*
X+648317Y-1437495D01*
X+528155Y-1437781D02*
X+551484Y-1494101D01*
X+533815Y-1534411D01*
X+504481Y-1546561D01*
X+463484Y-1530551D01*
X+440156Y-1474231D01*
X+539819Y-1465941D02*
X+451820Y-1502391D01*
X+628732Y-844067D02*
X+159401Y-1038470D01*
X+256603Y-1273136D01*
X+725934Y-1078732D01*
X+628732Y-844067D01*
X+507813Y-815058D02*
X+472820Y-730579D01*
X+384821Y-767029D01*
X+296648Y-886030D02*
X+317147Y-894035D01*
X+361147Y-875810D01*
X+369981Y-855655D01*
X+346653Y-799335D01*
X+326154Y-791330D01*
X+282154Y-809555D01*
X+273320Y-829710D01*
X+279152Y-843790D01*
X+299651Y-851795D01*
X+358317Y-827495D01*
X+238155Y-827781D02*
X+273148Y-912260D01*
X+199815Y-942636D01*
X+179316Y-934631D01*
X+173484Y-920551D01*
X+182319Y-900396D01*
X+161820Y-892391D01*
X+155988Y-878311D01*
X+164822Y-858156D01*
X+238155Y-827781D01*
X+255651Y-870021D02*
X+182319Y-900396D01*
X-244067Y-1261268D02*
X-713398Y-1066865D01*
X-810599Y-1301530D01*
X-341269Y-1495933D01*
X-244067Y-1261268D01*
X-430479Y-1583659D02*
X-395486Y-1499180D01*
X-483486Y-1462729D01*
X-562478Y-1528983D02*
X-635811Y-1498608D01*
X-629979Y-1484528D01*
X-527486Y-1444504D01*
X-630151Y-1401978D02*
X-653480Y-1458298D01*
X-694477Y-1474307D01*
X-723810Y-1462157D01*
X-741479Y-1421847D01*
X-718151Y-1365527D01*
X-641815Y-1430138D02*
X-729815Y-1393687D01*
X-154067Y-1041268D02*
X-623398Y-846865D01*
X-720599Y-1081530D01*
X-251269Y-1275933D01*
X-154067Y-1041268D01*
X-180479Y-973659D02*
X-145486Y-889180D01*
X-233486Y-852729D01*
X-312478Y-918983D02*
X-385811Y-888608D01*
X-379979Y-874528D01*
X-277486Y-834504D01*
X-380151Y-791978D02*
X-415144Y-876457D01*
X-488477Y-846082D01*
X-497311Y-825927D01*
X-491479Y-811847D01*
X-470980Y-803842D01*
X-479815Y-783687D01*
X-473983Y-769607D01*
X-453484Y-761602D01*
X-380151Y-791978D01*
X-397647Y-834218D02*
X-470980Y-803842D01*
X-1074067Y-718732D02*
X-1268470Y-249401D01*
X-1503136Y-346603D01*
X-1308732Y-815934D01*
X-1074067Y-718732D01*
X-1455058Y-807813D02*
X-1370579Y-772820D01*
X-1407029Y-684821D01*
X-1473570Y-643650D02*
X-1481575Y-664149D01*
X-1495655Y-669981D01*
X-1515810Y-661147D01*
X-1534035Y-617147D01*
X-1526030Y-596648D01*
X-1511950Y-590816D01*
X-1491795Y-599651D01*
X-1473570Y-643650D01*
X-1453415Y-652485D01*
X-1439335Y-646653D01*
X-1431330Y-626154D01*
X-1449555Y-582154D01*
X-1469710Y-573320D01*
X-1483790Y-579152D01*
X-1491795Y-599651D01*
X-1467781Y-538155D02*
X-1524101Y-561484D01*
X-1564411Y-543815D01*
X-1576561Y-514481D01*
X-1560551Y-473484D01*
X-1504231Y-450156D01*
X-1495941Y-549819D02*
X-1532391Y-461820D01*
X-834067Y-628732D02*
X-1028470Y-159401D01*
X-1263136Y-256603D01*
X-1068732Y-725934D01*
X-834067Y-628732D01*
X-795058Y-537813D02*
X-710579Y-502820D01*
X-747029Y-414821D01*
X-813570Y-373650D02*
X-821575Y-394149D01*
X-835655Y-399981D01*
X-855810Y-391147D01*
X-874035Y-347147D01*
X-866030Y-326648D01*
X-851950Y-320816D01*
X-831795Y-329651D01*
X-813570Y-373650D01*
X-793415Y-382485D01*
X-779335Y-376653D01*
X-771330Y-356154D01*
X-789555Y-312154D01*
X-809710Y-303320D01*
X-823790Y-309152D01*
X-831795Y-329651D01*
X-807781Y-268155D02*
X-892260Y-303148D01*
X-922636Y-229815D01*
X-914631Y-209316D01*
X-900551Y-203484D01*
X-880396Y-212319D01*
X-872391Y-191820D01*
X-858311Y-185988D01*
X-838156Y-194822D01*
X-807781Y-268155D01*
X-850021Y-285651D02*
X-880396Y-212319D01*
X+47368Y+1452552D02*
X-34765Y+1418531D01*
X-8423Y+1308474D02*
X-74130Y+1281258D01*
X+47368Y+1452552D02*
X+82360Y+1368072D01*
X-184186Y+1254916D02*
X-220151Y+1341742D01*
X-140365Y+1374790D01*
X-90260Y+1089027D02*
X-72591Y+1129337D01*
X-43257Y+1141487D01*
X-2260Y+1125477D01*
X+9404Y+1097317D01*
X-8265Y+1057007D01*
X-37598Y+1044857D01*
X-78595Y+1060867D01*
X-90260Y+1089027D01*
X-19929Y+1085167D02*
X+21068Y+1069157D01*
X+35908Y+1157783D02*
X+44742Y+1177938D01*
X+88742Y+1196163D01*
X+109241Y+1188158D01*
X+115073Y+1174078D01*
X+106238Y+1153923D01*
X+62239Y+1135698D01*
X+53404Y+1115543D01*
X+65068Y+1087383D01*
X+138401Y+1117758D01*
X+940151Y+821742D02*
X+858018Y+855762D01*
X+798823Y+759314D02*
X+733117Y+786530D01*
X+940151Y+821742D02*
X+905158Y+737262D01*
X+636668Y+845726D02*
X+672632Y+932552D01*
X+752419Y+899503D01*
X+557323Y+458954D02*
X+541314Y+499951D01*
X+553464Y+529284D01*
X+593774Y+546953D01*
X+621934Y+535289D01*
X+637944Y+494292D01*
X+625793Y+464958D01*
X+585483Y+447289D01*
X+557323Y+458954D01*
X+609784Y+505956D02*
X+650094Y+523625D01*
X+597920Y+596785D02*
X+589915Y+617284D01*
X+608140Y+661284D01*
X+628295Y+670118D01*
X+642375Y+664286D01*
X+650380Y+643787D01*
X+670535Y+652622D01*
X+684615Y+646790D01*
X+692620Y+626291D01*
X+674394Y+582291D01*
X+654239Y+573457D01*
X+638230Y+614454D02*
X+650380Y+643787D01*
X+1442552Y-47368D02*
X+1408531Y+34765D01*
X+1298474Y+8423D02*
X+1271258Y+74130D01*
X+1442552Y-47368D02*
X+1358072Y-82360D01*
X+1244916Y+184186D02*
X+1331742Y+220151D01*
X+1364790Y+140365D01*
X+1079027Y+80260D02*
X+1119337Y+62591D01*
X+1131487Y+33257D01*
X+1115477Y-7740D01*
X+1087317Y-19404D01*
X+1047007Y-1735D01*
X+1034857Y+27598D01*
X+1050867Y+68595D01*
X+1079027Y+80260D01*
X+1075167Y+9929D02*
X+1059157Y-31068D01*
X+1135918Y-136737D02*
X+1099468Y-48738D01*
X+1180088Y-84076D01*
X+1095608Y-119068D01*
X+971742Y-1050151D02*
X+1005762Y-968018D01*
X+909314Y-908823D02*
X+936530Y-843117D01*
X+971742Y-1050151D02*
X+887262Y-1015158D01*
X+995726Y-746668D02*
X+1082552Y-782632D01*
X+1049503Y-862419D01*
X+823135Y-638504D02*
X+839144Y-679501D01*
X+826994Y-708834D01*
X+786684Y-726503D01*
X+758524Y-714839D01*
X+742514Y-673842D01*
X+754665Y-644508D01*
X+794975Y-626839D01*
X+823135Y-638504D01*
X+770674Y-685506D02*
X+730364Y-703175D01*
X+766243Y-855500D02*
X+796618Y-782167D01*
X+768458Y-770503D01*
X+744158Y-829170D01*
X+724003Y-838004D01*
X+695843Y-826340D01*
X+687838Y-805841D01*
X+706064Y-761841D01*
X+726219Y-753007D01*
X-47368Y-1412552D02*
X+34765Y-1378531D01*
X+8423Y-1268474D02*
X+74130Y-1241258D01*
X-47368Y-1412552D02*
X-82360Y-1328072D01*
X+184186Y-1214916D02*
X+220151Y-1301742D01*
X+140365Y-1334790D01*
X+110260Y-1019027D02*
X+92591Y-1059337D01*
X+63257Y-1071487D01*
X+22260Y-1055477D01*
X+10596Y-1027317D01*
X+28265Y-987007D01*
X+57598Y-974857D01*
X+98595Y-990867D01*
X+110260Y-1019027D01*
X+39929Y-1015167D02*
X-1068Y-999157D01*
X-89241Y-1118158D02*
X-68742Y-1126163D01*
X-24742Y-1107938D01*
X-15908Y-1087783D01*
X-39236Y-1031463D01*
X-59735Y-1023458D01*
X-103735Y-1041683D01*
X-112569Y-1061838D01*
X-106737Y-1075918D01*
X-86238Y-1083923D01*
X-27572Y-1059623D01*
X-999878Y-851776D02*
X-917745Y-885796D01*
X-858550Y-789348D02*
X-792844Y-816564D01*
X-999878Y-851776D02*
X-964885Y-767296D01*
X-696395Y-875760D02*
X-732359Y-962586D01*
X-812146Y-929537D01*
X-538231Y-743169D02*
X-579228Y-759178D01*
X-608561Y-747028D01*
X-626230Y-706718D01*
X-614566Y-678558D01*
X-573569Y-662548D01*
X-544235Y-674699D01*
X-526566Y-715009D01*
X-538231Y-743169D01*
X-585233Y-690708D02*
X-602902Y-650398D01*
X-681894Y-716652D02*
X-755227Y-686277D01*
X-749395Y-672197D01*
X-646902Y-632173D01*
X-1462552Y+17368D02*
X-1428531Y-64765D01*
X-1318474Y-38423D02*
X-1291258Y-104130D01*
X-1462552Y+17368D02*
X-1378072Y+52360D01*
X-1264916Y-214186D02*
X-1351742Y-250151D01*
X-1384790Y-170365D01*
X-1079027Y-140260D02*
X-1119337Y-122591D01*
X-1131487Y-93257D01*
X-1115477Y-52260D01*
X-1087317Y-40596D01*
X-1047007Y-58265D01*
X-1034857Y-87598D01*
X-1050867Y-128595D01*
X-1079027Y-140260D01*
X-1075167Y-69929D02*
X-1059157Y-28932D01*
X-1125698Y+12239D02*
X-1133703Y-8260D01*
X-1147783Y-14092D01*
X-1167938Y-5258D01*
X-1186163Y+38742D01*
X-1178158Y+59241D01*
X-1164078Y+65073D01*
X-1143923Y+56238D01*
X-1125698Y+12239D01*
X-1105543Y+3404D01*
X-1091463Y+9236D01*
X-1083458Y+29735D01*
X-1101683Y+73735D01*
X-1121838Y+82569D01*
X-1135918Y+76737D01*
X-1143923Y+56238D01*
D40*
X-580198Y-1745726D02*
X-487810Y-1783994D01*
X-511315Y-1579428D02*
X-418927Y-1617696D01*
D31*
X-202796Y-1932420D02*
X-287275Y-1897427D01*
X-256900Y-1824094D01*
X-236745Y-1815260D01*
X-222665Y-1821092D01*
X-214660Y-1841591D01*
X-245036Y-1914924D01*
X-214660Y-1841591D02*
X-194505Y-1832756D01*
X-166345Y-1844420D01*
X-198364Y-1762425D02*
X-214374Y-1721428D01*
X-129894Y-1756420D01*
X-169918Y-1653928D02*
X-177923Y-1633429D01*
X-159698Y-1589429D01*
X-139543Y-1580595D01*
X-125463Y-1586427D01*
X-117458Y-1606926D01*
X-97303Y-1598091D01*
X-83223Y-1603923D01*
X-75218Y-1624422D01*
X-93444Y-1668422D01*
X-113599Y-1677256D01*
X-129608Y-1636259D02*
X-117458Y-1606926D01*
D40*
X+664285Y-1717772D02*
X+756673Y-1679504D01*
X+595402Y-1551474D02*
X+687790Y-1513206D01*
D31*
X+213468Y-1534198D02*
X+297947Y-1499205D01*
X+328323Y-1572538D01*
X+320318Y-1593037D01*
X+306238Y-1598869D01*
X+286083Y-1590034D01*
X+255708Y-1516702D01*
X+286083Y-1590034D02*
X+278078Y-1610533D01*
X+249918Y-1622197D01*
X+330539Y-1657536D02*
X+370849Y-1675205D01*
X+286369Y-1710197D01*
X+379140Y-1774868D02*
X+419450Y-1792537D01*
X+334970Y-1827529D01*
X-292100Y+2211100D02*
X+292100Y+2211100D01*
X+292100Y+2388900D01*
X-292100Y+2388900D01*
X-292100Y+2211100D01*
X-180500Y+2078140D02*
X-180500Y+2169580D01*
X-85250Y+2169580D01*
X-180500Y+2123860D02*
X-117000Y+2123860D01*
X+41750Y+2078140D02*
X-53500Y+2078140D01*
X-53500Y+2169580D01*
X+41750Y+2169580D01*
X-53500Y+2123860D02*
X+10000Y+2123860D01*
X+73500Y+2093380D02*
X+89375Y+2078140D01*
X+152875Y+2078140D01*
X+168750Y+2093380D01*
X+168750Y+2108620D01*
X+152875Y+2123860D01*
X+89375Y+2123860D01*
X+73500Y+2139100D01*
X+73500Y+2154340D01*
X+89375Y+2169580D01*
X+152875Y+2169580D01*
X+168750Y+2154340D01*
X-251000Y+1753000D02*
X+257000Y+1753000D01*
X+257000Y+2007000D01*
X-251000Y+2007000D01*
X-251000Y+1753000D01*
X-157500Y+1607640D02*
X-157500Y+1699080D01*
X-78125Y+1699080D01*
X-62250Y+1683840D01*
X-62250Y+1668600D01*
X-78125Y+1653360D01*
X-62250Y+1638120D01*
X-62250Y+1622880D01*
X-78125Y+1607640D01*
X-157500Y+1607640D01*
X-157500Y+1653360D02*
X-78125Y+1653360D01*
X-30500Y+1607640D02*
X-30500Y+1668600D01*
X+1250Y+1699080D01*
X+33000Y+1699080D01*
X+64750Y+1668600D01*
X+64750Y+1607640D01*
X-30500Y+1638120D02*
X+64750Y+1638120D01*
X+96500Y+1699080D02*
X+191750Y+1699080D01*
X+144125Y+1699080D02*
X+144125Y+1607640D01*
X+1120395Y-1080000D02*
X+1659210Y-1618815D01*
X+1838815Y-1439210D01*
X+1300000Y-900395D01*
X+1120395Y-1080000D01*
X+1369894Y-879711D02*
X+1359118Y-890487D01*
X+1359567Y-912489D01*
X+1404468Y-957390D01*
X+1426470Y-957839D01*
X+1480351Y-903957D01*
X+1503700Y-970412D02*
X+1547704Y-971310D01*
X+1483046Y-1035968D01*
X-1350599Y-2101530D02*
X-881268Y-2295933D01*
X-784067Y-2061268D01*
X-1253397Y-1866865D01*
X-1350599Y-2101530D01*
X-798020Y-1929022D02*
X-806855Y-1908867D01*
X-865521Y-1884566D01*
X-886020Y-1892571D01*
X-891852Y-1906651D01*
X-883017Y-1926806D01*
X-824351Y-1951107D01*
X-815517Y-1971262D01*
X-821349Y-1985341D01*
X-841847Y-1993346D01*
X-900514Y-1969046D01*
X-909348Y-1948891D01*
X-909521Y-1866341D02*
X-944514Y-1950820D01*
X-1017847Y-1920445D01*
X-1026681Y-1900290D01*
X-1020849Y-1886210D01*
X-1000350Y-1878205D01*
X-927017Y-1908581D01*
X-1061846Y-1902219D02*
X-1026853Y-1817740D01*
X-1149845Y-1865769D02*
X-1088349Y-1841754D01*
X-1114853Y-1781289D01*
X-1044349Y-1859980D02*
X-1088349Y-1841754D01*
X+771382Y+1150197D02*
X+1130592Y+790987D01*
X+1849013Y+1509408D01*
X+1489803Y+1868618D01*
X+771382Y+1150197D01*
X+1732908Y+1509408D02*
X+1732691Y+1514655D01*
X+1730926Y+1525150D01*
X+1727234Y+1535645D01*
X+1721206Y+1546140D01*
X+1711984Y+1556520D01*
X+1701489Y+1564208D01*
X+1690994Y+1569126D01*
X+1680499Y+1571932D01*
X+1670004Y+1572905D01*
X+1669408Y+1572908D01*
X+1605908Y+1509408D02*
X+1606125Y+1514655D01*
X+1607890Y+1525150D01*
X+1611582Y+1535645D01*
X+1617610Y+1546140D01*
X+1626832Y+1556520D01*
X+1637327Y+1564208D01*
X+1647822Y+1569126D01*
X+1658317Y+1571932D01*
X+1668812Y+1572905D01*
X+1669408Y+1572908D01*
X+1605908Y+1509408D02*
X+1606125Y+1504161D01*
X+1607890Y+1493666D01*
X+1611582Y+1483171D01*
X+1617610Y+1472676D01*
X+1626832Y+1462296D01*
X+1637327Y+1454608D01*
X+1647822Y+1449690D01*
X+1658317Y+1446884D01*
X+1668812Y+1445911D01*
X+1669408Y+1445908D01*
X+1732908Y+1509408D02*
X+1732691Y+1504161D01*
X+1730926Y+1493666D01*
X+1727234Y+1483171D01*
X+1721206Y+1472676D01*
X+1711984Y+1462296D01*
X+1701489Y+1454608D01*
X+1690994Y+1449690D01*
X+1680499Y+1446884D01*
X+1670004Y+1445911D01*
X+1669408Y+1445908D01*
X+1678388Y+1446546D02*
X+1660427Y+1572269D01*
X+1117152Y+853441D02*
X+1052495Y+918098D01*
X+1108621Y+974225D01*
X+1130623Y+974674D01*
X+1141399Y+963898D01*
X+1140950Y+941896D01*
X+1084823Y+885770D01*
X+1140950Y+941896D02*
X+1162952Y+942345D01*
X+1184504Y+920793D01*
X+1142298Y+1007901D02*
X+1174626Y+975573D01*
X+1240631Y+976920D01*
X+1241978Y+1042924D01*
X+1209649Y+1075253D01*
X+1276103Y+1098601D02*
X+1277001Y+1142605D01*
X+1341659Y+1077947D01*
X-1497520Y+1312770D02*
X-1434658Y+1375632D01*
X-1501112Y+1467230D02*
X-1450822Y+1517520D01*
X-1497520Y+1312770D02*
X-1562177Y+1377428D01*
X-1359224Y+1583974D02*
X-1292770Y+1517520D01*
X-1353836Y+1456454D01*
X-1386559Y+1236954D02*
X-1332678Y+1183073D01*
X-1310676Y+1183522D01*
X-1265775Y+1228423D01*
X-1265326Y+1250425D01*
X-1319208Y+1304306D01*
X-1274755Y+1327206D02*
X-1274306Y+1349208D01*
X-1240630Y+1382884D01*
X-1218628Y+1383333D01*
X-1207852Y+1372557D01*
X-1208301Y+1350555D01*
X-1241977Y+1316879D01*
X-1242426Y+1294878D01*
X-1220873Y+1273325D01*
X-1164747Y+1329452D01*
X-860592Y-1259803D02*
X-1399408Y-1798618D01*
X-1579013Y-1798618D01*
X-1758618Y-1619013D01*
X-1758618Y-1439408D01*
X-1219803Y-900592D01*
X-1040197Y-900592D01*
X-860592Y-1080197D01*
X-860592Y-1259803D01*
X-1051065Y-1517750D02*
X-919056Y-1515055D01*
X-986408Y-1582407D02*
X-983714Y-1450398D01*
X-917259Y-1427049D02*
X-916361Y-1383045D01*
X-851703Y-1447703D01*
X-361350Y+3061220D02*
X-280388Y+3061220D01*
X-278306Y+3050599D01*
X-272586Y+3042033D01*
X-264021Y+3036314D01*
X-253400Y+3034232D01*
X-226412Y+3061220D02*
X-228494Y+3050599D01*
X-234214Y+3042033D01*
X-242779Y+3036314D01*
X-253400Y+3034232D01*
X-226412Y+3061220D02*
X-145450Y+3061220D01*
X-285150Y+2614180D02*
X-221650Y+2614180D01*
X-361350Y+3028200D02*
X-361350Y+2647200D01*
X-145450Y+3028200D02*
X-145450Y+2647200D01*
X-361350Y+3028200D02*
X-361350Y+3061220D01*
X-145450Y+3061220D02*
X-145450Y+3028200D01*
X-221650Y+2614180D02*
X-145450Y+2614180D01*
X-145450Y+2647200D01*
X-361350Y+2647200D02*
X-361350Y+2614180D01*
X-285150Y+2614180D01*
X-315630Y+3011944D02*
X-315665Y+3012789D01*
X-315952Y+3014480D01*
X-316551Y+3016171D01*
X-317531Y+3017862D01*
X-319031Y+3019530D01*
X-320722Y+3020750D01*
X-322413Y+3021526D01*
X-324104Y+3021963D01*
X-325790Y+3022104D01*
X-335950Y+3011944D02*
X-335915Y+3012789D01*
X-335628Y+3014480D01*
X-335029Y+3016171D01*
X-334049Y+3017862D01*
X-332549Y+3019530D01*
X-330858Y+3020750D01*
X-329167Y+3021526D01*
X-327476Y+3021963D01*
X-325790Y+3022104D01*
X-335950Y+3011944D02*
X-335915Y+3011099D01*
X-335628Y+3009408D01*
X-335029Y+3007717D01*
X-334049Y+3006026D01*
X-332549Y+3004358D01*
X-330858Y+3003138D01*
X-329167Y+3002362D01*
X-327476Y+3001925D01*
X-325790Y+3001784D01*
X-315630Y+3011944D02*
X-315665Y+3011099D01*
X-315952Y+3009408D01*
X-316551Y+3007717D01*
X-317531Y+3006026D01*
X-319031Y+3004358D01*
X-320722Y+3003138D01*
X-322413Y+3002362D01*
X-324104Y+3001925D01*
X-325790Y+3001784D01*
X-630399Y+2558720D02*
X-630399Y+2482520D01*
X-614524Y+2467280D01*
X-551024Y+2467280D01*
X-535149Y+2482520D01*
X-535149Y+2558720D01*
X-487524Y+2543480D02*
X-471649Y+2558720D01*
X-424024Y+2558720D01*
X-408149Y+2543480D01*
X-408149Y+2528240D01*
X-424024Y+2513000D01*
X-408149Y+2497760D01*
X-408149Y+2482520D01*
X-424024Y+2467280D01*
X-471649Y+2467280D01*
X-487524Y+2482520D01*
X-455774Y+2513000D02*
X-424024Y+2513000D01*
D40*
X+462000Y+2710300D02*
X+462000Y+2810300D01*
X+282000Y+2710300D02*
X+282000Y+2810300D01*
D31*
X+621520Y+2557100D02*
X+530080Y+2557100D01*
X+530080Y+2636475D01*
X+545320Y+2652350D01*
X+560560Y+2652350D01*
X+575800Y+2636475D01*
X+575800Y+2557100D01*
X+575800Y+2636475D02*
X+591040Y+2652350D01*
X+621520Y+2652350D01*
X+545320Y+2699975D02*
X+530080Y+2715850D01*
X+530080Y+2763475D01*
X+545320Y+2779350D01*
X+560560Y+2779350D01*
X+575800Y+2763475D01*
X+591040Y+2779350D01*
X+606280Y+2779350D01*
X+621520Y+2763475D01*
X+621520Y+2715850D01*
X+606280Y+2699975D01*
X+575800Y+2731725D02*
X+575800Y+2763475D01*
X+591040Y+2906350D02*
X+591040Y+2811100D01*
X+530080Y+2874600D01*
X+621520Y+2874600D01*
X+900395Y-1290000D02*
X+1439210Y-1828815D01*
X+1618815Y-1649210D01*
X+1080000Y-1110395D01*
X+900395Y-1290000D01*
X+769894Y-1049711D02*
X+759118Y-1060487D01*
X+759567Y-1082489D01*
X+804468Y-1127390D01*
X+826470Y-1127839D01*
X+880351Y-1073957D01*
X+903251Y-1118410D02*
X+925253Y-1118859D01*
X+958929Y-1152535D01*
X+959378Y-1174537D01*
X+948602Y-1185313D01*
X+926600Y-1184864D01*
X+892924Y-1151188D01*
X+870923Y-1150739D01*
X+849370Y-1172292D01*
X+905497Y-1228418D01*
X-231700Y-320100D02*
X+276300Y-320100D01*
X+276300Y-66100D01*
X-231700Y-66100D01*
X-231700Y-320100D01*
X-100000Y-61260D02*
X-100000Y+30180D01*
X-52375Y-15540D01*
X-4750Y+30180D01*
X-4750Y-61260D01*
X+58750Y-300D02*
X+90500Y+30180D01*
X+90500Y-61260D01*
X-101180Y-2128640D02*
X-12280Y-2128640D01*
X+5500Y-2016880D02*
X+76620Y-2016880D01*
X-101180Y-2128640D02*
X-101180Y-2037200D01*
X+188380Y-2034660D02*
X+188380Y-2128640D01*
X+102020Y-2128640D01*
X-135760Y-2273710D02*
X-104010Y-2243230D01*
X-72260Y-2243230D01*
X-40510Y-2273710D01*
X-40510Y-2304190D01*
X-72260Y-2334670D01*
X-104010Y-2334670D01*
X-135760Y-2304190D01*
X-135760Y-2273710D01*
X-72260Y-2304190D02*
X-40510Y-2334670D01*
X+22990Y-2273710D02*
X+54740Y-2243230D01*
X+54740Y-2334670D01*
X+134115Y-2243230D02*
X+213490Y-2243230D01*
X+213490Y-2258470D01*
X+134115Y-2334670D01*
X+3730000Y+5000D02*
X+3724161Y+213494D01*
X+3677111Y+630483D01*
X+3581154Y+1047472D01*
X+3432185Y+1464461D01*
X+3222850Y+1881450D01*
X+2940262Y+2298439D01*
X+2562518Y+2713270D01*
X+2145529Y+3053567D01*
X+1728540Y+3307277D01*
X+1311551Y+3493345D01*
X+894562Y+3622223D01*
X+477573Y+3699902D01*
X+60584Y+3729585D01*
X+5000Y+3730000D01*
X-3720000Y+5000D02*
X-3714161Y+213494D01*
X-3667111Y+630483D01*
X-3571154Y+1047472D01*
X-3422185Y+1464461D01*
X-3212850Y+1881450D01*
X-2930262Y+2298439D01*
X-2552518Y+2713270D01*
X-2135529Y+3053567D01*
X-1718540Y+3307277D01*
X-1301551Y+3493345D01*
X-884562Y+3622223D01*
X-467573Y+3699902D01*
X-50584Y+3729585D01*
X+5000Y+3730000D01*
X-3720000Y+5000D02*
X-3714161Y-203494D01*
X-3667111Y-620483D01*
X-3571154Y-1037472D01*
X-3422185Y-1454461D01*
X-3212850Y-1871450D01*
X-2930262Y-2288439D01*
X-2552518Y-2703270D01*
X-2135529Y-3043567D01*
X-1718540Y-3297277D01*
X-1301551Y-3483345D01*
X-884562Y-3612223D01*
X-467573Y-3689902D01*
X-50584Y-3719585D01*
X+5000Y-3720000D01*
X+3730000Y+5000D02*
X+3724161Y-203494D01*
X+3677111Y-620483D01*
X+3581154Y-1037472D01*
X+3432185Y-1454461D01*
X+3222850Y-1871450D01*
X+2940262Y-2288439D01*
X+2562518Y-2703270D01*
X+2145529Y-3043567D01*
X+1728540Y-3297277D01*
X+1311551Y-3483345D01*
X+894562Y-3612223D01*
X+477573Y-3689902D01*
X+60584Y-3719585D01*
X+5000Y-3720000D01*
X+436530Y-1947891D02*
X+1080765Y-1681040D01*
X+1493712Y-2003416D01*
X+2014642Y-1482057D02*
X+1960500Y-1559342D01*
X+1903386Y-1632987D01*
X+1843189Y-1703102D01*
X+1779798Y-1769799D01*
X+1713101Y-1833190D01*
X+1642986Y-1893387D01*
X+1569342Y-1950500D01*
X+1492057Y-2004642D01*
X+2013416Y-1483712D02*
X+1691040Y-1070765D01*
X+1957891Y-426530D01*
X+2477843Y-362486D01*
X+2505000Y+5000D02*
X+2497909Y-189560D01*
X+2489300Y-280455D01*
X+2477540Y-364524D01*
X+2505000Y+5000D02*
X+2497909Y+199560D01*
X+2489300Y+290455D01*
X+2477540Y+374524D01*
X+2477843Y+372486D02*
X+1957891Y+436530D01*
X+1691040Y+1080765D01*
X+2013416Y+1493712D01*
X+2014642Y+1492057D02*
X+1960500Y+1569342D01*
X+1903386Y+1642987D01*
X+1843189Y+1713102D01*
X+1779798Y+1779799D01*
X+1713101Y+1843190D01*
X+1642986Y+1903387D01*
X+1569342Y+1960500D01*
X+1492057Y+2014642D01*
X+1493712Y+2013416D02*
X+1080765Y+1691040D01*
X+436530Y+1957891D01*
X+372486Y+2477843D01*
X+374524Y+2477540D02*
X+290455Y+2489300D01*
X+199560Y+2497909D01*
X+5000Y+2505000D01*
X-364524Y+2477540D02*
X-280455Y+2489300D01*
X-189560Y+2497909D01*
X+5000Y+2505000D01*
X-362486Y+2477843D02*
X-426530Y+1957891D01*
X-1070765Y+1691040D01*
X-1483712Y+2013416D01*
X-2004642Y+1492057D02*
X-1950500Y+1569342D01*
X-1893386Y+1642987D01*
X-1833189Y+1713102D01*
X-1769798Y+1779799D01*
X-1703101Y+1843190D01*
X-1632986Y+1903387D01*
X-1559342Y+1960500D01*
X-1482057Y+2014642D01*
X-2003416Y+1493712D02*
X-1681040Y+1080765D01*
X-1947891Y+436530D01*
X-2467843Y+372486D01*
X-2495000Y+5000D02*
X-2487909Y+199560D01*
X-2479300Y+290455D01*
X-2467540Y+374524D01*
X-2495000Y+5000D02*
X-2487909Y-189560D01*
X-2479300Y-280455D01*
X-2467540Y-364524D01*
X-2467843Y-362486D02*
X-1947891Y-426530D01*
X-1681040Y-1070765D01*
X-2003416Y-1483712D01*
X-2004642Y-1482057D02*
X-1950500Y-1559342D01*
X-1893386Y-1632987D01*
X-1833189Y-1703102D01*
X-1769798Y-1769799D01*
X-1703101Y-1833190D01*
X-1632986Y-1893387D01*
X-1559342Y-1950500D01*
X-1482057Y-2004642D01*
X-1483712Y-2003416D02*
X-1070765Y-1681040D01*
X-426530Y-1947891D01*
X-362486Y-2467843D01*
X-364524Y-2467540D02*
X-280455Y-2479300D01*
X-189560Y-2487909D01*
X+5000Y-2495000D01*
X+374524Y-2467540D02*
X+290455Y-2479300D01*
X+199560Y-2487909D01*
X+5000Y-2495000D01*
X+436530Y-1947891D02*
X+1080765Y-1681040D01*
X+1493712Y-2003416D01*
X+2014642Y-1482057D02*
X+1960500Y-1559342D01*
X+1903386Y-1632987D01*
X+1843189Y-1703102D01*
X+1779798Y-1769799D01*
X+1713101Y-1833190D01*
X+1642986Y-1893387D01*
X+1569342Y-1950500D01*
X+1492057Y-2004642D01*
X+2013416Y-1483712D02*
X+1691040Y-1070765D01*
X+1957891Y-426530D01*
X+2477843Y-362486D01*
X+2505000Y+5000D02*
X+2497909Y-189560D01*
X+2489300Y-280455D01*
X+2477540Y-364524D01*
X+2505000Y+5000D02*
X+2497909Y+199560D01*
X+2489300Y+290455D01*
X+2477540Y+374524D01*
X+2477843Y+372486D02*
X+1957891Y+436530D01*
X+1691040Y+1080765D01*
X+2013416Y+1493712D01*
X+2014642Y+1492057D02*
X+1960500Y+1569342D01*
X+1903386Y+1642987D01*
X+1843189Y+1713102D01*
X+1779798Y+1779799D01*
X+1713101Y+1843190D01*
X+1642986Y+1903387D01*
X+1569342Y+1960500D01*
X+1492057Y+2014642D01*
X+1493712Y+2013416D02*
X+1080765Y+1691040D01*
X+436530Y+1957891D01*
X+372486Y+2477843D01*
X+374524Y+2477540D02*
X+290455Y+2489300D01*
X+199560Y+2497909D01*
X+5000Y+2505000D01*
X-364524Y+2477540D02*
X-280455Y+2489300D01*
X-189560Y+2497909D01*
X+5000Y+2505000D01*
X-362486Y+2477843D02*
X-426530Y+1957891D01*
X-1070765Y+1691040D01*
X-1483712Y+2013416D01*
X-2004642Y+1492057D02*
X-1950500Y+1569342D01*
X-1893386Y+1642987D01*
X-1833189Y+1713102D01*
X-1769798Y+1779799D01*
X-1703101Y+1843190D01*
X-1632986Y+1903387D01*
X-1559342Y+1960500D01*
X-1482057Y+2014642D01*
X-2003416Y+1493712D02*
X-1681040Y+1080765D01*
X-1947891Y+436530D01*
X-2467843Y+372486D01*
X-2495000Y+5000D02*
X-2487909Y+199560D01*
X-2479300Y+290455D01*
X-2467540Y+374524D01*
X-2495000Y+5000D02*
X-2487909Y-189560D01*
X-2479300Y-280455D01*
X-2467540Y-364524D01*
X-2467843Y-362486D02*
X-1947891Y-426530D01*
X-1681040Y-1070765D01*
X-2003416Y-1483712D01*
X-2004642Y-1482057D02*
X-1950500Y-1559342D01*
X-1893386Y-1632987D01*
X-1833189Y-1703102D01*
X-1769798Y-1769799D01*
X-1703101Y-1833190D01*
X-1632986Y-1893387D01*
X-1559342Y-1950500D01*
X-1482057Y-2004642D01*
X-1483712Y-2003416D02*
X-1070765Y-1681040D01*
X-426530Y-1947891D01*
X-362486Y-2467843D01*
X-364524Y-2467540D02*
X-280455Y-2479300D01*
X-189560Y-2487909D01*
X+5000Y-2495000D01*
X+374524Y-2467540D02*
X+290455Y-2479300D01*
X+199560Y-2487909D01*
X+5000Y-2495000D01*
X+436530Y-1947891D02*
X+1080765Y-1681040D01*
X+1493712Y-2003416D01*
X+2014642Y-1482057D02*
X+1960500Y-1559342D01*
X+1903386Y-1632987D01*
X+1843189Y-1703102D01*
X+1779798Y-1769799D01*
X+1713101Y-1833190D01*
X+1642986Y-1893387D01*
X+1569342Y-1950500D01*
X+1492057Y-2004642D01*
X+2013416Y-1483712D02*
X+1691040Y-1070765D01*
X+1957891Y-426530D01*
X+2477843Y-362486D01*
X+2505000Y+5000D02*
X+2497909Y-189560D01*
X+2489300Y-280455D01*
X+2477540Y-364524D01*
X+2505000Y+5000D02*
X+2497909Y+199560D01*
X+2489300Y+290455D01*
X+2477540Y+374524D01*
X+2477843Y+372486D02*
X+1957891Y+436530D01*
X+1691040Y+1080765D01*
X+2013416Y+1493712D01*
X+2014642Y+1492057D02*
X+1960500Y+1569342D01*
X+1903386Y+1642987D01*
X+1843189Y+1713102D01*
X+1779798Y+1779799D01*
X+1713101Y+1843190D01*
X+1642986Y+1903387D01*
X+1569342Y+1960500D01*
X+1492057Y+2014642D01*
X+1493712Y+2013416D02*
X+1080765Y+1691040D01*
X+436530Y+1957891D01*
X+372486Y+2477843D01*
X+374524Y+2477540D02*
X+290455Y+2489300D01*
X+199560Y+2497909D01*
X+5000Y+2505000D01*
X-364524Y+2477540D02*
X-280455Y+2489300D01*
X-189560Y+2497909D01*
X+5000Y+2505000D01*
X-362486Y+2477843D02*
X-426530Y+1957891D01*
X-1070765Y+1691040D01*
X-1483712Y+2013416D01*
X-2004642Y+1492057D02*
X-1950500Y+1569342D01*
X-1893386Y+1642987D01*
X-1833189Y+1713102D01*
X-1769798Y+1779799D01*
X-1703101Y+1843190D01*
X-1632986Y+1903387D01*
X-1559342Y+1960500D01*
X-1482057Y+2014642D01*
X-2003416Y+1493712D02*
X-1681040Y+1080765D01*
X-1947891Y+436530D01*
X-2467843Y+372486D01*
X-2495000Y+5000D02*
X-2487909Y+199560D01*
X-2479300Y+290455D01*
X-2467540Y+374524D01*
X-2495000Y+5000D02*
X-2487909Y-189560D01*
X-2479300Y-280455D01*
X-2467540Y-364524D01*
X-2467843Y-362486D02*
X-1947891Y-426530D01*
X-1681040Y-1070765D01*
X-2003416Y-1483712D01*
X-2004642Y-1482057D02*
X-1950500Y-1559342D01*
X-1893386Y-1632987D01*
X-1833189Y-1703102D01*
X-1769798Y-1769799D01*
X-1703101Y-1833190D01*
X-1632986Y-1893387D01*
X-1559342Y-1950500D01*
X-1482057Y-2004642D01*
X-1483712Y-2003416D02*
X-1070765Y-1681040D01*
X-426530Y-1947891D01*
X-362486Y-2467843D01*
X-364524Y-2467540D02*
X-280455Y-2479300D01*
X-189560Y-2487909D01*
X+5000Y-2495000D01*
X+374524Y-2467540D02*
X+290455Y-2479300D01*
X+199560Y-2487909D01*
X+5000Y-2495000D01*
X+436530Y-1947891D02*
X+1080765Y-1681040D01*
X+1493712Y-2003416D01*
X+2014642Y-1482057D02*
X+1960500Y-1559342D01*
X+1903386Y-1632987D01*
X+1843189Y-1703102D01*
X+1779798Y-1769799D01*
X+1713101Y-1833190D01*
X+1642986Y-1893387D01*
X+1569342Y-1950500D01*
X+1492057Y-2004642D01*
X+2013416Y-1483712D02*
X+1691040Y-1070765D01*
X+1957891Y-426530D01*
X+2477843Y-362486D01*
X+2505000Y+5000D02*
X+2497909Y-189560D01*
X+2489300Y-280455D01*
X+2477540Y-364524D01*
X+2505000Y+5000D02*
X+2497909Y+199560D01*
X+2489300Y+290455D01*
X+2477540Y+374524D01*
X+2477843Y+372486D02*
X+1957891Y+436530D01*
X+1691040Y+1080765D01*
X+2013416Y+1493712D01*
X+2014642Y+1492057D02*
X+1960500Y+1569342D01*
X+1903386Y+1642987D01*
X+1843189Y+1713102D01*
X+1779798Y+1779799D01*
X+1713101Y+1843190D01*
X+1642986Y+1903387D01*
X+1569342Y+1960500D01*
X+1492057Y+2014642D01*
X+1493712Y+2013416D02*
X+1080765Y+1691040D01*
X+436530Y+1957891D01*
X+372486Y+2477843D01*
X+374524Y+2477540D02*
X+290455Y+2489300D01*
X+199560Y+2497909D01*
X+5000Y+2505000D01*
X-364524Y+2477540D02*
X-280455Y+2489300D01*
X-189560Y+2497909D01*
X+5000Y+2505000D01*
X-362486Y+2477843D02*
X-426530Y+1957891D01*
X-1070765Y+1691040D01*
X-1483712Y+2013416D01*
X-2004642Y+1492057D02*
X-1950500Y+1569342D01*
X-1893386Y+1642987D01*
X-1833189Y+1713102D01*
X-1769798Y+1779799D01*
X-1703101Y+1843190D01*
X-1632986Y+1903387D01*
X-1559342Y+1960500D01*
X-1482057Y+2014642D01*
X-2003416Y+1493712D02*
X-1681040Y+1080765D01*
X-1947891Y+436530D01*
X-2467843Y+372486D01*
X-2495000Y+5000D02*
X-2487909Y+199560D01*
X-2479300Y+290455D01*
X-2467540Y+374524D01*
X-2495000Y+5000D02*
X-2487909Y-189560D01*
X-2479300Y-280455D01*
X-2467540Y-364524D01*
X-2467843Y-362486D02*
X-1947891Y-426530D01*
X-1681040Y-1070765D01*
X-2003416Y-1483712D01*
X-2004642Y-1482057D02*
X-1950500Y-1559342D01*
X-1893386Y-1632987D01*
X-1833189Y-1703102D01*
X-1769798Y-1769799D01*
X-1703101Y-1833190D01*
X-1632986Y-1893387D01*
X-1559342Y-1950500D01*
X-1482057Y-2004642D01*
X-1483712Y-2003416D02*
X-1070765Y-1681040D01*
X-426530Y-1947891D01*
X-362486Y-2467843D01*
X-364524Y-2467540D02*
X-280455Y-2479300D01*
X-189560Y-2487909D01*
X+5000Y-2495000D01*
X+374524Y-2467540D02*
X+290455Y-2479300D01*
X+199560Y-2487909D01*
X+5000Y-2495000D01*
X+436530Y-1947891D02*
X+1080765Y-1681040D01*
X+1493712Y-2003416D01*
X+2014642Y-1482057D02*
X+1960500Y-1559342D01*
X+1903386Y-1632987D01*
X+1843189Y-1703102D01*
X+1779798Y-1769799D01*
X+1713101Y-1833190D01*
X+1642986Y-1893387D01*
X+1569342Y-1950500D01*
X+1492057Y-2004642D01*
X+2013416Y-1483712D02*
X+1691040Y-1070765D01*
X+1957891Y-426530D01*
X+2477843Y-362486D01*
X+2505000Y+5000D02*
X+2497909Y-189560D01*
X+2489300Y-280455D01*
X+2477540Y-364524D01*
X+2505000Y+5000D02*
X+2497909Y+199560D01*
X+2489300Y+290455D01*
X+2477540Y+374524D01*
X+2477843Y+372486D02*
X+1957891Y+436530D01*
X+1691040Y+1080765D01*
X+2013416Y+1493712D01*
X+2014642Y+1492057D02*
X+1960500Y+1569342D01*
X+1903386Y+1642987D01*
X+1843189Y+1713102D01*
X+1779798Y+1779799D01*
X+1713101Y+1843190D01*
X+1642986Y+1903387D01*
X+1569342Y+1960500D01*
X+1492057Y+2014642D01*
X+1493712Y+2013416D02*
X+1080765Y+1691040D01*
X+436530Y+1957891D01*
X+372486Y+2477843D01*
X+374524Y+2477540D02*
X+290455Y+2489300D01*
X+199560Y+2497909D01*
X+5000Y+2505000D01*
X-364524Y+2477540D02*
X-280455Y+2489300D01*
X-189560Y+2497909D01*
X+5000Y+2505000D01*
X-362486Y+2477843D02*
X-426530Y+1957891D01*
X-1070765Y+1691040D01*
X-1483712Y+2013416D01*
X-2004642Y+1492057D02*
X-1950500Y+1569342D01*
X-1893386Y+1642987D01*
X-1833189Y+1713102D01*
X-1769798Y+1779799D01*
X-1703101Y+1843190D01*
X-1632986Y+1903387D01*
X-1559342Y+1960500D01*
X-1482057Y+2014642D01*
X-2003416Y+1493712D02*
X-1681040Y+1080765D01*
X-1947891Y+436530D01*
X-2467843Y+372486D01*
X-2495000Y+5000D02*
X-2487909Y+199560D01*
X-2479300Y+290455D01*
X-2467540Y+374524D01*
X-2495000Y+5000D02*
X-2487909Y-189560D01*
X-2479300Y-280455D01*
X-2467540Y-364524D01*
X-2467843Y-362486D02*
X-1947891Y-426530D01*
X-1681040Y-1070765D01*
X-2003416Y-1483712D01*
X-2004642Y-1482057D02*
X-1950500Y-1559342D01*
X-1893386Y-1632987D01*
X-1833189Y-1703102D01*
X-1769798Y-1769799D01*
X-1703101Y-1833190D01*
X-1632986Y-1893387D01*
X-1559342Y-1950500D01*
X-1482057Y-2004642D01*
X-1483712Y-2003416D02*
X-1070765Y-1681040D01*
X-426530Y-1947891D01*
X-362486Y-2467843D01*
X-364524Y-2467540D02*
X-280455Y-2479300D01*
X-189560Y-2487909D01*
X+5000Y-2495000D01*
X+374524Y-2467540D02*
X+290455Y-2479300D01*
X+199560Y-2487909D01*
X+5000Y-2495000D01*
X+436530Y-1947891D02*
X+1080765Y-1681040D01*
X+1493712Y-2003416D01*
X+2014642Y-1482057D02*
X+1960500Y-1559342D01*
X+1903386Y-1632987D01*
X+1843189Y-1703102D01*
X+1779798Y-1769799D01*
X+1713101Y-1833190D01*
X+1642986Y-1893387D01*
X+1569342Y-1950500D01*
X+1492057Y-2004642D01*
X+2013416Y-1483712D02*
X+1691040Y-1070765D01*
X+1957891Y-426530D01*
X+2477843Y-362486D01*
X+2505000Y+5000D02*
X+2497909Y-189560D01*
X+2489300Y-280455D01*
X+2477540Y-364524D01*
X+2505000Y+5000D02*
X+2497909Y+199560D01*
X+2489300Y+290455D01*
X+2477540Y+374524D01*
X+2477843Y+372486D02*
X+1957891Y+436530D01*
X+1691040Y+1080765D01*
X+2013416Y+1493712D01*
X+2014642Y+1492057D02*
X+1960500Y+1569342D01*
X+1903386Y+1642987D01*
X+1843189Y+1713102D01*
X+1779798Y+1779799D01*
X+1713101Y+1843190D01*
X+1642986Y+1903387D01*
X+1569342Y+1960500D01*
X+1492057Y+2014642D01*
X+1493712Y+2013416D02*
X+1080765Y+1691040D01*
X+436530Y+1957891D01*
X+372486Y+2477843D01*
X+374524Y+2477540D02*
X+290455Y+2489300D01*
X+199560Y+2497909D01*
X+5000Y+2505000D01*
X-364524Y+2477540D02*
X-280455Y+2489300D01*
X-189560Y+2497909D01*
X+5000Y+2505000D01*
X-362486Y+2477843D02*
X-426530Y+1957891D01*
X-1070765Y+1691040D01*
X-1483712Y+2013416D01*
X-2004642Y+1492057D02*
X-1950500Y+1569342D01*
X-1893386Y+1642987D01*
X-1833189Y+1713102D01*
X-1769798Y+1779799D01*
X-1703101Y+1843190D01*
X-1632986Y+1903387D01*
X-1559342Y+1960500D01*
X-1482057Y+2014642D01*
X-2003416Y+1493712D02*
X-1681040Y+1080765D01*
X-1947891Y+436530D01*
X-2467843Y+372486D01*
X-2495000Y+5000D02*
X-2487909Y+199560D01*
X-2479300Y+290455D01*
X-2467540Y+374524D01*
X-2495000Y+5000D02*
X-2487909Y-189560D01*
X-2479300Y-280455D01*
X-2467540Y-364524D01*
X-2467843Y-362486D02*
X-1947891Y-426530D01*
X-1681040Y-1070765D01*
X-2003416Y-1483712D01*
X-2004642Y-1482057D02*
X-1950500Y-1559342D01*
X-1893386Y-1632987D01*
X-1833189Y-1703102D01*
X-1769798Y-1769799D01*
X-1703101Y-1833190D01*
X-1632986Y-1893387D01*
X-1559342Y-1950500D01*
X-1482057Y-2004642D01*
X-1483712Y-2003416D02*
X-1070765Y-1681040D01*
X-426530Y-1947891D01*
X-362486Y-2467843D01*
X-364524Y-2467540D02*
X-280455Y-2479300D01*
X-189560Y-2487909D01*
X+5000Y-2495000D01*
X+374524Y-2467540D02*
X+290455Y-2479300D01*
X+199560Y-2487909D01*
X+5000Y-2495000D01*
X+436530Y-1947891D02*
X+1080765Y-1681040D01*
X+1493712Y-2003416D01*
X+2014642Y-1482057D02*
X+1960500Y-1559342D01*
X+1903386Y-1632987D01*
X+1843189Y-1703102D01*
X+1779798Y-1769799D01*
X+1713101Y-1833190D01*
X+1642986Y-1893387D01*
X+1569342Y-1950500D01*
X+1492057Y-2004642D01*
X+2013416Y-1483712D02*
X+1691040Y-1070765D01*
X+1957891Y-426530D01*
X+2477843Y-362486D01*
X+2505000Y+5000D02*
X+2497909Y-189560D01*
X+2489300Y-280455D01*
X+2477540Y-364524D01*
X+2505000Y+5000D02*
X+2497909Y+199560D01*
X+2489300Y+290455D01*
X+2477540Y+374524D01*
X+2477843Y+372486D02*
X+1957891Y+436530D01*
X+1691040Y+1080765D01*
X+2013416Y+1493712D01*
X+2014642Y+1492057D02*
X+1960500Y+1569342D01*
X+1903386Y+1642987D01*
X+1843189Y+1713102D01*
X+1779798Y+1779799D01*
X+1713101Y+1843190D01*
X+1642986Y+1903387D01*
X+1569342Y+1960500D01*
X+1492057Y+2014642D01*
X+1493712Y+2013416D02*
X+1080765Y+1691040D01*
X+436530Y+1957891D01*
X+372486Y+2477843D01*
X+374524Y+2477540D02*
X+290455Y+2489300D01*
X+199560Y+2497909D01*
X+5000Y+2505000D01*
X-364524Y+2477540D02*
X-280455Y+2489300D01*
X-189560Y+2497909D01*
X+5000Y+2505000D01*
X-362486Y+2477843D02*
X-426530Y+1957891D01*
X-1070765Y+1691040D01*
X-1483712Y+2013416D01*
X-2004642Y+1492057D02*
X-1950500Y+1569342D01*
X-1893386Y+1642987D01*
X-1833189Y+1713102D01*
X-1769798Y+1779799D01*
X-1703101Y+1843190D01*
X-1632986Y+1903387D01*
X-1559342Y+1960500D01*
X-1482057Y+2014642D01*
X-2003416Y+1493712D02*
X-1681040Y+1080765D01*
X-1947891Y+436530D01*
X-2467843Y+372486D01*
X-2495000Y+5000D02*
X-2487909Y+199560D01*
X-2479300Y+290455D01*
X-2467540Y+374524D01*
X-2495000Y+5000D02*
X-2487909Y-189560D01*
X-2479300Y-280455D01*
X-2467540Y-364524D01*
X-2467843Y-362486D02*
X-1947891Y-426530D01*
X-1681040Y-1070765D01*
X-2003416Y-1483712D01*
X-2004642Y-1482057D02*
X-1950500Y-1559342D01*
X-1893386Y-1632987D01*
X-1833189Y-1703102D01*
X-1769798Y-1769799D01*
X-1703101Y-1833190D01*
X-1632986Y-1893387D01*
X-1559342Y-1950500D01*
X-1482057Y-2004642D01*
X-1483712Y-2003416D02*
X-1070765Y-1681040D01*
X-426530Y-1947891D01*
X-362486Y-2467843D01*
X-364524Y-2467540D02*
X-280455Y-2479300D01*
X-189560Y-2487909D01*
X+5000Y-2495000D01*
X+374524Y-2467540D02*
X+290455Y-2479300D01*
X+199560Y-2487909D01*
X+5000Y-2495000D01*
X+436530Y-1947891D02*
X+1080765Y-1681040D01*
X+1493712Y-2003416D01*
X+2014642Y-1482057D02*
X+1960500Y-1559342D01*
X+1903386Y-1632987D01*
X+1843189Y-1703102D01*
X+1779798Y-1769799D01*
X+1713101Y-1833190D01*
X+1642986Y-1893387D01*
X+1569342Y-1950500D01*
X+1492057Y-2004642D01*
X+2013416Y-1483712D02*
X+1691040Y-1070765D01*
X+1957891Y-426530D01*
X+2477843Y-362486D01*
X+2505000Y+5000D02*
X+2497909Y-189560D01*
X+2489300Y-280455D01*
X+2477540Y-364524D01*
X+2505000Y+5000D02*
X+2497909Y+199560D01*
X+2489300Y+290455D01*
X+2477540Y+374524D01*
X+2477843Y+372486D02*
X+1957891Y+436530D01*
X+1691040Y+1080765D01*
X+2013416Y+1493712D01*
X+2014642Y+1492057D02*
X+1960500Y+1569342D01*
X+1903386Y+1642987D01*
X+1843189Y+1713102D01*
X+1779798Y+1779799D01*
X+1713101Y+1843190D01*
X+1642986Y+1903387D01*
X+1569342Y+1960500D01*
X+1492057Y+2014642D01*
X+1493712Y+2013416D02*
X+1080765Y+1691040D01*
X+436530Y+1957891D01*
X+372486Y+2477843D01*
X+374524Y+2477540D02*
X+290455Y+2489300D01*
X+199560Y+2497909D01*
X+5000Y+2505000D01*
X-364524Y+2477540D02*
X-280455Y+2489300D01*
X-189560Y+2497909D01*
X+5000Y+2505000D01*
X-362486Y+2477843D02*
X-426530Y+1957891D01*
X-1070765Y+1691040D01*
X-1483712Y+2013416D01*
X-2004642Y+1492057D02*
X-1950500Y+1569342D01*
X-1893386Y+1642987D01*
X-1833189Y+1713102D01*
X-1769798Y+1779799D01*
X-1703101Y+1843190D01*
X-1632986Y+1903387D01*
X-1559342Y+1960500D01*
X-1482057Y+2014642D01*
X-2003416Y+1493712D02*
X-1681040Y+1080765D01*
X-1947891Y+436530D01*
X-2467843Y+372486D01*
X-2495000Y+5000D02*
X-2487909Y+199560D01*
X-2479300Y+290455D01*
X-2467540Y+374524D01*
X-2495000Y+5000D02*
X-2487909Y-189560D01*
X-2479300Y-280455D01*
X-2467540Y-364524D01*
X-2467843Y-362486D02*
X-1947891Y-426530D01*
X-1681040Y-1070765D01*
X-2003416Y-1483712D01*
X-2004642Y-1482057D02*
X-1950500Y-1559342D01*
X-1893386Y-1632987D01*
X-1833189Y-1703102D01*
X-1769798Y-1769799D01*
X-1703101Y-1833190D01*
X-1632986Y-1893387D01*
X-1559342Y-1950500D01*
X-1482057Y-2004642D01*
X-1483712Y-2003416D02*
X-1070765Y-1681040D01*
X-426530Y-1947891D01*
X-362486Y-2467843D01*
X-364524Y-2467540D02*
X-280455Y-2479300D01*
X-189560Y-2487909D01*
X+5000Y-2495000D01*
X+374524Y-2467540D02*
X+290455Y-2479300D01*
X+199560Y-2487909D01*
X+5000Y-2495000D01*
X-357437Y-1895331D02*
X-295109Y-2401358D01*
X-294734Y-2401405D02*
X-152820Y-2415200D01*
X+5000Y-2420000D01*
X+304734Y-2401405D02*
X+162820Y-2415200D01*
X+5000Y-2420000D01*
X+305109Y-2401358D02*
X+367437Y-1895331D01*
X+1092455Y-1595018D01*
X+1494343Y-1908761D01*
X+1918529Y-1484642D02*
X+1827137Y-1606051D01*
X+1726597Y-1716597D01*
X+1616051Y-1817137D01*
X+1494642Y-1908529D01*
X+1918761Y-1484343D02*
X+1605018Y-1082455D01*
X+1905331Y-357437D01*
X+1629109Y+5000D02*
X+1634283Y+69079D01*
X+1649312Y+129352D01*
X+1673459Y+185039D01*
X+1705988Y+235360D01*
X+1746162Y+279536D01*
X+1793243Y+316787D01*
X+1846495Y+346333D01*
X+1905180Y+367395D01*
X+1629109Y+5000D02*
X+1634283Y-59079D01*
X+1649312Y-119352D01*
X+1673459Y-175039D01*
X+1705988Y-225360D01*
X+1746162Y-269536D01*
X+1793243Y-306787D01*
X+1846495Y-336333D01*
X+1905180Y-357395D01*
X+1905331Y+367437D02*
X+1605018Y+1092455D01*
X+1918761Y+1494343D01*
X+1918529Y+1494642D02*
X+1827137Y+1616051D01*
X+1726597Y+1726597D01*
X+1616051Y+1827137D01*
X+1494642Y+1918529D01*
X+1494343Y+1918761D02*
X+1092455Y+1605018D01*
X+367437Y+1905331D01*
X+305109Y+2411358D01*
X+304734Y+2411405D02*
X+162820Y+2425200D01*
X+5000Y+2430000D01*
X-294734Y+2411405D02*
X-152820Y+2425200D01*
X+5000Y+2430000D01*
X-295109Y+2411358D02*
X-357437Y+1905331D01*
X-1082455Y+1605018D01*
X-1484343Y+1918761D01*
X-1908529Y+1494642D02*
X-1817137Y+1616051D01*
X-1716597Y+1726597D01*
X-1606051Y+1827137D01*
X-1484642Y+1918529D01*
X-1908761Y+1494343D02*
X-1595018Y+1092455D01*
X-1895331Y+367437D01*
X-1619109Y+5000D02*
X-1624283Y-59079D01*
X-1639312Y-119352D01*
X-1663459Y-175039D01*
X-1695988Y-225360D01*
X-1736162Y-269536D01*
X-1783243Y-306787D01*
X-1836495Y-336333D01*
X-1895180Y-357395D01*
X-1619109Y+5000D02*
X-1624283Y+69079D01*
X-1639312Y+129352D01*
X-1663459Y+185039D01*
X-1695988Y+235360D01*
X-1736162Y+279536D01*
X-1783243Y+316787D01*
X-1836495Y+346333D01*
X-1895180Y+367395D01*
X-1895331Y-357437D02*
X-1595018Y-1082455D01*
X-1908761Y-1484343D01*
X-1908529Y-1484642D02*
X-1817137Y-1606051D01*
X-1716597Y-1716597D01*
X-1606051Y-1817137D01*
X-1484642Y-1908529D01*
X-357437Y-1895331D02*
X-295109Y-2401358D01*
X-294734Y-2401405D02*
X-152820Y-2415200D01*
X+5000Y-2420000D01*
X+304734Y-2401405D02*
X+162820Y-2415200D01*
X+5000Y-2420000D01*
X+305109Y-2401358D02*
X+367437Y-1895331D01*
X+1092455Y-1595018D01*
X+1494343Y-1908761D01*
X+1918529Y-1484642D02*
X+1827137Y-1606051D01*
X+1726597Y-1716597D01*
X+1616051Y-1817137D01*
X+1494642Y-1908529D01*
X+1918761Y-1484343D02*
X+1605018Y-1082455D01*
X+1905331Y-357437D01*
X+1629109Y+5000D02*
X+1634283Y+69079D01*
X+1649312Y+129352D01*
X+1673459Y+185039D01*
X+1705988Y+235360D01*
X+1746162Y+279536D01*
X+1793243Y+316787D01*
X+1846495Y+346333D01*
X+1905180Y+367395D01*
X+1629109Y+5000D02*
X+1634283Y-59079D01*
X+1649312Y-119352D01*
X+1673459Y-175039D01*
X+1705988Y-225360D01*
X+1746162Y-269536D01*
X+1793243Y-306787D01*
X+1846495Y-336333D01*
X+1905180Y-357395D01*
X+1905331Y+367437D02*
X+1605018Y+1092455D01*
X+1918761Y+1494343D01*
X+1918529Y+1494642D02*
X+1827137Y+1616051D01*
X+1726597Y+1726597D01*
X+1616051Y+1827137D01*
X+1494642Y+1918529D01*
X+1494343Y+1918761D02*
X+1092455Y+1605018D01*
X+367437Y+1905331D01*
X+305109Y+2411358D01*
X+304734Y+2411405D02*
X+162820Y+2425200D01*
X+5000Y+2430000D01*
X-294734Y+2411405D02*
X-152820Y+2425200D01*
X+5000Y+2430000D01*
X-295109Y+2411358D02*
X-357437Y+1905331D01*
X-1082455Y+1605018D01*
X-1484343Y+1918761D01*
X-1908529Y+1494642D02*
X-1817137Y+1616051D01*
X-1716597Y+1726597D01*
X-1606051Y+1827137D01*
X-1484642Y+1918529D01*
X-1908761Y+1494343D02*
X-1595018Y+1092455D01*
X-1895331Y+367437D01*
X-1619109Y+5000D02*
X-1624283Y-59079D01*
X-1639312Y-119352D01*
X-1663459Y-175039D01*
X-1695988Y-225360D01*
X-1736162Y-269536D01*
X-1783243Y-306787D01*
X-1836495Y-336333D01*
X-1895180Y-357395D01*
X-1619109Y+5000D02*
X-1624283Y+69079D01*
X-1639312Y+129352D01*
X-1663459Y+185039D01*
X-1695988Y+235360D01*
X-1736162Y+279536D01*
X-1783243Y+316787D01*
X-1836495Y+346333D01*
X-1895180Y+367395D01*
X-1895331Y-357437D02*
X-1595018Y-1082455D01*
X-1908761Y-1484343D01*
X-1908529Y-1484642D02*
X-1817137Y-1606051D01*
X-1716597Y-1716597D01*
X-1606051Y-1817137D01*
X-1484642Y-1908529D01*
X-357437Y-1895331D02*
X-295109Y-2401358D01*
X-294734Y-2401405D02*
X-152820Y-2415200D01*
X+5000Y-2420000D01*
X+304734Y-2401405D02*
X+162820Y-2415200D01*
X+5000Y-2420000D01*
X+305109Y-2401358D02*
X+367437Y-1895331D01*
X+1092455Y-1595018D01*
X+1494343Y-1908761D01*
X+1918529Y-1484642D02*
X+1827137Y-1606051D01*
X+1726597Y-1716597D01*
X+1616051Y-1817137D01*
X+1494642Y-1908529D01*
X+1918761Y-1484343D02*
X+1605018Y-1082455D01*
X+1905331Y-357437D01*
X+1629109Y+5000D02*
X+1634283Y+69079D01*
X+1649312Y+129352D01*
X+1673459Y+185039D01*
X+1705988Y+235360D01*
X+1746162Y+279536D01*
X+1793243Y+316787D01*
X+1846495Y+346333D01*
X+1905180Y+367395D01*
X+1629109Y+5000D02*
X+1634283Y-59079D01*
X+1649312Y-119352D01*
X+1673459Y-175039D01*
X+1705988Y-225360D01*
X+1746162Y-269536D01*
X+1793243Y-306787D01*
X+1846495Y-336333D01*
X+1905180Y-357395D01*
X+1905331Y+367437D02*
X+1605018Y+1092455D01*
X+1918761Y+1494343D01*
X+1918529Y+1494642D02*
X+1827137Y+1616051D01*
X+1726597Y+1726597D01*
X+1616051Y+1827137D01*
X+1494642Y+1918529D01*
X+1494343Y+1918761D02*
X+1092455Y+1605018D01*
X+367437Y+1905331D01*
X+305109Y+2411358D01*
X+304734Y+2411405D02*
X+162820Y+2425200D01*
X+5000Y+2430000D01*
X-294734Y+2411405D02*
X-152820Y+2425200D01*
X+5000Y+2430000D01*
X-295109Y+2411358D02*
X-357437Y+1905331D01*
X-1082455Y+1605018D01*
X-1484343Y+1918761D01*
X-1908529Y+1494642D02*
X-1817137Y+1616051D01*
X-1716597Y+1726597D01*
X-1606051Y+1827137D01*
X-1484642Y+1918529D01*
X-1908761Y+1494343D02*
X-1595018Y+1092455D01*
X-1895331Y+367437D01*
X-1619109Y+5000D02*
X-1624283Y-59079D01*
X-1639312Y-119352D01*
X-1663459Y-175039D01*
X-1695988Y-225360D01*
X-1736162Y-269536D01*
X-1783243Y-306787D01*
X-1836495Y-336333D01*
X-1895180Y-357395D01*
X-1619109Y+5000D02*
X-1624283Y+69079D01*
X-1639312Y+129352D01*
X-1663459Y+185039D01*
X-1695988Y+235360D01*
X-1736162Y+279536D01*
X-1783243Y+316787D01*
X-1836495Y+346333D01*
X-1895180Y+367395D01*
X-1895331Y-357437D02*
X-1595018Y-1082455D01*
X-1908761Y-1484343D01*
X-1908529Y-1484642D02*
X-1817137Y-1606051D01*
X-1716597Y-1716597D01*
X-1606051Y-1817137D01*
X-1484642Y-1908529D01*
X-357437Y-1895331D02*
X-295109Y-2401358D01*
X-294734Y-2401405D02*
X-152820Y-2415200D01*
X+5000Y-2420000D01*
X+304734Y-2401405D02*
X+162820Y-2415200D01*
X+5000Y-2420000D01*
X+305109Y-2401358D02*
X+367437Y-1895331D01*
X+1092455Y-1595018D01*
X+1494343Y-1908761D01*
X+1918529Y-1484642D02*
X+1827137Y-1606051D01*
X+1726597Y-1716597D01*
X+1616051Y-1817137D01*
X+1494642Y-1908529D01*
X+1918761Y-1484343D02*
X+1605018Y-1082455D01*
X+1905331Y-357437D01*
X+1629109Y+5000D02*
X+1634283Y+69079D01*
X+1649312Y+129352D01*
X+1673459Y+185039D01*
X+1705988Y+235360D01*
X+1746162Y+279536D01*
X+1793243Y+316787D01*
X+1846495Y+346333D01*
X+1905180Y+367395D01*
X+1629109Y+5000D02*
X+1634283Y-59079D01*
X+1649312Y-119352D01*
X+1673459Y-175039D01*
X+1705988Y-225360D01*
X+1746162Y-269536D01*
X+1793243Y-306787D01*
X+1846495Y-336333D01*
X+1905180Y-357395D01*
X+1905331Y+367437D02*
X+1605018Y+1092455D01*
X+1918761Y+1494343D01*
X+1918529Y+1494642D02*
X+1827137Y+1616051D01*
X+1726597Y+1726597D01*
X+1616051Y+1827137D01*
X+1494642Y+1918529D01*
X+1494343Y+1918761D02*
X+1092455Y+1605018D01*
X+367437Y+1905331D01*
X+305109Y+2411358D01*
X+304734Y+2411405D02*
X+162820Y+2425200D01*
X+5000Y+2430000D01*
X-294734Y+2411405D02*
X-152820Y+2425200D01*
X+5000Y+2430000D01*
X-295109Y+2411358D02*
X-357437Y+1905331D01*
X-1082455Y+1605018D01*
X-1484343Y+1918761D01*
X-1908529Y+1494642D02*
X-1817137Y+1616051D01*
X-1716597Y+1726597D01*
X-1606051Y+1827137D01*
X-1484642Y+1918529D01*
X-1908761Y+1494343D02*
X-1595018Y+1092455D01*
X-1895331Y+367437D01*
X-1619109Y+5000D02*
X-1624283Y-59079D01*
X-1639312Y-119352D01*
X-1663459Y-175039D01*
X-1695988Y-225360D01*
X-1736162Y-269536D01*
X-1783243Y-306787D01*
X-1836495Y-336333D01*
X-1895180Y-357395D01*
X-1619109Y+5000D02*
X-1624283Y+69079D01*
X-1639312Y+129352D01*
X-1663459Y+185039D01*
X-1695988Y+235360D01*
X-1736162Y+279536D01*
X-1783243Y+316787D01*
X-1836495Y+346333D01*
X-1895180Y+367395D01*
X-1895331Y-357437D02*
X-1595018Y-1082455D01*
X-1908761Y-1484343D01*
X-1908529Y-1484642D02*
X-1817137Y-1606051D01*
X-1716597Y-1716597D01*
X-1606051Y-1817137D01*
X-1484642Y-1908529D01*
X-357437Y-1895331D02*
X-295109Y-2401358D01*
X-294734Y-2401405D02*
X-152820Y-2415200D01*
X+5000Y-2420000D01*
X+304734Y-2401405D02*
X+162820Y-2415200D01*
X+5000Y-2420000D01*
X+305109Y-2401358D02*
X+367437Y-1895331D01*
X+1092455Y-1595018D01*
X+1494343Y-1908761D01*
X+1918529Y-1484642D02*
X+1827137Y-1606051D01*
X+1726597Y-1716597D01*
X+1616051Y-1817137D01*
X+1494642Y-1908529D01*
X+1918761Y-1484343D02*
X+1605018Y-1082455D01*
X+1905331Y-357437D01*
X+1629109Y+5000D02*
X+1634283Y+69079D01*
X+1649312Y+129352D01*
X+1673459Y+185039D01*
X+1705988Y+235360D01*
X+1746162Y+279536D01*
X+1793243Y+316787D01*
X+1846495Y+346333D01*
X+1905180Y+367395D01*
X+1629109Y+5000D02*
X+1634283Y-59079D01*
X+1649312Y-119352D01*
X+1673459Y-175039D01*
X+1705988Y-225360D01*
X+1746162Y-269536D01*
X+1793243Y-306787D01*
X+1846495Y-336333D01*
X+1905180Y-357395D01*
X+1905331Y+367437D02*
X+1605018Y+1092455D01*
X+1918761Y+1494343D01*
X+1918529Y+1494642D02*
X+1827137Y+1616051D01*
X+1726597Y+1726597D01*
X+1616051Y+1827137D01*
X+1494642Y+1918529D01*
X+1494343Y+1918761D02*
X+1092455Y+1605018D01*
X+367437Y+1905331D01*
X+305109Y+2411358D01*
X+304734Y+2411405D02*
X+162820Y+2425200D01*
X+5000Y+2430000D01*
X-294734Y+2411405D02*
X-152820Y+2425200D01*
X+5000Y+2430000D01*
X-295109Y+2411358D02*
X-357437Y+1905331D01*
X-1082455Y+1605018D01*
X-1484343Y+1918761D01*
X-1908529Y+1494642D02*
X-1817137Y+1616051D01*
X-1716597Y+1726597D01*
X-1606051Y+1827137D01*
X-1484642Y+1918529D01*
X-1908761Y+1494343D02*
X-1595018Y+1092455D01*
X-1895331Y+367437D01*
X-1619109Y+5000D02*
X-1624283Y-59079D01*
X-1639312Y-119352D01*
X-1663459Y-175039D01*
X-1695988Y-225360D01*
X-1736162Y-269536D01*
X-1783243Y-306787D01*
X-1836495Y-336333D01*
X-1895180Y-357395D01*
X-1619109Y+5000D02*
X-1624283Y+69079D01*
X-1639312Y+129352D01*
X-1663459Y+185039D01*
X-1695988Y+235360D01*
X-1736162Y+279536D01*
X-1783243Y+316787D01*
X-1836495Y+346333D01*
X-1895180Y+367395D01*
X-1895331Y-357437D02*
X-1595018Y-1082455D01*
X-1908761Y-1484343D01*
X-1908529Y-1484642D02*
X-1817137Y-1606051D01*
X-1716597Y-1716597D01*
X-1606051Y-1817137D01*
X-1484642Y-1908529D01*
X-357437Y-1895331D02*
X-295109Y-2401358D01*
X-294734Y-2401405D02*
X-152820Y-2415200D01*
X+5000Y-2420000D01*
X+304734Y-2401405D02*
X+162820Y-2415200D01*
X+5000Y-2420000D01*
X+305109Y-2401358D02*
X+367437Y-1895331D01*
X+1092455Y-1595018D01*
X+1494343Y-1908761D01*
X+1918529Y-1484642D02*
X+1827137Y-1606051D01*
X+1726597Y-1716597D01*
X+1616051Y-1817137D01*
X+1494642Y-1908529D01*
X+1918761Y-1484343D02*
X+1605018Y-1082455D01*
X+1905331Y-357437D01*
X+1629109Y+5000D02*
X+1634283Y+69079D01*
X+1649312Y+129352D01*
X+1673459Y+185039D01*
X+1705988Y+235360D01*
X+1746162Y+279536D01*
X+1793243Y+316787D01*
X+1846495Y+346333D01*
X+1905180Y+367395D01*
X+1629109Y+5000D02*
X+1634283Y-59079D01*
X+1649312Y-119352D01*
X+1673459Y-175039D01*
X+1705988Y-225360D01*
X+1746162Y-269536D01*
X+1793243Y-306787D01*
X+1846495Y-336333D01*
X+1905180Y-357395D01*
X+1905331Y+367437D02*
X+1605018Y+1092455D01*
X+1918761Y+1494343D01*
X+1918529Y+1494642D02*
X+1827137Y+1616051D01*
X+1726597Y+1726597D01*
X+1616051Y+1827137D01*
X+1494642Y+1918529D01*
X+1494343Y+1918761D02*
X+1092455Y+1605018D01*
X+367437Y+1905331D01*
X+305109Y+2411358D01*
X+304734Y+2411405D02*
X+162820Y+2425200D01*
X+5000Y+2430000D01*
X-294734Y+2411405D02*
X-152820Y+2425200D01*
X+5000Y+2430000D01*
X-295109Y+2411358D02*
X-357437Y+1905331D01*
X-1082455Y+1605018D01*
X-1484343Y+1918761D01*
X-1908529Y+1494642D02*
X-1817137Y+1616051D01*
X-1716597Y+1726597D01*
X-1606051Y+1827137D01*
X-1484642Y+1918529D01*
X-1908761Y+1494343D02*
X-1595018Y+1092455D01*
X-1895331Y+367437D01*
X-1619109Y+5000D02*
X-1624283Y-59079D01*
X-1639312Y-119352D01*
X-1663459Y-175039D01*
X-1695988Y-225360D01*
X-1736162Y-269536D01*
X-1783243Y-306787D01*
X-1836495Y-336333D01*
X-1895180Y-357395D01*
X-1619109Y+5000D02*
X-1624283Y+69079D01*
X-1639312Y+129352D01*
X-1663459Y+185039D01*
X-1695988Y+235360D01*
X-1736162Y+279536D01*
X-1783243Y+316787D01*
X-1836495Y+346333D01*
X-1895180Y+367395D01*
X-1895331Y-357437D02*
X-1595018Y-1082455D01*
X-1908761Y-1484343D01*
X-1908529Y-1484642D02*
X-1817137Y-1606051D01*
X-1716597Y-1716597D01*
X-1606051Y-1817137D01*
X-1484642Y-1908529D01*
X-357437Y-1895331D02*
X-295109Y-2401358D01*
X-294734Y-2401405D02*
X-152820Y-2415200D01*
X+5000Y-2420000D01*
X+304734Y-2401405D02*
X+162820Y-2415200D01*
X+5000Y-2420000D01*
X+305109Y-2401358D02*
X+367437Y-1895331D01*
X+1092455Y-1595018D01*
X+1494343Y-1908761D01*
X+1918529Y-1484642D02*
X+1827137Y-1606051D01*
X+1726597Y-1716597D01*
X+1616051Y-1817137D01*
X+1494642Y-1908529D01*
X+1918761Y-1484343D02*
X+1605018Y-1082455D01*
X+1905331Y-357437D01*
X+1629109Y+5000D02*
X+1634283Y+69079D01*
X+1649312Y+129352D01*
X+1673459Y+185039D01*
X+1705988Y+235360D01*
X+1746162Y+279536D01*
X+1793243Y+316787D01*
X+1846495Y+346333D01*
X+1905180Y+367395D01*
X+1629109Y+5000D02*
X+1634283Y-59079D01*
X+1649312Y-119352D01*
X+1673459Y-175039D01*
X+1705988Y-225360D01*
X+1746162Y-269536D01*
X+1793243Y-306787D01*
X+1846495Y-336333D01*
X+1905180Y-357395D01*
X+1905331Y+367437D02*
X+1605018Y+1092455D01*
X+1918761Y+1494343D01*
X+1918529Y+1494642D02*
X+1827137Y+1616051D01*
X+1726597Y+1726597D01*
X+1616051Y+1827137D01*
X+1494642Y+1918529D01*
X+1494343Y+1918761D02*
X+1092455Y+1605018D01*
X+367437Y+1905331D01*
X+305109Y+2411358D01*
X+304734Y+2411405D02*
X+162820Y+2425200D01*
X+5000Y+2430000D01*
X-294734Y+2411405D02*
X-152820Y+2425200D01*
X+5000Y+2430000D01*
X-295109Y+2411358D02*
X-357437Y+1905331D01*
X-1082455Y+1605018D01*
X-1484343Y+1918761D01*
X-1908529Y+1494642D02*
X-1817137Y+1616051D01*
X-1716597Y+1726597D01*
X-1606051Y+1827137D01*
X-1484642Y+1918529D01*
X-1908761Y+1494343D02*
X-1595018Y+1092455D01*
X-1895331Y+367437D01*
X-1619109Y+5000D02*
X-1624283Y-59079D01*
X-1639312Y-119352D01*
X-1663459Y-175039D01*
X-1695988Y-225360D01*
X-1736162Y-269536D01*
X-1783243Y-306787D01*
X-1836495Y-336333D01*
X-1895180Y-357395D01*
X-1619109Y+5000D02*
X-1624283Y+69079D01*
X-1639312Y+129352D01*
X-1663459Y+185039D01*
X-1695988Y+235360D01*
X-1736162Y+279536D01*
X-1783243Y+316787D01*
X-1836495Y+346333D01*
X-1895180Y+367395D01*
X-1895331Y-357437D02*
X-1595018Y-1082455D01*
X-1908761Y-1484343D01*
X-1908529Y-1484642D02*
X-1817137Y-1606051D01*
X-1716597Y-1716597D01*
X-1606051Y-1817137D01*
X-1484642Y-1908529D01*
X-357437Y-1895331D02*
X-295109Y-2401358D01*
X-294734Y-2401405D02*
X-152820Y-2415200D01*
X+5000Y-2420000D01*
X+304734Y-2401405D02*
X+162820Y-2415200D01*
X+5000Y-2420000D01*
X+305109Y-2401358D02*
X+367437Y-1895331D01*
X+1092455Y-1595018D01*
X+1494343Y-1908761D01*
X+1918529Y-1484642D02*
X+1827137Y-1606051D01*
X+1726597Y-1716597D01*
X+1616051Y-1817137D01*
X+1494642Y-1908529D01*
X+1918761Y-1484343D02*
X+1605018Y-1082455D01*
X+1905331Y-357437D01*
X+1629109Y+5000D02*
X+1634283Y+69079D01*
X+1649312Y+129352D01*
X+1673459Y+185039D01*
X+1705988Y+235360D01*
X+1746162Y+279536D01*
X+1793243Y+316787D01*
X+1846495Y+346333D01*
X+1905180Y+367395D01*
X+1629109Y+5000D02*
X+1634283Y-59079D01*
X+1649312Y-119352D01*
X+1673459Y-175039D01*
X+1705988Y-225360D01*
X+1746162Y-269536D01*
X+1793243Y-306787D01*
X+1846495Y-336333D01*
X+1905180Y-357395D01*
X+1905331Y+367437D02*
X+1605018Y+1092455D01*
X+1918761Y+1494343D01*
X+1918529Y+1494642D02*
X+1827137Y+1616051D01*
X+1726597Y+1726597D01*
X+1616051Y+1827137D01*
X+1494642Y+1918529D01*
X+1494343Y+1918761D02*
X+1092455Y+1605018D01*
X+367437Y+1905331D01*
X+305109Y+2411358D01*
X+304734Y+2411405D02*
X+162820Y+2425200D01*
X+5000Y+2430000D01*
X-294734Y+2411405D02*
X-152820Y+2425200D01*
X+5000Y+2430000D01*
X-295109Y+2411358D02*
X-357437Y+1905331D01*
X-1082455Y+1605018D01*
X-1484343Y+1918761D01*
X-1908529Y+1494642D02*
X-1817137Y+1616051D01*
X-1716597Y+1726597D01*
X-1606051Y+1827137D01*
X-1484642Y+1918529D01*
X-1908761Y+1494343D02*
X-1595018Y+1092455D01*
X-1895331Y+367437D01*
X-1619109Y+5000D02*
X-1624283Y-59079D01*
X-1639312Y-119352D01*
X-1663459Y-175039D01*
X-1695988Y-225360D01*
X-1736162Y-269536D01*
X-1783243Y-306787D01*
X-1836495Y-336333D01*
X-1895180Y-357395D01*
X-1619109Y+5000D02*
X-1624283Y+69079D01*
X-1639312Y+129352D01*
X-1663459Y+185039D01*
X-1695988Y+235360D01*
X-1736162Y+279536D01*
X-1783243Y+316787D01*
X-1836495Y+346333D01*
X-1895180Y+367395D01*
X-1895331Y-357437D02*
X-1595018Y-1082455D01*
X-1908761Y-1484343D01*
X-1908529Y-1484642D02*
X-1817137Y-1606051D01*
X-1716597Y-1716597D01*
X-1606051Y-1817137D01*
X-1484642Y-1908529D01*
X+370000Y-2460000D02*
X+440000Y-1960000D01*
X-1490000Y-1910000D02*
X-1090000Y-1610000D01*
X-360000Y-1890000D01*
X-316180Y+3273660D02*
X-163780Y+3273660D01*
X-313640Y+3126340D02*
X-163780Y+3126340D01*
X-274270Y+3319540D02*
X-290145Y+3304300D01*
X-337770Y+3304300D01*
X-369520Y+3334780D01*
X-369520Y+3365260D01*
X-337770Y+3395740D01*
X-290145Y+3395740D01*
X-274270Y+3380500D01*
X-147270Y+3380500D02*
X-163145Y+3395740D01*
X-210770Y+3395740D01*
X-226645Y+3380500D01*
X-226645Y+3319540D01*
X-210770Y+3304300D01*
X-163145Y+3304300D01*
X-147270Y+3319540D01*
X-147270Y+3334780D01*
X-163145Y+3350020D01*
X-226645Y+3350020D01*
X+383820Y+3173660D02*
X+536220Y+3173660D01*
X+386360Y+3026340D02*
X+536220Y+3026340D01*
X+795730Y+3059540D02*
X+779855Y+3044300D01*
X+732230Y+3044300D01*
X+700480Y+3074780D01*
X+700480Y+3105260D01*
X+732230Y+3135740D01*
X+779855Y+3135740D01*
X+795730Y+3120500D01*
X+843355Y+3135740D02*
X+922730Y+3135740D01*
X+922730Y+3120500D01*
X+843355Y+3044300D01*
X+383820Y+3373660D02*
X+536220Y+3373660D01*
X+386360Y+3226340D02*
X+536220Y+3226340D01*
X+805730Y+3279540D02*
X+789855Y+3264300D01*
X+742230Y+3264300D01*
X+710480Y+3294780D01*
X+710480Y+3325260D01*
X+742230Y+3355740D01*
X+789855Y+3355740D01*
X+805730Y+3340500D01*
X+932730Y+3325260D02*
X+916855Y+3310020D01*
X+869230Y+3310020D01*
X+853355Y+3325260D01*
X+853355Y+3340500D01*
X+869230Y+3355740D01*
X+916855Y+3355740D01*
X+932730Y+3340500D01*
X+932730Y+3279540D01*
X+916855Y+3264300D01*
X+869230Y+3264300D01*
D40*
X+972210Y-3396794D02*
X+1064598Y-3358526D01*
X+903327Y-3230496D02*
X+995715Y-3192228D01*
D31*
X+758031Y-3246864D02*
X+723038Y-3162385D01*
X+796371Y-3132009D01*
X+816870Y-3140014D01*
X+822702Y-3154094D01*
X+813867Y-3174249D01*
X+740535Y-3204624D01*
X+813867Y-3174249D02*
X+834366Y-3182254D01*
X+846030Y-3210414D01*
X+860870Y-3121788D02*
X+869704Y-3101633D01*
X+913704Y-3083408D01*
X+934203Y-3091413D01*
X+940035Y-3105493D01*
X+931200Y-3125648D01*
X+887201Y-3143873D01*
X+878366Y-3164028D01*
X+890030Y-3192188D01*
X+963363Y-3161813D01*
X+972370Y-3059108D02*
X+1045703Y-3028732D01*
X+1051535Y-3042812D01*
X+1007362Y-3143587D01*
D40*
X+1522210Y-3146794D02*
X+1614598Y-3108526D01*
X+1453327Y-2980496D02*
X+1545715Y-2942228D01*
D31*
X+1308031Y-2996864D02*
X+1273038Y-2912385D01*
X+1346371Y-2882009D01*
X+1366870Y-2890014D01*
X+1372702Y-2904094D01*
X+1363867Y-2924249D01*
X+1290535Y-2954624D01*
X+1363867Y-2924249D02*
X+1384366Y-2932254D01*
X+1396030Y-2960414D01*
X+1410870Y-2871788D02*
X+1419704Y-2851633D01*
X+1463704Y-2833408D01*
X+1484203Y-2841413D01*
X+1490035Y-2855493D01*
X+1481200Y-2875648D01*
X+1437201Y-2893873D01*
X+1428366Y-2914028D01*
X+1440030Y-2942188D01*
X+1513363Y-2911813D01*
X+1554533Y-2845272D02*
X+1534034Y-2837267D01*
X+1528202Y-2823187D01*
X+1537036Y-2803032D01*
X+1581036Y-2784807D01*
X+1601535Y-2792812D01*
X+1607367Y-2806892D01*
X+1598532Y-2827047D01*
X+1554533Y-2845272D01*
X+1545698Y-2865427D01*
X+1551530Y-2879507D01*
X+1572029Y-2887512D01*
X+1616029Y-2869287D01*
X+1624863Y-2849132D01*
X+1619031Y-2835052D01*
X+1598532Y-2827047D01*
D40*
X-1796673Y-3069504D02*
X-1704285Y-3107772D01*
X-1727790Y-2903206D02*
X-1635402Y-2941474D01*
D31*
X-1455113Y-2873364D02*
X-1490106Y-2957843D01*
X-1563439Y-2927468D01*
X-1572273Y-2907313D01*
X-1566441Y-2893233D01*
X-1545942Y-2885228D01*
X-1472609Y-2915604D01*
X-1545942Y-2885228D02*
X-1554777Y-2865073D01*
X-1543113Y-2836913D01*
X-1616273Y-2889087D02*
X-1636772Y-2897092D01*
X-1680772Y-2878867D01*
X-1689606Y-2858712D01*
X-1683774Y-2844632D01*
X-1663275Y-2836627D01*
X-1619276Y-2854852D01*
X-1598777Y-2846848D01*
X-1587113Y-2818688D01*
X-1660446Y-2788312D01*
X-1801106Y-2796031D02*
X-1780607Y-2788026D01*
X-1736608Y-2806251D01*
X-1727773Y-2826406D01*
X-1733605Y-2840486D01*
X-1754104Y-2848491D01*
X-1798104Y-2830266D01*
X-1806938Y-2810111D01*
X-1783610Y-2753791D01*
X-1763111Y-2745786D01*
X-1719111Y-2764012D01*
D40*
X-1196673Y-3319504D02*
X-1104285Y-3357772D01*
X-1127790Y-3153206D02*
X-1035402Y-3191474D01*
D31*
X-855113Y-3123364D02*
X-890106Y-3207843D01*
X-963439Y-3177468D01*
X-972273Y-3157313D01*
X-966441Y-3143233D01*
X-945942Y-3135228D01*
X-872609Y-3165604D01*
X-945942Y-3135228D02*
X-954777Y-3115073D01*
X-943113Y-3086913D01*
X-1016273Y-3139087D02*
X-1036772Y-3147092D01*
X-1080772Y-3128867D01*
X-1089606Y-3108712D01*
X-1083774Y-3094632D01*
X-1063275Y-3086627D01*
X-1072110Y-3066472D01*
X-1066278Y-3052392D01*
X-1045779Y-3044387D01*
X-1001779Y-3062613D01*
X-992945Y-3082768D01*
X-1033942Y-3098777D02*
X-1063275Y-3086627D01*
X-1095610Y-3040242D02*
X-1118939Y-3096561D01*
X-1139437Y-3104566D01*
X-1198104Y-3080266D01*
X-1206938Y-3060111D01*
X-1183610Y-3003791D01*
X-1163111Y-2995786D01*
X-1104445Y-3020087D01*
X-1095610Y-3040242D01*
X-1089778Y-3026162D02*
X-1212770Y-3074191D01*
X+929770Y-3019937D02*
X+744994Y-3096474D01*
X+860887Y-2853639D02*
X+676111Y-2930175D01*
X+791236Y-3073380D02*
X+724167Y-2911460D01*
X+782822Y-3079614D02*
X+715753Y-2917695D01*
X+640595Y-2858832D02*
X+605602Y-2774353D01*
X+664269Y-2750052D01*
X+705266Y-2766062D01*
X+716930Y-2794222D01*
X+699261Y-2834532D01*
X+640595Y-2858832D01*
X+816767Y-2703381D02*
X+796268Y-2695376D01*
X+752268Y-2713601D01*
X+743434Y-2733756D01*
X+766762Y-2790076D01*
X+787261Y-2798081D01*
X+831261Y-2779856D01*
X+840095Y-2759701D01*
X+834263Y-2745621D01*
X+813764Y-2737616D01*
X+755098Y-2761916D01*
X-1549113Y-2756361D02*
X-1733889Y-2679825D01*
X-1480230Y-2590063D02*
X-1665006Y-2513526D01*
X-1684861Y-2696193D02*
X-1617792Y-2534274D01*
X-1695219Y-2694651D02*
X-1628150Y-2532732D01*
X-1389721Y-2454240D02*
X-1424714Y-2538719D01*
X-1483380Y-2514419D01*
X-1501049Y-2474109D01*
X-1489385Y-2445949D01*
X-1448388Y-2429939D01*
X-1389721Y-2454240D01*
X-1556713Y-2484043D02*
X-1630046Y-2453668D01*
X-1624214Y-2439588D01*
X-1521721Y-2399564D01*
X+390063Y-3219770D02*
X+313526Y-3034994D01*
X+556361Y-3150887D02*
X+479825Y-2966111D01*
X+336620Y-3081236D02*
X+498540Y-3014167D01*
X+330386Y-3072822D02*
X+492305Y-3005753D01*
X+387149Y-3318934D02*
X+302670Y-3353927D01*
X+278369Y-3295260D01*
X+294379Y-3254263D01*
X+322539Y-3242599D01*
X+362849Y-3260268D01*
X+387149Y-3318934D01*
X+270078Y-3195596D02*
X+229768Y-3177927D01*
X+314248Y-3142935D01*
X+225337Y-3007934D02*
X+261787Y-3095933D01*
X+181167Y-3060595D01*
X+265647Y-3025603D01*
X-2106361Y-2500887D02*
X-2029825Y-2316111D01*
X-1940063Y-2569770D02*
X-1863526Y-2384994D01*
X-2046193Y-2365139D02*
X-1884274Y-2432208D01*
X-2044651Y-2354781D02*
X-1882732Y-2421850D01*
X-2178541Y-2568946D02*
X-2263020Y-2533953D01*
X-2238720Y-2475287D01*
X-2198410Y-2457618D01*
X-2170250Y-2469282D01*
X-2154240Y-2510279D01*
X-2178541Y-2568946D01*
X-2174109Y-2398951D02*
X-2190119Y-2357954D01*
X-2105639Y-2392946D01*
X-2129368Y-2211289D02*
X-2159743Y-2284622D01*
X-2131583Y-2296286D01*
X-2107283Y-2237619D01*
X-2087128Y-2228785D01*
X-2058968Y-2240449D01*
X-2050963Y-2260948D01*
X-2069189Y-2304948D01*
X-2089344Y-2313782D01*
X+1467368Y-2567448D02*
X+1385235Y-2601469D01*
X+1411577Y-2711526D02*
X+1345870Y-2738742D01*
X+1467368Y-2567448D02*
X+1502360Y-2651928D01*
X+1235814Y-2765084D02*
X+1199849Y-2678258D01*
X+1279635Y-2645210D01*
X+1181726Y-2948285D02*
X+1141416Y-2930616D01*
X+1129266Y-2901282D01*
X+1145276Y-2860285D01*
X+1173436Y-2848621D01*
X+1213746Y-2866290D01*
X+1225896Y-2895623D01*
X+1209886Y-2936620D01*
X+1181726Y-2948285D01*
X+1185586Y-2877954D02*
X+1201596Y-2836957D01*
X+1120975Y-2801618D02*
X+1080665Y-2783949D01*
X+1165145Y-2748957D01*
X+1076234Y-2613956D02*
X+1112684Y-2701955D01*
X+1032064Y-2666617D01*
X+1116544Y-2631625D01*
X-779849Y-2888258D02*
X-861982Y-2854238D01*
X-921177Y-2950686D02*
X-986883Y-2923470D01*
X-779849Y-2888258D02*
X-814842Y-2972738D01*
X-1083332Y-2864274D02*
X-1047368Y-2777448D01*
X-967581Y-2810497D01*
X-1256978Y-2929713D02*
X-1272987Y-2888716D01*
X-1260837Y-2859383D01*
X-1220527Y-2841714D01*
X-1192367Y-2853378D01*
X-1176357Y-2894375D01*
X-1188508Y-2923709D01*
X-1228818Y-2941378D01*
X-1256978Y-2929713D01*
X-1204517Y-2882711D02*
X-1164207Y-2865042D01*
X-1196226Y-2783047D02*
X-1212236Y-2742050D01*
X-1127756Y-2777042D01*
X-1151485Y-2595385D02*
X-1181860Y-2668718D01*
X-1153700Y-2680382D01*
X-1129400Y-2621715D01*
X-1109245Y-2612881D01*
X-1081085Y-2624545D01*
X-1073080Y-2645044D01*
X-1091306Y-2689044D01*
X-1111461Y-2697878D01*
M02*
