G04 PROTEUS RS274X GERBER FILE*
%FSLAX45Y45*%
%MOMM*%
G01*
%ADD31C,0.203200*%
D31*
X+3730000Y+5000D02*
X+3724161Y+213494D01*
X+3677111Y+630483D01*
X+3581154Y+1047472D01*
X+3432185Y+1464461D01*
X+3222850Y+1881450D01*
X+2940262Y+2298439D01*
X+2562518Y+2713270D01*
X+2145529Y+3053567D01*
X+1728540Y+3307277D01*
X+1311551Y+3493345D01*
X+894562Y+3622223D01*
X+477573Y+3699902D01*
X+60584Y+3729585D01*
X+5000Y+3730000D01*
X-3720000Y+5000D02*
X-3714161Y+213494D01*
X-3667111Y+630483D01*
X-3571154Y+1047472D01*
X-3422185Y+1464461D01*
X-3212850Y+1881450D01*
X-2930262Y+2298439D01*
X-2552518Y+2713270D01*
X-2135529Y+3053567D01*
X-1718540Y+3307277D01*
X-1301551Y+3493345D01*
X-884562Y+3622223D01*
X-467573Y+3699902D01*
X-50584Y+3729585D01*
X+5000Y+3730000D01*
X-3720000Y+5000D02*
X-3714161Y-203494D01*
X-3667111Y-620483D01*
X-3571154Y-1037472D01*
X-3422185Y-1454461D01*
X-3212850Y-1871450D01*
X-2930262Y-2288439D01*
X-2552518Y-2703270D01*
X-2135529Y-3043567D01*
X-1718540Y-3297277D01*
X-1301551Y-3483345D01*
X-884562Y-3612223D01*
X-467573Y-3689902D01*
X-50584Y-3719585D01*
X+5000Y-3720000D01*
X+3730000Y+5000D02*
X+3724161Y-203494D01*
X+3677111Y-620483D01*
X+3581154Y-1037472D01*
X+3432185Y-1454461D01*
X+3222850Y-1871450D01*
X+2940262Y-2288439D01*
X+2562518Y-2703270D01*
X+2145529Y-3043567D01*
X+1728540Y-3297277D01*
X+1311551Y-3483345D01*
X+894562Y-3612223D01*
X+477573Y-3689902D01*
X+60584Y-3719585D01*
X+5000Y-3720000D01*
X+3730000Y+5000D02*
X+3724161Y+213494D01*
X+3677111Y+630483D01*
X+3581154Y+1047472D01*
X+3432185Y+1464461D01*
X+3222850Y+1881450D01*
X+2940262Y+2298439D01*
X+2562518Y+2713270D01*
X+2145529Y+3053567D01*
X+1728540Y+3307277D01*
X+1311551Y+3493345D01*
X+894562Y+3622223D01*
X+477573Y+3699902D01*
X+60584Y+3729585D01*
X+5000Y+3730000D01*
X-3720000Y+5000D02*
X-3714161Y+213494D01*
X-3667111Y+630483D01*
X-3571154Y+1047472D01*
X-3422185Y+1464461D01*
X-3212850Y+1881450D01*
X-2930262Y+2298439D01*
X-2552518Y+2713270D01*
X-2135529Y+3053567D01*
X-1718540Y+3307277D01*
X-1301551Y+3493345D01*
X-884562Y+3622223D01*
X-467573Y+3699902D01*
X-50584Y+3729585D01*
X+5000Y+3730000D01*
X-3720000Y+5000D02*
X-3714161Y-203494D01*
X-3667111Y-620483D01*
X-3571154Y-1037472D01*
X-3422185Y-1454461D01*
X-3212850Y-1871450D01*
X-2930262Y-2288439D01*
X-2552518Y-2703270D01*
X-2135529Y-3043567D01*
X-1718540Y-3297277D01*
X-1301551Y-3483345D01*
X-884562Y-3612223D01*
X-467573Y-3689902D01*
X-50584Y-3719585D01*
X+5000Y-3720000D01*
X+3730000Y+5000D02*
X+3724161Y-203494D01*
X+3677111Y-620483D01*
X+3581154Y-1037472D01*
X+3432185Y-1454461D01*
X+3222850Y-1871450D01*
X+2940262Y-2288439D01*
X+2562518Y-2703270D01*
X+2145529Y-3043567D01*
X+1728540Y-3297277D01*
X+1311551Y-3483345D01*
X+894562Y-3612223D01*
X+477573Y-3689902D01*
X+60584Y-3719585D01*
X+5000Y-3720000D01*
M02*
