M48
METRIC,TZ
T01C0.3810
T02C0.7620
T03C1.0160
T04C5.5000
%
T01
X+5334Y-14630
X+30785Y+4420
X-30328Y-4267
X+8534Y+25298
X+12497Y+27127
X+11582Y+18593
X+14021Y+18593
X+14783Y-29261
X+23774Y+8687
X-8382Y-24994
X-13411Y+25756
X-8992Y-26822
X+5029Y+31699
X+13106Y-21488
X+2896Y+6553
X+7925Y-8230
X-3505Y+20117
X-11125Y+19355
X+17374Y-11887
X+22708Y-14326
X-23165Y+15240
X-13868Y-23622
X-2134Y-23927
X-24079Y-17983
X-2438Y-19812
X+14021Y-1219
X-16002Y-24384
X-12344Y+9449
X-19050Y+4572
X-6401Y+32918
X+1981Y-7772
X-15697Y-13106
X-15697Y-10516
X+2438Y-19812
X+1676Y-27280
X-5944Y-18288
X+10363Y+7671
X+28499Y-5486
X+2591Y-17831
X+18288Y-24232
X-3353Y-23165
X-17526Y-19202
X-16916Y+15850
X-11125Y-13564
X-5182Y-19050
X-28346Y+8687
X-4877Y+23470
X+4115Y-19812
X+10668Y-8077
X+3658Y+1219
X+33223Y-3200
X-7620Y-30175
X-23165Y-24994
X-32766Y-14326
X-24994Y-10211
X-17831Y+9906
X+7010Y-8915
X+3658Y-5639
X-10211Y-7163
X-13564Y-2591
X+10058Y-10516
X+17526Y-19812
X+19355Y-3810
X+17526Y-18440
X-7315Y-9296
X-6248Y-1524
X+18288Y-8992
X+18440Y-4724
X+16764Y+19507
X-5182Y-457
X-23165Y-19202
X-21641Y-19202
X+16154Y+22098
X+25298Y-7468
X-19202Y-14326
X+23774Y+4724
X+21031Y+16154
X-13411Y+23012
X-3962Y+25146
X-19355Y+15240
X-16612Y-11278
X-11582Y+8077
X-11125Y+18440
X+17374Y-9296
X+10516Y+15392
X+25300Y+14300
T02
X-13300Y+4200
X-12328Y+6547
X-11000Y+3200
X-10028Y+5547
X-6500Y+12400
X-4153Y+13372
X-5500Y+10100
X-3153Y+11072
X+4200Y+13400
X+6547Y+12428
X+3200Y+11000
X+5547Y+10028
X+12400Y+6500
X+13372Y+4153
X+10000Y+5500
X+10972Y+3153
X+13400Y-4200
X+12428Y-6547
X+11000Y-3200
X+10028Y-5547
X+6500Y-12400
X+4153Y-13372
X+5600Y-10100
X+3253Y-11072
X-4100Y-13300
X-6447Y-12328
X-3200Y-11100
X-5547Y-10128
X-12400Y-6500
X-13372Y-4153
X-10000Y-5600
X-10972Y-3253
X+2032Y+23000
X+0Y+23000
X-2032Y+23000
X-35012Y+4359
X-27741Y+21912
X-21900Y+28100
X-4346Y+35371
X+4400Y+35300
X+21954Y+28029
X+28000Y+22000
X+35271Y+4446
X+35300Y-4300
X+28029Y-21854
X+22000Y-27900
X+4446Y-35171
X-4300Y-35200
X-21854Y-27929
X-28000Y-21800
X-35271Y-4246
X-11847Y-20328
X-9500Y-21300
X+10408Y+12400
X+14000Y+15992
X+14000Y+12400
X-11300Y-11700
X-14892Y-15292
X+8490Y+22957
X+10800Y+22000
X-7045Y+23178
X-9355Y+22222
T03
X-1240Y+18800
X+1300Y+18800
X+13000Y-10800
X+14796Y-12596
X+16592Y-14392
X+10800Y-12900
X+12596Y-14696
X+14392Y-16492
X-1047Y-1931
X+1493Y-1931
T04
X-19900Y+0
X+20000Y+0
M30
