G04 PROTEUS RS274X GERBER FILE*
%FSLAX45Y45*%
%MOMM*%
G01*
%ADD89C,0.050000*%
%ADD100C,0.621660*%
%ADD101C,0.141000*%
%ADD90C,0.116250*%
%ADD31C,0.203200*%
%ADD102C,0.132190*%
%ADD88C,0.103290*%
%ADD98C,0.120190*%
%ADD96C,0.077470*%
%ADD97C,0.100580*%
%ADD99C,0.119920*%
%ADD103C,0.228330*%
%ADD104C,0.171250*%
D89*
X-823500Y-2685000D02*
X-823500Y-1495000D01*
X+1036500Y-1495000D01*
X+1036500Y-2685000D01*
X-823500Y-2685000D01*
X+156500Y-2090000D02*
X+56500Y-2090000D01*
X+106500Y-2040000D02*
X+106500Y-2140000D01*
D100*
X+603832Y-1903501D02*
X+603832Y-2214334D01*
X+541666Y-2276500D01*
X+293000Y-2276500D01*
X+230833Y-2214334D01*
X+230833Y-1903501D01*
X-17833Y-2027834D02*
X-142166Y-1903501D01*
X-142166Y-2276500D01*
D89*
X-1371226Y+764521D02*
X-1547260Y+339537D01*
X-1759752Y+427554D01*
X-1583718Y+852538D01*
X-1371226Y+764521D01*
X-1611683Y+615172D02*
X-1519295Y+576903D01*
X-1584623Y+549843D02*
X-1546355Y+642231D01*
D101*
X-1483242Y+684063D02*
X-1561403Y+716438D01*
X-1588382Y+651304D01*
X-1580751Y+632882D01*
X-1567724Y+627486D01*
X-1549302Y+635117D01*
X-1522323Y+700250D01*
X-1549302Y+635117D02*
X-1541671Y+616694D01*
X-1515617Y+605902D01*
X-1589308Y+575379D02*
X-1626153Y+560117D01*
X-1547993Y+527742D01*
D89*
X-751226Y+254521D02*
X-927260Y-170463D01*
X-1139752Y-82446D01*
X-963718Y+342538D01*
X-751226Y+254521D01*
X-991683Y+105172D02*
X-899295Y+66903D01*
X-964623Y+39843D02*
X-926355Y+132231D01*
D101*
X-863242Y+174063D02*
X-941403Y+206438D01*
X-968382Y+141304D01*
X-960751Y+122882D01*
X-947724Y+117486D01*
X-929302Y+125117D01*
X-902323Y+190250D01*
X-929302Y+125117D02*
X-921671Y+106694D01*
X-895617Y+95902D01*
X-976939Y+83801D02*
X-995361Y+76170D01*
X-1011549Y+37090D01*
X-1003918Y+18668D01*
X-990891Y+13272D01*
X-972469Y+20903D01*
X-956281Y+59983D01*
X-937859Y+67614D01*
X-911805Y+56822D01*
X-938784Y-8312D01*
D89*
X-617462Y+1366282D02*
X-1042446Y+1190248D01*
X-1130463Y+1402740D01*
X-705479Y+1578774D01*
X-617462Y+1366282D01*
X-893097Y+1430705D02*
X-854828Y+1338317D01*
X-920157Y+1365377D02*
X-827769Y+1403645D01*
D101*
X-753562Y+1388597D02*
X-785937Y+1466758D01*
X-851070Y+1439778D01*
X-858701Y+1421356D01*
X-853305Y+1408329D01*
X-834883Y+1400698D01*
X-769749Y+1427678D01*
X-834883Y+1400698D02*
X-842514Y+1382276D01*
X-831722Y+1356222D01*
X-897782Y+1405168D02*
X-916204Y+1412799D01*
X-955284Y+1396611D01*
X-962915Y+1378189D01*
X-957519Y+1365162D01*
X-939097Y+1357531D01*
X-946728Y+1339109D01*
X-941332Y+1326082D01*
X-922909Y+1318451D01*
X-883829Y+1334639D01*
X-876198Y+1353061D01*
X-913043Y+1368323D02*
X-939097Y+1357531D01*
D89*
X-337462Y+706282D02*
X-762446Y+530248D01*
X-850463Y+742740D01*
X-425479Y+918774D01*
X-337462Y+706282D01*
X-613097Y+770705D02*
X-574828Y+678317D01*
X-640157Y+705377D02*
X-547769Y+743645D01*
D101*
X-473562Y+728597D02*
X-505937Y+806758D01*
X-571070Y+779778D01*
X-578701Y+761356D01*
X-573305Y+748329D01*
X-554883Y+740698D01*
X-489749Y+767678D01*
X-554883Y+740698D02*
X-562514Y+722276D01*
X-551722Y+696222D01*
X-666728Y+679109D02*
X-588567Y+711484D01*
X-662257Y+742007D01*
X-629882Y+663847D01*
D89*
X+664521Y+1401226D02*
X+239537Y+1577260D01*
X+327554Y+1789752D01*
X+752538Y+1613718D01*
X+664521Y+1401226D01*
X+515172Y+1641683D02*
X+476903Y+1549295D01*
X+449843Y+1614623D02*
X+542231Y+1576355D01*
D101*
X+408011Y+1677736D02*
X+375636Y+1599575D01*
X+440770Y+1572596D01*
X+459192Y+1580227D01*
X+464588Y+1593254D01*
X+456957Y+1611676D01*
X+391824Y+1638655D01*
X+456957Y+1611676D02*
X+475380Y+1619307D01*
X+486172Y+1645361D01*
X+558011Y+1524033D02*
X+492877Y+1551013D01*
X+503669Y+1577066D01*
X+555775Y+1555483D01*
X+574198Y+1563113D01*
X+584990Y+1589167D01*
X+577359Y+1607589D01*
X+538279Y+1623777D01*
X+519856Y+1616146D01*
D89*
X+274521Y+711226D02*
X-150463Y+887260D01*
X-62446Y+1099752D01*
X+362538Y+923718D01*
X+274521Y+711226D01*
X+125172Y+951683D02*
X+86903Y+859295D01*
X+59843Y+924623D02*
X+152231Y+886355D01*
D101*
X+18011Y+987736D02*
X-14364Y+909575D01*
X+50770Y+882596D01*
X+69192Y+890227D01*
X+74588Y+903254D01*
X+66957Y+921676D01*
X+1824Y+948655D01*
X+66957Y+921676D02*
X+85380Y+929307D01*
X+96172Y+955361D01*
X+173406Y+847060D02*
X+154984Y+839429D01*
X+115904Y+855617D01*
X+108273Y+874039D01*
X+129856Y+926146D01*
X+148279Y+933777D01*
X+187359Y+917589D01*
X+194990Y+899167D01*
X+189594Y+886140D01*
X+171171Y+878509D01*
X+119065Y+900093D01*
D89*
X+1416282Y+627462D02*
X+1240248Y+1052446D01*
X+1452740Y+1140463D01*
X+1628774Y+715479D01*
X+1416282Y+627462D01*
X+1480705Y+903097D02*
X+1388317Y+864828D01*
X+1415377Y+930157D02*
X+1453645Y+837769D01*
D101*
X+1430425Y+1004364D02*
X+1352264Y+971989D01*
X+1379244Y+906856D01*
X+1397666Y+899225D01*
X+1410693Y+904621D01*
X+1418324Y+923043D01*
X+1391344Y+988177D01*
X+1418324Y+923043D02*
X+1436746Y+915412D01*
X+1462800Y+926204D01*
X+1400827Y+854749D02*
X+1427806Y+789615D01*
X+1440833Y+795011D01*
X+1478987Y+887124D01*
D89*
X+696282Y+327462D02*
X+520248Y+752446D01*
X+732740Y+840463D01*
X+908774Y+415479D01*
X+696282Y+327462D01*
X+760705Y+603097D02*
X+668317Y+564828D01*
X+695377Y+630157D02*
X+733645Y+537769D01*
D101*
X+710425Y+704364D02*
X+632264Y+671989D01*
X+659244Y+606856D01*
X+677666Y+599225D01*
X+690693Y+604621D01*
X+698324Y+623043D01*
X+671344Y+688177D01*
X+698324Y+623043D02*
X+716746Y+615412D01*
X+742800Y+626204D01*
X+725303Y+557909D02*
X+706881Y+565540D01*
X+693854Y+560144D01*
X+686223Y+541722D01*
X+702411Y+502642D01*
X+720833Y+495011D01*
X+733860Y+500407D01*
X+741491Y+518829D01*
X+725303Y+557909D01*
X+732934Y+576332D01*
X+745961Y+581728D01*
X+764383Y+574097D01*
X+780571Y+535017D01*
X+772940Y+516594D01*
X+759913Y+511198D01*
X+741491Y+518829D01*
D89*
X+1411226Y-764521D02*
X+1587260Y-339537D01*
X+1799752Y-427554D01*
X+1623718Y-852538D01*
X+1411226Y-764521D01*
X+1651683Y-615172D02*
X+1559295Y-576903D01*
X+1624623Y-549843D02*
X+1586355Y-642231D01*
D101*
X+1687736Y-508011D02*
X+1609575Y-475636D01*
X+1582596Y-540770D01*
X+1590227Y-559192D01*
X+1603254Y-564588D01*
X+1621676Y-556957D01*
X+1648655Y-491824D01*
X+1621676Y-556957D02*
X+1629307Y-575380D01*
X+1655361Y-586172D01*
X+1560087Y-668802D02*
X+1578509Y-661171D01*
X+1594697Y-622091D01*
X+1587066Y-603669D01*
X+1574039Y-598273D01*
X+1555617Y-605904D01*
X+1539429Y-644984D01*
X+1547060Y-663406D01*
X+1599167Y-684990D01*
X+1617589Y-677359D01*
X+1633777Y-638279D01*
D89*
X+731226Y-254521D02*
X+907260Y+170463D01*
X+1119752Y+82446D01*
X+943718Y-342538D01*
X+731226Y-254521D01*
X+971683Y-105172D02*
X+879295Y-66903D01*
X+944623Y-39843D02*
X+906355Y-132231D01*
D90*
X+1011094Y+29498D02*
X+946653Y+56191D01*
X+924410Y+2490D01*
X+930701Y-12699D01*
X+941441Y-17147D01*
X+956630Y-10856D01*
X+978874Y+42844D01*
X+956630Y-10856D02*
X+962921Y-26045D01*
X+984402Y-34942D01*
X+923646Y-60108D02*
X+893268Y-72691D01*
X+957709Y-99383D01*
X+929175Y-137895D02*
X+886214Y-120100D01*
X+871026Y-126392D01*
X+853231Y-169352D01*
X+859522Y-184541D01*
X+902483Y-202336D01*
X+917671Y-196044D01*
X+935466Y-153084D01*
X+929175Y-137895D01*
X+939915Y-142344D02*
X+848782Y-180092D01*
D89*
X+327462Y-666282D02*
X+752446Y-490248D01*
X+840463Y-702740D01*
X+415479Y-878774D01*
X+327462Y-666282D01*
X+603097Y-730705D02*
X+564828Y-638317D01*
X+630157Y-665377D02*
X+537769Y-703645D01*
D90*
X+726191Y-663347D02*
X+699498Y-598906D01*
X+645798Y-621150D01*
X+639507Y-636338D01*
X+643955Y-647079D01*
X+659144Y-653370D01*
X+712845Y-631127D01*
X+659144Y-653370D02*
X+652853Y-668559D01*
X+661750Y-690039D01*
X+600995Y-664874D02*
X+570617Y-652291D01*
X+597309Y-716732D01*
X+521365Y-685274D02*
X+506176Y-678983D01*
X+473956Y-692329D01*
X+467665Y-707517D01*
X+472113Y-718258D01*
X+487302Y-724549D01*
X+519522Y-711203D01*
X+534711Y-717494D01*
X+543609Y-738974D01*
X+489908Y-761218D01*
D89*
X-222446Y-710248D02*
X+202538Y-886282D01*
X+114521Y-1098774D01*
X-310463Y-922740D01*
X-222446Y-710248D01*
X-73097Y-950705D02*
X-34828Y-858317D01*
X-7768Y-923645D02*
X-100156Y-885377D01*
D90*
X-169497Y-818906D02*
X-196190Y-883347D01*
X-142489Y-905590D01*
X-127300Y-899299D01*
X-122852Y-888559D01*
X-129143Y-873370D01*
X-182843Y-851126D01*
X-129143Y-873370D02*
X-113954Y-867079D01*
X-105057Y-845598D01*
X-79891Y-906354D02*
X-67308Y-936732D01*
X-40616Y-872291D01*
X+57888Y-938258D02*
X-6553Y-911565D01*
X+18613Y-972321D01*
X+45305Y-907880D01*
D89*
X-1426282Y-627462D02*
X-1250248Y-1052446D01*
X-1462740Y-1140463D01*
X-1638774Y-715479D01*
X-1426282Y-627462D01*
X-1490705Y-903097D02*
X-1398317Y-864828D01*
X-1425377Y-930157D02*
X-1463645Y-837769D01*
D90*
X-1465675Y-741735D02*
X-1530116Y-768428D01*
X-1507872Y-822128D01*
X-1492684Y-828419D01*
X-1481943Y-823971D01*
X-1475652Y-808782D01*
X-1497895Y-755081D01*
X-1475652Y-808782D02*
X-1460463Y-815073D01*
X-1438983Y-806176D01*
X-1464148Y-866931D02*
X-1476731Y-897309D01*
X-1412290Y-870617D01*
X-1432245Y-1004710D02*
X-1454488Y-951010D01*
X-1433008Y-942112D01*
X-1415213Y-985073D01*
X-1400024Y-991364D01*
X-1378544Y-982467D01*
X-1372253Y-967278D01*
X-1385599Y-935058D01*
X-1400788Y-928766D01*
D89*
X-696282Y-347462D02*
X-520248Y-772446D01*
X-732740Y-860463D01*
X-908774Y-435479D01*
X-696282Y-347462D01*
X-760705Y-623097D02*
X-668317Y-584828D01*
X-695377Y-650157D02*
X-733645Y-557769D01*
D90*
X-735675Y-461735D02*
X-800116Y-488428D01*
X-777872Y-542128D01*
X-762684Y-548419D01*
X-751943Y-543971D01*
X-745652Y-528782D01*
X-767895Y-475081D01*
X-745652Y-528782D02*
X-730463Y-535073D01*
X-708983Y-526176D01*
X-734148Y-586931D02*
X-746731Y-617309D01*
X-682290Y-590617D01*
X-691505Y-720261D02*
X-706693Y-713970D01*
X-720039Y-681750D01*
X-713748Y-666561D01*
X-670788Y-648766D01*
X-655599Y-655058D01*
X-642253Y-687278D01*
X-648544Y-702467D01*
X-659284Y-706915D01*
X-674473Y-700624D01*
X-692268Y-657664D01*
D31*
X-2638342Y+2231211D02*
X-3433482Y+311575D01*
X-3637031Y+395887D01*
X-2841891Y+2315524D01*
X-2638342Y+2231211D01*
D102*
X-3040343Y+1444926D02*
X-3113620Y+1475279D01*
X-3138913Y+1414215D01*
X-3131759Y+1396944D01*
X-3119547Y+1391885D01*
X-3102275Y+1399039D01*
X-3076982Y+1460103D01*
X-3102275Y+1399039D02*
X-3095120Y+1381767D01*
X-3070695Y+1371650D01*
X-3093025Y+1352282D02*
X-3085871Y+1335011D01*
X-3106106Y+1286160D01*
X-3123377Y+1279005D01*
X-3135590Y+1284064D01*
X-3142745Y+1301336D01*
X-3122510Y+1350187D01*
X-3129665Y+1367459D01*
X-3141877Y+1372517D01*
X-3159149Y+1365363D01*
X-3179383Y+1316512D01*
X-3172229Y+1299241D01*
X-3180252Y+1245330D02*
X-3214795Y+1231022D01*
X-3141517Y+1200669D01*
D31*
X-310339Y+3469345D02*
X-2229976Y+2674205D01*
X-2314288Y+2877754D01*
X-394652Y+3672894D01*
X-310339Y+3469345D01*
D102*
X-1150583Y+3197616D02*
X-1180936Y+3270893D01*
X-1242000Y+3245600D01*
X-1249154Y+3228328D01*
X-1244095Y+3216115D01*
X-1226824Y+3208961D01*
X-1165760Y+3234255D01*
X-1226824Y+3208961D02*
X-1233977Y+3191689D01*
X-1223860Y+3167263D01*
X-1253345Y+3169358D02*
X-1260499Y+3152087D01*
X-1309350Y+3131852D01*
X-1326622Y+3139006D01*
X-1331680Y+3151219D01*
X-1324527Y+3168491D01*
X-1275676Y+3188726D01*
X-1268522Y+3205998D01*
X-1273580Y+3218210D01*
X-1290852Y+3225364D01*
X-1339703Y+3205130D01*
X-1346857Y+3187858D01*
X-1383496Y+3172682D02*
X-1400767Y+3179836D01*
X-1437406Y+3164660D01*
X-1444560Y+3147388D01*
X-1439501Y+3135175D01*
X-1422230Y+3128021D01*
X-1385591Y+3143197D01*
X-1368320Y+3136042D01*
X-1358202Y+3111617D01*
X-1419266Y+3086323D01*
D31*
X+2235347Y+2667107D02*
X+315711Y+3462247D01*
X+400023Y+3665796D01*
X+2319660Y+2870656D01*
X+2235347Y+2667107D01*
D102*
X+1186308Y+3263794D02*
X+1155955Y+3190517D01*
X+1217019Y+3165224D01*
X+1234290Y+3172378D01*
X+1239349Y+3184590D01*
X+1232195Y+3201862D01*
X+1171131Y+3227155D01*
X+1232195Y+3201862D02*
X+1249467Y+3209017D01*
X+1259584Y+3233442D01*
X+1278952Y+3211112D02*
X+1296223Y+3218266D01*
X+1345074Y+3198031D01*
X+1352229Y+3180760D01*
X+1347170Y+3168547D01*
X+1329898Y+3161392D01*
X+1281047Y+3181627D01*
X+1263775Y+3174472D01*
X+1258717Y+3162260D01*
X+1265871Y+3144988D01*
X+1314722Y+3124754D01*
X+1331993Y+3131908D01*
X+1368633Y+3116731D02*
X+1375787Y+3099460D01*
X+1412425Y+3084284D01*
X+1429696Y+3091438D01*
X+1434755Y+3103650D01*
X+1427601Y+3120922D01*
X+1444873Y+3128077D01*
X+1449932Y+3140290D01*
X+1442777Y+3157561D01*
X+1406139Y+3172737D01*
X+1388868Y+3165583D01*
X+1403175Y+3131039D02*
X+1427601Y+3120922D01*
D31*
X+3459345Y+320339D02*
X+2664205Y+2239976D01*
X+2867754Y+2324288D01*
X+3662894Y+404652D01*
X+3459345Y+320339D01*
D102*
X+3139484Y+1484045D02*
X+3066207Y+1453692D01*
X+3091500Y+1392628D01*
X+3108772Y+1385474D01*
X+3120985Y+1390533D01*
X+3128139Y+1407804D01*
X+3102845Y+1468868D01*
X+3128139Y+1407804D02*
X+3145411Y+1400651D01*
X+3169837Y+1410768D01*
X+3167742Y+1381283D02*
X+3185013Y+1374129D01*
X+3205248Y+1325278D01*
X+3198094Y+1308006D01*
X+3185881Y+1302948D01*
X+3168609Y+1310101D01*
X+3148374Y+1358952D01*
X+3131102Y+1366106D01*
X+3118890Y+1361048D01*
X+3111736Y+1343776D01*
X+3131970Y+1294925D01*
X+3149242Y+1287771D01*
X+3226351Y+1205245D02*
X+3195999Y+1278521D01*
X+3167382Y+1209435D01*
X+3240659Y+1239788D01*
D31*
X+2667106Y-2225348D02*
X+3462246Y-305712D01*
X+3665795Y-390024D01*
X+2870655Y-2309661D01*
X+2667106Y-2225348D01*
D102*
X+3263793Y-1176309D02*
X+3190516Y-1145956D01*
X+3165223Y-1207020D01*
X+3172377Y-1224291D01*
X+3184589Y-1229350D01*
X+3201861Y-1222196D01*
X+3227154Y-1161132D01*
X+3201861Y-1222196D02*
X+3209016Y-1239468D01*
X+3233441Y-1249585D01*
X+3211111Y-1268953D02*
X+3218265Y-1286224D01*
X+3198030Y-1335075D01*
X+3180759Y-1342230D01*
X+3168546Y-1337171D01*
X+3161391Y-1319899D01*
X+3181626Y-1271048D01*
X+3174471Y-1253776D01*
X+3162259Y-1248718D01*
X+3144987Y-1255872D01*
X+3124753Y-1304723D01*
X+3131907Y-1321994D01*
X+3079224Y-1414639D02*
X+3104517Y-1353575D01*
X+3128943Y-1363692D01*
X+3108708Y-1412543D01*
X+3115862Y-1429815D01*
X+3140289Y-1439933D01*
X+3157560Y-1432778D01*
X+3172736Y-1396140D01*
X+3165582Y-1378869D01*
D31*
X+320339Y-3449344D02*
X+2239976Y-2654204D01*
X+2324288Y-2857753D01*
X+404652Y-3652893D01*
X+320339Y-3449344D01*
D102*
X+1484045Y-3129483D02*
X+1453692Y-3056206D01*
X+1392628Y-3081499D01*
X+1385474Y-3098771D01*
X+1390533Y-3110984D01*
X+1407804Y-3118138D01*
X+1468868Y-3092844D01*
X+1407804Y-3118138D02*
X+1400651Y-3135410D01*
X+1410768Y-3159836D01*
X+1381283Y-3157741D02*
X+1374129Y-3175012D01*
X+1325278Y-3195247D01*
X+1308006Y-3188093D01*
X+1302948Y-3175880D01*
X+1310101Y-3158608D01*
X+1358952Y-3138373D01*
X+1366106Y-3121101D01*
X+1361048Y-3108889D01*
X+1343776Y-3101735D01*
X+1294925Y-3121969D01*
X+1287771Y-3139241D01*
X+1190068Y-3179711D02*
X+1197222Y-3162439D01*
X+1233861Y-3147263D01*
X+1251132Y-3154417D01*
X+1271367Y-3203269D01*
X+1264213Y-3220541D01*
X+1227575Y-3235717D01*
X+1210303Y-3228563D01*
X+1205245Y-3216350D01*
X+1212398Y-3199078D01*
X+1261249Y-3178843D01*
D31*
X-2225347Y-2657107D02*
X-305711Y-3452247D01*
X-390023Y-3655796D01*
X-2309660Y-2860656D01*
X-2225347Y-2657107D01*
D102*
X-1439062Y-3059108D02*
X-1469415Y-3132385D01*
X-1408351Y-3157678D01*
X-1391080Y-3150524D01*
X-1386021Y-3138312D01*
X-1393175Y-3121040D01*
X-1454239Y-3095747D01*
X-1393175Y-3121040D02*
X-1375903Y-3113885D01*
X-1365786Y-3089460D01*
X-1346418Y-3111790D02*
X-1329147Y-3104636D01*
X-1280296Y-3124871D01*
X-1273141Y-3142142D01*
X-1278200Y-3154355D01*
X-1295472Y-3161510D01*
X-1344323Y-3141275D01*
X-1361595Y-3148430D01*
X-1366653Y-3160642D01*
X-1359499Y-3177914D01*
X-1310648Y-3198148D01*
X-1293377Y-3190994D01*
X-1261796Y-3218384D02*
X-1200732Y-3243677D01*
X-1195674Y-3231464D01*
X-1231444Y-3145106D01*
D31*
X-3459345Y-300339D02*
X-2664205Y-2219976D01*
X-2867754Y-2304288D01*
X-3662894Y-384652D01*
X-3459345Y-300339D01*
D102*
X-3187616Y-1140583D02*
X-3260893Y-1170936D01*
X-3235600Y-1232000D01*
X-3218328Y-1239154D01*
X-3206115Y-1234095D01*
X-3198961Y-1216824D01*
X-3224255Y-1155760D01*
X-3198961Y-1216824D02*
X-3181689Y-1223977D01*
X-3157263Y-1213860D01*
X-3159358Y-1243345D02*
X-3142087Y-1250499D01*
X-3121852Y-1299350D01*
X-3129006Y-1316622D01*
X-3141219Y-1321680D01*
X-3158491Y-1314527D01*
X-3178726Y-1265676D01*
X-3195998Y-1258522D01*
X-3208210Y-1263580D01*
X-3215364Y-1280852D01*
X-3195130Y-1329703D01*
X-3177858Y-1336857D01*
X-3133197Y-1375591D02*
X-3150469Y-1368437D01*
X-3162682Y-1373496D01*
X-3169836Y-1390767D01*
X-3154660Y-1427406D01*
X-3137388Y-1434560D01*
X-3125175Y-1429501D01*
X-3118021Y-1412230D01*
X-3133197Y-1375591D01*
X-3126042Y-1358320D01*
X-3113830Y-1353261D01*
X-3096558Y-1360415D01*
X-3081382Y-1397053D01*
X-3088536Y-1414325D01*
X-3100749Y-1419383D01*
X-3118021Y-1412230D01*
D89*
X-2621226Y+1534521D02*
X-2797260Y+1109537D01*
X-3009752Y+1197554D01*
X-2833718Y+1622538D01*
X-2621226Y+1534521D01*
X-2861683Y+1385172D02*
X-2769295Y+1346903D01*
X-2834623Y+1319843D02*
X-2796355Y+1412231D01*
D90*
X-2729884Y+1481572D02*
X-2794325Y+1508265D01*
X-2816568Y+1454564D01*
X-2810277Y+1439375D01*
X-2799537Y+1434927D01*
X-2784348Y+1441218D01*
X-2762104Y+1494918D01*
X-2784348Y+1441218D02*
X-2778057Y+1426029D01*
X-2756576Y+1417132D01*
X-2817332Y+1391966D02*
X-2847710Y+1379383D01*
X-2783269Y+1352691D01*
X-2869952Y+1325682D02*
X-2892196Y+1271982D01*
X-2881456Y+1267533D01*
X-2805512Y+1298990D01*
D89*
X-2871226Y+984521D02*
X-3047260Y+559537D01*
X-3259752Y+647554D01*
X-3083718Y+1072538D01*
X-2871226Y+984521D01*
X-3111683Y+835172D02*
X-3019295Y+796903D01*
X-3084623Y+769843D02*
X-3046355Y+862231D01*
D90*
X-2979884Y+931572D02*
X-3044325Y+958265D01*
X-3066568Y+904564D01*
X-3060277Y+889375D01*
X-3049537Y+884927D01*
X-3034348Y+891218D01*
X-3012104Y+944918D01*
X-3034348Y+891218D02*
X-3028057Y+876029D01*
X-3006576Y+867132D01*
X-3067332Y+841966D02*
X-3097710Y+829383D01*
X-3033269Y+802691D01*
X-3092181Y+751596D02*
X-3098472Y+766785D01*
X-3109212Y+771234D01*
X-3124401Y+764942D01*
X-3137747Y+732722D01*
X-3131456Y+717533D01*
X-3120716Y+713085D01*
X-3105527Y+719376D01*
X-3092181Y+751596D01*
X-3076992Y+757888D01*
X-3066252Y+753439D01*
X-3059961Y+738250D01*
X-3073307Y+706030D01*
X-3088495Y+699738D01*
X-3099236Y+704187D01*
X-3105527Y+719376D01*
D31*
X-2527775Y+800804D02*
X-2646361Y+514513D01*
X-2916226Y+626294D01*
X-2797640Y+912586D01*
X-2527775Y+800804D01*
D88*
X-2699920Y+793846D02*
X-2726912Y+782666D01*
X-2734818Y+763580D01*
X-2723637Y+736588D01*
X-2704552Y+728683D01*
X-2677560Y+739863D01*
X-2669654Y+758949D01*
X-2680835Y+785940D01*
X-2699920Y+793846D01*
X-2696646Y+747768D02*
X-2685465Y+720777D01*
X-2755260Y+660244D02*
X-2741765Y+665834D01*
X-2729906Y+694464D01*
X-2735496Y+707959D01*
X-2745040Y+711912D01*
X-2758535Y+706322D01*
X-2770394Y+677693D01*
X-2764804Y+664197D01*
X-2726631Y+648386D01*
X-2713136Y+653976D01*
X-2701277Y+682605D01*
D31*
X-2729266Y+1073797D02*
X-2545693Y+1516982D01*
X-2360621Y+1440322D01*
X-2544195Y+997137D01*
X-2729266Y+1073797D01*
D98*
X-2474834Y+1332095D02*
X-2541460Y+1359692D01*
X-2559858Y+1315276D01*
X-2546848Y+1283869D01*
X-2524639Y+1274669D01*
X-2493232Y+1287679D01*
X-2474834Y+1332095D01*
X-2565247Y+1239451D02*
X-2596654Y+1226442D01*
X-2530028Y+1198845D01*
D89*
X-817462Y+2956282D02*
X-1242446Y+2780248D01*
X-1330463Y+2992740D01*
X-905479Y+3168774D01*
X-817462Y+2956282D01*
X-1093097Y+3020705D02*
X-1054828Y+2928317D01*
X-1120157Y+2955377D02*
X-1027769Y+2993645D01*
D90*
X-931735Y+2995675D02*
X-958428Y+3060116D01*
X-1012128Y+3037872D01*
X-1018419Y+3022684D01*
X-1013971Y+3011943D01*
X-998782Y+3005652D01*
X-945081Y+3027895D01*
X-998782Y+3005652D02*
X-1005073Y+2990463D01*
X-996176Y+2968983D01*
X-1056931Y+2994148D02*
X-1087309Y+3006731D01*
X-1060617Y+2942290D01*
X-1185813Y+2940764D02*
X-1170624Y+2934473D01*
X-1138404Y+2947819D01*
X-1132112Y+2963008D01*
X-1136561Y+2973748D01*
X-1151750Y+2980039D01*
X-1183970Y+2966693D01*
X-1190261Y+2951505D01*
X-1172467Y+2908544D01*
X-1157278Y+2902253D01*
X-1125058Y+2915599D01*
D89*
X-1317462Y+2756282D02*
X-1742446Y+2580248D01*
X-1830463Y+2792740D01*
X-1405479Y+2968774D01*
X-1317462Y+2756282D01*
X-1593097Y+2820705D02*
X-1554828Y+2728317D01*
X-1620157Y+2755377D02*
X-1527769Y+2793645D01*
D90*
X-1431735Y+2795675D02*
X-1458428Y+2860116D01*
X-1512128Y+2837872D01*
X-1518419Y+2822684D01*
X-1513971Y+2811943D01*
X-1498782Y+2805652D01*
X-1445081Y+2827895D01*
X-1498782Y+2805652D02*
X-1505073Y+2790463D01*
X-1496176Y+2768983D01*
X-1550640Y+2809337D02*
X-1565829Y+2815628D01*
X-1598049Y+2802282D01*
X-1604340Y+2787094D01*
X-1599892Y+2776353D01*
X-1584703Y+2770062D01*
X-1552483Y+2783408D01*
X-1537294Y+2777117D01*
X-1528396Y+2755637D01*
X-1582097Y+2733393D01*
X-1608026Y+2735236D02*
X-1625821Y+2778197D01*
X-1641010Y+2784488D01*
X-1683970Y+2766693D01*
X-1690261Y+2751505D01*
X-1672467Y+2708544D01*
X-1657278Y+2702253D01*
X-1614317Y+2720048D01*
X-1608026Y+2735236D01*
X-1603577Y+2724496D02*
X-1694710Y+2762245D01*
D89*
X+1514521Y+2651226D02*
X+1089537Y+2827260D01*
X+1177554Y+3039752D01*
X+1602538Y+2863718D01*
X+1514521Y+2651226D01*
X+1365172Y+2891683D02*
X+1326903Y+2799295D01*
X+1299843Y+2864623D02*
X+1392231Y+2826355D01*
D90*
X+1230502Y+2931094D02*
X+1203809Y+2866653D01*
X+1257510Y+2844410D01*
X+1272699Y+2850701D01*
X+1277147Y+2861441D01*
X+1270856Y+2876630D01*
X+1217156Y+2898874D01*
X+1270856Y+2876630D02*
X+1286045Y+2882921D01*
X+1294942Y+2904402D01*
X+1304919Y+2837355D02*
X+1311211Y+2822166D01*
X+1343431Y+2808820D01*
X+1358620Y+2815111D01*
X+1363068Y+2825851D01*
X+1356777Y+2841040D01*
X+1324557Y+2854386D01*
X+1318265Y+2869575D01*
X+1327163Y+2891055D01*
X+1380863Y+2868812D01*
X+1406029Y+2808057D02*
X+1418612Y+2777679D01*
X+1445304Y+2842120D01*
D89*
X+984521Y+2881226D02*
X+559537Y+3057260D01*
X+647554Y+3269752D01*
X+1072538Y+3093718D01*
X+984521Y+2881226D01*
X+835172Y+3121683D02*
X+796903Y+3029295D01*
X+769843Y+3094623D02*
X+862231Y+3056355D01*
D90*
X+700502Y+3161094D02*
X+673809Y+3096653D01*
X+727510Y+3074410D01*
X+742699Y+3080701D01*
X+747147Y+3091441D01*
X+740856Y+3106630D01*
X+687156Y+3128874D01*
X+740856Y+3106630D02*
X+756045Y+3112921D01*
X+764942Y+3134402D01*
X+774919Y+3067355D02*
X+781211Y+3052166D01*
X+813431Y+3038820D01*
X+828620Y+3045111D01*
X+833068Y+3055851D01*
X+826777Y+3071040D01*
X+794557Y+3084386D01*
X+788265Y+3099575D01*
X+797163Y+3121055D01*
X+850863Y+3098812D01*
X+860840Y+3031766D02*
X+867132Y+3016577D01*
X+899352Y+3003231D01*
X+914541Y+3009522D01*
X+918989Y+3020262D01*
X+912698Y+3035451D01*
X+880478Y+3048797D01*
X+874186Y+3063986D01*
X+883084Y+3085466D01*
X+936784Y+3063223D01*
D89*
X+2916282Y+877462D02*
X+2740248Y+1302446D01*
X+2952740Y+1390463D01*
X+3128774Y+965479D01*
X+2916282Y+877462D01*
X+2980705Y+1153097D02*
X+2888317Y+1114828D01*
X+2915377Y+1180157D02*
X+2953645Y+1087769D01*
D90*
X+2913347Y+1276191D02*
X+2848906Y+1249498D01*
X+2871150Y+1195798D01*
X+2886338Y+1189507D01*
X+2897079Y+1193955D01*
X+2903370Y+1209144D01*
X+2881127Y+1262845D01*
X+2903370Y+1209144D02*
X+2918559Y+1202853D01*
X+2940039Y+1211750D01*
X+2899685Y+1157286D02*
X+2893394Y+1142097D01*
X+2906740Y+1109877D01*
X+2921928Y+1103586D01*
X+2932669Y+1108034D01*
X+2938960Y+1123223D01*
X+2925614Y+1155443D01*
X+2931905Y+1170632D01*
X+2953385Y+1179530D01*
X+2975629Y+1125829D01*
X+2935274Y+1071365D02*
X+2928983Y+1056176D01*
X+2942329Y+1023956D01*
X+2957517Y+1017665D01*
X+2968258Y+1022113D01*
X+2974549Y+1037302D01*
X+2989738Y+1031011D01*
X+3000478Y+1035459D01*
X+3006769Y+1050648D01*
X+2993423Y+1082868D01*
X+2978234Y+1089160D01*
X+2965652Y+1058782D02*
X+2974549Y+1037302D01*
D89*
X+2706282Y+1387462D02*
X+2530248Y+1812446D01*
X+2742740Y+1900463D01*
X+2918774Y+1475479D01*
X+2706282Y+1387462D01*
X+2770705Y+1663097D02*
X+2678317Y+1624828D01*
X+2705377Y+1690157D02*
X+2743645Y+1597769D01*
D90*
X+2703347Y+1786191D02*
X+2638906Y+1759498D01*
X+2661150Y+1705798D01*
X+2676338Y+1699507D01*
X+2687079Y+1703955D01*
X+2693370Y+1719144D01*
X+2671127Y+1772845D01*
X+2693370Y+1719144D02*
X+2708559Y+1712853D01*
X+2730039Y+1721750D01*
X+2689685Y+1667286D02*
X+2683394Y+1652097D01*
X+2696740Y+1619877D01*
X+2711928Y+1613586D01*
X+2722669Y+1618034D01*
X+2728960Y+1633223D01*
X+2715614Y+1665443D01*
X+2721905Y+1680632D01*
X+2743385Y+1689530D01*
X+2765629Y+1635829D01*
X+2779738Y+1541011D02*
X+2753046Y+1605451D01*
X+2727880Y+1544696D01*
X+2792321Y+1571388D01*
D89*
X+2641226Y-1444521D02*
X+2817260Y-1019537D01*
X+3029752Y-1107554D01*
X+2853718Y-1532538D01*
X+2641226Y-1444521D01*
X+2881683Y-1295172D02*
X+2789295Y-1256903D01*
X+2854623Y-1229843D02*
X+2816355Y-1322231D01*
D90*
X+2921094Y-1160502D02*
X+2856653Y-1133809D01*
X+2834410Y-1187510D01*
X+2840701Y-1202699D01*
X+2851441Y-1207147D01*
X+2866630Y-1200856D01*
X+2888874Y-1147156D01*
X+2866630Y-1200856D02*
X+2872921Y-1216045D01*
X+2894402Y-1224942D01*
X+2827355Y-1234919D02*
X+2812166Y-1241211D01*
X+2798820Y-1273431D01*
X+2805111Y-1288620D01*
X+2815851Y-1293068D01*
X+2831040Y-1286777D01*
X+2844386Y-1254557D01*
X+2859575Y-1248265D01*
X+2881055Y-1257163D01*
X+2858812Y-1310863D01*
X+2758782Y-1370092D02*
X+2781026Y-1316392D01*
X+2802506Y-1325289D01*
X+2784711Y-1368249D01*
X+2791002Y-1383438D01*
X+2812483Y-1392336D01*
X+2827671Y-1386044D01*
X+2841017Y-1353824D01*
X+2834726Y-1338635D01*
D89*
X+2851226Y-944521D02*
X+3027260Y-519537D01*
X+3239752Y-607554D01*
X+3063718Y-1032538D01*
X+2851226Y-944521D01*
X+3091683Y-795172D02*
X+2999295Y-756903D01*
X+3064623Y-729843D02*
X+3026355Y-822231D01*
D90*
X+3131094Y-660502D02*
X+3066653Y-633809D01*
X+3044410Y-687510D01*
X+3050701Y-702699D01*
X+3061441Y-707147D01*
X+3076630Y-700856D01*
X+3098874Y-647156D01*
X+3076630Y-700856D02*
X+3082921Y-716045D01*
X+3104402Y-724942D01*
X+3037355Y-734919D02*
X+3022166Y-741211D01*
X+3008820Y-773431D01*
X+3015111Y-788620D01*
X+3025851Y-793068D01*
X+3041040Y-786777D01*
X+3054386Y-754557D01*
X+3069575Y-748265D01*
X+3091055Y-757163D01*
X+3068812Y-810863D01*
X+2979522Y-874541D02*
X+2973231Y-859352D01*
X+2986577Y-827132D01*
X+3001766Y-820840D01*
X+3044726Y-838635D01*
X+3051017Y-853824D01*
X+3037671Y-886044D01*
X+3022483Y-892336D01*
X+3011742Y-887887D01*
X+3005451Y-872698D01*
X+3023246Y-829738D01*
D89*
X-2876282Y-867462D02*
X-2700248Y-1292446D01*
X-2912740Y-1380463D01*
X-3088774Y-955479D01*
X-2876282Y-867462D01*
X-2940705Y-1143097D02*
X-2848317Y-1104828D01*
X-2875377Y-1170157D02*
X-2913645Y-1077769D01*
D90*
X-2915675Y-981735D02*
X-2980116Y-1008428D01*
X-2957872Y-1062128D01*
X-2942684Y-1068419D01*
X-2931943Y-1063971D01*
X-2925652Y-1048782D01*
X-2947895Y-995081D01*
X-2925652Y-1048782D02*
X-2910463Y-1055073D01*
X-2888983Y-1046176D01*
X-2929337Y-1100640D02*
X-2935628Y-1115829D01*
X-2922282Y-1148049D01*
X-2907094Y-1154340D01*
X-2896353Y-1149892D01*
X-2890062Y-1134703D01*
X-2874873Y-1140994D01*
X-2864133Y-1136546D01*
X-2857842Y-1121357D01*
X-2871188Y-1089137D01*
X-2886377Y-1082845D01*
X-2898959Y-1113223D02*
X-2890062Y-1134703D01*
X-2878559Y-1192852D02*
X-2891142Y-1223230D01*
X-2826701Y-1196538D01*
D89*
X-2676282Y-1367462D02*
X-2500248Y-1792446D01*
X-2712740Y-1880463D01*
X-2888774Y-1455479D01*
X-2676282Y-1367462D01*
X-2740705Y-1643097D02*
X-2648317Y-1604828D01*
X-2675377Y-1670157D02*
X-2713645Y-1577769D01*
D90*
X-2715675Y-1481735D02*
X-2780116Y-1508428D01*
X-2757872Y-1562128D01*
X-2742684Y-1568419D01*
X-2731943Y-1563971D01*
X-2725652Y-1548782D01*
X-2747895Y-1495081D01*
X-2725652Y-1548782D02*
X-2710463Y-1555073D01*
X-2688983Y-1546176D01*
X-2729337Y-1600640D02*
X-2735628Y-1615829D01*
X-2722282Y-1648049D01*
X-2707094Y-1654340D01*
X-2696353Y-1649892D01*
X-2690062Y-1634703D01*
X-2674873Y-1640994D01*
X-2664133Y-1636546D01*
X-2657842Y-1621357D01*
X-2671188Y-1589137D01*
X-2686377Y-1582845D01*
X-2698959Y-1613223D02*
X-2690062Y-1634703D01*
X-2693748Y-1686561D02*
X-2700039Y-1701750D01*
X-2686693Y-1733970D01*
X-2671505Y-1740261D01*
X-2660764Y-1735813D01*
X-2654473Y-1720624D01*
X-2667819Y-1688404D01*
X-2661528Y-1673215D01*
X-2640048Y-1664317D01*
X-2617804Y-1718018D01*
D31*
X-1234513Y+2416361D02*
X-1520804Y+2297775D01*
X-1632586Y+2567640D01*
X-1346294Y+2686226D01*
X-1234513Y+2416361D01*
D96*
X-1350626Y+2534733D02*
X-1370870Y+2543118D01*
X-1385184Y+2537189D01*
X-1393570Y+2516945D01*
X-1387640Y+2502630D01*
X-1367396Y+2494245D01*
X-1353082Y+2500174D01*
X-1344697Y+2520418D01*
X-1350626Y+2534733D01*
X-1373326Y+2508560D02*
X-1381711Y+2488316D01*
X-1422198Y+2505086D02*
X-1442442Y+2513472D01*
X-1424654Y+2470528D01*
X-1456249Y+2465827D02*
X-1468108Y+2494456D01*
X-1478229Y+2498649D01*
X-1506859Y+2486790D01*
X-1511051Y+2476668D01*
X-1499193Y+2448039D01*
X-1489071Y+2443846D01*
X-1460442Y+2455705D01*
X-1456249Y+2465827D01*
X-1453284Y+2458670D02*
X-1514016Y+2483825D01*
D31*
X+780804Y+2617775D02*
X+494513Y+2736361D01*
X+606294Y+3006226D01*
X+892586Y+2887640D01*
X+780804Y+2617775D01*
D96*
X+604697Y+2840418D02*
X+613082Y+2820174D01*
X+627397Y+2814245D01*
X+647641Y+2822630D01*
X+653570Y+2836945D01*
X+645185Y+2857189D01*
X+630870Y+2863118D01*
X+610626Y+2854733D01*
X+604697Y+2840418D01*
X+639256Y+2842874D02*
X+659499Y+2851260D01*
X+676270Y+2810772D02*
X+684655Y+2790528D01*
X+702443Y+2833472D01*
X+733529Y+2787055D02*
X+741914Y+2766811D01*
X+759702Y+2809755D01*
D31*
X+2336361Y+1374513D02*
X+2217775Y+1660804D01*
X+2487640Y+1772586D01*
X+2606226Y+1486294D01*
X+2336361Y+1374513D01*
D96*
X+2369267Y+1656472D02*
X+2360882Y+1636228D01*
X+2366811Y+1621914D01*
X+2387055Y+1613528D01*
X+2401370Y+1619458D01*
X+2409755Y+1639702D01*
X+2403826Y+1654016D01*
X+2383582Y+1662401D01*
X+2369267Y+1656472D01*
X+2395440Y+1633772D02*
X+2415684Y+1625387D01*
X+2398914Y+1584900D02*
X+2390528Y+1564656D01*
X+2433472Y+1582444D01*
X+2412509Y+1531833D02*
X+2408316Y+1521711D01*
X+2417210Y+1500239D01*
X+2427332Y+1496047D01*
X+2434489Y+1499011D01*
X+2438682Y+1509133D01*
X+2429788Y+1530605D01*
X+2433980Y+1540727D01*
X+2448295Y+1546656D01*
X+2463118Y+1510870D01*
D31*
X+2577775Y-720804D02*
X+2696361Y-434513D01*
X+2966226Y-546294D01*
X+2847640Y-832586D01*
X+2577775Y-720804D01*
D96*
X+2800418Y-544697D02*
X+2780174Y-553082D01*
X+2774245Y-567397D01*
X+2782630Y-587641D01*
X+2796945Y-593570D01*
X+2817189Y-585185D01*
X+2823118Y-570870D01*
X+2814733Y-550626D01*
X+2800418Y-544697D01*
X+2802874Y-579256D02*
X+2811260Y-599499D01*
X+2770772Y-616270D02*
X+2750528Y-624655D01*
X+2793472Y-642443D01*
X+2742862Y-663407D02*
X+2732740Y-667599D01*
X+2723846Y-689071D01*
X+2728039Y-699193D01*
X+2735196Y-702158D01*
X+2745318Y-697965D01*
X+2749511Y-708087D01*
X+2756668Y-711052D01*
X+2766790Y-706859D01*
X+2775684Y-685387D01*
X+2771491Y-675265D01*
X+2751248Y-683651D02*
X+2745318Y-697965D01*
D31*
X-2306361Y-1314513D02*
X-2187775Y-1600804D01*
X-2457640Y-1712586D01*
X-2576226Y-1426294D01*
X-2306361Y-1314513D01*
D96*
X-2424733Y-1430626D02*
X-2433118Y-1450870D01*
X-2427189Y-1465184D01*
X-2406945Y-1473570D01*
X-2392630Y-1467640D01*
X-2384245Y-1447396D01*
X-2390174Y-1433082D01*
X-2410418Y-1424697D01*
X-2424733Y-1430626D01*
X-2398560Y-1453326D02*
X-2378316Y-1461711D01*
X-2395086Y-1502198D02*
X-2403472Y-1522442D01*
X-2360528Y-1504654D01*
X-2366668Y-1591051D02*
X-2376790Y-1586859D01*
X-2385684Y-1565387D01*
X-2381491Y-1555265D01*
X-2352862Y-1543406D01*
X-2342740Y-1547599D01*
X-2333846Y-1569071D01*
X-2338039Y-1579193D01*
X-2345196Y-1582157D01*
X-2355318Y-1577965D01*
X-2367177Y-1549336D01*
D31*
X-1182863Y+2665805D02*
X-739678Y+2849379D01*
X-663018Y+2664307D01*
X-1106203Y+2480734D01*
X-1182863Y+2665805D01*
D98*
X-820307Y+2668539D02*
X-847904Y+2735165D01*
X-892321Y+2716767D01*
X-905330Y+2685360D01*
X-896131Y+2663151D01*
X-864723Y+2650141D01*
X-820307Y+2668539D01*
X-943243Y+2682665D02*
X-958946Y+2689170D01*
X-992259Y+2675371D01*
X-998763Y+2659668D01*
X-994164Y+2648564D01*
X-978460Y+2642059D01*
X-945148Y+2655858D01*
X-929444Y+2649352D01*
X-920245Y+2627144D01*
X-975766Y+2604146D01*
D31*
X+1063797Y+2739266D02*
X+1506982Y+2555693D01*
X+1430322Y+2370621D01*
X+987137Y+2554195D01*
X+1063797Y+2739266D01*
D98*
X+1172025Y+2625054D02*
X+1144428Y+2558428D01*
X+1188844Y+2540030D01*
X+1220251Y+2553040D01*
X+1229451Y+2575249D01*
X+1216441Y+2606656D01*
X+1172025Y+2625054D01*
X+1248965Y+2528137D02*
X+1255470Y+2512433D01*
X+1288782Y+2498635D01*
X+1304486Y+2505139D01*
X+1309085Y+2516244D01*
X+1302581Y+2531947D01*
X+1318285Y+2538453D01*
X+1322884Y+2549557D01*
X+1316380Y+2565260D01*
X+1283067Y+2579059D01*
X+1267364Y+2572554D01*
X+1280373Y+2541146D02*
X+1302581Y+2531947D01*
D31*
X+2645805Y+1262863D02*
X+2829379Y+819678D01*
X+2644307Y+743018D01*
X+2460734Y+1186203D01*
X+2645805Y+1262863D01*
D98*
X+2641573Y+1105573D02*
X+2574947Y+1077976D01*
X+2593345Y+1033559D01*
X+2624752Y+1020550D01*
X+2646961Y+1029749D01*
X+2659971Y+1061157D01*
X+2641573Y+1105573D01*
X+2683757Y+940915D02*
X+2656161Y+1007540D01*
X+2630141Y+944725D01*
X+2696767Y+972323D01*
D31*
X+2689266Y-1013797D02*
X+2505693Y-1456982D01*
X+2320621Y-1380322D01*
X+2504195Y-937137D01*
X+2689266Y-1013797D01*
D98*
X+2575054Y-1122025D02*
X+2508428Y-1094428D01*
X+2490030Y-1138844D01*
X+2503040Y-1170251D01*
X+2525249Y-1179451D01*
X+2556656Y-1166441D01*
X+2575054Y-1122025D01*
X+2444035Y-1249886D02*
X+2467033Y-1194366D01*
X+2489241Y-1203565D01*
X+2470843Y-1247981D01*
X+2477348Y-1263685D01*
X+2499557Y-1272884D01*
X+2515260Y-1266380D01*
X+2529059Y-1233067D01*
X+2522554Y-1217364D01*
D31*
X-2605805Y-1282863D02*
X-2789379Y-839678D01*
X-2604307Y-763018D01*
X-2420734Y-1206203D01*
X-2605805Y-1282863D01*
D98*
X-2608539Y-920307D02*
X-2675165Y-947904D01*
X-2656767Y-992321D01*
X-2625360Y-1005330D01*
X-2603151Y-996131D01*
X-2590141Y-964723D01*
X-2608539Y-920307D01*
X-2595858Y-1045148D02*
X-2611561Y-1038643D01*
X-2622665Y-1043243D01*
X-2629170Y-1058946D01*
X-2615371Y-1092259D01*
X-2599668Y-1098763D01*
X-2588564Y-1094164D01*
X-2582059Y-1078460D01*
X-2595858Y-1045148D01*
X-2589352Y-1029444D01*
X-2578248Y-1024845D01*
X-2562544Y-1031349D01*
X-2548746Y-1064661D01*
X-2555250Y-1080365D01*
X-2566355Y-1084965D01*
X-2582059Y-1078460D01*
D89*
X+245000Y+2545000D02*
X-215000Y+2545000D01*
X-215000Y+2775000D01*
X+245000Y+2775000D01*
X+245000Y+2545000D01*
X+15000Y+2710000D02*
X+15000Y+2610000D01*
X-35000Y+2660000D02*
X+65000Y+2660000D01*
D90*
X+154500Y+2625125D02*
X+154500Y+2694875D01*
X+96375Y+2694875D01*
X+84750Y+2683250D01*
X+84750Y+2671625D01*
X+96375Y+2660000D01*
X+154500Y+2660000D01*
X+96375Y+2660000D02*
X+84750Y+2648375D01*
X+84750Y+2625125D01*
X+49875Y+2683250D02*
X+38250Y+2694875D01*
X+3375Y+2694875D01*
X-8250Y+2683250D01*
X-8250Y+2671625D01*
X+3375Y+2660000D01*
X-8250Y+2648375D01*
X-8250Y+2636750D01*
X+3375Y+2625125D01*
X+38250Y+2625125D01*
X+49875Y+2636750D01*
X+26625Y+2660000D02*
X+3375Y+2660000D01*
X-43125Y+2683250D02*
X-54750Y+2694875D01*
X-89625Y+2694875D01*
X-101250Y+2683250D01*
X-101250Y+2671625D01*
X-89625Y+2660000D01*
X-101250Y+2648375D01*
X-101250Y+2636750D01*
X-89625Y+2625125D01*
X-54750Y+2625125D01*
X-43125Y+2636750D01*
X-66375Y+2660000D02*
X-89625Y+2660000D01*
D31*
X-1785191Y+1433349D02*
X-1490638Y+1727901D01*
X-1372099Y+1609362D01*
X-1666651Y+1314809D01*
X-1785191Y+1433349D01*
D97*
X-1550195Y+1521355D02*
X-1535969Y+1521355D01*
X-1514632Y+1542692D01*
X-1514633Y+1571141D01*
X-1528858Y+1585366D01*
X-1557307Y+1585367D01*
X-1578644Y+1564030D01*
X-1578644Y+1549804D01*
X-1599981Y+1514243D02*
X-1628431Y+1514243D01*
X-1585756Y+1471568D01*
D31*
X-1109473Y+1593454D02*
X-1404025Y+1888007D01*
X-1285486Y+2006546D01*
X-990933Y+1711994D01*
X-1109473Y+1593454D01*
D97*
X-1197479Y+1828450D02*
X-1197479Y+1842676D01*
X-1218816Y+1864013D01*
X-1247265Y+1864012D01*
X-1261490Y+1849787D01*
X-1261491Y+1821338D01*
X-1240154Y+1800001D01*
X-1225928Y+1800001D01*
X-1204591Y+1778664D02*
X-1204592Y+1764439D01*
X-1183255Y+1743102D01*
X-1169029Y+1743102D01*
X-1161917Y+1750214D01*
X-1161918Y+1764439D01*
X-1183255Y+1785776D01*
X-1183254Y+1800001D01*
X-1169029Y+1814226D01*
X-1133467Y+1778664D01*
D31*
X-1100639Y-1667901D02*
X-1395191Y-1373348D01*
X-1276652Y-1254809D01*
X-982099Y-1549361D01*
X-1100639Y-1667901D01*
D97*
X-1188645Y-1432905D02*
X-1188645Y-1418679D01*
X-1209982Y-1397342D01*
X-1238431Y-1397343D01*
X-1252656Y-1411568D01*
X-1252657Y-1440017D01*
X-1231320Y-1461354D01*
X-1217094Y-1461354D01*
X-1195757Y-1482691D02*
X-1195758Y-1496916D01*
X-1174421Y-1518253D01*
X-1160195Y-1518253D01*
X-1153083Y-1511141D01*
X-1153084Y-1496916D01*
X-1138858Y-1496916D01*
X-1131746Y-1489804D01*
X-1131746Y-1475578D01*
X-1153083Y-1454241D01*
X-1167308Y-1454242D01*
X-1167308Y-1482692D02*
X-1153084Y-1496916D01*
D31*
X-1500639Y-2017901D02*
X-1795191Y-1723348D01*
X-1676652Y-1604809D01*
X-1382099Y-1899361D01*
X-1500639Y-2017901D01*
D97*
X-1588645Y-1782905D02*
X-1588645Y-1768679D01*
X-1609982Y-1747342D01*
X-1638431Y-1747343D01*
X-1652656Y-1761568D01*
X-1652657Y-1790017D01*
X-1631320Y-1811354D01*
X-1617094Y-1811354D01*
X-1538858Y-1846916D02*
X-1581532Y-1804242D01*
X-1581533Y-1861141D01*
X-1538858Y-1818466D01*
D31*
X+3730000Y+5000D02*
X+3724161Y+213494D01*
X+3677111Y+630483D01*
X+3581154Y+1047472D01*
X+3432185Y+1464461D01*
X+3222850Y+1881450D01*
X+2940262Y+2298439D01*
X+2562518Y+2713270D01*
X+2145529Y+3053567D01*
X+1728540Y+3307277D01*
X+1311551Y+3493345D01*
X+894562Y+3622223D01*
X+477573Y+3699902D01*
X+60584Y+3729585D01*
X+5000Y+3730000D01*
X-3720000Y+5000D02*
X-3714161Y+213494D01*
X-3667111Y+630483D01*
X-3571154Y+1047472D01*
X-3422185Y+1464461D01*
X-3212850Y+1881450D01*
X-2930262Y+2298439D01*
X-2552518Y+2713270D01*
X-2135529Y+3053567D01*
X-1718540Y+3307277D01*
X-1301551Y+3493345D01*
X-884562Y+3622223D01*
X-467573Y+3699902D01*
X-50584Y+3729585D01*
X+5000Y+3730000D01*
X-3720000Y+5000D02*
X-3714161Y-203494D01*
X-3667111Y-620483D01*
X-3571154Y-1037472D01*
X-3422185Y-1454461D01*
X-3212850Y-1871450D01*
X-2930262Y-2288439D01*
X-2552518Y-2703270D01*
X-2135529Y-3043567D01*
X-1718540Y-3297277D01*
X-1301551Y-3483345D01*
X-884562Y-3612223D01*
X-467573Y-3689902D01*
X-50584Y-3719585D01*
X+5000Y-3720000D01*
X+3730000Y+5000D02*
X+3724161Y-203494D01*
X+3677111Y-620483D01*
X+3581154Y-1037472D01*
X+3432185Y-1454461D01*
X+3222850Y-1871450D01*
X+2940262Y-2288439D01*
X+2562518Y-2703270D01*
X+2145529Y-3043567D01*
X+1728540Y-3297277D01*
X+1311551Y-3483345D01*
X+894562Y-3612223D01*
X+477573Y-3689902D01*
X+60584Y-3719585D01*
X+5000Y-3720000D01*
X-2706203Y+1939266D02*
X-2263018Y+1755693D01*
X-2339678Y+1570621D01*
X-2782863Y+1754195D01*
X-2706203Y+1939266D01*
D98*
X-2597975Y+1825054D02*
X-2625572Y+1758428D01*
X-2581156Y+1740030D01*
X-2549749Y+1753040D01*
X-2540549Y+1775249D01*
X-2553559Y+1806656D01*
X-2597975Y+1825054D01*
X-2460915Y+1716244D02*
X-2467419Y+1731947D01*
X-2500732Y+1745746D01*
X-2516435Y+1739241D01*
X-2521035Y+1728137D01*
X-2514530Y+1712433D01*
X-2481218Y+1698635D01*
X-2465514Y+1705139D01*
X-2447116Y+1749557D01*
X-2453620Y+1765260D01*
X-2486933Y+1779059D01*
D31*
X-614195Y+3242863D02*
X-430621Y+2799678D01*
X-615693Y+2723018D01*
X-799266Y+3166203D01*
X-614195Y+3242863D01*
D99*
X-636777Y+3129663D02*
X-703255Y+3102127D01*
X-684898Y+3057809D01*
X-653560Y+3044828D01*
X-631401Y+3054007D01*
X-618420Y+3085345D01*
X-636777Y+3129663D01*
X-635202Y+3000510D02*
X-648183Y+2969172D01*
X-581705Y+2996708D01*
X-574427Y+2947800D02*
X-618746Y+2929443D01*
X-625237Y+2913774D01*
X-606880Y+2869456D01*
X-591210Y+2862965D01*
X-546891Y+2881322D01*
X-540402Y+2896992D01*
X-558759Y+2941310D01*
X-574427Y+2947800D01*
X-563348Y+2952389D02*
X-602290Y+2858376D01*
D31*
X+1889266Y+2716203D02*
X+1705693Y+2273018D01*
X+1520621Y+2349678D01*
X+1704195Y+2792863D01*
X+1889266Y+2716203D01*
D99*
X+1793255Y+2652128D02*
X+1726777Y+2679664D01*
X+1708420Y+2635345D01*
X+1721400Y+2604007D01*
X+1743560Y+2594829D01*
X+1774897Y+2607809D01*
X+1793255Y+2652128D01*
X+1703043Y+2559689D02*
X+1671705Y+2546708D01*
X+1738182Y+2519172D01*
X+1666329Y+2471052D02*
X+1634991Y+2458071D01*
X+1701468Y+2430535D01*
D31*
X+3202863Y+634195D02*
X+2759678Y+450621D01*
X+2683018Y+635693D01*
X+3126203Y+819266D01*
X+3202863Y+634195D01*
D99*
X+3089663Y+656777D02*
X+3062127Y+723255D01*
X+3017809Y+704898D01*
X+3004828Y+673560D01*
X+3014007Y+651401D01*
X+3045345Y+638420D01*
X+3089663Y+656777D01*
X+2960510Y+655202D02*
X+2929172Y+668183D01*
X+2956708Y+601705D01*
X+2878364Y+634157D02*
X+2862694Y+640647D01*
X+2829456Y+626880D01*
X+2822965Y+611210D01*
X+2827554Y+600131D01*
X+2843224Y+593640D01*
X+2876462Y+607408D01*
X+2892132Y+600918D01*
X+2901310Y+578759D01*
X+2845912Y+555812D01*
D31*
X+2696203Y-1849266D02*
X+2253018Y-1665693D01*
X+2329678Y-1480621D01*
X+2772863Y-1664195D01*
X+2696203Y-1849266D01*
D99*
X+2393752Y-1576633D02*
X+2366216Y-1643111D01*
X+2410535Y-1661468D01*
X+2441873Y-1648488D01*
X+2451051Y-1626328D01*
X+2438071Y-1594991D01*
X+2393752Y-1576633D01*
X+2486191Y-1666845D02*
X+2499172Y-1698183D01*
X+2526708Y-1631706D01*
X+2559159Y-1710049D02*
X+2565650Y-1725719D01*
X+2598888Y-1739486D01*
X+2614558Y-1732996D01*
X+2619147Y-1721917D01*
X+2612656Y-1706247D01*
X+2628325Y-1699757D01*
X+2632915Y-1688677D01*
X+2626424Y-1673009D01*
X+2593186Y-1659241D01*
X+2577516Y-1665731D01*
X+2590497Y-1697068D02*
X+2612656Y-1706247D01*
D31*
X-3152863Y-664195D02*
X-2709678Y-480621D01*
X-2633018Y-665693D01*
X-3076203Y-849266D01*
X-3152863Y-664195D01*
D99*
X-2746217Y-643111D02*
X-2773753Y-576633D01*
X-2818071Y-594990D01*
X-2831052Y-626328D01*
X-2821873Y-648487D01*
X-2790535Y-661468D01*
X-2746217Y-643111D01*
X-2875370Y-644686D02*
X-2906708Y-631705D01*
X-2879172Y-698183D01*
X-3012915Y-688678D02*
X-3006424Y-673008D01*
X-2973186Y-659241D01*
X-2957516Y-665731D01*
X-2939159Y-710050D01*
X-2945650Y-725718D01*
X-2978888Y-739486D01*
X-2994558Y-732997D01*
X-2999147Y-721916D01*
X-2992656Y-706248D01*
X-2948338Y-687890D01*
D89*
X+989515Y+2247835D02*
X+989429Y+2249911D01*
X+988727Y+2254064D01*
X+987257Y+2258217D01*
X+984855Y+2262370D01*
X+981182Y+2266469D01*
X+977029Y+2269478D01*
X+972876Y+2271395D01*
X+968723Y+2272478D01*
X+964570Y+2272835D01*
X+964515Y+2272835D01*
X+939515Y+2247835D02*
X+939601Y+2249911D01*
X+940303Y+2254064D01*
X+941773Y+2258217D01*
X+944175Y+2262370D01*
X+947848Y+2266469D01*
X+952001Y+2269478D01*
X+956154Y+2271395D01*
X+960307Y+2272478D01*
X+964460Y+2272835D01*
X+964515Y+2272835D01*
X+939515Y+2247835D02*
X+939601Y+2245759D01*
X+940303Y+2241606D01*
X+941773Y+2237453D01*
X+944175Y+2233300D01*
X+947848Y+2229201D01*
X+952001Y+2226192D01*
X+956154Y+2224275D01*
X+960307Y+2223192D01*
X+964460Y+2222835D01*
X+964515Y+2222835D01*
X+989515Y+2247835D02*
X+989429Y+2245759D01*
X+988727Y+2241606D01*
X+987257Y+2237453D01*
X+984855Y+2233300D01*
X+981182Y+2229201D01*
X+977029Y+2226192D01*
X+972876Y+2224275D01*
X+968723Y+2223192D01*
X+964570Y+2222835D01*
X+964515Y+2222835D01*
X+996851Y+2234441D02*
X+932179Y+2261229D01*
X+951121Y+2215499D02*
X+977909Y+2280171D01*
X+520284Y+2063828D02*
X+650396Y+2377947D01*
X+683250Y+2439585D01*
X+725836Y+2491532D01*
X+776528Y+2533113D01*
X+833698Y+2563656D01*
X+895720Y+2582484D01*
X+960966Y+2588926D01*
X+1027811Y+2582308D01*
X+1094627Y+2561954D01*
X+1156265Y+2529100D01*
X+1208212Y+2486514D01*
X+1249794Y+2435823D01*
X+1280336Y+2378652D01*
X+1299165Y+2316631D01*
X+1305606Y+2251384D01*
X+1298987Y+2184539D01*
X+1278634Y+2117723D01*
X+1245780Y+2056085D01*
X+1203194Y+2004138D01*
X+1152502Y+1962557D01*
X+1095332Y+1932014D01*
X+1033310Y+1913186D01*
X+968064Y+1906744D01*
X+901219Y+1913362D01*
X+834403Y+1933716D01*
X+520284Y+2063828D01*
D103*
X+939800Y+2307502D02*
X+927443Y+2337335D01*
X+864157Y+2363548D01*
X+804491Y+2338833D01*
X+787016Y+2296643D01*
X+811730Y+2236977D01*
X+875015Y+2210763D01*
X+904848Y+2223120D01*
X+1006704Y+2230360D02*
X+976872Y+2218003D01*
X+968134Y+2196907D01*
X+980491Y+2167074D01*
X+1043776Y+2140860D01*
X+1073609Y+2153217D01*
X+1082347Y+2174313D01*
X+1069990Y+2204146D01*
X+1006704Y+2230360D01*
X+994347Y+2260192D01*
X+1003086Y+2281288D01*
X+1032918Y+2293645D01*
X+1096204Y+2267432D01*
X+1108561Y+2237599D01*
X+1099823Y+2216503D01*
X+1069990Y+2204146D01*
D89*
X-795000Y+2270000D02*
X-795086Y+2272076D01*
X-795788Y+2276229D01*
X-797258Y+2280382D01*
X-799660Y+2284535D01*
X-803333Y+2288634D01*
X-807486Y+2291643D01*
X-811639Y+2293560D01*
X-815792Y+2294643D01*
X-819945Y+2295000D01*
X-820000Y+2295000D01*
X-845000Y+2270000D02*
X-844914Y+2272076D01*
X-844212Y+2276229D01*
X-842742Y+2280382D01*
X-840340Y+2284535D01*
X-836667Y+2288634D01*
X-832514Y+2291643D01*
X-828361Y+2293560D01*
X-824208Y+2294643D01*
X-820055Y+2295000D01*
X-820000Y+2295000D01*
X-845000Y+2270000D02*
X-844914Y+2267924D01*
X-844212Y+2263771D01*
X-842742Y+2259618D01*
X-840340Y+2255465D01*
X-836667Y+2251366D01*
X-832514Y+2248357D01*
X-828361Y+2246440D01*
X-824208Y+2245357D01*
X-820055Y+2245000D01*
X-820000Y+2245000D01*
X-795000Y+2270000D02*
X-795086Y+2267924D01*
X-795788Y+2263771D01*
X-797258Y+2259618D01*
X-799660Y+2255465D01*
X-803333Y+2251366D01*
X-807486Y+2248357D01*
X-811639Y+2246440D01*
X-815792Y+2245357D01*
X-819945Y+2245000D01*
X-820000Y+2245000D01*
X-852336Y+2256606D02*
X-787664Y+2283394D01*
X-833394Y+2302336D02*
X-806606Y+2237664D01*
X-635993Y+2714231D02*
X-505881Y+2400112D01*
X-485528Y+2333296D01*
X-478909Y+2266451D01*
X-485351Y+2201204D01*
X-504180Y+2139182D01*
X-534722Y+2082012D01*
X-576303Y+2031321D01*
X-628250Y+1988735D01*
X-689888Y+1955881D01*
X-756704Y+1935527D01*
X-823549Y+1928909D01*
X-888796Y+1935351D01*
X-950818Y+1954180D01*
X-1007988Y+1984722D01*
X-1058679Y+2026303D01*
X-1101265Y+2078250D01*
X-1134119Y+2139888D01*
X-1154472Y+2206704D01*
X-1161091Y+2273549D01*
X-1154649Y+2338796D01*
X-1135820Y+2400818D01*
X-1105278Y+2457988D01*
X-1063697Y+2508679D01*
X-1011750Y+2551265D01*
X-950112Y+2584119D01*
X-635993Y+2714231D01*
D104*
X-711964Y+2277678D02*
X-689589Y+2268410D01*
X-642125Y+2288070D01*
X-623589Y+2332820D01*
X-636696Y+2364463D01*
X-681446Y+2382999D01*
X-728910Y+2363338D01*
X-738178Y+2340963D01*
X-794910Y+2298928D02*
X-839659Y+2317464D01*
X-800339Y+2222535D01*
X-870178Y+2212143D02*
X-896392Y+2275429D01*
X-918767Y+2284697D01*
X-982053Y+2258483D01*
X-991321Y+2236108D01*
X-965107Y+2172823D01*
X-942732Y+2163555D01*
X-879446Y+2189768D01*
X-870178Y+2212143D01*
X-863625Y+2196322D02*
X-997874Y+2251930D01*
D31*
X+966180Y+1384240D02*
X+1133820Y+1384240D01*
X+1133820Y+1800800D01*
X+966180Y+1800800D01*
X+966180Y+1384240D01*
D97*
X+1070117Y+1612637D02*
X+1080176Y+1622696D01*
X+1080176Y+1652871D01*
X+1060059Y+1672987D01*
X+1039942Y+1672987D01*
X+1019825Y+1652871D01*
X+1019825Y+1622696D01*
X+1029884Y+1612637D01*
X+1019825Y+1532170D02*
X+1019825Y+1582462D01*
X+1039942Y+1582462D01*
X+1039942Y+1542229D01*
X+1050000Y+1532170D01*
X+1070117Y+1532170D01*
X+1080176Y+1542229D01*
X+1080176Y+1572404D01*
X+1070117Y+1582462D01*
D89*
X+1585000Y+1215000D02*
X+1585000Y+1675000D01*
X+1815000Y+1675000D01*
X+1815000Y+1215000D01*
X+1585000Y+1215000D01*
X+1750000Y+1445000D02*
X+1650000Y+1445000D01*
X+1700000Y+1495000D02*
X+1700000Y+1395000D01*
D90*
X+1734875Y+1584500D02*
X+1665125Y+1584500D01*
X+1665125Y+1526375D01*
X+1676750Y+1514750D01*
X+1688375Y+1514750D01*
X+1700000Y+1526375D01*
X+1700000Y+1584500D01*
X+1700000Y+1526375D02*
X+1711625Y+1514750D01*
X+1734875Y+1514750D01*
X+1676750Y+1479875D02*
X+1665125Y+1468250D01*
X+1665125Y+1433375D01*
X+1676750Y+1421750D01*
X+1688375Y+1421750D01*
X+1700000Y+1433375D01*
X+1711625Y+1421750D01*
X+1723250Y+1421750D01*
X+1734875Y+1433375D01*
X+1734875Y+1468250D01*
X+1723250Y+1479875D01*
X+1700000Y+1456625D02*
X+1700000Y+1433375D01*
X+1665125Y+1328750D02*
X+1665125Y+1386875D01*
X+1688375Y+1386875D01*
X+1688375Y+1340375D01*
X+1700000Y+1328750D01*
X+1723250Y+1328750D01*
X+1734875Y+1340375D01*
X+1734875Y+1375250D01*
X+1723250Y+1386875D01*
D31*
X-209850Y-650160D02*
X+269850Y-650160D01*
X+269850Y-449840D01*
X-209850Y-449840D01*
X-209850Y-650160D01*
D99*
X+173910Y-585977D02*
X+173910Y-514022D01*
X+125940Y-514022D01*
X+101955Y-538007D01*
X+101955Y-561992D01*
X+125940Y-585977D01*
X+173910Y-585977D01*
X+53985Y-538007D02*
X+30000Y-514022D01*
X+30000Y-585977D01*
X-29962Y-514022D02*
X-89925Y-514022D01*
X-89925Y-526015D01*
X-29962Y-585977D01*
D31*
X+1626180Y+789200D02*
X+1793820Y+789200D01*
X+1793820Y+1205760D01*
X+1626180Y+1205760D01*
X+1626180Y+789200D01*
D97*
X+1730117Y+1057830D02*
X+1740176Y+1067889D01*
X+1740176Y+1098064D01*
X+1720059Y+1118180D01*
X+1699942Y+1118180D01*
X+1679825Y+1098064D01*
X+1679825Y+1067889D01*
X+1689884Y+1057830D01*
X+1699942Y+1017597D02*
X+1679825Y+997480D01*
X+1740176Y+997480D01*
X+1699942Y+937130D02*
X+1679825Y+917013D01*
X+1740176Y+917013D01*
M02*
