G04 PROTEUS RS274X GERBER FILE*
%FSLAX45Y45*%
%MOMM*%
G01*
%ADD10C,1.016000*%
%ADD11R,2.032000X2.032000*%
%AMPPAD002*
4,1,4,
-1.167430,0.269410,
-0.269410,1.167430,
1.167430,-0.269410,
0.269410,-1.167430,
-1.167430,0.269410,
0*%
%ADD12PPAD002*%
%ADD13R,2.032000X1.270000*%
%AMPPAD004*
4,1,4,
-0.269410,-1.167430,
-1.167430,-0.269410,
0.269410,1.167430,
1.167430,0.269410,
-0.269410,-1.167430,
0*%
%ADD14PPAD004*%
%ADD15R,1.270000X2.032000*%
%ADD16C,0.203200*%
G36*
X+300941Y+2800000D02*
X+300941Y+2758968D01*
X+358969Y+2700940D01*
X+1118768Y+2700940D01*
X+2700940Y+1118768D01*
X+2700940Y-1118768D01*
X+1118768Y-2700940D01*
X-1118768Y-2700940D01*
X-2700940Y-1118768D01*
X-2700940Y+1118768D01*
X-1118768Y+2700940D01*
X-364575Y+2700940D01*
X-383028Y+2682487D01*
X-673550Y+2682487D01*
X-988937Y+2367102D01*
X-1439505Y+1916534D01*
X-1448212Y+1908001D01*
X-1484809Y+1944598D01*
X-1912466Y+1516941D01*
X-1876544Y+1481020D01*
X-2389699Y+967865D01*
X-2389699Y+302399D01*
X-2440499Y+302399D01*
X-2440499Y-302399D01*
X-2389699Y-302399D01*
X-2389699Y-974595D01*
X-1896196Y-1468098D01*
X-1891950Y-1472161D01*
X-1924598Y-1504809D01*
X-1496941Y-1932466D01*
X-1461020Y-1896544D01*
X-977865Y-2379699D01*
X-322399Y-2379699D01*
X-322399Y-2430499D01*
X+282399Y-2430499D01*
X+282399Y-2049501D01*
X-322399Y-2049501D01*
X-322399Y-2100301D01*
X-862135Y-2100301D01*
X-1263456Y-1698980D01*
X-1227534Y-1663059D01*
X-1655191Y-1235402D01*
X-1694135Y-1274346D01*
X-1702061Y-1267105D01*
X-2110301Y-858865D01*
X-2110301Y-302399D01*
X-2059501Y-302399D01*
X-2059501Y+302399D01*
X-2110301Y+302399D01*
X-2110301Y+852135D01*
X-1678980Y+1283456D01*
X-1643059Y+1247534D01*
X-1215402Y+1675191D01*
X-1250600Y+1710389D01*
X-1242613Y+1718298D01*
X-988937Y+1971974D01*
X-988937Y+1949281D01*
X-846692Y+1807036D01*
X-846692Y+1470872D01*
X-938888Y+1378676D01*
X-974809Y+1414598D01*
X-1402466Y+986941D01*
X-1366544Y+951020D01*
X-1639699Y+677865D01*
X-1639699Y+322399D01*
X-1690499Y+322399D01*
X-1690499Y-282399D01*
X-1639699Y-282399D01*
X-1639699Y-680049D01*
X-1382131Y-937617D01*
X-1375156Y-945367D01*
X-1414598Y-984809D01*
X-986941Y-1412466D01*
X-951020Y-1376544D01*
X-667865Y-1659699D01*
X-322399Y-1659699D01*
X-322399Y-1710499D01*
X+282399Y-1710499D01*
X+282399Y-1329501D01*
X-322399Y-1329501D01*
X-322399Y-1380301D01*
X-552135Y-1380301D01*
X-753456Y-1178980D01*
X-717534Y-1143059D01*
X-1145191Y-715402D01*
X-1177291Y-747502D01*
X-1180575Y-744045D01*
X-1360301Y-564319D01*
X-1360301Y-282399D01*
X-1309501Y-282399D01*
X-1309501Y+322399D01*
X-1360301Y+322399D01*
X-1360301Y+562135D01*
X-1168980Y+753456D01*
X-1133059Y+717534D01*
X-705402Y+1145191D01*
X-741324Y+1181112D01*
X-567294Y+1355142D01*
X-567294Y+1922766D01*
X-709539Y+2065011D01*
X-709539Y+2251373D01*
X-557823Y+2403089D01*
X-475138Y+2403089D01*
X-475138Y+1627574D01*
X-312399Y+1464835D01*
X-312399Y+1319501D01*
X+292399Y+1319501D01*
X+292399Y+1370301D01*
X+552135Y+1370301D01*
X+779388Y+1143048D01*
X+785853Y+1135642D01*
X+745402Y+1095191D01*
X+1173059Y+667534D01*
X+1208980Y+703456D01*
X+1350301Y+562135D01*
X+1350301Y+292399D01*
X+1299501Y+292399D01*
X+1299501Y-312399D01*
X+1350301Y-312399D01*
X+1350301Y-572135D01*
X+1131112Y-791324D01*
X+1095191Y-755402D01*
X+667534Y-1183059D01*
X+936941Y-1452466D01*
X+1364598Y-1024809D01*
X+1328676Y-988888D01*
X+1629699Y-687865D01*
X+1629699Y-312399D01*
X+1680499Y-312399D01*
X+1680499Y+292399D01*
X+1629699Y+292399D01*
X+1629699Y+677865D01*
X+1406544Y+901020D01*
X+1442466Y+936941D01*
X+1014809Y+1364598D01*
X+983829Y+1333618D01*
X+982116Y+1335448D01*
X+667865Y+1649699D01*
X+292399Y+1649699D01*
X+292399Y+1700499D01*
X-152935Y+1700499D01*
X-195740Y+1743304D01*
X-195740Y+2049501D01*
X+282399Y+2049501D01*
X+282399Y+2100301D01*
X+852135Y+2100301D01*
X+1281324Y+1671112D01*
X+1245402Y+1635191D01*
X+1673059Y+1207534D01*
X+1708980Y+1243456D01*
X+2120301Y+832135D01*
X+2120301Y+282399D01*
X+2069501Y+282399D01*
X+2069501Y-322399D01*
X+2120301Y-322399D01*
X+2120301Y-872135D01*
X+1671112Y-1321324D01*
X+1635191Y-1285402D01*
X+1207534Y-1713059D01*
X+1476941Y-1982466D01*
X+1904598Y-1554809D01*
X+1868676Y-1518888D01*
X+2399699Y-987865D01*
X+2399699Y-322399D01*
X+2450499Y-322399D01*
X+2450499Y+282399D01*
X+2399699Y+282399D01*
X+2399699Y+947865D01*
X+1906544Y+1441020D01*
X+1942466Y+1476941D01*
X+1514809Y+1904598D01*
X+1478888Y+1868676D01*
X+967865Y+2379699D01*
X+282399Y+2379699D01*
X+282399Y+2430499D01*
X-195740Y+2430499D01*
X-195740Y+2474647D01*
X-10301Y+2660086D01*
X-10301Y+2759501D01*
X+294499Y+2759501D01*
X+294499Y+3100941D01*
X+300941Y+3100941D01*
X+300941Y+2800000D01*
G37*
%LPC*%
G36*
X+4998Y+1098932D02*
X+4998Y+1098933D01*
X+110810Y+1093587D01*
X+118957Y+1092341D01*
X+221032Y+1076735D01*
X+225922Y+1075469D01*
X+329564Y+1048620D01*
X+334325Y+1046851D01*
X+435268Y+1009338D01*
X+439846Y+1007077D01*
X+537004Y+959089D01*
X+541358Y+956345D01*
X+633679Y+898152D01*
X+637754Y+894945D01*
X+724225Y+826880D01*
X+727965Y+823238D01*
X+807577Y+745695D01*
X+882747Y+654987D01*
X+948787Y+555036D01*
X+951281Y+550170D01*
X+1004760Y+445805D01*
X+1006749Y+440515D01*
X+1049762Y+326090D01*
X+1082869Y+189556D01*
X+1083521Y+182100D01*
X+1099437Y+0D01*
X+1082869Y-189556D01*
X+1081108Y-196819D01*
X+1049762Y-326090D01*
X+1004760Y-445805D01*
X+1002183Y-450835D01*
X+948787Y-555036D01*
X+945770Y-559603D01*
X+882747Y-654987D01*
X+807577Y-745695D01*
X+724225Y-826880D01*
X+720116Y-830115D01*
X+633679Y-898152D01*
X+603502Y-917174D01*
X+537004Y-959089D01*
X+435268Y-1009338D01*
X+329564Y-1048620D01*
X+221032Y-1076735D01*
X+216051Y-1077497D01*
X+110810Y-1093587D01*
X+0Y-1099185D01*
X-4998Y-1098933D01*
X-110810Y-1093587D01*
X-118957Y-1092341D01*
X-221032Y-1076735D01*
X-225922Y-1075469D01*
X-329564Y-1048620D01*
X-334325Y-1046851D01*
X-435268Y-1009338D01*
X-439846Y-1007077D01*
X-537004Y-959089D01*
X-541358Y-956345D01*
X-633679Y-898152D01*
X-637754Y-894945D01*
X-724225Y-826880D01*
X-727965Y-823238D01*
X-807577Y-745695D01*
X-882747Y-654987D01*
X-948787Y-555036D01*
X-951281Y-550170D01*
X-1004760Y-445805D01*
X-1006749Y-440515D01*
X-1049762Y-326090D01*
X-1082869Y-189556D01*
X-1083521Y-182100D01*
X-1099437Y+0D01*
X-1082869Y+189556D01*
X-1081108Y+196819D01*
X-1049762Y+326090D01*
X-1004760Y+445805D01*
X-1002183Y+450835D01*
X-948787Y+555036D01*
X-945770Y+559603D01*
X-882747Y+654987D01*
X-807577Y+745695D01*
X-724225Y+826880D01*
X-720116Y+830115D01*
X-633679Y+898152D01*
X-603502Y+917174D01*
X-537004Y+959089D01*
X-435268Y+1009338D01*
X-329564Y+1048620D01*
X-221032Y+1076735D01*
X-216051Y+1077497D01*
X-110810Y+1093587D01*
X+0Y+1099185D01*
X+4998Y+1098932D01*
G37*
%LPD*%
D10*
X-849238Y+2309237D02*
X-849238Y+2309238D01*
X-849238Y+2309237D02*
X-1341125Y+1817350D01*
X-1457868Y+1702132D01*
X-1670000Y+1490000D02*
X-2250000Y+910000D01*
X-2250000Y+150000D01*
X-2250000Y-150000D02*
X-2250000Y-916730D01*
X-1798875Y-1367855D01*
X-1682132Y-1477868D01*
X-1470000Y-1690000D02*
X-920000Y-2240000D01*
X-170000Y-2240000D01*
X-947868Y+1172132D02*
X-706993Y+1413007D01*
X-706993Y+1864901D01*
X-849238Y+2007146D01*
X-849238Y+2309237D01*
X-1160000Y+960000D02*
X-1500000Y+620000D01*
X-1500000Y+170000D01*
X-1500000Y-130000D02*
X-1500000Y-622184D01*
X-1281059Y-841125D01*
X-1172132Y-957868D01*
X-960000Y-1170000D02*
X-610000Y-1520000D01*
X-170000Y-1520000D01*
X+140000Y+1510000D02*
X+610000Y+1510000D01*
X+881125Y+1238875D01*
X+987868Y+1122132D01*
X+130000Y+2240000D02*
X+910000Y+2240000D01*
X+1487868Y+1662132D01*
X-150000Y+2950000D02*
X-150000Y+2717951D01*
X-325163Y+2542788D01*
X-335439Y+2542788D01*
X-615687Y+2542788D01*
X-849238Y+2309238D01*
X-170000Y+2240000D02*
X-330546Y+2240000D01*
X-335439Y+2235107D01*
X-160000Y+1510000D02*
X-335439Y+1685439D01*
X-335439Y+2235107D01*
X-335439Y+2542788D01*
X+1122132Y-997868D02*
X+1490000Y-630000D01*
X+1490000Y-160000D01*
X+1490000Y+140000D02*
X+1490000Y+620000D01*
X+1200000Y+910000D01*
X+1700000Y+1450000D02*
X+2260000Y+890000D01*
X+2260000Y+130000D01*
X+2260000Y-170000D02*
X+2260000Y-930000D01*
X+1662132Y-1527868D01*
X+300941Y+2800000D02*
X+300941Y+2758968D01*
X+358969Y+2700940D01*
X+1118768Y+2700940D01*
X+2700940Y+1118768D01*
X+2700940Y-1118768D01*
X+1118768Y-2700940D01*
X-1118768Y-2700940D01*
X-2700940Y-1118768D01*
X-2700940Y+1118768D01*
X-1118768Y+2700940D01*
X-364575Y+2700940D01*
X-383028Y+2682487D01*
X-673550Y+2682487D01*
X-988937Y+2367102D01*
X-1439505Y+1916534D01*
X-1448212Y+1908001D01*
X-1484809Y+1944598D01*
X-1912466Y+1516941D01*
X-1876544Y+1481020D01*
X-2389699Y+967865D01*
X-2389699Y+302399D01*
X-2440499Y+302399D01*
X-2440499Y-302399D01*
X-2389699Y-302399D01*
X-2389699Y-974595D01*
X-1896196Y-1468098D01*
X-1891950Y-1472161D01*
X-1924598Y-1504809D01*
X-1496941Y-1932466D01*
X-1461020Y-1896544D01*
X-977865Y-2379699D01*
X-322399Y-2379699D01*
X-322399Y-2430499D01*
X+282399Y-2430499D01*
X+282399Y-2049501D01*
X-322399Y-2049501D01*
X-322399Y-2100301D01*
X-862135Y-2100301D01*
X-1263456Y-1698980D01*
X-1227534Y-1663059D01*
X-1655191Y-1235402D01*
X-1694135Y-1274346D01*
X-1702061Y-1267105D01*
X-2110301Y-858865D01*
X-2110301Y-302399D01*
X-2059501Y-302399D01*
X-2059501Y+302399D01*
X-2110301Y+302399D01*
X-2110301Y+852135D01*
X-1678980Y+1283456D01*
X-1643059Y+1247534D01*
X-1215402Y+1675191D01*
X-1250600Y+1710389D01*
X-1242613Y+1718298D01*
X-988937Y+1971974D01*
X-988937Y+1949281D01*
X-846692Y+1807036D01*
X-846692Y+1470872D01*
X-938888Y+1378676D01*
X-974809Y+1414598D01*
X-1402466Y+986941D01*
X-1366544Y+951020D01*
X-1639699Y+677865D01*
X-1639699Y+322399D01*
X-1690499Y+322399D01*
X-1690499Y-282399D01*
X-1639699Y-282399D01*
X-1639699Y-680049D01*
X-1382131Y-937617D01*
X-1375156Y-945367D01*
X-1414598Y-984809D01*
X-986941Y-1412466D01*
X-951020Y-1376544D01*
X-667865Y-1659699D01*
X-322399Y-1659699D01*
X-322399Y-1710499D01*
X+282399Y-1710499D01*
X+282399Y-1329501D01*
X-322399Y-1329501D01*
X-322399Y-1380301D01*
X-552135Y-1380301D01*
X-753456Y-1178980D01*
X-717534Y-1143059D01*
X-1145191Y-715402D01*
X-1177291Y-747502D01*
X-1180575Y-744045D01*
X-1360301Y-564319D01*
X-1360301Y-282399D01*
X-1309501Y-282399D01*
X-1309501Y+322399D01*
X-1360301Y+322399D01*
X-1360301Y+562135D01*
X-1168980Y+753456D01*
X-1133059Y+717534D01*
X-705402Y+1145191D01*
X-741324Y+1181112D01*
X-567294Y+1355142D01*
X-567294Y+1922766D01*
X-709539Y+2065011D01*
X-709539Y+2251373D01*
X-557823Y+2403089D01*
X-475138Y+2403089D01*
X-475138Y+1627574D01*
X-312399Y+1464835D01*
X-312399Y+1319501D01*
X+292399Y+1319501D01*
X+292399Y+1370301D01*
X+552135Y+1370301D01*
X+779388Y+1143048D01*
X+785853Y+1135642D01*
X+745402Y+1095191D01*
X+1173059Y+667534D01*
X+1208980Y+703456D01*
X+1350301Y+562135D01*
X+1350301Y+292399D01*
X+1299501Y+292399D01*
X+1299501Y-312399D01*
X+1350301Y-312399D01*
X+1350301Y-572135D01*
X+1131112Y-791324D01*
X+1095191Y-755402D01*
X+667534Y-1183059D01*
X+936941Y-1452466D01*
X+1364598Y-1024809D01*
X+1328676Y-988888D01*
X+1629699Y-687865D01*
X+1629699Y-312399D01*
X+1680499Y-312399D01*
X+1680499Y+292399D01*
X+1629699Y+292399D01*
X+1629699Y+677865D01*
X+1406544Y+901020D01*
X+1442466Y+936941D01*
X+1014809Y+1364598D01*
X+983829Y+1333618D01*
X+982116Y+1335448D01*
X+667865Y+1649699D01*
X+292399Y+1649699D01*
X+292399Y+1700499D01*
X-152935Y+1700499D01*
X-195740Y+1743304D01*
X-195740Y+2049501D01*
X+282399Y+2049501D01*
X+282399Y+2100301D01*
X+852135Y+2100301D01*
X+1281324Y+1671112D01*
X+1245402Y+1635191D01*
X+1673059Y+1207534D01*
X+1708980Y+1243456D01*
X+2120301Y+832135D01*
X+2120301Y+282399D01*
X+2069501Y+282399D01*
X+2069501Y-322399D01*
X+2120301Y-322399D01*
X+2120301Y-872135D01*
X+1671112Y-1321324D01*
X+1635191Y-1285402D01*
X+1207534Y-1713059D01*
X+1476941Y-1982466D01*
X+1904598Y-1554809D01*
X+1868676Y-1518888D01*
X+2399699Y-987865D01*
X+2399699Y-322399D01*
X+2450499Y-322399D01*
X+2450499Y+282399D01*
X+2399699Y+282399D01*
X+2399699Y+947865D01*
X+1906544Y+1441020D01*
X+1942466Y+1476941D01*
X+1514809Y+1904598D01*
X+1478888Y+1868676D01*
X+967865Y+2379699D01*
X+282399Y+2379699D01*
X+282399Y+2430499D01*
X-195740Y+2430499D01*
X-195740Y+2474647D01*
X-10301Y+2660086D01*
X-10301Y+2759501D01*
X+294499Y+2759501D01*
X+294499Y+3100941D01*
X+300941Y+3100941D01*
X+300941Y+2800000D01*
X+4998Y+1098932D02*
X+4998Y+1098933D01*
X+110810Y+1093587D01*
X+118957Y+1092341D01*
X+221032Y+1076735D01*
X+225922Y+1075469D01*
X+329564Y+1048620D01*
X+334325Y+1046851D01*
X+435268Y+1009338D01*
X+439846Y+1007077D01*
X+537004Y+959089D01*
X+541358Y+956345D01*
X+633679Y+898152D01*
X+637754Y+894945D01*
X+724225Y+826880D01*
X+727965Y+823238D01*
X+807577Y+745695D01*
X+882747Y+654987D01*
X+948787Y+555036D01*
X+951281Y+550170D01*
X+1004760Y+445805D01*
X+1006749Y+440515D01*
X+1049762Y+326090D01*
X+1082869Y+189556D01*
X+1083521Y+182100D01*
X+1099437Y+0D01*
X+1082869Y-189556D01*
X+1081108Y-196819D01*
X+1049762Y-326090D01*
X+1004760Y-445805D01*
X+1002183Y-450835D01*
X+948787Y-555036D01*
X+945770Y-559603D01*
X+882747Y-654987D01*
X+807577Y-745695D01*
X+724225Y-826880D01*
X+720116Y-830115D01*
X+633679Y-898152D01*
X+603502Y-917174D01*
X+537004Y-959089D01*
X+435268Y-1009338D01*
X+329564Y-1048620D01*
X+221032Y-1076735D01*
X+216051Y-1077497D01*
X+110810Y-1093587D01*
X+0Y-1099185D01*
X-4998Y-1098933D01*
X-110810Y-1093587D01*
X-118957Y-1092341D01*
X-221032Y-1076735D01*
X-225922Y-1075469D01*
X-329564Y-1048620D01*
X-334325Y-1046851D01*
X-435268Y-1009338D01*
X-439846Y-1007077D01*
X-537004Y-959089D01*
X-541358Y-956345D01*
X-633679Y-898152D01*
X-637754Y-894945D01*
X-724225Y-826880D01*
X-727965Y-823238D01*
X-807577Y-745695D01*
X-882747Y-654987D01*
X-948787Y-555036D01*
X-951281Y-550170D01*
X-1004760Y-445805D01*
X-1006749Y-440515D01*
X-1049762Y-326090D01*
X-1082869Y-189556D01*
X-1083521Y-182100D01*
X-1099437Y+0D01*
X-1082869Y+189556D01*
X-1081108Y+196819D01*
X-1049762Y+326090D01*
X-1004760Y+445805D01*
X-1002183Y+450835D01*
X-948787Y+555036D01*
X-945770Y+559603D01*
X-882747Y+654987D01*
X-807577Y+745695D01*
X-724225Y+826880D01*
X-720116Y+830115D01*
X-633679Y+898152D01*
X-603502Y+917174D01*
X-537004Y+959089D01*
X-435268Y+1009338D01*
X-329564Y+1048620D01*
X-221032Y+1076735D01*
X-216051Y+1077497D01*
X-110810Y+1093587D01*
X+0Y+1099185D01*
X+4998Y+1098932D01*
X+294499Y+2950000D02*
X+104000Y+2950000D01*
X+104000Y+2759501D02*
X+104000Y+2950000D01*
X+282399Y-2240000D02*
X+130000Y-2240000D01*
X+130000Y-2049501D02*
X+130000Y-2240000D01*
X+130000Y-2430499D02*
X+130000Y-2240000D01*
X+282399Y-1520000D02*
X+130000Y-1520000D01*
X+130000Y-1329501D02*
X+130000Y-1520000D01*
X+130000Y-1710499D02*
X+130000Y-1520000D01*
X+802237Y-1317762D02*
X+910000Y-1210000D01*
X+1044703Y-1344703D02*
X+910000Y-1210000D01*
X+775296Y-1075296D02*
X+910000Y-1210000D01*
X+1342237Y-1847762D02*
X+1450000Y-1740000D01*
X+1584703Y-1874703D02*
X+1450000Y-1740000D01*
X+1315296Y-1605296D02*
X+1450000Y-1740000D01*
D11*
X-150000Y+2950000D03*
X+104000Y+2950000D03*
D12*
X-1457868Y+1702132D03*
X-1670000Y+1490000D03*
D13*
X-2250000Y+150000D03*
X-2250000Y-150000D03*
D14*
X-1682132Y-1477868D03*
X-1470000Y-1690000D03*
D15*
X-170000Y-2240000D03*
X+130000Y-2240000D03*
D12*
X-947868Y+1172132D03*
X-1160000Y+960000D03*
D13*
X-1500000Y+170000D03*
X-1500000Y-130000D03*
D14*
X-1172132Y-957868D03*
X-960000Y-1170000D03*
D15*
X-170000Y-1520000D03*
X+130000Y-1520000D03*
X-170000Y+2240000D03*
X+130000Y+2240000D03*
X-160000Y+1510000D03*
X+140000Y+1510000D03*
D14*
X+1487868Y+1662132D03*
X+1700000Y+1450000D03*
X+987868Y+1122132D03*
X+1200000Y+910000D03*
D13*
X+2260000Y+130000D03*
X+2260000Y-170000D03*
X+1490000Y+140000D03*
X+1490000Y-160000D03*
D12*
X+1122132Y-997868D03*
X+910000Y-1210000D03*
X+1662132Y-1527868D03*
X+1450000Y-1740000D03*
D16*
X+2800000Y+1159798D02*
X+1159798Y+2800000D01*
X+400000Y+2800000D01*
X+400000Y+3200000D01*
X-400000Y+3200000D01*
X-400000Y+2800000D01*
X-1159798Y+2800000D01*
X-2800000Y+1159798D01*
X-2800000Y-1159798D01*
X-1159798Y-2800000D01*
X+1159798Y-2800000D01*
X+2800000Y-1159798D01*
X+2800000Y+1159798D01*
X+1000000Y+0D02*
X+997283Y+73665D01*
X+975275Y+220996D01*
X+929696Y+368327D01*
X+856795Y+515658D01*
X+748629Y+662989D01*
X+603894Y+797065D01*
X+456563Y+889691D01*
X+309232Y+950987D01*
X+161901Y+986807D01*
X+14570Y+999894D01*
X+0Y+1000000D01*
X-1000000Y+0D02*
X-997283Y+73665D01*
X-975275Y+220996D01*
X-929696Y+368327D01*
X-856795Y+515658D01*
X-748629Y+662989D01*
X-603894Y+797065D01*
X-456563Y+889691D01*
X-309232Y+950987D01*
X-161901Y+986807D01*
X-14570Y+999894D01*
X+0Y+1000000D01*
X-1000000Y+0D02*
X-997283Y-73665D01*
X-975275Y-220996D01*
X-929696Y-368327D01*
X-856795Y-515658D01*
X-748629Y-662989D01*
X-603894Y-797065D01*
X-456563Y-889691D01*
X-309232Y-950987D01*
X-161901Y-986807D01*
X-14570Y-999894D01*
X+0Y-1000000D01*
X+1000000Y+0D02*
X+997283Y-73665D01*
X+975275Y-220996D01*
X+929696Y-368327D01*
X+856795Y-515658D01*
X+748629Y-662989D01*
X+603894Y-797065D01*
X+456563Y-889691D01*
X+309232Y-950987D01*
X+161901Y-986807D01*
X+14570Y-999894D01*
X+0Y-1000000D01*
M02*
