G04 PROTEUS RS274X GERBER FILE*
%FSLAX45Y45*%
%MOMM*%
G01*
%ADD16C,0.203200*%
%ADD17C,0.250000*%
%ADD18C,0.200000*%
D16*
X+2800000Y+1159798D02*
X+1159798Y+2800000D01*
X+400000Y+2800000D01*
X+400000Y+3200000D01*
X-400000Y+3200000D01*
X-400000Y+2800000D01*
X-1159798Y+2800000D01*
X-2800000Y+1159798D01*
X-2800000Y-1159798D01*
X-1159798Y-2800000D01*
X+1159798Y-2800000D01*
X+2800000Y-1159798D01*
X+2800000Y+1159798D01*
X-277000Y+2823000D02*
X+231000Y+2823000D01*
X+231000Y+3077000D01*
X-277000Y+3077000D01*
X-277000Y+2823000D01*
X-150000Y+3148120D02*
X-150000Y+3132880D01*
X-134125Y+3117640D01*
X-70625Y+3117640D01*
X-54750Y+3132880D01*
X-54750Y+3209080D01*
X+8750Y+3178600D02*
X+40500Y+3209080D01*
X+40500Y+3117640D01*
X+1000000Y+0D02*
X+997283Y+73665D01*
X+975275Y+220996D01*
X+929696Y+368327D01*
X+856795Y+515658D01*
X+748629Y+662989D01*
X+603894Y+797065D01*
X+456563Y+889691D01*
X+309232Y+950987D01*
X+161901Y+986807D01*
X+14570Y+999894D01*
X+0Y+1000000D01*
X-1000000Y+0D02*
X-997283Y+73665D01*
X-975275Y+220996D01*
X-929696Y+368327D01*
X-856795Y+515658D01*
X-748629Y+662989D01*
X-603894Y+797065D01*
X-456563Y+889691D01*
X-309232Y+950987D01*
X-161901Y+986807D01*
X-14570Y+999894D01*
X+0Y+1000000D01*
X-1000000Y+0D02*
X-997283Y-73665D01*
X-975275Y-220996D01*
X-929696Y-368327D01*
X-856795Y-515658D01*
X-748629Y-662989D01*
X-603894Y-797065D01*
X-456563Y-889691D01*
X-309232Y-950987D01*
X-161901Y-986807D01*
X-14570Y-999894D01*
X+0Y-1000000D01*
X+1000000Y+0D02*
X+997283Y-73665D01*
X+975275Y-220996D01*
X+929696Y-368327D01*
X+856795Y-515658D01*
X+748629Y-662989D01*
X+603894Y-797065D01*
X+456563Y-889691D01*
X+309232Y-950987D01*
X+161901Y-986807D01*
X+14570Y-999894D01*
X+0Y-1000000D01*
D17*
X-1735282Y+1412218D02*
X-1735325Y+1413257D01*
X-1735677Y+1415336D01*
X-1736414Y+1417415D01*
X-1737618Y+1419494D01*
X-1739459Y+1421544D01*
X-1741538Y+1423047D01*
X-1743617Y+1424004D01*
X-1745696Y+1424543D01*
X-1747775Y+1424718D01*
X-1747782Y+1424718D01*
X-1760282Y+1412218D02*
X-1760239Y+1413257D01*
X-1759887Y+1415336D01*
X-1759150Y+1417415D01*
X-1757946Y+1419494D01*
X-1756105Y+1421544D01*
X-1754026Y+1423047D01*
X-1751947Y+1424004D01*
X-1749868Y+1424543D01*
X-1747789Y+1424718D01*
X-1747782Y+1424718D01*
X-1760282Y+1412218D02*
X-1760239Y+1411179D01*
X-1759887Y+1409100D01*
X-1759150Y+1407021D01*
X-1757946Y+1404942D01*
X-1756105Y+1402892D01*
X-1754026Y+1401389D01*
X-1751947Y+1400432D01*
X-1749868Y+1399893D01*
X-1747789Y+1399718D01*
X-1747782Y+1399718D01*
X-1735282Y+1412218D02*
X-1735325Y+1411179D01*
X-1735677Y+1409100D01*
X-1736414Y+1407021D01*
X-1737618Y+1404942D01*
X-1739459Y+1402892D01*
X-1741538Y+1401389D01*
X-1743617Y+1400432D01*
X-1745696Y+1399893D01*
X-1747775Y+1399718D01*
X-1747782Y+1399718D01*
D18*
X-1539185Y+1493536D02*
X-1461403Y+1571317D01*
X-1666464Y+1620815D02*
X-1588683Y+1698597D01*
X-1666464Y+1620815D02*
X-1539185Y+1493536D01*
X-1528579Y+1504142D02*
X-1655858Y+1631421D01*
X-1517972Y+1514749D02*
X-1645251Y+1642028D01*
X-1507365Y+1525355D02*
X-1634645Y+1652635D01*
D16*
X-1762794Y+1581733D02*
X-1827451Y+1646390D01*
X-1782550Y+1691292D01*
X-1738547Y+1692190D01*
X-1716994Y+1670637D01*
X-1717892Y+1626634D01*
X-1762794Y+1581733D01*
X-1693645Y+1737091D02*
X-1692747Y+1781095D01*
X-1628089Y+1716437D01*
D17*
X-2237500Y-260000D02*
X-2237543Y-258961D01*
X-2237895Y-256882D01*
X-2238632Y-254803D01*
X-2239836Y-252724D01*
X-2241677Y-250674D01*
X-2243756Y-249171D01*
X-2245835Y-248214D01*
X-2247914Y-247675D01*
X-2249993Y-247500D01*
X-2250000Y-247500D01*
X-2262500Y-260000D02*
X-2262457Y-258961D01*
X-2262105Y-256882D01*
X-2261368Y-254803D01*
X-2260164Y-252724D01*
X-2258323Y-250674D01*
X-2256244Y-249171D01*
X-2254165Y-248214D01*
X-2252086Y-247675D01*
X-2250007Y-247500D01*
X-2250000Y-247500D01*
X-2262500Y-260000D02*
X-2262457Y-261039D01*
X-2262105Y-263118D01*
X-2261368Y-265197D01*
X-2260164Y-267276D01*
X-2258323Y-269326D01*
X-2256244Y-270829D01*
X-2254165Y-271786D01*
X-2252086Y-272325D01*
X-2250007Y-272500D01*
X-2250000Y-272500D01*
X-2237500Y-260000D02*
X-2237543Y-261039D01*
X-2237895Y-263118D01*
X-2238632Y-265197D01*
X-2239836Y-267276D01*
X-2241677Y-269326D01*
X-2243756Y-270829D01*
X-2245835Y-271786D01*
X-2247914Y-272325D01*
X-2249993Y-272500D01*
X-2250000Y-272500D01*
D18*
X-2160000Y-55000D02*
X-2160000Y+55000D01*
X-2340000Y-55000D02*
X-2340000Y+55000D01*
X-2340000Y-55000D02*
X-2160000Y-55000D01*
X-2160000Y-40000D02*
X-2340000Y-40000D01*
X-2160000Y-25000D02*
X-2340000Y-25000D01*
X-2160000Y-10000D02*
X-2340000Y-10000D01*
D16*
X-2380480Y-150750D02*
X-2471920Y-150750D01*
X-2471920Y-87250D01*
X-2441440Y-55500D01*
X-2410960Y-55500D01*
X-2380480Y-87250D01*
X-2380480Y-150750D01*
X-2456680Y-7875D02*
X-2471920Y+8000D01*
X-2471920Y+55625D01*
X-2456680Y+71500D01*
X-2441440Y+71500D01*
X-2426200Y+55625D01*
X-2426200Y+8000D01*
X-2410960Y-7875D01*
X-2380480Y-7875D01*
X-2380480Y+71500D01*
D17*
X-1379718Y-1767782D02*
X-1379761Y-1766743D01*
X-1380113Y-1764664D01*
X-1380850Y-1762585D01*
X-1382054Y-1760506D01*
X-1383895Y-1758456D01*
X-1385974Y-1756953D01*
X-1388053Y-1755996D01*
X-1390132Y-1755457D01*
X-1392211Y-1755282D01*
X-1392218Y-1755282D01*
X-1404718Y-1767782D02*
X-1404675Y-1766743D01*
X-1404323Y-1764664D01*
X-1403586Y-1762585D01*
X-1402382Y-1760506D01*
X-1400541Y-1758456D01*
X-1398462Y-1756953D01*
X-1396383Y-1755996D01*
X-1394304Y-1755457D01*
X-1392225Y-1755282D01*
X-1392218Y-1755282D01*
X-1404718Y-1767782D02*
X-1404675Y-1768821D01*
X-1404323Y-1770900D01*
X-1403586Y-1772979D01*
X-1402382Y-1775058D01*
X-1400541Y-1777108D01*
X-1398462Y-1778611D01*
X-1396383Y-1779568D01*
X-1394304Y-1780107D01*
X-1392225Y-1780282D01*
X-1392218Y-1780282D01*
X-1379718Y-1767782D02*
X-1379761Y-1768821D01*
X-1380113Y-1770900D01*
X-1380850Y-1772979D01*
X-1382054Y-1775058D01*
X-1383895Y-1777108D01*
X-1385974Y-1778611D01*
X-1388053Y-1779568D01*
X-1390132Y-1780107D01*
X-1392211Y-1780282D01*
X-1392218Y-1780282D01*
D18*
X-1473536Y-1559185D02*
X-1551317Y-1481403D01*
X-1600815Y-1686464D02*
X-1678597Y-1608683D01*
X-1600815Y-1686464D02*
X-1473536Y-1559185D01*
X-1484142Y-1548579D02*
X-1611421Y-1675858D01*
X-1494749Y-1537972D02*
X-1622028Y-1665251D01*
X-1505355Y-1527365D02*
X-1632635Y-1654645D01*
D16*
X-1561733Y-1782794D02*
X-1626390Y-1847451D01*
X-1671292Y-1802550D01*
X-1672190Y-1758547D01*
X-1650637Y-1736994D01*
X-1606634Y-1737892D01*
X-1561733Y-1782794D01*
X-1716642Y-1735647D02*
X-1738644Y-1735198D01*
X-1772320Y-1701522D01*
X-1772769Y-1679520D01*
X-1761993Y-1668744D01*
X-1739991Y-1669193D01*
X-1740440Y-1647191D01*
X-1729664Y-1636415D01*
X-1707662Y-1636864D01*
X-1673986Y-1670540D01*
X-1673537Y-1692542D01*
X-1717540Y-1691644D02*
X-1739991Y-1669193D01*
D17*
X+252500Y-2240000D02*
X+252457Y-2238961D01*
X+252105Y-2236882D01*
X+251368Y-2234803D01*
X+250164Y-2232724D01*
X+248323Y-2230674D01*
X+246244Y-2229171D01*
X+244165Y-2228214D01*
X+242086Y-2227675D01*
X+240007Y-2227500D01*
X+240000Y-2227500D01*
X+227500Y-2240000D02*
X+227543Y-2238961D01*
X+227895Y-2236882D01*
X+228632Y-2234803D01*
X+229836Y-2232724D01*
X+231677Y-2230674D01*
X+233756Y-2229171D01*
X+235835Y-2228214D01*
X+237914Y-2227675D01*
X+239993Y-2227500D01*
X+240000Y-2227500D01*
X+227500Y-2240000D02*
X+227543Y-2241039D01*
X+227895Y-2243118D01*
X+228632Y-2245197D01*
X+229836Y-2247276D01*
X+231677Y-2249326D01*
X+233756Y-2250829D01*
X+235835Y-2251786D01*
X+237914Y-2252325D01*
X+239993Y-2252500D01*
X+240000Y-2252500D01*
X+252500Y-2240000D02*
X+252457Y-2241039D01*
X+252105Y-2243118D01*
X+251368Y-2245197D01*
X+250164Y-2247276D01*
X+248323Y-2249326D01*
X+246244Y-2250829D01*
X+244165Y-2251786D01*
X+242086Y-2252325D01*
X+240007Y-2252500D01*
X+240000Y-2252500D01*
D18*
X+35000Y-2150000D02*
X-75000Y-2150000D01*
X+35000Y-2330000D02*
X-75000Y-2330000D01*
X+35000Y-2330000D02*
X+35000Y-2150000D01*
X+20000Y-2150000D02*
X+20000Y-2330000D01*
X+5000Y-2150000D02*
X+5000Y-2330000D01*
X-10000Y-2150000D02*
X-10000Y-2330000D01*
D16*
X-123250Y-2461920D02*
X-123250Y-2370480D01*
X-59750Y-2370480D01*
X-28000Y-2400960D01*
X-28000Y-2431440D01*
X-59750Y-2461920D01*
X-123250Y-2461920D01*
X+99000Y-2431440D02*
X+3750Y-2431440D01*
X+67250Y-2370480D01*
X+67250Y-2461920D01*
D17*
X-1225282Y+882218D02*
X-1225325Y+883257D01*
X-1225677Y+885336D01*
X-1226414Y+887415D01*
X-1227618Y+889494D01*
X-1229459Y+891544D01*
X-1231538Y+893047D01*
X-1233617Y+894004D01*
X-1235696Y+894543D01*
X-1237775Y+894718D01*
X-1237782Y+894718D01*
X-1250282Y+882218D02*
X-1250239Y+883257D01*
X-1249887Y+885336D01*
X-1249150Y+887415D01*
X-1247946Y+889494D01*
X-1246105Y+891544D01*
X-1244026Y+893047D01*
X-1241947Y+894004D01*
X-1239868Y+894543D01*
X-1237789Y+894718D01*
X-1237782Y+894718D01*
X-1250282Y+882218D02*
X-1250239Y+881179D01*
X-1249887Y+879100D01*
X-1249150Y+877021D01*
X-1247946Y+874942D01*
X-1246105Y+872892D01*
X-1244026Y+871389D01*
X-1241947Y+870432D01*
X-1239868Y+869893D01*
X-1237789Y+869718D01*
X-1237782Y+869718D01*
X-1225282Y+882218D02*
X-1225325Y+881179D01*
X-1225677Y+879100D01*
X-1226414Y+877021D01*
X-1227618Y+874942D01*
X-1229459Y+872892D01*
X-1231538Y+871389D01*
X-1233617Y+870432D01*
X-1235696Y+869893D01*
X-1237775Y+869718D01*
X-1237782Y+869718D01*
D18*
X-1029185Y+963536D02*
X-951403Y+1041317D01*
X-1156464Y+1090815D02*
X-1078683Y+1168597D01*
X-1156464Y+1090815D02*
X-1029185Y+963536D01*
X-1018579Y+974142D02*
X-1145858Y+1101421D01*
X-1007972Y+984749D02*
X-1135251Y+1112028D01*
X-997365Y+995355D02*
X-1124645Y+1122635D01*
D16*
X-1252794Y+1051733D02*
X-1317451Y+1116390D01*
X-1272550Y+1161292D01*
X-1228547Y+1162190D01*
X-1206994Y+1140637D01*
X-1207892Y+1096634D01*
X-1252794Y+1051733D01*
X-1160297Y+1273545D02*
X-1216423Y+1217419D01*
X-1194871Y+1195866D01*
X-1149969Y+1240767D01*
X-1127968Y+1241216D01*
X-1106415Y+1219664D01*
X-1106864Y+1197662D01*
X-1140540Y+1163986D01*
X-1162542Y+1163537D01*
D17*
X-1487500Y-240000D02*
X-1487543Y-238961D01*
X-1487895Y-236882D01*
X-1488632Y-234803D01*
X-1489836Y-232724D01*
X-1491677Y-230674D01*
X-1493756Y-229171D01*
X-1495835Y-228214D01*
X-1497914Y-227675D01*
X-1499993Y-227500D01*
X-1500000Y-227500D01*
X-1512500Y-240000D02*
X-1512457Y-238961D01*
X-1512105Y-236882D01*
X-1511368Y-234803D01*
X-1510164Y-232724D01*
X-1508323Y-230674D01*
X-1506244Y-229171D01*
X-1504165Y-228214D01*
X-1502086Y-227675D01*
X-1500007Y-227500D01*
X-1500000Y-227500D01*
X-1512500Y-240000D02*
X-1512457Y-241039D01*
X-1512105Y-243118D01*
X-1511368Y-245197D01*
X-1510164Y-247276D01*
X-1508323Y-249326D01*
X-1506244Y-250829D01*
X-1504165Y-251786D01*
X-1502086Y-252325D01*
X-1500007Y-252500D01*
X-1500000Y-252500D01*
X-1487500Y-240000D02*
X-1487543Y-241039D01*
X-1487895Y-243118D01*
X-1488632Y-245197D01*
X-1489836Y-247276D01*
X-1491677Y-249326D01*
X-1493756Y-250829D01*
X-1495835Y-251786D01*
X-1497914Y-252325D01*
X-1499993Y-252500D01*
X-1500000Y-252500D01*
D18*
X-1410000Y-35000D02*
X-1410000Y+75000D01*
X-1590000Y-35000D02*
X-1590000Y+75000D01*
X-1590000Y-35000D02*
X-1410000Y-35000D01*
X-1410000Y-20000D02*
X-1590000Y-20000D01*
X-1410000Y-5000D02*
X-1590000Y-5000D01*
X-1410000Y+10000D02*
X-1590000Y+10000D01*
D16*
X-1630480Y-130750D02*
X-1721920Y-130750D01*
X-1721920Y-67250D01*
X-1691440Y-35500D01*
X-1660960Y-35500D01*
X-1630480Y-67250D01*
X-1630480Y-130750D01*
X-1706680Y+91500D02*
X-1721920Y+75625D01*
X-1721920Y+28000D01*
X-1706680Y+12125D01*
X-1645720Y+12125D01*
X-1630480Y+28000D01*
X-1630480Y+75625D01*
X-1645720Y+91500D01*
X-1660960Y+91500D01*
X-1676200Y+75625D01*
X-1676200Y+12125D01*
D17*
X-869718Y-1247782D02*
X-869761Y-1246743D01*
X-870113Y-1244664D01*
X-870850Y-1242585D01*
X-872054Y-1240506D01*
X-873895Y-1238456D01*
X-875974Y-1236953D01*
X-878053Y-1235996D01*
X-880132Y-1235457D01*
X-882211Y-1235282D01*
X-882218Y-1235282D01*
X-894718Y-1247782D02*
X-894675Y-1246743D01*
X-894323Y-1244664D01*
X-893586Y-1242585D01*
X-892382Y-1240506D01*
X-890541Y-1238456D01*
X-888462Y-1236953D01*
X-886383Y-1235996D01*
X-884304Y-1235457D01*
X-882225Y-1235282D01*
X-882218Y-1235282D01*
X-894718Y-1247782D02*
X-894675Y-1248821D01*
X-894323Y-1250900D01*
X-893586Y-1252979D01*
X-892382Y-1255058D01*
X-890541Y-1257108D01*
X-888462Y-1258611D01*
X-886383Y-1259568D01*
X-884304Y-1260107D01*
X-882225Y-1260282D01*
X-882218Y-1260282D01*
X-869718Y-1247782D02*
X-869761Y-1248821D01*
X-870113Y-1250900D01*
X-870850Y-1252979D01*
X-872054Y-1255058D01*
X-873895Y-1257108D01*
X-875974Y-1258611D01*
X-878053Y-1259568D01*
X-880132Y-1260107D01*
X-882211Y-1260282D01*
X-882218Y-1260282D01*
D18*
X-963536Y-1039185D02*
X-1041317Y-961403D01*
X-1090815Y-1166464D02*
X-1168597Y-1088683D01*
X-1090815Y-1166464D02*
X-963536Y-1039185D01*
X-974142Y-1028579D02*
X-1101421Y-1155858D01*
X-984749Y-1017972D02*
X-1112028Y-1145251D01*
X-995355Y-1007365D02*
X-1122635Y-1134645D01*
D16*
X-1051733Y-1262794D02*
X-1116390Y-1327451D01*
X-1161292Y-1282550D01*
X-1162190Y-1238547D01*
X-1140637Y-1216994D01*
X-1096634Y-1217892D01*
X-1051733Y-1262794D01*
X-1217419Y-1226423D02*
X-1273545Y-1170297D01*
X-1262769Y-1159520D01*
X-1152761Y-1161765D01*
D17*
X+252500Y-1520000D02*
X+252457Y-1518961D01*
X+252105Y-1516882D01*
X+251368Y-1514803D01*
X+250164Y-1512724D01*
X+248323Y-1510674D01*
X+246244Y-1509171D01*
X+244165Y-1508214D01*
X+242086Y-1507675D01*
X+240007Y-1507500D01*
X+240000Y-1507500D01*
X+227500Y-1520000D02*
X+227543Y-1518961D01*
X+227895Y-1516882D01*
X+228632Y-1514803D01*
X+229836Y-1512724D01*
X+231677Y-1510674D01*
X+233756Y-1509171D01*
X+235835Y-1508214D01*
X+237914Y-1507675D01*
X+239993Y-1507500D01*
X+240000Y-1507500D01*
X+227500Y-1520000D02*
X+227543Y-1521039D01*
X+227895Y-1523118D01*
X+228632Y-1525197D01*
X+229836Y-1527276D01*
X+231677Y-1529326D01*
X+233756Y-1530829D01*
X+235835Y-1531786D01*
X+237914Y-1532325D01*
X+239993Y-1532500D01*
X+240000Y-1532500D01*
X+252500Y-1520000D02*
X+252457Y-1521039D01*
X+252105Y-1523118D01*
X+251368Y-1525197D01*
X+250164Y-1527276D01*
X+248323Y-1529326D01*
X+246244Y-1530829D01*
X+244165Y-1531786D01*
X+242086Y-1532325D01*
X+240007Y-1532500D01*
X+240000Y-1532500D01*
D18*
X+35000Y-1430000D02*
X-75000Y-1430000D01*
X+35000Y-1610000D02*
X-75000Y-1610000D01*
X+35000Y-1610000D02*
X+35000Y-1430000D01*
X+20000Y-1430000D02*
X+20000Y-1610000D01*
X+5000Y-1430000D02*
X+5000Y-1610000D01*
X-10000Y-1430000D02*
X-10000Y-1610000D01*
D16*
X-123250Y-1741920D02*
X-123250Y-1650480D01*
X-59750Y-1650480D01*
X-28000Y-1680960D01*
X-28000Y-1711440D01*
X-59750Y-1741920D01*
X-123250Y-1741920D01*
X+35500Y-1696200D02*
X+19625Y-1680960D01*
X+19625Y-1665720D01*
X+35500Y-1650480D01*
X+83125Y-1650480D01*
X+99000Y-1665720D01*
X+99000Y-1680960D01*
X+83125Y-1696200D01*
X+35500Y-1696200D01*
X+19625Y-1711440D01*
X+19625Y-1726680D01*
X+35500Y-1741920D01*
X+83125Y-1741920D01*
X+99000Y-1726680D01*
X+99000Y-1711440D01*
X+83125Y-1696200D01*
D17*
X+252500Y+2240000D02*
X+252457Y+2241039D01*
X+252105Y+2243118D01*
X+251368Y+2245197D01*
X+250164Y+2247276D01*
X+248323Y+2249326D01*
X+246244Y+2250829D01*
X+244165Y+2251786D01*
X+242086Y+2252325D01*
X+240007Y+2252500D01*
X+240000Y+2252500D01*
X+227500Y+2240000D02*
X+227543Y+2241039D01*
X+227895Y+2243118D01*
X+228632Y+2245197D01*
X+229836Y+2247276D01*
X+231677Y+2249326D01*
X+233756Y+2250829D01*
X+235835Y+2251786D01*
X+237914Y+2252325D01*
X+239993Y+2252500D01*
X+240000Y+2252500D01*
X+227500Y+2240000D02*
X+227543Y+2238961D01*
X+227895Y+2236882D01*
X+228632Y+2234803D01*
X+229836Y+2232724D01*
X+231677Y+2230674D01*
X+233756Y+2229171D01*
X+235835Y+2228214D01*
X+237914Y+2227675D01*
X+239993Y+2227500D01*
X+240000Y+2227500D01*
X+252500Y+2240000D02*
X+252457Y+2238961D01*
X+252105Y+2236882D01*
X+251368Y+2234803D01*
X+250164Y+2232724D01*
X+248323Y+2230674D01*
X+246244Y+2229171D01*
X+244165Y+2228214D01*
X+242086Y+2227675D01*
X+240007Y+2227500D01*
X+240000Y+2227500D01*
D18*
X+35000Y+2330000D02*
X-75000Y+2330000D01*
X+35000Y+2150000D02*
X-75000Y+2150000D01*
X+35000Y+2150000D02*
X+35000Y+2330000D01*
X+20000Y+2330000D02*
X+20000Y+2150000D01*
X+5000Y+2330000D02*
X+5000Y+2150000D01*
X-10000Y+2330000D02*
X-10000Y+2150000D01*
D16*
X-123250Y+2018080D02*
X-123250Y+2109520D01*
X-59750Y+2109520D01*
X-28000Y+2079040D01*
X-28000Y+2048560D01*
X-59750Y+2018080D01*
X-123250Y+2018080D01*
X+99000Y+2079040D02*
X+83125Y+2063800D01*
X+35500Y+2063800D01*
X+19625Y+2079040D01*
X+19625Y+2094280D01*
X+35500Y+2109520D01*
X+83125Y+2109520D01*
X+99000Y+2094280D01*
X+99000Y+2033320D01*
X+83125Y+2018080D01*
X+35500Y+2018080D01*
D17*
X+262500Y+1510000D02*
X+262457Y+1511039D01*
X+262105Y+1513118D01*
X+261368Y+1515197D01*
X+260164Y+1517276D01*
X+258323Y+1519326D01*
X+256244Y+1520829D01*
X+254165Y+1521786D01*
X+252086Y+1522325D01*
X+250007Y+1522500D01*
X+250000Y+1522500D01*
X+237500Y+1510000D02*
X+237543Y+1511039D01*
X+237895Y+1513118D01*
X+238632Y+1515197D01*
X+239836Y+1517276D01*
X+241677Y+1519326D01*
X+243756Y+1520829D01*
X+245835Y+1521786D01*
X+247914Y+1522325D01*
X+249993Y+1522500D01*
X+250000Y+1522500D01*
X+237500Y+1510000D02*
X+237543Y+1508961D01*
X+237895Y+1506882D01*
X+238632Y+1504803D01*
X+239836Y+1502724D01*
X+241677Y+1500674D01*
X+243756Y+1499171D01*
X+245835Y+1498214D01*
X+247914Y+1497675D01*
X+249993Y+1497500D01*
X+250000Y+1497500D01*
X+262500Y+1510000D02*
X+262457Y+1508961D01*
X+262105Y+1506882D01*
X+261368Y+1504803D01*
X+260164Y+1502724D01*
X+258323Y+1500674D01*
X+256244Y+1499171D01*
X+254165Y+1498214D01*
X+252086Y+1497675D01*
X+250007Y+1497500D01*
X+250000Y+1497500D01*
D18*
X+45000Y+1600000D02*
X-65000Y+1600000D01*
X+45000Y+1420000D02*
X-65000Y+1420000D01*
X+45000Y+1420000D02*
X+45000Y+1600000D01*
X+30000Y+1600000D02*
X+30000Y+1420000D01*
X+15000Y+1600000D02*
X+15000Y+1420000D01*
X+0Y+1600000D02*
X+0Y+1420000D01*
D16*
X-176750Y+1288080D02*
X-176750Y+1379520D01*
X-113250Y+1379520D01*
X-81500Y+1349040D01*
X-81500Y+1318560D01*
X-113250Y+1288080D01*
X-176750Y+1288080D01*
X-18000Y+1349040D02*
X+13750Y+1379520D01*
X+13750Y+1288080D01*
X+93125Y+1364280D02*
X+109000Y+1379520D01*
X+156625Y+1379520D01*
X+172500Y+1364280D01*
X+172500Y+1349040D01*
X+156625Y+1333800D01*
X+172500Y+1318560D01*
X+172500Y+1303320D01*
X+156625Y+1288080D01*
X+109000Y+1288080D01*
X+93125Y+1303320D01*
X+124875Y+1333800D02*
X+156625Y+1333800D01*
D17*
X+1790282Y+1372218D02*
X+1790239Y+1373257D01*
X+1789887Y+1375336D01*
X+1789150Y+1377415D01*
X+1787946Y+1379494D01*
X+1786105Y+1381544D01*
X+1784026Y+1383047D01*
X+1781947Y+1384004D01*
X+1779868Y+1384543D01*
X+1777789Y+1384718D01*
X+1777782Y+1384718D01*
X+1765282Y+1372218D02*
X+1765325Y+1373257D01*
X+1765677Y+1375336D01*
X+1766414Y+1377415D01*
X+1767618Y+1379494D01*
X+1769459Y+1381544D01*
X+1771538Y+1383047D01*
X+1773617Y+1384004D01*
X+1775696Y+1384543D01*
X+1777775Y+1384718D01*
X+1777782Y+1384718D01*
X+1765282Y+1372218D02*
X+1765325Y+1371179D01*
X+1765677Y+1369100D01*
X+1766414Y+1367021D01*
X+1767618Y+1364942D01*
X+1769459Y+1362892D01*
X+1771538Y+1361389D01*
X+1773617Y+1360432D01*
X+1775696Y+1359893D01*
X+1777775Y+1359718D01*
X+1777782Y+1359718D01*
X+1790282Y+1372218D02*
X+1790239Y+1371179D01*
X+1789887Y+1369100D01*
X+1789150Y+1367021D01*
X+1787946Y+1364942D01*
X+1786105Y+1362892D01*
X+1784026Y+1361389D01*
X+1781947Y+1360432D01*
X+1779868Y+1359893D01*
X+1777789Y+1359718D01*
X+1777782Y+1359718D01*
D18*
X+1696464Y+1580815D02*
X+1618683Y+1658597D01*
X+1569185Y+1453536D02*
X+1491403Y+1531317D01*
X+1569185Y+1453536D02*
X+1696464Y+1580815D01*
X+1685858Y+1591421D02*
X+1558579Y+1464142D01*
X+1675251Y+1602028D02*
X+1547972Y+1474749D01*
X+1664645Y+1612635D02*
X+1537365Y+1485355D01*
D16*
X+1653168Y+1312305D02*
X+1588511Y+1247648D01*
X+1543609Y+1292549D01*
X+1542711Y+1336552D01*
X+1564264Y+1358105D01*
X+1608267Y+1357207D01*
X+1653168Y+1312305D01*
X+1497810Y+1381454D02*
X+1453806Y+1382352D01*
X+1518464Y+1447010D01*
X+1462787Y+1481134D02*
X+1419682Y+1438029D01*
X+1397680Y+1438478D01*
X+1352779Y+1483379D01*
X+1352330Y+1505381D01*
X+1395435Y+1548486D01*
X+1417437Y+1548037D01*
X+1462338Y+1503136D01*
X+1462787Y+1481134D01*
X+1473563Y+1491910D02*
X+1341554Y+1494604D01*
D17*
X+1290282Y+832218D02*
X+1290239Y+833257D01*
X+1289887Y+835336D01*
X+1289150Y+837415D01*
X+1287946Y+839494D01*
X+1286105Y+841544D01*
X+1284026Y+843047D01*
X+1281947Y+844004D01*
X+1279868Y+844543D01*
X+1277789Y+844718D01*
X+1277782Y+844718D01*
X+1265282Y+832218D02*
X+1265325Y+833257D01*
X+1265677Y+835336D01*
X+1266414Y+837415D01*
X+1267618Y+839494D01*
X+1269459Y+841544D01*
X+1271538Y+843047D01*
X+1273617Y+844004D01*
X+1275696Y+844543D01*
X+1277775Y+844718D01*
X+1277782Y+844718D01*
X+1265282Y+832218D02*
X+1265325Y+831179D01*
X+1265677Y+829100D01*
X+1266414Y+827021D01*
X+1267618Y+824942D01*
X+1269459Y+822892D01*
X+1271538Y+821389D01*
X+1273617Y+820432D01*
X+1275696Y+819893D01*
X+1277775Y+819718D01*
X+1277782Y+819718D01*
X+1290282Y+832218D02*
X+1290239Y+831179D01*
X+1289887Y+829100D01*
X+1289150Y+827021D01*
X+1287946Y+824942D01*
X+1286105Y+822892D01*
X+1284026Y+821389D01*
X+1281947Y+820432D01*
X+1279868Y+819893D01*
X+1277789Y+819718D01*
X+1277782Y+819718D01*
D18*
X+1196464Y+1040815D02*
X+1118683Y+1118597D01*
X+1069185Y+913536D02*
X+991403Y+991317D01*
X+1069185Y+913536D02*
X+1196464Y+1040815D01*
X+1185858Y+1051421D02*
X+1058579Y+924142D01*
X+1175251Y+1062028D02*
X+1047972Y+934749D01*
X+1164645Y+1072635D02*
X+1037365Y+945355D01*
D16*
X+1153168Y+772305D02*
X+1088511Y+707648D01*
X+1043609Y+752549D01*
X+1042711Y+796552D01*
X+1064264Y+818105D01*
X+1108267Y+817207D01*
X+1153168Y+772305D01*
X+997810Y+841454D02*
X+953806Y+842352D01*
X+1018464Y+907010D01*
X+884659Y+997710D02*
X+952011Y+930358D01*
X+864004Y+932154D01*
X+928662Y+996812D01*
D17*
X+2272500Y-280000D02*
X+2272457Y-278961D01*
X+2272105Y-276882D01*
X+2271368Y-274803D01*
X+2270164Y-272724D01*
X+2268323Y-270674D01*
X+2266244Y-269171D01*
X+2264165Y-268214D01*
X+2262086Y-267675D01*
X+2260007Y-267500D01*
X+2260000Y-267500D01*
X+2247500Y-280000D02*
X+2247543Y-278961D01*
X+2247895Y-276882D01*
X+2248632Y-274803D01*
X+2249836Y-272724D01*
X+2251677Y-270674D01*
X+2253756Y-269171D01*
X+2255835Y-268214D01*
X+2257914Y-267675D01*
X+2259993Y-267500D01*
X+2260000Y-267500D01*
X+2247500Y-280000D02*
X+2247543Y-281039D01*
X+2247895Y-283118D01*
X+2248632Y-285197D01*
X+2249836Y-287276D01*
X+2251677Y-289326D01*
X+2253756Y-290829D01*
X+2255835Y-291786D01*
X+2257914Y-292325D01*
X+2259993Y-292500D01*
X+2260000Y-292500D01*
X+2272500Y-280000D02*
X+2272457Y-281039D01*
X+2272105Y-283118D01*
X+2271368Y-285197D01*
X+2270164Y-287276D01*
X+2268323Y-289326D01*
X+2266244Y-290829D01*
X+2264165Y-291786D01*
X+2262086Y-292325D01*
X+2260007Y-292500D01*
X+2260000Y-292500D01*
D18*
X+2350000Y-75000D02*
X+2350000Y+35000D01*
X+2170000Y-75000D02*
X+2170000Y+35000D01*
X+2170000Y-75000D02*
X+2350000Y-75000D01*
X+2350000Y-60000D02*
X+2170000Y-60000D01*
X+2350000Y-45000D02*
X+2170000Y-45000D01*
X+2350000Y-30000D02*
X+2170000Y-30000D01*
D16*
X+2129520Y-234250D02*
X+2038080Y-234250D01*
X+2038080Y-170750D01*
X+2068560Y-139000D01*
X+2099040Y-139000D01*
X+2129520Y-170750D01*
X+2129520Y-234250D01*
X+2068560Y-75500D02*
X+2038080Y-43750D01*
X+2129520Y-43750D01*
X+2068560Y+51500D02*
X+2038080Y+83250D01*
X+2129520Y+83250D01*
D17*
X+1502500Y-270000D02*
X+1502457Y-268961D01*
X+1502105Y-266882D01*
X+1501368Y-264803D01*
X+1500164Y-262724D01*
X+1498323Y-260674D01*
X+1496244Y-259171D01*
X+1494165Y-258214D01*
X+1492086Y-257675D01*
X+1490007Y-257500D01*
X+1490000Y-257500D01*
X+1477500Y-270000D02*
X+1477543Y-268961D01*
X+1477895Y-266882D01*
X+1478632Y-264803D01*
X+1479836Y-262724D01*
X+1481677Y-260674D01*
X+1483756Y-259171D01*
X+1485835Y-258214D01*
X+1487914Y-257675D01*
X+1489993Y-257500D01*
X+1490000Y-257500D01*
X+1477500Y-270000D02*
X+1477543Y-271039D01*
X+1477895Y-273118D01*
X+1478632Y-275197D01*
X+1479836Y-277276D01*
X+1481677Y-279326D01*
X+1483756Y-280829D01*
X+1485835Y-281786D01*
X+1487914Y-282325D01*
X+1489993Y-282500D01*
X+1490000Y-282500D01*
X+1502500Y-270000D02*
X+1502457Y-271039D01*
X+1502105Y-273118D01*
X+1501368Y-275197D01*
X+1500164Y-277276D01*
X+1498323Y-279326D01*
X+1496244Y-280829D01*
X+1494165Y-281786D01*
X+1492086Y-282325D01*
X+1490007Y-282500D01*
X+1490000Y-282500D01*
D18*
X+1580000Y-65000D02*
X+1580000Y+45000D01*
X+1400000Y-65000D02*
X+1400000Y+45000D01*
X+1400000Y-65000D02*
X+1580000Y-65000D01*
X+1580000Y-50000D02*
X+1400000Y-50000D01*
X+1580000Y-35000D02*
X+1400000Y-35000D01*
X+1580000Y-20000D02*
X+1400000Y-20000D01*
D16*
X+1359520Y-224250D02*
X+1268080Y-224250D01*
X+1268080Y-160750D01*
X+1298560Y-129000D01*
X+1329040Y-129000D01*
X+1359520Y-160750D01*
X+1359520Y-224250D01*
X+1298560Y-65500D02*
X+1268080Y-33750D01*
X+1359520Y-33750D01*
X+1268080Y+125000D02*
X+1268080Y+45625D01*
X+1298560Y+45625D01*
X+1298560Y+109125D01*
X+1313800Y+125000D01*
X+1344280Y+125000D01*
X+1359520Y+109125D01*
X+1359520Y+61500D01*
X+1344280Y+45625D01*
D17*
X+844718Y-1287782D02*
X+844675Y-1286743D01*
X+844323Y-1284664D01*
X+843586Y-1282585D01*
X+842382Y-1280506D01*
X+840541Y-1278456D01*
X+838462Y-1276953D01*
X+836383Y-1275996D01*
X+834304Y-1275457D01*
X+832225Y-1275282D01*
X+832218Y-1275282D01*
X+819718Y-1287782D02*
X+819761Y-1286743D01*
X+820113Y-1284664D01*
X+820850Y-1282585D01*
X+822054Y-1280506D01*
X+823895Y-1278456D01*
X+825974Y-1276953D01*
X+828053Y-1275996D01*
X+830132Y-1275457D01*
X+832211Y-1275282D01*
X+832218Y-1275282D01*
X+819718Y-1287782D02*
X+819761Y-1288821D01*
X+820113Y-1290900D01*
X+820850Y-1292979D01*
X+822054Y-1295058D01*
X+823895Y-1297108D01*
X+825974Y-1298611D01*
X+828053Y-1299568D01*
X+830132Y-1300107D01*
X+832211Y-1300282D01*
X+832218Y-1300282D01*
X+844718Y-1287782D02*
X+844675Y-1288821D01*
X+844323Y-1290900D01*
X+843586Y-1292979D01*
X+842382Y-1295058D01*
X+840541Y-1297108D01*
X+838462Y-1298611D01*
X+836383Y-1299568D01*
X+834304Y-1300107D01*
X+832225Y-1300282D01*
X+832218Y-1300282D01*
D18*
X+1040815Y-1206464D02*
X+1118597Y-1128683D01*
X+913536Y-1079185D02*
X+991317Y-1001403D01*
X+913536Y-1079185D02*
X+1040815Y-1206464D01*
X+1051421Y-1195858D02*
X+924142Y-1068579D01*
X+1062028Y-1185251D02*
X+934749Y-1057972D01*
X+1072635Y-1174645D02*
X+945355Y-1047365D01*
D16*
X+772305Y-1163168D02*
X+707648Y-1098511D01*
X+752549Y-1053609D01*
X+796552Y-1052711D01*
X+818105Y-1074264D01*
X+817207Y-1118267D01*
X+772305Y-1163168D01*
X+841454Y-1007810D02*
X+842352Y-963806D01*
X+907010Y-1028464D01*
X+965381Y-862330D02*
X+943379Y-862779D01*
X+909703Y-896455D01*
X+909254Y-918457D01*
X+952359Y-961562D01*
X+974361Y-961113D01*
X+1008037Y-927437D01*
X+1008486Y-905435D01*
X+997710Y-894659D01*
X+975708Y-895108D01*
X+930807Y-940009D01*
D17*
X+1384718Y-1817782D02*
X+1384675Y-1816743D01*
X+1384323Y-1814664D01*
X+1383586Y-1812585D01*
X+1382382Y-1810506D01*
X+1380541Y-1808456D01*
X+1378462Y-1806953D01*
X+1376383Y-1805996D01*
X+1374304Y-1805457D01*
X+1372225Y-1805282D01*
X+1372218Y-1805282D01*
X+1359718Y-1817782D02*
X+1359761Y-1816743D01*
X+1360113Y-1814664D01*
X+1360850Y-1812585D01*
X+1362054Y-1810506D01*
X+1363895Y-1808456D01*
X+1365974Y-1806953D01*
X+1368053Y-1805996D01*
X+1370132Y-1805457D01*
X+1372211Y-1805282D01*
X+1372218Y-1805282D01*
X+1359718Y-1817782D02*
X+1359761Y-1818821D01*
X+1360113Y-1820900D01*
X+1360850Y-1822979D01*
X+1362054Y-1825058D01*
X+1363895Y-1827108D01*
X+1365974Y-1828611D01*
X+1368053Y-1829568D01*
X+1370132Y-1830107D01*
X+1372211Y-1830282D01*
X+1372218Y-1830282D01*
X+1384718Y-1817782D02*
X+1384675Y-1818821D01*
X+1384323Y-1820900D01*
X+1383586Y-1822979D01*
X+1382382Y-1825058D01*
X+1380541Y-1827108D01*
X+1378462Y-1828611D01*
X+1376383Y-1829568D01*
X+1374304Y-1830107D01*
X+1372225Y-1830282D01*
X+1372218Y-1830282D01*
D18*
X+1580815Y-1736464D02*
X+1658597Y-1658683D01*
X+1453536Y-1609185D02*
X+1531317Y-1531403D01*
X+1453536Y-1609185D02*
X+1580815Y-1736464D01*
X+1591421Y-1725858D02*
X+1464142Y-1598579D01*
X+1602028Y-1715251D02*
X+1474749Y-1587972D01*
X+1612635Y-1704645D02*
X+1485355Y-1577365D01*
D16*
X+1312305Y-1693168D02*
X+1247648Y-1628511D01*
X+1292549Y-1583609D01*
X+1336552Y-1582711D01*
X+1358105Y-1604264D01*
X+1357207Y-1648267D01*
X+1312305Y-1693168D01*
X+1381454Y-1537810D02*
X+1382352Y-1493806D01*
X+1447010Y-1558464D01*
X+1449254Y-1448457D02*
X+1449703Y-1426455D01*
X+1483379Y-1392779D01*
X+1505381Y-1392330D01*
X+1516157Y-1403106D01*
X+1515708Y-1425108D01*
X+1482032Y-1458784D01*
X+1481583Y-1480785D01*
X+1503136Y-1502338D01*
X+1559262Y-1446211D01*
M02*
