G04 PROTEUS RS274X GERBER FILE*
%FSLAX45Y45*%
%MOMM*%
G01*
%ADD16C,0.203200*%
D16*
X+2800000Y+1159798D02*
X+1159798Y+2800000D01*
X+400000Y+2800000D01*
X+400000Y+3200000D01*
X-400000Y+3200000D01*
X-400000Y+2800000D01*
X-1159798Y+2800000D01*
X-2800000Y+1159798D01*
X-2800000Y-1159798D01*
X-1159798Y-2800000D01*
X+1159798Y-2800000D01*
X+2800000Y-1159798D01*
X+2800000Y+1159798D01*
X+1000000Y+0D02*
X+997283Y+73665D01*
X+975275Y+220996D01*
X+929696Y+368327D01*
X+856795Y+515658D01*
X+748629Y+662989D01*
X+603894Y+797065D01*
X+456563Y+889691D01*
X+309232Y+950987D01*
X+161901Y+986807D01*
X+14570Y+999894D01*
X+0Y+1000000D01*
X-1000000Y+0D02*
X-997283Y+73665D01*
X-975275Y+220996D01*
X-929696Y+368327D01*
X-856795Y+515658D01*
X-748629Y+662989D01*
X-603894Y+797065D01*
X-456563Y+889691D01*
X-309232Y+950987D01*
X-161901Y+986807D01*
X-14570Y+999894D01*
X+0Y+1000000D01*
X-1000000Y+0D02*
X-997283Y-73665D01*
X-975275Y-220996D01*
X-929696Y-368327D01*
X-856795Y-515658D01*
X-748629Y-662989D01*
X-603894Y-797065D01*
X-456563Y-889691D01*
X-309232Y-950987D01*
X-161901Y-986807D01*
X-14570Y-999894D01*
X+0Y-1000000D01*
X+1000000Y+0D02*
X+997283Y-73665D01*
X+975275Y-220996D01*
X+929696Y-368327D01*
X+856795Y-515658D01*
X+748629Y-662989D01*
X+603894Y-797065D01*
X+456563Y-889691D01*
X+309232Y-950987D01*
X+161901Y-986807D01*
X+14570Y-999894D01*
X+0Y-1000000D01*
M02*
