G04 PROTEUS RS274X GERBER FILE*
%FSLAX45Y45*%
%MOMM*%
G01*
%AMPPAD009*
4,1,36,
-1.016000,1.143000,
1.016000,1.143000,
1.041970,1.140470,
1.065980,1.133200,
1.087580,1.121650,
1.106290,1.106290,
1.121650,1.087570,
1.133200,1.065980,
1.140470,1.041970,
1.143000,1.016000,
1.143000,-1.016000,
1.140470,-1.041970,
1.133200,-1.065980,
1.121650,-1.087570,
1.106290,-1.106290,
1.087580,-1.121650,
1.065980,-1.133200,
1.041970,-1.140470,
1.016000,-1.143000,
-1.016000,-1.143000,
-1.041970,-1.140470,
-1.065980,-1.133200,
-1.087580,-1.121650,
-1.106290,-1.106290,
-1.121650,-1.087570,
-1.133200,-1.065980,
-1.140470,-1.041970,
-1.143000,-1.016000,
-1.143000,1.016000,
-1.140470,1.041970,
-1.133200,1.065980,
-1.121650,1.087570,
-1.106290,1.106290,
-1.087580,1.121650,
-1.065980,1.133200,
-1.041970,1.140470,
-1.016000,1.143000,
0*%
%ADD19PPAD009*%
%AMPPAD002*
4,1,4,
-1.167430,0.269410,
-0.269410,1.167430,
1.167430,-0.269410,
0.269410,-1.167430,
-1.167430,0.269410,
0*%
%ADD12PPAD002*%
%AMPPAD010*
4,1,4,
-1.016000,-0.635000,
-1.016000,0.635000,
1.016000,0.635000,
1.016000,-0.635000,
-1.016000,-0.635000,
0*%
%ADD70PPAD010*%
%AMPPAD004*
4,1,4,
-0.269410,-1.167430,
-1.167430,-0.269410,
0.269410,1.167430,
1.167430,0.269410,
-0.269410,-1.167430,
0*%
%ADD14PPAD004*%
%AMPPAD011*
4,1,4,
0.635000,-1.016000,
-0.635000,-1.016000,
-0.635000,1.016000,
0.635000,1.016000,
0.635000,-1.016000,
0*%
%ADD71PPAD011*%
%ADD16C,0.203200*%
D19*
X-150000Y+2950000D03*
X+104000Y+2950000D03*
D12*
X-1457868Y+1702132D03*
X-1670000Y+1490000D03*
D70*
X-2250000Y+150000D03*
X-2250000Y-150000D03*
D14*
X-1682132Y-1477868D03*
X-1470000Y-1690000D03*
D71*
X-170000Y-2240000D03*
X+130000Y-2240000D03*
D12*
X-947868Y+1172132D03*
X-1160000Y+960000D03*
D70*
X-1500000Y+170000D03*
X-1500000Y-130000D03*
D14*
X-1172132Y-957868D03*
X-960000Y-1170000D03*
D71*
X-170000Y-1520000D03*
X+130000Y-1520000D03*
X-170000Y+2240000D03*
X+130000Y+2240000D03*
X-160000Y+1510000D03*
X+140000Y+1510000D03*
D14*
X+1487868Y+1662132D03*
X+1700000Y+1450000D03*
X+987868Y+1122132D03*
X+1200000Y+910000D03*
D70*
X+2260000Y+130000D03*
X+2260000Y-170000D03*
X+1490000Y+140000D03*
X+1490000Y-160000D03*
D12*
X+1122132Y-997868D03*
X+910000Y-1210000D03*
X+1662132Y-1527868D03*
X+1450000Y-1740000D03*
D16*
X+2800000Y+1159798D02*
X+1159798Y+2800000D01*
X+400000Y+2800000D01*
X+400000Y+3200000D01*
X-400000Y+3200000D01*
X-400000Y+2800000D01*
X-1159798Y+2800000D01*
X-2800000Y+1159798D01*
X-2800000Y-1159798D01*
X-1159798Y-2800000D01*
X+1159798Y-2800000D01*
X+2800000Y-1159798D01*
X+2800000Y+1159798D01*
X+1000000Y+0D02*
X+997283Y+73665D01*
X+975275Y+220996D01*
X+929696Y+368327D01*
X+856795Y+515658D01*
X+748629Y+662989D01*
X+603894Y+797065D01*
X+456563Y+889691D01*
X+309232Y+950987D01*
X+161901Y+986807D01*
X+14570Y+999894D01*
X+0Y+1000000D01*
X-1000000Y+0D02*
X-997283Y+73665D01*
X-975275Y+220996D01*
X-929696Y+368327D01*
X-856795Y+515658D01*
X-748629Y+662989D01*
X-603894Y+797065D01*
X-456563Y+889691D01*
X-309232Y+950987D01*
X-161901Y+986807D01*
X-14570Y+999894D01*
X+0Y+1000000D01*
X-1000000Y+0D02*
X-997283Y-73665D01*
X-975275Y-220996D01*
X-929696Y-368327D01*
X-856795Y-515658D01*
X-748629Y-662989D01*
X-603894Y-797065D01*
X-456563Y-889691D01*
X-309232Y-950987D01*
X-161901Y-986807D01*
X-14570Y-999894D01*
X+0Y-1000000D01*
X+1000000Y+0D02*
X+997283Y-73665D01*
X+975275Y-220996D01*
X+929696Y-368327D01*
X+856795Y-515658D01*
X+748629Y-662989D01*
X+603894Y-797065D01*
X+456563Y-889691D01*
X+309232Y-950987D01*
X+161901Y-986807D01*
X+14570Y-999894D01*
X+0Y-1000000D01*
M02*
