G04 PROTEUS RS274X GERBER FILE*
%FSLAX45Y45*%
%MOMM*%
G01*
%ADD17C,0.203200*%
D17*
X-3250000Y-1500000D02*
X+3250000Y-1500000D01*
X+3250000Y+1500000D01*
X-3250000Y+1500000D01*
X-3250000Y-1500000D01*
X-3062000Y-495000D02*
X-2046000Y-495000D01*
X-3062000Y+521000D02*
X-2046000Y+521000D01*
X-2046000Y-495000D02*
X-2046000Y+521000D01*
X-3062000Y-495000D02*
X-3062000Y+521000D01*
X-1984080Y-401500D02*
X-1984080Y-306250D01*
X-1892640Y-401500D01*
X-1892640Y-306250D01*
X-1892640Y-147500D02*
X-1984080Y-147500D01*
X-1984080Y-68125D01*
X-1968840Y-52250D01*
X-1953600Y-52250D01*
X-1938360Y-68125D01*
X-1938360Y-147500D01*
X-1892640Y-20500D02*
X-1984080Y-20500D01*
X-1984080Y+58875D01*
X-1968840Y+74750D01*
X-1953600Y+74750D01*
X-1938360Y+58875D01*
X-1938360Y-20500D01*
X-1938360Y+58875D02*
X-1923120Y+74750D01*
X-1892640Y+74750D01*
X-1953600Y+106500D02*
X-1984080Y+138250D01*
X-1984080Y+170000D01*
X-1953600Y+201750D01*
X-1923120Y+201750D01*
X-1892640Y+170000D01*
X-1892640Y+138250D01*
X-1923120Y+106500D01*
X-1953600Y+106500D01*
X-1892640Y+233500D02*
X-1984080Y+233500D01*
X-1984080Y+312875D01*
X-1968840Y+328750D01*
X-1953600Y+328750D01*
X-1938360Y+312875D01*
X-1923120Y+328750D01*
X-1907880Y+328750D01*
X-1892640Y+312875D01*
X-1892640Y+233500D01*
X-1938360Y+233500D02*
X-1938360Y+312875D01*
X-1892640Y+455750D02*
X-1892640Y+360500D01*
X-1984080Y+360500D01*
X-1984080Y+455750D01*
X-1938360Y+360500D02*
X-1938360Y+424000D01*
X-3179000Y+748000D02*
X-2417000Y+748000D01*
X-2417000Y+1256000D01*
X-3179000Y+1256000D01*
X-3179000Y+748000D01*
X-3026750Y+1380600D02*
X-2995000Y+1411080D01*
X-2995000Y+1319640D01*
X-2915625Y+1395840D02*
X-2899750Y+1411080D01*
X-2852125Y+1411080D01*
X-2836250Y+1395840D01*
X-2836250Y+1380600D01*
X-2852125Y+1365360D01*
X-2899750Y+1365360D01*
X-2915625Y+1350120D01*
X-2915625Y+1319640D01*
X-2836250Y+1319640D01*
X-2804500Y+1411080D02*
X-2804500Y+1365360D01*
X-2756875Y+1319640D01*
X-2709250Y+1365360D01*
X-2709250Y+1411080D01*
X-2417000Y+748000D02*
X-1655000Y+748000D01*
X-1655000Y+1256000D01*
X-2417000Y+1256000D01*
X-2417000Y+748000D01*
X-2176000Y+1319640D02*
X-2176000Y+1411080D01*
X-2128375Y+1365360D01*
X-2080750Y+1411080D01*
X-2080750Y+1319640D01*
X-1655000Y+748000D02*
X-639000Y+748000D01*
X-639000Y+1256000D01*
X-1655000Y+1256000D01*
X-1655000Y+748000D01*
X-1467500Y+1421080D02*
X-1467500Y+1329640D01*
X-1372250Y+1329640D01*
X-1340500Y+1344880D02*
X-1324625Y+1329640D01*
X-1261125Y+1329640D01*
X-1245250Y+1344880D01*
X-1245250Y+1360120D01*
X-1261125Y+1375360D01*
X-1324625Y+1375360D01*
X-1340500Y+1390600D01*
X-1340500Y+1405840D01*
X-1324625Y+1421080D01*
X-1261125Y+1421080D01*
X-1245250Y+1405840D01*
X-1213500Y+1329640D02*
X-1213500Y+1421080D01*
X-1134125Y+1421080D01*
X-1118250Y+1405840D01*
X-1118250Y+1390600D01*
X-1134125Y+1375360D01*
X-1213500Y+1375360D01*
X-1134125Y+1375360D02*
X-1118250Y+1360120D01*
X-1118250Y+1329640D01*
X-639000Y+748000D02*
X+631000Y+748000D01*
X+631000Y+1256000D01*
X-639000Y+1256000D01*
X-639000Y+748000D01*
X-294500Y+1421080D02*
X-294500Y+1329640D01*
X-199250Y+1329640D01*
X-167500Y+1344880D02*
X-151625Y+1329640D01*
X-88125Y+1329640D01*
X-72250Y+1344880D01*
X-72250Y+1360120D01*
X-88125Y+1375360D01*
X-151625Y+1375360D01*
X-167500Y+1390600D01*
X-167500Y+1405840D01*
X-151625Y+1421080D01*
X-88125Y+1421080D01*
X-72250Y+1405840D01*
X-40500Y+1329640D02*
X-40500Y+1421080D01*
X+38875Y+1421080D01*
X+54750Y+1405840D01*
X+54750Y+1390600D01*
X+38875Y+1375360D01*
X-40500Y+1375360D01*
X+38875Y+1375360D02*
X+54750Y+1360120D01*
X+54750Y+1329640D01*
X+631000Y+748000D02*
X+1901000Y+748000D01*
X+1901000Y+1256000D01*
X+631000Y+1256000D01*
X+631000Y+748000D01*
X+1170750Y+1334880D02*
X+1154875Y+1319640D01*
X+1107250Y+1319640D01*
X+1075500Y+1350120D01*
X+1075500Y+1380600D01*
X+1107250Y+1411080D01*
X+1154875Y+1411080D01*
X+1170750Y+1395840D01*
X+1202500Y+1319640D02*
X+1202500Y+1411080D01*
X+1281875Y+1411080D01*
X+1297750Y+1395840D01*
X+1297750Y+1380600D01*
X+1281875Y+1365360D01*
X+1202500Y+1365360D01*
X+1361250Y+1380600D02*
X+1393000Y+1411080D01*
X+1393000Y+1319640D01*
X+1901000Y+748000D02*
X+3171000Y+748000D01*
X+3171000Y+1256000D01*
X+1901000Y+1256000D01*
X+1901000Y+748000D01*
X+2440750Y+1334880D02*
X+2424875Y+1319640D01*
X+2377250Y+1319640D01*
X+2345500Y+1350120D01*
X+2345500Y+1380600D01*
X+2377250Y+1411080D01*
X+2424875Y+1411080D01*
X+2440750Y+1395840D01*
X+2472500Y+1319640D02*
X+2472500Y+1411080D01*
X+2551875Y+1411080D01*
X+2567750Y+1395840D01*
X+2567750Y+1380600D01*
X+2551875Y+1365360D01*
X+2472500Y+1365360D01*
X+2615375Y+1395840D02*
X+2631250Y+1411080D01*
X+2678875Y+1411080D01*
X+2694750Y+1395840D01*
X+2694750Y+1380600D01*
X+2678875Y+1365360D01*
X+2631250Y+1365360D01*
X+2615375Y+1350120D01*
X+2615375Y+1319640D01*
X+2694750Y+1319640D01*
X+1906000Y-1244000D02*
X+3176000Y-1244000D01*
X+3176000Y-736000D01*
X+1906000Y-736000D01*
X+1906000Y-1244000D01*
X+2297000Y-1300920D02*
X+2392250Y-1392360D01*
X+2297000Y-1392360D02*
X+2392250Y-1300920D01*
X+2519250Y-1392360D02*
X+2424000Y-1392360D01*
X+2424000Y-1300920D01*
X+2519250Y-1300920D01*
X+2424000Y-1346640D02*
X+2487500Y-1346640D01*
X+2551000Y-1392360D02*
X+2551000Y-1300920D01*
X+2646250Y-1392360D01*
X+2646250Y-1300920D01*
X+2678000Y-1392360D02*
X+2678000Y-1300920D01*
X+2741500Y-1300920D01*
X+2773250Y-1331400D01*
X+2773250Y-1361880D01*
X+2741500Y-1392360D01*
X+2678000Y-1392360D01*
X+636000Y-1244000D02*
X+1906000Y-1244000D01*
X+1906000Y-736000D01*
X+636000Y-736000D01*
X+636000Y-1244000D01*
X+1112250Y-1300920D02*
X+1017000Y-1392360D01*
X+1017000Y-1300920D02*
X+1064625Y-1346640D01*
X+1239250Y-1392360D02*
X+1144000Y-1392360D01*
X+1144000Y-1300920D01*
X+1239250Y-1300920D01*
X+1144000Y-1346640D02*
X+1207500Y-1346640D01*
X+1271000Y-1392360D02*
X+1271000Y-1300920D01*
X+1366250Y-1392360D01*
X+1366250Y-1300920D01*
X+1398000Y-1392360D02*
X+1398000Y-1300920D01*
X+1461500Y-1300920D01*
X+1493250Y-1331400D01*
X+1493250Y-1361880D01*
X+1461500Y-1392360D01*
X+1398000Y-1392360D01*
X-634000Y-1244000D02*
X+636000Y-1244000D01*
X+636000Y-736000D01*
X-634000Y-736000D01*
X-634000Y-1244000D01*
X-253000Y-1310920D02*
X-157750Y-1310920D01*
X-253000Y-1402360D01*
X-157750Y-1402360D01*
X-30750Y-1402360D02*
X-126000Y-1402360D01*
X-126000Y-1310920D01*
X-30750Y-1310920D01*
X-126000Y-1356640D02*
X-62500Y-1356640D01*
X+1000Y-1402360D02*
X+1000Y-1310920D01*
X+96250Y-1402360D01*
X+96250Y-1310920D01*
X+128000Y-1402360D02*
X+128000Y-1310920D01*
X+191500Y-1310920D01*
X+223250Y-1341400D01*
X+223250Y-1371880D01*
X+191500Y-1402360D01*
X+128000Y-1402360D01*
X-2417000Y-1244600D02*
X-1655000Y-1244600D01*
X-1655000Y-736600D01*
X-2417000Y-736600D01*
X-2417000Y-1244600D01*
X-2281900Y-1300900D02*
X-2281900Y-1392340D01*
X-2186650Y-1392340D01*
X-2059650Y-1392340D02*
X-2154900Y-1392340D01*
X-2154900Y-1300900D01*
X-2059650Y-1300900D01*
X-2154900Y-1346620D02*
X-2091400Y-1346620D01*
X-2027900Y-1392340D02*
X-2027900Y-1300900D01*
X-1964400Y-1300900D01*
X-1932650Y-1331380D01*
X-1932650Y-1361860D01*
X-1964400Y-1392340D01*
X-2027900Y-1392340D01*
X-1655000Y-1244600D02*
X-893000Y-1244600D01*
X-893000Y-736600D01*
X-1655000Y-736600D01*
X-1655000Y-1244600D01*
X-1390500Y-1392960D02*
X-1390500Y-1301520D01*
X-1342875Y-1347240D01*
X-1295250Y-1301520D01*
X-1295250Y-1392960D01*
X-3175000Y-1244600D02*
X-2413000Y-1244600D01*
X-2413000Y-736600D01*
X-3175000Y-736600D01*
X-3175000Y-1244600D01*
X-3079250Y-1333500D02*
X-3047500Y-1303020D01*
X-3047500Y-1394460D01*
X-2968125Y-1318260D02*
X-2952250Y-1303020D01*
X-2904625Y-1303020D01*
X-2888750Y-1318260D01*
X-2888750Y-1333500D01*
X-2904625Y-1348740D01*
X-2952250Y-1348740D01*
X-2968125Y-1363980D01*
X-2968125Y-1394460D01*
X-2888750Y-1394460D01*
X-2857000Y-1303020D02*
X-2857000Y-1348740D01*
X-2809375Y-1394460D01*
X-2761750Y-1348740D01*
X-2761750Y-1303020D01*
X-2610000Y+1410000D02*
X-2610000Y+1310000D01*
X-2640000Y+1350000D01*
X-2610000Y+1310000D02*
X-2580000Y+1350000D01*
X-1980000Y+1410000D02*
X-1980000Y+1310000D01*
X-2010000Y+1350000D01*
X-1980000Y+1310000D02*
X-1950000Y+1350000D01*
X-990000Y+1424140D02*
X-990000Y+1324140D01*
X-1020000Y+1364140D01*
X-990000Y+1324140D02*
X-960000Y+1364140D01*
X-2640000Y-1300000D02*
X-2640000Y-1400000D01*
X-2670000Y-1360000D01*
X-2640000Y-1400000D02*
X-2610000Y-1360000D01*
X-1830000Y-1300000D02*
X-1830000Y-1400000D01*
X-1860000Y-1360000D01*
X-1830000Y-1400000D02*
X-1800000Y-1360000D01*
X-1180000Y-1300000D02*
X-1180000Y-1400000D01*
X-1210000Y-1360000D01*
X-1180000Y-1400000D02*
X-1150000Y-1360000D01*
X+190000Y+1330000D02*
X+190000Y+1430000D01*
X+160000Y+1390000D01*
X+190000Y+1430000D02*
X+220000Y+1390000D01*
M02*
