M48
METRIC,TZ
T01C0.5080
T02C0.7620
T03C1.5240
%
T01
X+30099Y+4572
X+26670Y+4572
X+14097Y-4572
X-3429Y-4572
X-19431Y-6200
X+1334Y-5312
X+24789Y-5636
X+27668Y-5426
X+10201Y-5274
X-24384Y-6300
T02
X-10820Y+1270
X-8280Y+1270
X-5740Y+1270
X-3200Y+1270
X-660Y+1270
X+1880Y+1270
X+4420Y+1270
X+6960Y+1270
X+9500Y+1270
X+12040Y+1270
X+14580Y+1270
X+17120Y+1270
X+19660Y+1270
X+22200Y+1270
X+24740Y+1270
X+27280Y+1270
X+29820Y+1270
X+29820Y-1270
X+27280Y-1270
X+24740Y-1270
X+22200Y-1270
X+19660Y-1270
X+17120Y-1270
X+14580Y-1270
X+12040Y-1270
X+9500Y-1270
X+6960Y-1270
X+4420Y-1270
X+1880Y-1270
X-660Y-1270
X-3200Y-1270
X-5740Y-1270
X-8280Y-1270
X-10820Y-1270
X-29250Y+10020
X-26710Y+10020
X-21630Y+10020
X-19090Y+10020
X-14010Y+10020
X-11470Y+10020
X-8930Y+10020
X-3850Y+10020
X-1310Y+10020
X+1230Y+10020
X+3770Y+10020
X+8850Y+10020
X+11390Y+10020
X+13930Y+10020
X+16470Y+10020
X+21550Y+10020
X+24090Y+10020
X+26630Y+10020
X+29170Y+10020
X+21600Y-9900
X+24140Y-9900
X+26680Y-9900
X+29220Y-9900
X+8900Y-9900
X+11440Y-9900
X+13980Y-9900
X+16520Y-9900
X-3800Y-9900
X-1260Y-9900
X+1280Y-9900
X+3820Y-9900
X-21630Y-9906
X-19090Y-9906
X-14010Y-9906
X-11470Y-9906
X-29210Y-9906
X-26670Y-9906
T03
X-25540Y-2410
X-25540Y+2670
M30
