G04 PROTEUS RS274X GERBER FILE*
%FSLAX45Y45*%
%MOMM*%
G01*
%ADD10C,0.254000*%
%ADD11C,0.304800*%
%ADD12C,1.778000*%
%ADD13C,0.508000*%
%ADD14R,1.778000X1.778000*%
%ADD15C,3.048000*%
%ADD16C,2.032000*%
%ADD17C,0.203200*%
G36*
X+3250000Y-1500000D02*
X-3250000Y-1500000D01*
X-3250000Y+1500000D01*
X+3250000Y+1500000D01*
X+3250000Y-1500000D01*
G37*
%LPC*%
G36*
X+2819399Y+520326D02*
X+2819399Y+394074D01*
X+2755524Y+330199D01*
X+2886561Y+330199D01*
X+2937361Y+279399D01*
X+3134399Y+279399D01*
X+3134399Y-279399D01*
X+2931199Y-279399D01*
X+2931199Y-466560D01*
X+2918744Y-479015D01*
X+2919216Y-479487D01*
X+2919216Y-605739D01*
X+2829943Y-695012D01*
X+2703691Y-695012D01*
X+2631273Y-622594D01*
X+2631273Y-626715D01*
X+2542000Y-715988D01*
X+2415748Y-715988D01*
X+2326475Y-626715D01*
X+2326475Y-521985D01*
X+2152261Y-696199D01*
X+1232612Y-696199D01*
X+1187976Y-651563D01*
X+1187976Y-651561D01*
X+1149694Y-613280D01*
X+1083217Y-679757D01*
X+956965Y-679757D01*
X+867692Y-590484D01*
X+867692Y-464232D01*
X+956965Y-374959D01*
X+1083217Y-374959D01*
X+1159417Y-451159D01*
X+1203094Y-451159D01*
X+1257301Y-505366D01*
X+1257301Y-394074D01*
X+1346574Y-304801D01*
X+1472826Y-304801D01*
X+1549026Y-381001D01*
X+1839189Y-381001D01*
X+1940791Y-279399D01*
X+899199Y-279399D01*
X+899199Y-338901D01*
X+678179Y-559921D01*
X+678179Y-1220281D01*
X+549721Y-1348739D01*
X-2326451Y-1348739D01*
X-2529839Y-1145351D01*
X-2529839Y-1086924D01*
X-2598614Y-1155699D01*
X-2735386Y-1155699D01*
X-2794000Y-1097085D01*
X-2852614Y-1155699D01*
X-2989386Y-1155699D01*
X-3086099Y-1058986D01*
X-3086099Y-922214D01*
X-2989386Y-825501D01*
X-2852614Y-825501D01*
X-2794000Y-884115D01*
X-2735386Y-825501D01*
X-2598614Y-825501D01*
X-2529839Y-894276D01*
X-2529839Y-754086D01*
X-2590799Y-693126D01*
X-2590799Y-566874D01*
X-2501526Y-477601D01*
X-2375274Y-477601D01*
X-2286001Y-566874D01*
X-2286001Y-693126D01*
X-2375274Y-782399D01*
X-2377441Y-782399D01*
X-2377441Y-1082229D01*
X-2263329Y-1196341D01*
X+486599Y-1196341D01*
X+525781Y-1157159D01*
X+525781Y-1079704D01*
X+450386Y-1155099D01*
X+313614Y-1155099D01*
X+255000Y-1096485D01*
X+196386Y-1155099D01*
X+59614Y-1155099D01*
X+1000Y-1096485D01*
X-57614Y-1155099D01*
X-194386Y-1155099D01*
X-253000Y-1096485D01*
X-311614Y-1155099D01*
X-448386Y-1155099D01*
X-545099Y-1058386D01*
X-545099Y-921614D01*
X-448386Y-824901D01*
X-311614Y-824901D01*
X-253000Y-883515D01*
X-194386Y-824901D01*
X-57614Y-824901D01*
X+1000Y-883515D01*
X+59614Y-824901D01*
X+196386Y-824901D01*
X+255000Y-883515D01*
X+313614Y-824901D01*
X+450386Y-824901D01*
X+525781Y-900296D01*
X+525781Y-496799D01*
X+743181Y-279399D01*
X+391199Y-279399D01*
X+391199Y-376963D01*
X+346563Y-421599D01*
X+346561Y-421599D01*
X+285778Y-482382D01*
X+285778Y-594298D01*
X+196505Y-683571D01*
X+70253Y-683571D01*
X-19020Y-594298D01*
X-19020Y-468046D01*
X+70253Y-378773D01*
X+173867Y-378773D01*
X+238801Y-313839D01*
X+238801Y-279399D01*
X+137199Y-279399D01*
X+137199Y-286811D01*
X-109389Y-533399D01*
X-203574Y-533399D01*
X-279774Y-609599D01*
X-406026Y-609599D01*
X-495299Y-520326D01*
X-495299Y-394074D01*
X-406026Y-304801D01*
X-279774Y-304801D01*
X-203574Y-381001D01*
X-172511Y-381001D01*
X-70909Y-279399D01*
X-1234399Y-279399D01*
X-1234399Y+279399D01*
X-783361Y+279399D01*
X-529361Y+533399D01*
X+2527674Y+533399D01*
X+2603874Y+609599D01*
X+2730126Y+609599D01*
X+2819399Y+520326D01*
G37*
G36*
X-2464572Y-456899D02*
X-2643428Y-456899D01*
X-2769899Y-330428D01*
X-2769899Y-151572D01*
X-2643428Y-25101D01*
X-2464572Y-25101D01*
X-2338101Y-151572D01*
X-2338101Y-330428D01*
X-2464572Y-456899D01*
G37*
G36*
X-2464572Y+51101D02*
X-2643428Y+51101D01*
X-2769899Y+177572D01*
X-2769899Y+356428D01*
X-2643428Y+482899D01*
X-2464572Y+482899D01*
X-2338101Y+356428D01*
X-2338101Y+177572D01*
X-2464572Y+51101D01*
G37*
G36*
X-2505901Y+1070386D02*
X-2505901Y+933614D01*
X-2602614Y+836901D01*
X-2739386Y+836901D01*
X-2798000Y+895515D01*
X-2856614Y+836901D01*
X-2993386Y+836901D01*
X-3090099Y+933614D01*
X-3090099Y+1070386D01*
X-2993386Y+1167099D01*
X-2856614Y+1167099D01*
X-2798000Y+1108485D01*
X-2739386Y+1167099D01*
X-2602614Y+1167099D01*
X-2505901Y+1070386D01*
G37*
G36*
X-1743901Y+1070386D02*
X-1743901Y+933614D01*
X-1840614Y+836901D01*
X-1977386Y+836901D01*
X-2036000Y+895515D01*
X-2094614Y+836901D01*
X-2231386Y+836901D01*
X-2328099Y+933614D01*
X-2328099Y+1070386D01*
X-2231386Y+1167099D01*
X-2094614Y+1167099D01*
X-2036000Y+1108485D01*
X-1977386Y+1167099D01*
X-1840614Y+1167099D01*
X-1743901Y+1070386D01*
G37*
G36*
X-727901Y+1070386D02*
X-727901Y+933614D01*
X-824614Y+836901D01*
X-961386Y+836901D01*
X-1020000Y+895515D01*
X-1078614Y+836901D01*
X-1215386Y+836901D01*
X-1274000Y+895515D01*
X-1332614Y+836901D01*
X-1469386Y+836901D01*
X-1566099Y+933614D01*
X-1566099Y+1070386D01*
X-1469386Y+1167099D01*
X-1332614Y+1167099D01*
X-1274000Y+1108485D01*
X-1215386Y+1167099D01*
X-1078614Y+1167099D01*
X-1020000Y+1108485D01*
X-961386Y+1167099D01*
X-824614Y+1167099D01*
X-727901Y+1070386D01*
G37*
G36*
X+542099Y+1070386D02*
X+542099Y+933614D01*
X+445386Y+836901D01*
X+308614Y+836901D01*
X+250000Y+895515D01*
X+191386Y+836901D01*
X+54614Y+836901D01*
X-4000Y+895515D01*
X-62614Y+836901D01*
X-199386Y+836901D01*
X-258000Y+895515D01*
X-316614Y+836901D01*
X-453386Y+836901D01*
X-550099Y+933614D01*
X-550099Y+1070386D01*
X-453386Y+1167099D01*
X-316614Y+1167099D01*
X-258000Y+1108485D01*
X-199386Y+1167099D01*
X-62614Y+1167099D01*
X-4000Y+1108485D01*
X+54614Y+1167099D01*
X+191386Y+1167099D01*
X+250000Y+1108485D01*
X+308614Y+1167099D01*
X+445386Y+1167099D01*
X+542099Y+1070386D01*
G37*
G36*
X+1812099Y+1070386D02*
X+1812099Y+933614D01*
X+1715386Y+836901D01*
X+1578614Y+836901D01*
X+1520000Y+895515D01*
X+1461386Y+836901D01*
X+1324614Y+836901D01*
X+1266000Y+895515D01*
X+1207386Y+836901D01*
X+1070614Y+836901D01*
X+1012000Y+895515D01*
X+953386Y+836901D01*
X+816614Y+836901D01*
X+719901Y+933614D01*
X+719901Y+1070386D01*
X+816614Y+1167099D01*
X+953386Y+1167099D01*
X+1012000Y+1108485D01*
X+1070614Y+1167099D01*
X+1207386Y+1167099D01*
X+1266000Y+1108485D01*
X+1324614Y+1167099D01*
X+1461386Y+1167099D01*
X+1520000Y+1108485D01*
X+1578614Y+1167099D01*
X+1715386Y+1167099D01*
X+1812099Y+1070386D01*
G37*
G36*
X+3082099Y+1070386D02*
X+3082099Y+933614D01*
X+2985386Y+836901D01*
X+2848614Y+836901D01*
X+2790000Y+895515D01*
X+2731386Y+836901D01*
X+2594614Y+836901D01*
X+2536000Y+895515D01*
X+2477386Y+836901D01*
X+2340614Y+836901D01*
X+2282000Y+895515D01*
X+2223386Y+836901D01*
X+2086614Y+836901D01*
X+1989901Y+933614D01*
X+1989901Y+1070386D01*
X+2086614Y+1167099D01*
X+2223386Y+1167099D01*
X+2282000Y+1108485D01*
X+2340614Y+1167099D01*
X+2477386Y+1167099D01*
X+2536000Y+1108485D01*
X+2594614Y+1167099D01*
X+2731386Y+1167099D01*
X+2790000Y+1108485D01*
X+2848614Y+1167099D01*
X+2985386Y+1167099D01*
X+3082099Y+1070386D01*
G37*
G36*
X+3087099Y-921614D02*
X+3087099Y-1058386D01*
X+2990386Y-1155099D01*
X+2853614Y-1155099D01*
X+2795000Y-1096485D01*
X+2736386Y-1155099D01*
X+2599614Y-1155099D01*
X+2541000Y-1096485D01*
X+2482386Y-1155099D01*
X+2345614Y-1155099D01*
X+2287000Y-1096485D01*
X+2228386Y-1155099D01*
X+2091614Y-1155099D01*
X+1994901Y-1058386D01*
X+1994901Y-921614D01*
X+2091614Y-824901D01*
X+2228386Y-824901D01*
X+2287000Y-883515D01*
X+2345614Y-824901D01*
X+2482386Y-824901D01*
X+2541000Y-883515D01*
X+2599614Y-824901D01*
X+2736386Y-824901D01*
X+2795000Y-883515D01*
X+2853614Y-824901D01*
X+2990386Y-824901D01*
X+3087099Y-921614D01*
G37*
G36*
X+1817099Y-921614D02*
X+1817099Y-1058386D01*
X+1720386Y-1155099D01*
X+1583614Y-1155099D01*
X+1525000Y-1096485D01*
X+1466386Y-1155099D01*
X+1329614Y-1155099D01*
X+1271000Y-1096485D01*
X+1212386Y-1155099D01*
X+1075614Y-1155099D01*
X+1017000Y-1096485D01*
X+958386Y-1155099D01*
X+821614Y-1155099D01*
X+724901Y-1058386D01*
X+724901Y-921614D01*
X+821614Y-824901D01*
X+958386Y-824901D01*
X+1017000Y-883515D01*
X+1075614Y-824901D01*
X+1212386Y-824901D01*
X+1271000Y-883515D01*
X+1329614Y-824901D01*
X+1466386Y-824901D01*
X+1525000Y-883515D01*
X+1583614Y-824901D01*
X+1720386Y-824901D01*
X+1817099Y-921614D01*
G37*
G36*
X-1743901Y-922214D02*
X-1743901Y-1058986D01*
X-1840614Y-1155699D01*
X-1977386Y-1155699D01*
X-2036000Y-1097085D01*
X-2094614Y-1155699D01*
X-2231386Y-1155699D01*
X-2328099Y-1058986D01*
X-2328099Y-922214D01*
X-2231386Y-825501D01*
X-2094614Y-825501D01*
X-2036000Y-884115D01*
X-1977386Y-825501D01*
X-1840614Y-825501D01*
X-1743901Y-922214D01*
G37*
G36*
X-981901Y-922214D02*
X-981901Y-1058986D01*
X-1078614Y-1155699D01*
X-1215386Y-1155699D01*
X-1274000Y-1097085D01*
X-1332614Y-1155699D01*
X-1469386Y-1155699D01*
X-1566099Y-1058986D01*
X-1566099Y-922214D01*
X-1469386Y-825501D01*
X-1332614Y-825501D01*
X-1274000Y-884115D01*
X-1215386Y-825501D01*
X-1078614Y-825501D01*
X-981901Y-922214D01*
G37*
G36*
X+2959100Y+436158D02*
X+2959100Y+478242D01*
X+2988858Y+508000D01*
X+3030942Y+508000D01*
X+3060700Y+478242D01*
X+3060700Y+436158D01*
X+3030942Y+406400D01*
X+2988858Y+406400D01*
X+2959100Y+436158D01*
G37*
G36*
X-1993878Y-641042D02*
X-1993878Y-598958D01*
X-1964120Y-569200D01*
X-1922036Y-569200D01*
X-1892278Y-598958D01*
X-1892278Y-641042D01*
X-1922036Y-670800D01*
X-1964120Y-670800D01*
X-1993878Y-641042D01*
G37*
%LPD*%
D10*
X+2667000Y+457200D02*
X-497800Y+457200D01*
X-828000Y+127000D01*
X+1409700Y-457200D02*
X+1870750Y-457200D01*
X+2093000Y-234950D01*
X+2093000Y+0D01*
X+2220000Y+127000D01*
X-342900Y-457200D02*
X-140950Y-457200D01*
X+61000Y-255250D01*
X+61000Y+237608D01*
X+133272Y+309880D01*
X+1783120Y+309880D01*
X+1966000Y+127000D01*
D11*
X-1520000Y-127000D02*
X-1212213Y+180787D01*
X-1212213Y+241983D01*
X-807864Y+646332D01*
X+80567Y+646332D01*
X+2820768Y+646332D01*
X-1082000Y-127000D02*
X-1520000Y-127000D01*
X-1689100Y-127000D01*
X-1943078Y-380978D01*
X-1943078Y-620000D01*
X+3009900Y+457200D02*
X+2820768Y+646332D01*
D10*
X+315000Y-345400D02*
X+304800Y-355600D01*
X+133379Y-527021D01*
X+133379Y-531172D01*
X+315000Y-345400D02*
X+315000Y+234950D01*
X+334050Y+254000D01*
X+1585000Y+254000D01*
X+1712000Y+127000D01*
X+2478874Y-563589D02*
X+2478874Y-482766D01*
X+2505820Y-455820D01*
X+2601000Y-360640D01*
X+2601000Y+234950D01*
X+2620050Y+254000D01*
X+2855000Y+254000D01*
X+2982000Y+127000D01*
X+2766817Y-542613D02*
X+2766817Y-523182D01*
X+2855000Y-434999D01*
X+2855000Y+0D01*
X+2728000Y+127000D01*
X+1020091Y-527358D02*
X+1171533Y-527358D01*
X+1264175Y-620000D01*
X+2120700Y-620000D01*
X+2347000Y-393700D01*
X+2347000Y+0D01*
X+2474000Y+127000D01*
X-2438400Y-630000D02*
X-2453640Y-701040D01*
X-2453640Y-1113790D01*
X-2294890Y-1272540D01*
X+518160Y-1272540D01*
X+601980Y-1188720D01*
X+601980Y-528360D01*
X+823000Y-307340D01*
X+823000Y-20320D01*
X+843320Y+0D01*
X+1331000Y+0D01*
X+1458000Y+127000D01*
D12*
X+3009900Y+457200D03*
X+2667000Y+457200D03*
X+1409700Y-457200D03*
X-342900Y-457200D03*
X-1943078Y-620000D03*
X+133379Y-531172D03*
X+2478874Y-563589D03*
X+2766817Y-542613D03*
X+1020091Y-527358D03*
X-2438400Y-630000D03*
D13*
X+3250000Y-1500000D02*
X-3250000Y-1500000D01*
X-3250000Y+1500000D01*
X+3250000Y+1500000D01*
X+3250000Y-1500000D01*
X+2819399Y+520326D02*
X+2819399Y+394074D01*
X+2755524Y+330199D01*
X+2886561Y+330199D01*
X+2937361Y+279399D01*
X+3134399Y+279399D01*
X+3134399Y-279399D01*
X+2931199Y-279399D01*
X+2931199Y-466560D01*
X+2918744Y-479015D01*
X+2919216Y-479487D01*
X+2919216Y-605739D01*
X+2829943Y-695012D01*
X+2703691Y-695012D01*
X+2631273Y-622594D01*
X+2631273Y-626715D01*
X+2542000Y-715988D01*
X+2415748Y-715988D01*
X+2326475Y-626715D01*
X+2326475Y-521985D01*
X+2152261Y-696199D01*
X+1232612Y-696199D01*
X+1187976Y-651563D01*
X+1187976Y-651561D01*
X+1149694Y-613280D01*
X+1083217Y-679757D01*
X+956965Y-679757D01*
X+867692Y-590484D01*
X+867692Y-464232D01*
X+956965Y-374959D01*
X+1083217Y-374959D01*
X+1159417Y-451159D01*
X+1203094Y-451159D01*
X+1257301Y-505366D01*
X+1257301Y-394074D01*
X+1346574Y-304801D01*
X+1472826Y-304801D01*
X+1549026Y-381001D01*
X+1839189Y-381001D01*
X+1940791Y-279399D01*
X+899199Y-279399D01*
X+899199Y-338901D01*
X+678179Y-559921D01*
X+678179Y-1220281D01*
X+549721Y-1348739D01*
X-2326451Y-1348739D01*
X-2529839Y-1145351D01*
X-2529839Y-1086924D01*
X-2598614Y-1155699D01*
X-2735386Y-1155699D01*
X-2794000Y-1097085D01*
X-2852614Y-1155699D01*
X-2989386Y-1155699D01*
X-3086099Y-1058986D01*
X-3086099Y-922214D01*
X-2989386Y-825501D01*
X-2852614Y-825501D01*
X-2794000Y-884115D01*
X-2735386Y-825501D01*
X-2598614Y-825501D01*
X-2529839Y-894276D01*
X-2529839Y-754086D01*
X-2590799Y-693126D01*
X-2590799Y-566874D01*
X-2501526Y-477601D01*
X-2375274Y-477601D01*
X-2286001Y-566874D01*
X-2286001Y-693126D01*
X-2375274Y-782399D01*
X-2377441Y-782399D01*
X-2377441Y-1082229D01*
X-2263329Y-1196341D01*
X+486599Y-1196341D01*
X+525781Y-1157159D01*
X+525781Y-1079704D01*
X+450386Y-1155099D01*
X+313614Y-1155099D01*
X+255000Y-1096485D01*
X+196386Y-1155099D01*
X+59614Y-1155099D01*
X+1000Y-1096485D01*
X-57614Y-1155099D01*
X-194386Y-1155099D01*
X-253000Y-1096485D01*
X-311614Y-1155099D01*
X-448386Y-1155099D01*
X-545099Y-1058386D01*
X-545099Y-921614D01*
X-448386Y-824901D01*
X-311614Y-824901D01*
X-253000Y-883515D01*
X-194386Y-824901D01*
X-57614Y-824901D01*
X+1000Y-883515D01*
X+59614Y-824901D01*
X+196386Y-824901D01*
X+255000Y-883515D01*
X+313614Y-824901D01*
X+450386Y-824901D01*
X+525781Y-900296D01*
X+525781Y-496799D01*
X+743181Y-279399D01*
X+391199Y-279399D01*
X+391199Y-376963D01*
X+346563Y-421599D01*
X+346561Y-421599D01*
X+285778Y-482382D01*
X+285778Y-594298D01*
X+196505Y-683571D01*
X+70253Y-683571D01*
X-19020Y-594298D01*
X-19020Y-468046D01*
X+70253Y-378773D01*
X+173867Y-378773D01*
X+238801Y-313839D01*
X+238801Y-279399D01*
X+137199Y-279399D01*
X+137199Y-286811D01*
X-109389Y-533399D01*
X-203574Y-533399D01*
X-279774Y-609599D01*
X-406026Y-609599D01*
X-495299Y-520326D01*
X-495299Y-394074D01*
X-406026Y-304801D01*
X-279774Y-304801D01*
X-203574Y-381001D01*
X-172511Y-381001D01*
X-70909Y-279399D01*
X-1234399Y-279399D01*
X-1234399Y+279399D01*
X-783361Y+279399D01*
X-529361Y+533399D01*
X+2527674Y+533399D01*
X+2603874Y+609599D01*
X+2730126Y+609599D01*
X+2819399Y+520326D01*
X-2464572Y-456899D02*
X-2643428Y-456899D01*
X-2769899Y-330428D01*
X-2769899Y-151572D01*
X-2643428Y-25101D01*
X-2464572Y-25101D01*
X-2338101Y-151572D01*
X-2338101Y-330428D01*
X-2464572Y-456899D01*
X-2464572Y+51101D02*
X-2643428Y+51101D01*
X-2769899Y+177572D01*
X-2769899Y+356428D01*
X-2643428Y+482899D01*
X-2464572Y+482899D01*
X-2338101Y+356428D01*
X-2338101Y+177572D01*
X-2464572Y+51101D01*
X-2505901Y+1070386D02*
X-2505901Y+933614D01*
X-2602614Y+836901D01*
X-2739386Y+836901D01*
X-2798000Y+895515D01*
X-2856614Y+836901D01*
X-2993386Y+836901D01*
X-3090099Y+933614D01*
X-3090099Y+1070386D01*
X-2993386Y+1167099D01*
X-2856614Y+1167099D01*
X-2798000Y+1108485D01*
X-2739386Y+1167099D01*
X-2602614Y+1167099D01*
X-2505901Y+1070386D01*
X-1743901Y+1070386D02*
X-1743901Y+933614D01*
X-1840614Y+836901D01*
X-1977386Y+836901D01*
X-2036000Y+895515D01*
X-2094614Y+836901D01*
X-2231386Y+836901D01*
X-2328099Y+933614D01*
X-2328099Y+1070386D01*
X-2231386Y+1167099D01*
X-2094614Y+1167099D01*
X-2036000Y+1108485D01*
X-1977386Y+1167099D01*
X-1840614Y+1167099D01*
X-1743901Y+1070386D01*
X-727901Y+1070386D02*
X-727901Y+933614D01*
X-824614Y+836901D01*
X-961386Y+836901D01*
X-1020000Y+895515D01*
X-1078614Y+836901D01*
X-1215386Y+836901D01*
X-1274000Y+895515D01*
X-1332614Y+836901D01*
X-1469386Y+836901D01*
X-1566099Y+933614D01*
X-1566099Y+1070386D01*
X-1469386Y+1167099D01*
X-1332614Y+1167099D01*
X-1274000Y+1108485D01*
X-1215386Y+1167099D01*
X-1078614Y+1167099D01*
X-1020000Y+1108485D01*
X-961386Y+1167099D01*
X-824614Y+1167099D01*
X-727901Y+1070386D01*
X+542099Y+1070386D02*
X+542099Y+933614D01*
X+445386Y+836901D01*
X+308614Y+836901D01*
X+250000Y+895515D01*
X+191386Y+836901D01*
X+54614Y+836901D01*
X-4000Y+895515D01*
X-62614Y+836901D01*
X-199386Y+836901D01*
X-258000Y+895515D01*
X-316614Y+836901D01*
X-453386Y+836901D01*
X-550099Y+933614D01*
X-550099Y+1070386D01*
X-453386Y+1167099D01*
X-316614Y+1167099D01*
X-258000Y+1108485D01*
X-199386Y+1167099D01*
X-62614Y+1167099D01*
X-4000Y+1108485D01*
X+54614Y+1167099D01*
X+191386Y+1167099D01*
X+250000Y+1108485D01*
X+308614Y+1167099D01*
X+445386Y+1167099D01*
X+542099Y+1070386D01*
X+1812099Y+1070386D02*
X+1812099Y+933614D01*
X+1715386Y+836901D01*
X+1578614Y+836901D01*
X+1520000Y+895515D01*
X+1461386Y+836901D01*
X+1324614Y+836901D01*
X+1266000Y+895515D01*
X+1207386Y+836901D01*
X+1070614Y+836901D01*
X+1012000Y+895515D01*
X+953386Y+836901D01*
X+816614Y+836901D01*
X+719901Y+933614D01*
X+719901Y+1070386D01*
X+816614Y+1167099D01*
X+953386Y+1167099D01*
X+1012000Y+1108485D01*
X+1070614Y+1167099D01*
X+1207386Y+1167099D01*
X+1266000Y+1108485D01*
X+1324614Y+1167099D01*
X+1461386Y+1167099D01*
X+1520000Y+1108485D01*
X+1578614Y+1167099D01*
X+1715386Y+1167099D01*
X+1812099Y+1070386D01*
X+3082099Y+1070386D02*
X+3082099Y+933614D01*
X+2985386Y+836901D01*
X+2848614Y+836901D01*
X+2790000Y+895515D01*
X+2731386Y+836901D01*
X+2594614Y+836901D01*
X+2536000Y+895515D01*
X+2477386Y+836901D01*
X+2340614Y+836901D01*
X+2282000Y+895515D01*
X+2223386Y+836901D01*
X+2086614Y+836901D01*
X+1989901Y+933614D01*
X+1989901Y+1070386D01*
X+2086614Y+1167099D01*
X+2223386Y+1167099D01*
X+2282000Y+1108485D01*
X+2340614Y+1167099D01*
X+2477386Y+1167099D01*
X+2536000Y+1108485D01*
X+2594614Y+1167099D01*
X+2731386Y+1167099D01*
X+2790000Y+1108485D01*
X+2848614Y+1167099D01*
X+2985386Y+1167099D01*
X+3082099Y+1070386D01*
X+3087099Y-921614D02*
X+3087099Y-1058386D01*
X+2990386Y-1155099D01*
X+2853614Y-1155099D01*
X+2795000Y-1096485D01*
X+2736386Y-1155099D01*
X+2599614Y-1155099D01*
X+2541000Y-1096485D01*
X+2482386Y-1155099D01*
X+2345614Y-1155099D01*
X+2287000Y-1096485D01*
X+2228386Y-1155099D01*
X+2091614Y-1155099D01*
X+1994901Y-1058386D01*
X+1994901Y-921614D01*
X+2091614Y-824901D01*
X+2228386Y-824901D01*
X+2287000Y-883515D01*
X+2345614Y-824901D01*
X+2482386Y-824901D01*
X+2541000Y-883515D01*
X+2599614Y-824901D01*
X+2736386Y-824901D01*
X+2795000Y-883515D01*
X+2853614Y-824901D01*
X+2990386Y-824901D01*
X+3087099Y-921614D01*
X+1817099Y-921614D02*
X+1817099Y-1058386D01*
X+1720386Y-1155099D01*
X+1583614Y-1155099D01*
X+1525000Y-1096485D01*
X+1466386Y-1155099D01*
X+1329614Y-1155099D01*
X+1271000Y-1096485D01*
X+1212386Y-1155099D01*
X+1075614Y-1155099D01*
X+1017000Y-1096485D01*
X+958386Y-1155099D01*
X+821614Y-1155099D01*
X+724901Y-1058386D01*
X+724901Y-921614D01*
X+821614Y-824901D01*
X+958386Y-824901D01*
X+1017000Y-883515D01*
X+1075614Y-824901D01*
X+1212386Y-824901D01*
X+1271000Y-883515D01*
X+1329614Y-824901D01*
X+1466386Y-824901D01*
X+1525000Y-883515D01*
X+1583614Y-824901D01*
X+1720386Y-824901D01*
X+1817099Y-921614D01*
X-1743901Y-922214D02*
X-1743901Y-1058986D01*
X-1840614Y-1155699D01*
X-1977386Y-1155699D01*
X-2036000Y-1097085D01*
X-2094614Y-1155699D01*
X-2231386Y-1155699D01*
X-2328099Y-1058986D01*
X-2328099Y-922214D01*
X-2231386Y-825501D01*
X-2094614Y-825501D01*
X-2036000Y-884115D01*
X-1977386Y-825501D01*
X-1840614Y-825501D01*
X-1743901Y-922214D01*
X-981901Y-922214D02*
X-981901Y-1058986D01*
X-1078614Y-1155699D01*
X-1215386Y-1155699D01*
X-1274000Y-1097085D01*
X-1332614Y-1155699D01*
X-1469386Y-1155699D01*
X-1566099Y-1058986D01*
X-1566099Y-922214D01*
X-1469386Y-825501D01*
X-1332614Y-825501D01*
X-1274000Y-884115D01*
X-1215386Y-825501D01*
X-1078614Y-825501D01*
X-981901Y-922214D01*
X+2959100Y+436158D02*
X+2959100Y+478242D01*
X+2988858Y+508000D01*
X+3030942Y+508000D01*
X+3060700Y+478242D01*
X+3060700Y+436158D01*
X+3030942Y+406400D01*
X+2988858Y+406400D01*
X+2959100Y+436158D01*
X-1993878Y-641042D02*
X-1993878Y-598958D01*
X-1964120Y-569200D01*
X-1922036Y-569200D01*
X-1892278Y-598958D01*
X-1892278Y-641042D01*
X-1922036Y-670800D01*
X-1964120Y-670800D01*
X-1993878Y-641042D01*
X-1234399Y-127000D02*
X-1082000Y-127000D01*
X-1082000Y-279399D02*
X-1082000Y-127000D01*
X-2554000Y+51101D02*
X-2554000Y+267000D01*
X-2554000Y+482899D02*
X-2554000Y+267000D01*
X-2338101Y+267000D02*
X-2554000Y+267000D01*
X-2769899Y+267000D02*
X-2554000Y+267000D01*
X+3082099Y+1002000D02*
X+2917000Y+1002000D01*
X+2917000Y+836901D02*
X+2917000Y+1002000D01*
X+2917000Y+1167099D02*
X+2917000Y+1002000D01*
X+2414000Y-1155099D02*
X+2414000Y-990000D01*
X+2414000Y-824901D02*
X+2414000Y-990000D01*
X+3087099Y-990000D02*
X+2922000Y-990000D01*
X+2922000Y-1155099D02*
X+2922000Y-990000D01*
X+2922000Y-824901D02*
X+2922000Y-990000D01*
X+1144000Y-1155099D02*
X+1144000Y-990000D01*
X+1144000Y-824901D02*
X+1144000Y-990000D01*
X+1817099Y-990000D02*
X+1652000Y-990000D01*
X+1652000Y-1155099D02*
X+1652000Y-990000D01*
X+1652000Y-824901D02*
X+1652000Y-990000D01*
X-126000Y-1155099D02*
X-126000Y-990000D01*
X-126000Y-824901D02*
X-126000Y-990000D01*
X+382000Y-1155099D02*
X+382000Y-990000D01*
X+382000Y-824901D02*
X+382000Y-990000D01*
D14*
X-1082000Y+127000D03*
X-828000Y+127000D03*
X-574000Y+127000D03*
X-320000Y+127000D03*
X-66000Y+127000D03*
X+188000Y+127000D03*
X+442000Y+127000D03*
X+696000Y+127000D03*
X+950000Y+127000D03*
X+1204000Y+127000D03*
X+1458000Y+127000D03*
X+1712000Y+127000D03*
X+1966000Y+127000D03*
X+2220000Y+127000D03*
X+2474000Y+127000D03*
X+2728000Y+127000D03*
X+2982000Y+127000D03*
X+2982000Y-127000D03*
X+2728000Y-127000D03*
X+2474000Y-127000D03*
X+2220000Y-127000D03*
X+1966000Y-127000D03*
X+1712000Y-127000D03*
X+1458000Y-127000D03*
X+1204000Y-127000D03*
X+950000Y-127000D03*
X+696000Y-127000D03*
X+442000Y-127000D03*
X+188000Y-127000D03*
X-66000Y-127000D03*
X-320000Y-127000D03*
X-574000Y-127000D03*
X-828000Y-127000D03*
X-1082000Y-127000D03*
D15*
X-2554000Y-241000D03*
X-2554000Y+267000D03*
D16*
X-2925000Y+1002000D03*
X-2671000Y+1002000D03*
X-2163000Y+1002000D03*
X-1909000Y+1002000D03*
X-1401000Y+1002000D03*
X-1147000Y+1002000D03*
X-893000Y+1002000D03*
X-385000Y+1002000D03*
X-131000Y+1002000D03*
X+123000Y+1002000D03*
X+377000Y+1002000D03*
X+885000Y+1002000D03*
X+1139000Y+1002000D03*
X+1393000Y+1002000D03*
X+1647000Y+1002000D03*
X+2155000Y+1002000D03*
X+2409000Y+1002000D03*
X+2663000Y+1002000D03*
X+2917000Y+1002000D03*
X+2160000Y-990000D03*
X+2414000Y-990000D03*
X+2668000Y-990000D03*
X+2922000Y-990000D03*
X+890000Y-990000D03*
X+1144000Y-990000D03*
X+1398000Y-990000D03*
X+1652000Y-990000D03*
X-380000Y-990000D03*
X-126000Y-990000D03*
X+128000Y-990000D03*
X+382000Y-990000D03*
X-2163000Y-990600D03*
X-1909000Y-990600D03*
X-1401000Y-990600D03*
X-1147000Y-990600D03*
X-2921000Y-990600D03*
X-2667000Y-990600D03*
D17*
X-3250000Y-1500000D02*
X+3250000Y-1500000D01*
X+3250000Y+1500000D01*
X-3250000Y+1500000D01*
X-3250000Y-1500000D01*
M02*
