G04 PROTEUS RS274X GERBER FILE*
%FSLAX45Y45*%
%MOMM*%
G01*
%ADD16C,2.032000*%
%AMPPAD008*
4,1,36,
-0.889000,-1.016000,
0.889000,-1.016000,
0.914970,-1.013470,
0.938980,-1.006200,
0.960580,-0.994650,
0.979290,-0.979290,
0.994650,-0.960570,
1.006200,-0.938980,
1.013470,-0.914970,
1.016000,-0.889000,
1.016000,0.889000,
1.013470,0.914970,
1.006200,0.938980,
0.994650,0.960570,
0.979290,0.979290,
0.960580,0.994650,
0.938980,1.006200,
0.914970,1.013470,
0.889000,1.016000,
-0.889000,1.016000,
-0.914970,1.013470,
-0.938980,1.006200,
-0.960580,0.994650,
-0.979290,0.979290,
-0.994650,0.960570,
-1.006200,0.938980,
-1.013470,0.914970,
-1.016000,0.889000,
-1.016000,-0.889000,
-1.013470,-0.914970,
-1.006200,-0.938980,
-0.994650,-0.960570,
-0.979290,-0.979290,
-0.960580,-0.994650,
-0.938980,-1.006200,
-0.914970,-1.013470,
-0.889000,-1.016000,
0*%
%ADD18PPAD008*%
%ADD19C,3.302000*%
%ADD70C,2.286000*%
%ADD17C,0.203200*%
D16*
X+3009900Y+457200D03*
X+2667000Y+457200D03*
X+1409700Y-457200D03*
X-342900Y-457200D03*
X-1943078Y-620000D03*
X+133379Y-531172D03*
X+2478874Y-563589D03*
X+2766817Y-542613D03*
X+1020091Y-527358D03*
X-2438400Y-630000D03*
D18*
X-1082000Y+127000D03*
X-828000Y+127000D03*
X-574000Y+127000D03*
X-320000Y+127000D03*
X-66000Y+127000D03*
X+188000Y+127000D03*
X+442000Y+127000D03*
X+696000Y+127000D03*
X+950000Y+127000D03*
X+1204000Y+127000D03*
X+1458000Y+127000D03*
X+1712000Y+127000D03*
X+1966000Y+127000D03*
X+2220000Y+127000D03*
X+2474000Y+127000D03*
X+2728000Y+127000D03*
X+2982000Y+127000D03*
X+2982000Y-127000D03*
X+2728000Y-127000D03*
X+2474000Y-127000D03*
X+2220000Y-127000D03*
X+1966000Y-127000D03*
X+1712000Y-127000D03*
X+1458000Y-127000D03*
X+1204000Y-127000D03*
X+950000Y-127000D03*
X+696000Y-127000D03*
X+442000Y-127000D03*
X+188000Y-127000D03*
X-66000Y-127000D03*
X-320000Y-127000D03*
X-574000Y-127000D03*
X-828000Y-127000D03*
X-1082000Y-127000D03*
D19*
X-2554000Y-241000D03*
X-2554000Y+267000D03*
D70*
X-2925000Y+1002000D03*
X-2671000Y+1002000D03*
X-2163000Y+1002000D03*
X-1909000Y+1002000D03*
X-1401000Y+1002000D03*
X-1147000Y+1002000D03*
X-893000Y+1002000D03*
X-385000Y+1002000D03*
X-131000Y+1002000D03*
X+123000Y+1002000D03*
X+377000Y+1002000D03*
X+885000Y+1002000D03*
X+1139000Y+1002000D03*
X+1393000Y+1002000D03*
X+1647000Y+1002000D03*
X+2155000Y+1002000D03*
X+2409000Y+1002000D03*
X+2663000Y+1002000D03*
X+2917000Y+1002000D03*
X+2160000Y-990000D03*
X+2414000Y-990000D03*
X+2668000Y-990000D03*
X+2922000Y-990000D03*
X+890000Y-990000D03*
X+1144000Y-990000D03*
X+1398000Y-990000D03*
X+1652000Y-990000D03*
X-380000Y-990000D03*
X-126000Y-990000D03*
X+128000Y-990000D03*
X+382000Y-990000D03*
X-2163000Y-990600D03*
X-1909000Y-990600D03*
X-1401000Y-990600D03*
X-1147000Y-990600D03*
X-2921000Y-990600D03*
X-2667000Y-990600D03*
D17*
X-3250000Y-1500000D02*
X+3250000Y-1500000D01*
X+3250000Y+1500000D01*
X-3250000Y+1500000D01*
X-3250000Y-1500000D01*
M02*
